%TF.GenerationSoftware,KiCad,Pcbnew,(5.1.10)-1*%
%TF.CreationDate,2021-12-22T14:35:30+01:00*%
%TF.ProjectId,vca_main_board,7663615f-6d61-4696-9e5f-626f6172642e,rev?*%
%TF.SameCoordinates,Original*%
%TF.FileFunction,Legend,Top*%
%TF.FilePolarity,Positive*%
%FSLAX46Y46*%
G04 Gerber Fmt 4.6, Leading zero omitted, Abs format (unit mm)*
G04 Created by KiCad (PCBNEW (5.1.10)-1) date 2021-12-22 14:35:30*
%MOMM*%
%LPD*%
G01*
G04 APERTURE LIST*
%ADD10C,0.250000*%
%ADD11C,0.300000*%
%ADD12C,0.500000*%
%ADD13C,0.800000*%
%ADD14C,0.120000*%
%ADD15C,0.150000*%
G04 APERTURE END LIST*
D10*
X31392857Y-116035714D02*
X31392857Y-115535714D01*
X32178571Y-115321428D02*
X32178571Y-116035714D01*
X30678571Y-116035714D01*
X30678571Y-115321428D01*
X30678571Y-114821428D02*
X32178571Y-113821428D01*
X30678571Y-113821428D02*
X32178571Y-114821428D01*
X30678571Y-113464285D02*
X30678571Y-112607142D01*
X32178571Y-113035714D02*
X30678571Y-113035714D01*
X31392857Y-112107142D02*
X31392857Y-111607142D01*
X32178571Y-111392857D02*
X32178571Y-112107142D01*
X30678571Y-112107142D01*
X30678571Y-111392857D01*
X32178571Y-110750000D02*
X30678571Y-110750000D01*
X32178571Y-109892857D01*
X30678571Y-109892857D01*
X32107142Y-109250000D02*
X32178571Y-109035714D01*
X32178571Y-108678571D01*
X32107142Y-108535714D01*
X32035714Y-108464285D01*
X31892857Y-108392857D01*
X31750000Y-108392857D01*
X31607142Y-108464285D01*
X31535714Y-108535714D01*
X31464285Y-108678571D01*
X31392857Y-108964285D01*
X31321428Y-109107142D01*
X31250000Y-109178571D01*
X31107142Y-109250000D01*
X30964285Y-109250000D01*
X30821428Y-109178571D01*
X30750000Y-109107142D01*
X30678571Y-108964285D01*
X30678571Y-108607142D01*
X30750000Y-108392857D01*
X32178571Y-107750000D02*
X30678571Y-107750000D01*
X30678571Y-106750000D02*
X30678571Y-106464285D01*
X30750000Y-106321428D01*
X30892857Y-106178571D01*
X31178571Y-106107142D01*
X31678571Y-106107142D01*
X31964285Y-106178571D01*
X32107142Y-106321428D01*
X32178571Y-106464285D01*
X32178571Y-106750000D01*
X32107142Y-106892857D01*
X31964285Y-107035714D01*
X31678571Y-107107142D01*
X31178571Y-107107142D01*
X30892857Y-107035714D01*
X30750000Y-106892857D01*
X30678571Y-106750000D01*
X32178571Y-105464285D02*
X30678571Y-105464285D01*
X32178571Y-104607142D01*
X30678571Y-104607142D01*
X31392857Y-102250000D02*
X31464285Y-102035714D01*
X31535714Y-101964285D01*
X31678571Y-101892857D01*
X31892857Y-101892857D01*
X32035714Y-101964285D01*
X32107142Y-102035714D01*
X32178571Y-102178571D01*
X32178571Y-102750000D01*
X30678571Y-102750000D01*
X30678571Y-102250000D01*
X30750000Y-102107142D01*
X30821428Y-102035714D01*
X30964285Y-101964285D01*
X31107142Y-101964285D01*
X31250000Y-102035714D01*
X31321428Y-102107142D01*
X31392857Y-102250000D01*
X31392857Y-102750000D01*
X31392857Y-92428571D02*
X31392857Y-91928571D01*
X32178571Y-91714285D02*
X32178571Y-92428571D01*
X30678571Y-92428571D01*
X30678571Y-91714285D01*
X30678571Y-91214285D02*
X32178571Y-90214285D01*
X30678571Y-90214285D02*
X32178571Y-91214285D01*
X30678571Y-89857142D02*
X30678571Y-89000000D01*
X32178571Y-89428571D02*
X30678571Y-89428571D01*
X31392857Y-88500000D02*
X31392857Y-88000000D01*
X32178571Y-87785714D02*
X32178571Y-88500000D01*
X30678571Y-88500000D01*
X30678571Y-87785714D01*
X32178571Y-87142857D02*
X30678571Y-87142857D01*
X32178571Y-86285714D01*
X30678571Y-86285714D01*
X32107142Y-85642857D02*
X32178571Y-85428571D01*
X32178571Y-85071428D01*
X32107142Y-84928571D01*
X32035714Y-84857142D01*
X31892857Y-84785714D01*
X31750000Y-84785714D01*
X31607142Y-84857142D01*
X31535714Y-84928571D01*
X31464285Y-85071428D01*
X31392857Y-85357142D01*
X31321428Y-85500000D01*
X31250000Y-85571428D01*
X31107142Y-85642857D01*
X30964285Y-85642857D01*
X30821428Y-85571428D01*
X30750000Y-85500000D01*
X30678571Y-85357142D01*
X30678571Y-85000000D01*
X30750000Y-84785714D01*
X32178571Y-84142857D02*
X30678571Y-84142857D01*
X30678571Y-83142857D02*
X30678571Y-82857142D01*
X30750000Y-82714285D01*
X30892857Y-82571428D01*
X31178571Y-82500000D01*
X31678571Y-82500000D01*
X31964285Y-82571428D01*
X32107142Y-82714285D01*
X32178571Y-82857142D01*
X32178571Y-83142857D01*
X32107142Y-83285714D01*
X31964285Y-83428571D01*
X31678571Y-83500000D01*
X31178571Y-83500000D01*
X30892857Y-83428571D01*
X30750000Y-83285714D01*
X30678571Y-83142857D01*
X32178571Y-81857142D02*
X30678571Y-81857142D01*
X32178571Y-81000000D01*
X30678571Y-81000000D01*
X31750000Y-79214285D02*
X31750000Y-78500000D01*
X32178571Y-79357142D02*
X30678571Y-78857142D01*
X32178571Y-78357142D01*
X143178571Y-70500000D02*
X141678571Y-70500000D01*
X141678571Y-70142857D01*
X141750000Y-69928571D01*
X141892857Y-69785714D01*
X142035714Y-69714285D01*
X142321428Y-69642857D01*
X142535714Y-69642857D01*
X142821428Y-69714285D01*
X142964285Y-69785714D01*
X143107142Y-69928571D01*
X143178571Y-70142857D01*
X143178571Y-70500000D01*
X142392857Y-69000000D02*
X142392857Y-68500000D01*
X143178571Y-68285714D02*
X143178571Y-69000000D01*
X141678571Y-69000000D01*
X141678571Y-68285714D01*
X141678571Y-67857142D02*
X143178571Y-67357142D01*
X141678571Y-66857142D01*
X143178571Y-66357142D02*
X141678571Y-66357142D01*
X143035714Y-64785714D02*
X143107142Y-64857142D01*
X143178571Y-65071428D01*
X143178571Y-65214285D01*
X143107142Y-65428571D01*
X142964285Y-65571428D01*
X142821428Y-65642857D01*
X142535714Y-65714285D01*
X142321428Y-65714285D01*
X142035714Y-65642857D01*
X141892857Y-65571428D01*
X141750000Y-65428571D01*
X141678571Y-65214285D01*
X141678571Y-65071428D01*
X141750000Y-64857142D01*
X141821428Y-64785714D01*
X142392857Y-64142857D02*
X142392857Y-63642857D01*
X143178571Y-63428571D02*
X143178571Y-64142857D01*
X141678571Y-64142857D01*
X141678571Y-63428571D01*
X143178571Y-97392857D02*
X141678571Y-97392857D01*
X142392857Y-97392857D02*
X142392857Y-96535714D01*
X143178571Y-96535714D02*
X141678571Y-96535714D01*
X142607142Y-95821428D02*
X142607142Y-94678571D01*
X142392857Y-93464285D02*
X142464285Y-93250000D01*
X142535714Y-93178571D01*
X142678571Y-93107142D01*
X142892857Y-93107142D01*
X143035714Y-93178571D01*
X143107142Y-93250000D01*
X143178571Y-93392857D01*
X143178571Y-93964285D01*
X141678571Y-93964285D01*
X141678571Y-93464285D01*
X141750000Y-93321428D01*
X141821428Y-93250000D01*
X141964285Y-93178571D01*
X142107142Y-93178571D01*
X142250000Y-93250000D01*
X142321428Y-93321428D01*
X142392857Y-93464285D01*
X142392857Y-93964285D01*
X143178571Y-91607142D02*
X142464285Y-92107142D01*
X143178571Y-92464285D02*
X141678571Y-92464285D01*
X141678571Y-91892857D01*
X141750000Y-91750000D01*
X141821428Y-91678571D01*
X141964285Y-91607142D01*
X142178571Y-91607142D01*
X142321428Y-91678571D01*
X142392857Y-91750000D01*
X142464285Y-91892857D01*
X142464285Y-92464285D01*
X143178571Y-90964285D02*
X141678571Y-90964285D01*
X143178571Y-90250000D02*
X141678571Y-90250000D01*
X141678571Y-89892857D01*
X141750000Y-89678571D01*
X141892857Y-89535714D01*
X142035714Y-89464285D01*
X142321428Y-89392857D01*
X142535714Y-89392857D01*
X142821428Y-89464285D01*
X142964285Y-89535714D01*
X143107142Y-89678571D01*
X143178571Y-89892857D01*
X143178571Y-90250000D01*
X141750000Y-87964285D02*
X141678571Y-88107142D01*
X141678571Y-88321428D01*
X141750000Y-88535714D01*
X141892857Y-88678571D01*
X142035714Y-88750000D01*
X142321428Y-88821428D01*
X142535714Y-88821428D01*
X142821428Y-88750000D01*
X142964285Y-88678571D01*
X143107142Y-88535714D01*
X143178571Y-88321428D01*
X143178571Y-88178571D01*
X143107142Y-87964285D01*
X143035714Y-87892857D01*
X142535714Y-87892857D01*
X142535714Y-88178571D01*
X142392857Y-87250000D02*
X142392857Y-86750000D01*
X143178571Y-86535714D02*
X143178571Y-87250000D01*
X141678571Y-87250000D01*
X141678571Y-86535714D01*
X130678571Y-128321428D02*
X129964285Y-128821428D01*
X130678571Y-129178571D02*
X129178571Y-129178571D01*
X129178571Y-128607142D01*
X129250000Y-128464285D01*
X129321428Y-128392857D01*
X129464285Y-128321428D01*
X129678571Y-128321428D01*
X129821428Y-128392857D01*
X129892857Y-128464285D01*
X129964285Y-128607142D01*
X129964285Y-129178571D01*
X130607142Y-127750000D02*
X130678571Y-127535714D01*
X130678571Y-127178571D01*
X130607142Y-127035714D01*
X130535714Y-126964285D01*
X130392857Y-126892857D01*
X130250000Y-126892857D01*
X130107142Y-126964285D01*
X130035714Y-127035714D01*
X129964285Y-127178571D01*
X129892857Y-127464285D01*
X129821428Y-127607142D01*
X129750000Y-127678571D01*
X129607142Y-127750000D01*
X129464285Y-127750000D01*
X129321428Y-127678571D01*
X129250000Y-127607142D01*
X129178571Y-127464285D01*
X129178571Y-127107142D01*
X129250000Y-126892857D01*
X129178571Y-126464285D02*
X129178571Y-125607142D01*
X130678571Y-126035714D02*
X129178571Y-126035714D01*
X144607142Y-125535714D02*
X144678571Y-125321428D01*
X144678571Y-124964285D01*
X144607142Y-124821428D01*
X144535714Y-124750000D01*
X144392857Y-124678571D01*
X144250000Y-124678571D01*
X144107142Y-124750000D01*
X144035714Y-124821428D01*
X143964285Y-124964285D01*
X143892857Y-125250000D01*
X143821428Y-125392857D01*
X143750000Y-125464285D01*
X143607142Y-125535714D01*
X143464285Y-125535714D01*
X143321428Y-125464285D01*
X143250000Y-125392857D01*
X143178571Y-125250000D01*
X143178571Y-124892857D01*
X143250000Y-124678571D01*
X143178571Y-124178571D02*
X144678571Y-123821428D01*
X143607142Y-123535714D01*
X144678571Y-123250000D01*
X143178571Y-122892857D01*
X144678571Y-122321428D02*
X143178571Y-122321428D01*
X143178571Y-121964285D01*
X143250000Y-121750000D01*
X143392857Y-121607142D01*
X143535714Y-121535714D01*
X143821428Y-121464285D01*
X144035714Y-121464285D01*
X144321428Y-121535714D01*
X144464285Y-121607142D01*
X144607142Y-121750000D01*
X144678571Y-121964285D01*
X144678571Y-122321428D01*
X142464285Y-108428571D02*
X141750000Y-108428571D01*
X141750000Y-106928571D01*
X141571428Y-105678571D02*
X141571428Y-104178571D01*
X141571428Y-104892857D02*
X142428571Y-104892857D01*
X142428571Y-105678571D02*
X142428571Y-104178571D01*
X141357142Y-109750000D02*
X141214285Y-109678571D01*
X141000000Y-109678571D01*
X140785714Y-109750000D01*
X140642857Y-109892857D01*
X140571428Y-110035714D01*
X140500000Y-110321428D01*
X140500000Y-110535714D01*
X140571428Y-110821428D01*
X140642857Y-110964285D01*
X140785714Y-111107142D01*
X141000000Y-111178571D01*
X141142857Y-111178571D01*
X141357142Y-111107142D01*
X141428571Y-111035714D01*
X141428571Y-110535714D01*
X141142857Y-110535714D01*
X142071428Y-111178571D02*
X142071428Y-109678571D01*
X142928571Y-111178571D01*
X142928571Y-109678571D01*
X143642857Y-111178571D02*
X143642857Y-109678571D01*
X144000000Y-109678571D01*
X144214285Y-109750000D01*
X144357142Y-109892857D01*
X144428571Y-110035714D01*
X144500000Y-110321428D01*
X144500000Y-110535714D01*
X144428571Y-110821428D01*
X144357142Y-110964285D01*
X144214285Y-111107142D01*
X144000000Y-111178571D01*
X143642857Y-111178571D01*
D11*
X137342857Y-102642857D02*
X137257142Y-102728571D01*
X137000000Y-102814285D01*
X136828571Y-102814285D01*
X136571428Y-102728571D01*
X136400000Y-102557142D01*
X136314285Y-102385714D01*
X136228571Y-102042857D01*
X136228571Y-101785714D01*
X136314285Y-101442857D01*
X136400000Y-101271428D01*
X136571428Y-101100000D01*
X136828571Y-101014285D01*
X137000000Y-101014285D01*
X137257142Y-101100000D01*
X137342857Y-101185714D01*
X138028571Y-102300000D02*
X138885714Y-102300000D01*
X137857142Y-102814285D02*
X138457142Y-101014285D01*
X139057142Y-102814285D01*
X139657142Y-102814285D02*
X139657142Y-101014285D01*
X140685714Y-102814285D01*
X140685714Y-101014285D01*
X119371428Y-50814285D02*
X119371428Y-51414285D01*
X120314285Y-51414285D02*
X118514285Y-51414285D01*
X118514285Y-50557142D01*
X119800000Y-49957142D02*
X119800000Y-49100000D01*
X120314285Y-50128571D02*
X118514285Y-49528571D01*
X120314285Y-48928571D01*
X120314285Y-48328571D02*
X118514285Y-48328571D01*
X120314285Y-47300000D01*
X118514285Y-47300000D01*
X118685714Y-46528571D02*
X118600000Y-46442857D01*
X118514285Y-46271428D01*
X118514285Y-45842857D01*
X118600000Y-45671428D01*
X118685714Y-45585714D01*
X118857142Y-45500000D01*
X119028571Y-45500000D01*
X119285714Y-45585714D01*
X120314285Y-46614285D01*
X120314285Y-45500000D01*
X108671428Y-50814285D02*
X108671428Y-51414285D01*
X109614285Y-51414285D02*
X107814285Y-51414285D01*
X107814285Y-50557142D01*
X109100000Y-49957142D02*
X109100000Y-49100000D01*
X109614285Y-50128571D02*
X107814285Y-49528571D01*
X109614285Y-48928571D01*
X109614285Y-48328571D02*
X107814285Y-48328571D01*
X109614285Y-47300000D01*
X107814285Y-47300000D01*
X109614285Y-45500000D02*
X109614285Y-46528571D01*
X109614285Y-46014285D02*
X107814285Y-46014285D01*
X108071428Y-46185714D01*
X108242857Y-46357142D01*
X108328571Y-46528571D01*
X121300000Y-48066666D02*
X121233333Y-48200000D01*
X121233333Y-48400000D01*
X121300000Y-48600000D01*
X121433333Y-48733333D01*
X121566666Y-48800000D01*
X121833333Y-48866666D01*
X122033333Y-48866666D01*
X122300000Y-48800000D01*
X122433333Y-48733333D01*
X122566666Y-48600000D01*
X122633333Y-48400000D01*
X122633333Y-48266666D01*
X122566666Y-48066666D01*
X122500000Y-48000000D01*
X122033333Y-48000000D01*
X122033333Y-48266666D01*
X122633333Y-47400000D02*
X121233333Y-47400000D01*
X122633333Y-46600000D01*
X121233333Y-46600000D01*
X122633333Y-45933333D02*
X121233333Y-45933333D01*
X121233333Y-45600000D01*
X121300000Y-45400000D01*
X121433333Y-45266666D01*
X121566666Y-45200000D01*
X121833333Y-45133333D01*
X122033333Y-45133333D01*
X122300000Y-45200000D01*
X122433333Y-45266666D01*
X122566666Y-45400000D01*
X122633333Y-45600000D01*
X122633333Y-45933333D01*
X125133333Y-47866666D02*
X125133333Y-48666666D01*
X125133333Y-48266666D02*
X123733333Y-48266666D01*
X123933333Y-48400000D01*
X124066666Y-48533333D01*
X124133333Y-48666666D01*
X123866666Y-47333333D02*
X123800000Y-47266666D01*
X123733333Y-47133333D01*
X123733333Y-46800000D01*
X123800000Y-46666666D01*
X123866666Y-46600000D01*
X124000000Y-46533333D01*
X124133333Y-46533333D01*
X124333333Y-46600000D01*
X125133333Y-47400000D01*
X125133333Y-46533333D01*
X123733333Y-46133333D02*
X125133333Y-45666666D01*
X123733333Y-45200000D01*
X110600000Y-48066666D02*
X110533333Y-48200000D01*
X110533333Y-48400000D01*
X110600000Y-48600000D01*
X110733333Y-48733333D01*
X110866666Y-48800000D01*
X111133333Y-48866666D01*
X111333333Y-48866666D01*
X111600000Y-48800000D01*
X111733333Y-48733333D01*
X111866666Y-48600000D01*
X111933333Y-48400000D01*
X111933333Y-48266666D01*
X111866666Y-48066666D01*
X111800000Y-48000000D01*
X111333333Y-48000000D01*
X111333333Y-48266666D01*
X111933333Y-47400000D02*
X110533333Y-47400000D01*
X111933333Y-46600000D01*
X110533333Y-46600000D01*
X111933333Y-45933333D02*
X110533333Y-45933333D01*
X110533333Y-45600000D01*
X110600000Y-45400000D01*
X110733333Y-45266666D01*
X110866666Y-45200000D01*
X111133333Y-45133333D01*
X111333333Y-45133333D01*
X111600000Y-45200000D01*
X111733333Y-45266666D01*
X111866666Y-45400000D01*
X111933333Y-45600000D01*
X111933333Y-45933333D01*
X114433333Y-47866666D02*
X114433333Y-48666666D01*
X114433333Y-48266666D02*
X113033333Y-48266666D01*
X113233333Y-48400000D01*
X113366666Y-48533333D01*
X113433333Y-48666666D01*
X113166666Y-47333333D02*
X113100000Y-47266666D01*
X113033333Y-47133333D01*
X113033333Y-46800000D01*
X113100000Y-46666666D01*
X113166666Y-46600000D01*
X113300000Y-46533333D01*
X113433333Y-46533333D01*
X113633333Y-46600000D01*
X114433333Y-47400000D01*
X114433333Y-46533333D01*
X113033333Y-46133333D02*
X114433333Y-45666666D01*
X113033333Y-45200000D01*
D12*
X71000000Y-49500000D02*
X71000000Y-45500000D01*
D11*
X72300000Y-48566666D02*
X72233333Y-48700000D01*
X72233333Y-48900000D01*
X72300000Y-49100000D01*
X72433333Y-49233333D01*
X72566666Y-49300000D01*
X72833333Y-49366666D01*
X73033333Y-49366666D01*
X73300000Y-49300000D01*
X73433333Y-49233333D01*
X73566666Y-49100000D01*
X73633333Y-48900000D01*
X73633333Y-48766666D01*
X73566666Y-48566666D01*
X73500000Y-48500000D01*
X73033333Y-48500000D01*
X73033333Y-48766666D01*
X73633333Y-47900000D02*
X72233333Y-47900000D01*
X73633333Y-47100000D01*
X72233333Y-47100000D01*
X73633333Y-46433333D02*
X72233333Y-46433333D01*
X72233333Y-46100000D01*
X72300000Y-45900000D01*
X72433333Y-45766666D01*
X72566666Y-45700000D01*
X72833333Y-45633333D01*
X73033333Y-45633333D01*
X73300000Y-45700000D01*
X73433333Y-45766666D01*
X73566666Y-45900000D01*
X73633333Y-46100000D01*
X73633333Y-46433333D01*
X69133333Y-48366666D02*
X69133333Y-49166666D01*
X69133333Y-48766666D02*
X67733333Y-48766666D01*
X67933333Y-48900000D01*
X68066666Y-49033333D01*
X68133333Y-49166666D01*
X67866666Y-47833333D02*
X67800000Y-47766666D01*
X67733333Y-47633333D01*
X67733333Y-47300000D01*
X67800000Y-47166666D01*
X67866666Y-47100000D01*
X68000000Y-47033333D01*
X68133333Y-47033333D01*
X68333333Y-47100000D01*
X69133333Y-47900000D01*
X69133333Y-47033333D01*
X67733333Y-46633333D02*
X69133333Y-46166666D01*
X67733333Y-45700000D01*
X60557142Y-47814285D02*
X60557142Y-46014285D01*
X61242857Y-46014285D01*
X61414285Y-46100000D01*
X61500000Y-46185714D01*
X61585714Y-46357142D01*
X61585714Y-46614285D01*
X61500000Y-46785714D01*
X61414285Y-46871428D01*
X61242857Y-46957142D01*
X60557142Y-46957142D01*
X62700000Y-46014285D02*
X63042857Y-46014285D01*
X63214285Y-46100000D01*
X63385714Y-46271428D01*
X63471428Y-46614285D01*
X63471428Y-47214285D01*
X63385714Y-47557142D01*
X63214285Y-47728571D01*
X63042857Y-47814285D01*
X62700000Y-47814285D01*
X62528571Y-47728571D01*
X62357142Y-47557142D01*
X62271428Y-47214285D01*
X62271428Y-46614285D01*
X62357142Y-46271428D01*
X62528571Y-46100000D01*
X62700000Y-46014285D01*
X64071428Y-46014285D02*
X64500000Y-47814285D01*
X64842857Y-46528571D01*
X65185714Y-47814285D01*
X65614285Y-46014285D01*
X61200000Y-49014285D02*
X61542857Y-49014285D01*
X61714285Y-49100000D01*
X61885714Y-49271428D01*
X61971428Y-49614285D01*
X61971428Y-50214285D01*
X61885714Y-50557142D01*
X61714285Y-50728571D01*
X61542857Y-50814285D01*
X61200000Y-50814285D01*
X61028571Y-50728571D01*
X60857142Y-50557142D01*
X60771428Y-50214285D01*
X60771428Y-49614285D01*
X60857142Y-49271428D01*
X61028571Y-49100000D01*
X61200000Y-49014285D01*
X62742857Y-49014285D02*
X62742857Y-50471428D01*
X62828571Y-50642857D01*
X62914285Y-50728571D01*
X63085714Y-50814285D01*
X63428571Y-50814285D01*
X63600000Y-50728571D01*
X63685714Y-50642857D01*
X63771428Y-50471428D01*
X63771428Y-49014285D01*
X64371428Y-49014285D02*
X65400000Y-49014285D01*
X64885714Y-50814285D02*
X64885714Y-49014285D01*
D13*
X65000000Y-52012500D02*
X65000000Y-58012500D01*
X65000000Y-58012500D02*
X62000000Y-58012500D01*
X65000000Y-55012500D02*
X62000000Y-55012500D01*
X62000000Y-52012500D02*
X62000000Y-58012500D01*
X65000000Y-52012500D02*
X62000000Y-52012500D01*
X43000000Y-73000000D02*
X43000000Y-70000000D01*
X46000000Y-73000000D02*
X46000000Y-70000000D01*
X40000000Y-73000000D02*
X40000000Y-70000000D01*
X46000000Y-73000000D02*
X40000000Y-73000000D01*
X46000000Y-70000000D02*
X40000000Y-70000000D01*
D11*
X33133333Y-67133333D02*
X32333333Y-67133333D01*
X32733333Y-67133333D02*
X32733333Y-65733333D01*
X32600000Y-65933333D01*
X32466666Y-66066666D01*
X32333333Y-66133333D01*
X33666666Y-65866666D02*
X33733333Y-65800000D01*
X33866666Y-65733333D01*
X34200000Y-65733333D01*
X34333333Y-65800000D01*
X34400000Y-65866666D01*
X34466666Y-66000000D01*
X34466666Y-66133333D01*
X34400000Y-66333333D01*
X33600000Y-67133333D01*
X34466666Y-67133333D01*
X34866666Y-65733333D02*
X35333333Y-67133333D01*
X35800000Y-65733333D01*
X32933333Y-61300000D02*
X32800000Y-61233333D01*
X32600000Y-61233333D01*
X32400000Y-61300000D01*
X32266666Y-61433333D01*
X32200000Y-61566666D01*
X32133333Y-61833333D01*
X32133333Y-62033333D01*
X32200000Y-62300000D01*
X32266666Y-62433333D01*
X32400000Y-62566666D01*
X32600000Y-62633333D01*
X32733333Y-62633333D01*
X32933333Y-62566666D01*
X33000000Y-62500000D01*
X33000000Y-62033333D01*
X32733333Y-62033333D01*
X33600000Y-62633333D02*
X33600000Y-61233333D01*
X34400000Y-62633333D01*
X34400000Y-61233333D01*
X35066666Y-62633333D02*
X35066666Y-61233333D01*
X35400000Y-61233333D01*
X35600000Y-61300000D01*
X35733333Y-61433333D01*
X35800000Y-61566666D01*
X35866666Y-61833333D01*
X35866666Y-62033333D01*
X35800000Y-62300000D01*
X35733333Y-62433333D01*
X35600000Y-62566666D01*
X35400000Y-62633333D01*
X35066666Y-62633333D01*
D12*
X37500000Y-64000000D02*
X30500000Y-64000000D01*
D11*
X30500000Y-57314285D02*
X30500000Y-55514285D01*
X31185714Y-55514285D01*
X31357142Y-55600000D01*
X31442857Y-55685714D01*
X31528571Y-55857142D01*
X31528571Y-56114285D01*
X31442857Y-56285714D01*
X31357142Y-56371428D01*
X31185714Y-56457142D01*
X30500000Y-56457142D01*
X32642857Y-55514285D02*
X32985714Y-55514285D01*
X33157142Y-55600000D01*
X33328571Y-55771428D01*
X33414285Y-56114285D01*
X33414285Y-56714285D01*
X33328571Y-57057142D01*
X33157142Y-57228571D01*
X32985714Y-57314285D01*
X32642857Y-57314285D01*
X32471428Y-57228571D01*
X32300000Y-57057142D01*
X32214285Y-56714285D01*
X32214285Y-56114285D01*
X32300000Y-55771428D01*
X32471428Y-55600000D01*
X32642857Y-55514285D01*
X34014285Y-55514285D02*
X34442857Y-57314285D01*
X34785714Y-56028571D01*
X35128571Y-57314285D01*
X35557142Y-55514285D01*
X37614285Y-57314285D02*
X37614285Y-55514285D01*
X38471428Y-57314285D02*
X38471428Y-55514285D01*
X39500000Y-57314285D01*
X39500000Y-55514285D01*
D14*
%TO.C,C58*%
X84653733Y-109990000D02*
X84946267Y-109990000D01*
X84653733Y-111010000D02*
X84946267Y-111010000D01*
%TO.C,R44*%
X79045276Y-120977500D02*
X79554724Y-120977500D01*
X79045276Y-122022500D02*
X79554724Y-122022500D01*
%TO.C,C57*%
X140290000Y-152646267D02*
X140290000Y-152353733D01*
X141310000Y-152646267D02*
X141310000Y-152353733D01*
%TO.C,C56*%
X120490000Y-150746267D02*
X120490000Y-150453733D01*
X121510000Y-150746267D02*
X121510000Y-150453733D01*
%TO.C,C55*%
X121510000Y-153853733D02*
X121510000Y-154146267D01*
X120490000Y-153853733D02*
X120490000Y-154146267D01*
%TO.C,C54*%
X79153733Y-119390000D02*
X79446267Y-119390000D01*
X79153733Y-120410000D02*
X79446267Y-120410000D01*
%TO.C,C41*%
X64846267Y-93110000D02*
X64553733Y-93110000D01*
X64846267Y-92090000D02*
X64553733Y-92090000D01*
%TO.C,C53*%
X79153733Y-117790000D02*
X79446267Y-117790000D01*
X79153733Y-118810000D02*
X79446267Y-118810000D01*
%TO.C,C48*%
X44846267Y-113310000D02*
X44553733Y-113310000D01*
X44846267Y-112290000D02*
X44553733Y-112290000D01*
%TO.C,C19*%
X44546267Y-91210000D02*
X44253733Y-91210000D01*
X44546267Y-90190000D02*
X44253733Y-90190000D01*
%TO.C,C17*%
X44846267Y-108410000D02*
X44553733Y-108410000D01*
X44846267Y-107390000D02*
X44553733Y-107390000D01*
%TO.C,C14*%
X44446267Y-84810000D02*
X44153733Y-84810000D01*
X44446267Y-83790000D02*
X44153733Y-83790000D01*
%TO.C,D16*%
X39190000Y-112000000D02*
X39190000Y-113800000D01*
X42410000Y-113800000D02*
X42410000Y-111350000D01*
%TO.C,D15*%
X39190000Y-107000000D02*
X39190000Y-108800000D01*
X42410000Y-108800000D02*
X42410000Y-106350000D01*
%TO.C,D14*%
X39190000Y-88500000D02*
X39190000Y-90300000D01*
X42410000Y-90300000D02*
X42410000Y-87850000D01*
%TO.C,D13*%
X39190000Y-83300000D02*
X39190000Y-85100000D01*
X42410000Y-85100000D02*
X42410000Y-82650000D01*
%TO.C,D12*%
X134210000Y-64800000D02*
X134210000Y-62350000D01*
X130990000Y-63000000D02*
X130990000Y-64800000D01*
%TO.C,D11*%
X134210000Y-71700000D02*
X134210000Y-69250000D01*
X130990000Y-69900000D02*
X130990000Y-71700000D01*
%TO.C,C10*%
X130510000Y-64746267D02*
X130510000Y-64453733D01*
X129490000Y-64746267D02*
X129490000Y-64453733D01*
%TO.C,C4*%
X130510000Y-71646267D02*
X130510000Y-71353733D01*
X129490000Y-71646267D02*
X129490000Y-71353733D01*
%TO.C,U3*%
X124115000Y-163640000D02*
X123640000Y-163640000D01*
X128860000Y-168860000D02*
X128860000Y-168385000D01*
X128385000Y-168860000D02*
X128860000Y-168860000D01*
X123640000Y-168860000D02*
X123640000Y-168385000D01*
X124115000Y-168860000D02*
X123640000Y-168860000D01*
X128860000Y-163640000D02*
X128860000Y-164115000D01*
X128385000Y-163640000D02*
X128860000Y-163640000D01*
%TO.C,C40*%
X31890000Y-152360000D02*
X34740000Y-152360000D01*
X40610000Y-152360000D02*
X37760000Y-152360000D01*
X40610000Y-144704437D02*
X40610000Y-152360000D01*
X31890000Y-144704437D02*
X31890000Y-152360000D01*
X32954437Y-143640000D02*
X34740000Y-143640000D01*
X39545563Y-143640000D02*
X37760000Y-143640000D01*
X39545563Y-143640000D02*
X40610000Y-144704437D01*
X32954437Y-143640000D02*
X31890000Y-144704437D01*
X38760000Y-142400000D02*
X38760000Y-143400000D01*
X39260000Y-142900000D02*
X38260000Y-142900000D01*
%TO.C,J5*%
X120190000Y-180106000D02*
X129140000Y-180106000D01*
X129260000Y-183186000D02*
X129260000Y-184086000D01*
X120070000Y-183186000D02*
X120070000Y-184086000D01*
%TO.C,TP4*%
X127700000Y-138000000D02*
G75*
G03*
X127700000Y-138000000I-1700000J0D01*
G01*
%TO.C,TP3*%
X36450000Y-160250000D02*
G75*
G03*
X36450000Y-160250000I-1700000J0D01*
G01*
%TO.C,TP2*%
X75700000Y-72500000D02*
G75*
G03*
X75700000Y-72500000I-1700000J0D01*
G01*
%TO.C,TP1*%
X132700000Y-54500000D02*
G75*
G03*
X132700000Y-54500000I-1700000J0D01*
G01*
%TO.C,RV2*%
X58640000Y-125130000D02*
X59020000Y-125130000D01*
X53980000Y-125130000D02*
X54360000Y-125130000D01*
X56140000Y-125130000D02*
X56860000Y-125130000D01*
X53980000Y-128870000D02*
X55260000Y-128870000D01*
X57740000Y-128870000D02*
X59020000Y-128870000D01*
X53980000Y-125130000D02*
X53980000Y-128870000D01*
X59020000Y-125130000D02*
X59020000Y-128870000D01*
%TO.C,R43*%
X110152500Y-130671276D02*
X110152500Y-131180724D01*
X109107500Y-130671276D02*
X109107500Y-131180724D01*
%TO.C,R42*%
X107090724Y-132718500D02*
X106581276Y-132718500D01*
X107090724Y-131673500D02*
X106581276Y-131673500D01*
%TO.C,R41*%
X124745276Y-120477500D02*
X125254724Y-120477500D01*
X124745276Y-121522500D02*
X125254724Y-121522500D01*
%TO.C,R40*%
X106754724Y-82522500D02*
X106245276Y-82522500D01*
X106754724Y-81477500D02*
X106245276Y-81477500D01*
%TO.C,R39*%
X106245276Y-79477500D02*
X106754724Y-79477500D01*
X106245276Y-80522500D02*
X106754724Y-80522500D01*
%TO.C,R38*%
X56245276Y-120977500D02*
X56754724Y-120977500D01*
X56245276Y-122022500D02*
X56754724Y-122022500D01*
%TO.C,R37*%
X119745276Y-76977500D02*
X120254724Y-76977500D01*
X119745276Y-78022500D02*
X120254724Y-78022500D01*
%TO.C,R36*%
X119745276Y-74977500D02*
X120254724Y-74977500D01*
X119745276Y-76022500D02*
X120254724Y-76022500D01*
%TO.C,R35*%
X106754724Y-76522500D02*
X106245276Y-76522500D01*
X106754724Y-75477500D02*
X106245276Y-75477500D01*
%TO.C,R34*%
X106245276Y-77477500D02*
X106754724Y-77477500D01*
X106245276Y-78522500D02*
X106754724Y-78522500D01*
%TO.C,R33*%
X113245276Y-76977500D02*
X113754724Y-76977500D01*
X113245276Y-78022500D02*
X113754724Y-78022500D01*
%TO.C,R32*%
X113245276Y-74977500D02*
X113754724Y-74977500D01*
X113245276Y-76022500D02*
X113754724Y-76022500D01*
%TO.C,Q8*%
X108416000Y-127626000D02*
X107486000Y-127626000D01*
X105256000Y-127626000D02*
X106186000Y-127626000D01*
X105256000Y-127626000D02*
X105256000Y-129786000D01*
X108416000Y-127626000D02*
X108416000Y-129086000D01*
%TO.C,Q7*%
X121580000Y-79740000D02*
X120650000Y-79740000D01*
X118420000Y-79740000D02*
X119350000Y-79740000D01*
X118420000Y-79740000D02*
X118420000Y-81900000D01*
X121580000Y-79740000D02*
X121580000Y-81200000D01*
%TO.C,Q6*%
X126580000Y-57690000D02*
X116340000Y-57690000D01*
X126580000Y-73580000D02*
X116340000Y-73580000D01*
X126580000Y-73580000D02*
X126580000Y-57690000D01*
X116340000Y-73580000D02*
X116340000Y-57690000D01*
X124000000Y-57690000D02*
X124000000Y-55150000D01*
X121460000Y-57690000D02*
X121460000Y-55150000D01*
X118920000Y-57690000D02*
X118920000Y-55150000D01*
%TO.C,Q5*%
X115080000Y-79740000D02*
X114150000Y-79740000D01*
X111920000Y-79740000D02*
X112850000Y-79740000D01*
X111920000Y-79740000D02*
X111920000Y-81900000D01*
X115080000Y-79740000D02*
X115080000Y-81200000D01*
%TO.C,Q4*%
X115880000Y-57690000D02*
X105640000Y-57690000D01*
X115880000Y-73580000D02*
X105640000Y-73580000D01*
X115880000Y-73580000D02*
X115880000Y-57690000D01*
X105640000Y-73580000D02*
X105640000Y-57690000D01*
X113300000Y-57690000D02*
X113300000Y-55150000D01*
X110760000Y-57690000D02*
X110760000Y-55150000D01*
X108220000Y-57690000D02*
X108220000Y-55150000D01*
%TO.C,J11*%
X125870000Y-51830000D02*
X125870000Y-49170000D01*
X123270000Y-51830000D02*
X125870000Y-51830000D01*
X123270000Y-49170000D02*
X125870000Y-49170000D01*
X123270000Y-51830000D02*
X123270000Y-49170000D01*
X122000000Y-51830000D02*
X120670000Y-51830000D01*
X120670000Y-51830000D02*
X120670000Y-50500000D01*
%TO.C,J9*%
X115170000Y-51830000D02*
X115170000Y-49170000D01*
X112570000Y-51830000D02*
X115170000Y-51830000D01*
X112570000Y-49170000D02*
X115170000Y-49170000D01*
X112570000Y-51830000D02*
X112570000Y-49170000D01*
X111300000Y-51830000D02*
X109970000Y-51830000D01*
X109970000Y-51830000D02*
X109970000Y-50500000D01*
%TO.C,D10*%
X133042000Y-118798000D02*
X133042000Y-120598000D01*
X136262000Y-120598000D02*
X136262000Y-117648000D01*
%TO.C,C52*%
X131348000Y-120860267D02*
X131348000Y-120567733D01*
X132368000Y-120860267D02*
X132368000Y-120567733D01*
%TO.C,C51*%
X56646267Y-124010000D02*
X56353733Y-124010000D01*
X56646267Y-122990000D02*
X56353733Y-122990000D01*
%TO.C,BZ1*%
X119550000Y-122290000D02*
G75*
G03*
X119550000Y-122290000I-6100000J0D01*
G01*
%TO.C,L4*%
X132328000Y-104881000D02*
X133928000Y-104881000D01*
X132328000Y-104881000D02*
X132328000Y-106326000D01*
X132568000Y-105131000D02*
X135988000Y-105131000D01*
X135988000Y-105131000D02*
X135988000Y-110321000D01*
X132568000Y-110321000D02*
X135988000Y-110321000D01*
X132568000Y-105131000D02*
X132568000Y-110321000D01*
%TO.C,Y1*%
X75946000Y-117852000D02*
X75946000Y-119852000D01*
X72346000Y-119852000D02*
X72346000Y-117852000D01*
X73396000Y-120252000D02*
X73396000Y-120652000D01*
X72146000Y-117852000D02*
X72146000Y-119852000D01*
X75946000Y-119852000D02*
X75946000Y-120252000D01*
X72346000Y-119852000D02*
X72346000Y-120252000D01*
X72146000Y-119852000D02*
X72146000Y-120252000D01*
X72346000Y-117852000D02*
X72496000Y-117852000D01*
X72346000Y-120252000D02*
X72496000Y-120252000D01*
X73396000Y-120252000D02*
X73346000Y-120252000D01*
X75946000Y-120252000D02*
X75796000Y-120252000D01*
X75946000Y-117852000D02*
X75796000Y-117852000D01*
%TO.C,U13*%
X134346000Y-78226000D02*
X134346000Y-76276000D01*
X134346000Y-78226000D02*
X134346000Y-80176000D01*
X129226000Y-78226000D02*
X129226000Y-76276000D01*
X129226000Y-78226000D02*
X129226000Y-81676000D01*
%TO.C,U12*%
X123812000Y-96404000D02*
X123812000Y-94454000D01*
X123812000Y-96404000D02*
X123812000Y-98354000D01*
X118692000Y-96404000D02*
X118692000Y-94454000D01*
X118692000Y-96404000D02*
X118692000Y-99854000D01*
%TO.C,U10*%
X42436000Y-133606000D02*
X102436000Y-133606000D01*
X102436000Y-133606000D02*
X102436000Y-169606000D01*
X102436000Y-169606000D02*
X42436000Y-169606000D01*
X42436000Y-169606000D02*
X42436000Y-133606000D01*
%TO.C,U9*%
X57866000Y-143244000D02*
X59816000Y-143244000D01*
X57866000Y-143244000D02*
X55916000Y-143244000D01*
X57866000Y-138124000D02*
X59816000Y-138124000D01*
X57866000Y-138124000D02*
X54416000Y-138124000D01*
%TO.C,U8*%
X58628000Y-145932000D02*
X57128000Y-145932000D01*
X58628000Y-145932000D02*
X60128000Y-145932000D01*
X58628000Y-149152000D02*
X57128000Y-149152000D01*
X58628000Y-149152000D02*
X61553000Y-149152000D01*
%TO.C,U7*%
X117260000Y-110540000D02*
X119210000Y-110540000D01*
X117260000Y-110540000D02*
X115310000Y-110540000D01*
X117260000Y-105420000D02*
X119210000Y-105420000D01*
X117260000Y-105420000D02*
X113810000Y-105420000D01*
%TO.C,U6*%
X81764000Y-94862000D02*
X81764000Y-94162000D01*
X81764000Y-94162000D02*
X81064000Y-94162000D01*
X81764000Y-107682000D02*
X81764000Y-108382000D01*
X81764000Y-108382000D02*
X81064000Y-108382000D01*
X67544000Y-94862000D02*
X67544000Y-94162000D01*
X67544000Y-94162000D02*
X68244000Y-94162000D01*
X67544000Y-107682000D02*
X67544000Y-108382000D01*
X67544000Y-108382000D02*
X68244000Y-108382000D01*
X68244000Y-108382000D02*
X68244000Y-109747000D01*
%TO.C,U5*%
X37500000Y-127560000D02*
X39450000Y-127560000D01*
X37500000Y-127560000D02*
X35550000Y-127560000D01*
X37500000Y-122440000D02*
X39450000Y-122440000D01*
X37500000Y-122440000D02*
X34050000Y-122440000D01*
%TO.C,U4*%
X48690000Y-127710000D02*
X50640000Y-127710000D01*
X48690000Y-127710000D02*
X46740000Y-127710000D01*
X48690000Y-122590000D02*
X50640000Y-122590000D01*
X48690000Y-122590000D02*
X45240000Y-122590000D01*
%TO.C,SW2*%
X134286000Y-152598000D02*
G75*
G03*
X134286000Y-152598000I-3000000J0D01*
G01*
X133086000Y-146298000D02*
X137986000Y-146298000D01*
X137986000Y-158898000D02*
X133086000Y-158898000D01*
X129486000Y-158898000D02*
X124586000Y-158898000D01*
X124586000Y-158898000D02*
X124586000Y-156098000D01*
X129386000Y-146298000D02*
X124586000Y-146298000D01*
X124586000Y-146298000D02*
X124586000Y-148798000D01*
X123786000Y-148798000D02*
X123486000Y-148498000D01*
X123486000Y-148498000D02*
X124086000Y-148498000D01*
X124086000Y-148498000D02*
X123786000Y-148798000D01*
X137986000Y-146298000D02*
X137986000Y-148898000D01*
X137986000Y-151298000D02*
X137986000Y-153898000D01*
X137986000Y-156298000D02*
X137986000Y-158898000D01*
X131286000Y-152098000D02*
X131286000Y-153098000D01*
X130786000Y-152598000D02*
X131786000Y-152598000D01*
%TO.C,SW1*%
X128714000Y-129696000D02*
X128714000Y-125196000D01*
X124714000Y-130946000D02*
X126214000Y-130946000D01*
X122214000Y-125196000D02*
X122214000Y-129696000D01*
X126214000Y-123946000D02*
X124714000Y-123946000D01*
%TO.C,RV1*%
X119890000Y-87406000D02*
X119890000Y-87026000D01*
X119890000Y-92066000D02*
X119890000Y-91686000D01*
X119890000Y-89906000D02*
X119890000Y-89186000D01*
X123630000Y-92066000D02*
X123630000Y-90786000D01*
X123630000Y-88306000D02*
X123630000Y-87026000D01*
X119890000Y-92066000D02*
X123630000Y-92066000D01*
X119890000Y-87026000D02*
X123630000Y-87026000D01*
%TO.C,R31*%
X143222500Y-60445276D02*
X143222500Y-60954724D01*
X142177500Y-60445276D02*
X142177500Y-60954724D01*
%TO.C,R30*%
X142177500Y-75854724D02*
X142177500Y-75345276D01*
X143222500Y-75854724D02*
X143222500Y-75345276D01*
%TO.C,R29*%
X139277500Y-75854724D02*
X139277500Y-75345276D01*
X140322500Y-75854724D02*
X140322500Y-75345276D01*
%TO.C,R28*%
X136252500Y-79639276D02*
X136252500Y-80148724D01*
X135207500Y-79639276D02*
X135207500Y-80148724D01*
%TO.C,R27*%
X139300500Y-79639276D02*
X139300500Y-80148724D01*
X138255500Y-79639276D02*
X138255500Y-80148724D01*
%TO.C,R26*%
X116933276Y-87753500D02*
X117442724Y-87753500D01*
X116933276Y-88798500D02*
X117442724Y-88798500D01*
%TO.C,R25*%
X119954724Y-102222500D02*
X119445276Y-102222500D01*
X119954724Y-101177500D02*
X119445276Y-101177500D01*
%TO.C,R24*%
X64977276Y-144733500D02*
X65486724Y-144733500D01*
X64977276Y-145778500D02*
X65486724Y-145778500D01*
%TO.C,R23*%
X64977276Y-143209500D02*
X65486724Y-143209500D01*
X64977276Y-144254500D02*
X65486724Y-144254500D01*
%TO.C,R22*%
X123009500Y-147050724D02*
X123009500Y-146541276D01*
X124054500Y-147050724D02*
X124054500Y-146541276D01*
%TO.C,R21*%
X121485500Y-147050724D02*
X121485500Y-146541276D01*
X122530500Y-147050724D02*
X122530500Y-146541276D01*
%TO.C,R20*%
X119961500Y-147050724D02*
X119961500Y-146541276D01*
X121006500Y-147050724D02*
X121006500Y-146541276D01*
%TO.C,R19*%
X130311500Y-183072724D02*
X130311500Y-182563276D01*
X131356500Y-183072724D02*
X131356500Y-182563276D01*
%TO.C,R18*%
X119254724Y-179522500D02*
X118745276Y-179522500D01*
X119254724Y-178477500D02*
X118745276Y-178477500D01*
%TO.C,R17*%
X119135500Y-168340724D02*
X119135500Y-167831276D01*
X120180500Y-168340724D02*
X120180500Y-167831276D01*
%TO.C,R16*%
X119135500Y-171642724D02*
X119135500Y-171133276D01*
X120180500Y-171642724D02*
X120180500Y-171133276D01*
%TO.C,R15*%
X120659500Y-171642724D02*
X120659500Y-171133276D01*
X121704500Y-171642724D02*
X121704500Y-171133276D01*
%TO.C,R14*%
X58882724Y-145270500D02*
X58373276Y-145270500D01*
X58882724Y-144225500D02*
X58373276Y-144225500D01*
%TO.C,R13*%
X125119500Y-109758724D02*
X125119500Y-109249276D01*
X126164500Y-109758724D02*
X126164500Y-109249276D01*
%TO.C,R12*%
X125119500Y-106202724D02*
X125119500Y-105693276D01*
X126164500Y-106202724D02*
X126164500Y-105693276D01*
%TO.C,R11*%
X134069500Y-177410724D02*
X134069500Y-176901276D01*
X135114500Y-177410724D02*
X135114500Y-176901276D01*
%TO.C,R10*%
X140277500Y-177410724D02*
X140277500Y-176901276D01*
X141322500Y-177410724D02*
X141322500Y-176901276D01*
%TO.C,R9*%
X137146500Y-176901276D02*
X137146500Y-177410724D01*
X136101500Y-176901276D02*
X136101500Y-177410724D01*
%TO.C,R8*%
X143354500Y-176901276D02*
X143354500Y-177410724D01*
X142309500Y-176901276D02*
X142309500Y-177410724D01*
%TO.C,R7*%
X132291500Y-180966724D02*
X132291500Y-180457276D01*
X133336500Y-180966724D02*
X133336500Y-180457276D01*
%TO.C,R6*%
X138499500Y-180966724D02*
X138499500Y-180457276D01*
X139544500Y-180966724D02*
X139544500Y-180457276D01*
%TO.C,R5*%
X119038724Y-112058500D02*
X118529276Y-112058500D01*
X119038724Y-111013500D02*
X118529276Y-111013500D01*
%TO.C,R4*%
X62969276Y-103797500D02*
X63478724Y-103797500D01*
X62969276Y-104842500D02*
X63478724Y-104842500D01*
%TO.C,Q3*%
X134028000Y-181472000D02*
X134958000Y-181472000D01*
X137188000Y-181472000D02*
X136258000Y-181472000D01*
X137188000Y-181472000D02*
X137188000Y-179312000D01*
X134028000Y-181472000D02*
X134028000Y-180012000D01*
%TO.C,Q2*%
X140236000Y-181472000D02*
X141166000Y-181472000D01*
X143396000Y-181472000D02*
X142466000Y-181472000D01*
X143396000Y-181472000D02*
X143396000Y-179312000D01*
X140236000Y-181472000D02*
X140236000Y-180012000D01*
%TO.C,Q1*%
X47920000Y-61310000D02*
X58160000Y-61310000D01*
X47920000Y-45420000D02*
X58160000Y-45420000D01*
X47920000Y-45420000D02*
X47920000Y-61310000D01*
X58160000Y-45420000D02*
X58160000Y-61310000D01*
X50500000Y-61310000D02*
X50500000Y-63850000D01*
X53040000Y-61310000D02*
X53040000Y-63850000D01*
X55580000Y-61310000D02*
X55580000Y-63850000D01*
%TO.C,J3*%
X137827000Y-125286000D02*
X137827000Y-112586000D01*
X137827000Y-112586000D02*
X142907000Y-112586000D01*
X142907000Y-125286000D02*
X137827000Y-125286000D01*
X142907000Y-125286000D02*
X142907000Y-119571000D01*
X142907000Y-118301000D02*
X142907000Y-112586000D01*
D13*
X142907000Y-120841000D02*
X142907000Y-117031000D01*
D14*
%TO.C,D9*%
X129040000Y-98044000D02*
X129040000Y-99844000D01*
X132260000Y-99844000D02*
X132260000Y-97394000D01*
%TO.C,D8*%
X129040000Y-91440000D02*
X129040000Y-93240000D01*
X132260000Y-93240000D02*
X132260000Y-90790000D01*
%TO.C,D7*%
X129040000Y-85090000D02*
X129040000Y-86890000D01*
X132260000Y-86890000D02*
X132260000Y-84440000D01*
%TO.C,D6*%
X125638000Y-175112000D02*
X123838000Y-175112000D01*
X123838000Y-178332000D02*
X126788000Y-178332000D01*
%TO.C,D5*%
X131570000Y-108626000D02*
X131570000Y-106826000D01*
X128350000Y-106826000D02*
X128350000Y-109776000D01*
%TO.C,D4*%
X134046000Y-184241000D02*
X136506000Y-184241000D01*
X136506000Y-184241000D02*
X136506000Y-182771000D01*
X136506000Y-182771000D02*
X134046000Y-182771000D01*
%TO.C,D3*%
X140254000Y-184241000D02*
X142714000Y-184241000D01*
X142714000Y-184241000D02*
X142714000Y-182771000D01*
X142714000Y-182771000D02*
X140254000Y-182771000D01*
%TO.C,D2*%
X54245000Y-73475000D02*
X55745000Y-73475000D01*
X55745000Y-73475000D02*
X55745000Y-73205000D01*
X55745000Y-73205000D02*
X58575000Y-73205000D01*
X54245000Y-66575000D02*
X55745000Y-66575000D01*
X55745000Y-66575000D02*
X55745000Y-66845000D01*
X55745000Y-66845000D02*
X56845000Y-66845000D01*
%TO.C,C50*%
X128874000Y-76445733D02*
X128874000Y-76738267D01*
X127854000Y-76445733D02*
X127854000Y-76738267D01*
%TO.C,C49*%
X127600000Y-100106267D02*
X127600000Y-99813733D01*
X128620000Y-100106267D02*
X128620000Y-99813733D01*
%TO.C,C47*%
X127600000Y-93502267D02*
X127600000Y-93209733D01*
X128620000Y-93502267D02*
X128620000Y-93209733D01*
%TO.C,C46*%
X127600000Y-87152267D02*
X127600000Y-86859733D01*
X128620000Y-87152267D02*
X128620000Y-86859733D01*
%TO.C,C45*%
X118206000Y-94733733D02*
X118206000Y-95026267D01*
X117186000Y-94733733D02*
X117186000Y-95026267D01*
%TO.C,C44*%
X118206000Y-90923733D02*
X118206000Y-91216267D01*
X117186000Y-90923733D02*
X117186000Y-91216267D01*
%TO.C,C43*%
X131260000Y-166853733D02*
X131260000Y-167146267D01*
X130240000Y-166853733D02*
X130240000Y-167146267D01*
%TO.C,C42*%
X128853733Y-169990000D02*
X129146267Y-169990000D01*
X128853733Y-171010000D02*
X129146267Y-171010000D01*
%TO.C,C39*%
X49994000Y-143331733D02*
X49994000Y-143624267D01*
X48974000Y-143331733D02*
X48974000Y-143624267D01*
%TO.C,C38*%
X121692000Y-174797733D02*
X121692000Y-175090267D01*
X120672000Y-174797733D02*
X120672000Y-175090267D01*
%TO.C,C37*%
X120672000Y-168232267D02*
X120672000Y-167939733D01*
X121692000Y-168232267D02*
X121692000Y-167939733D01*
%TO.C,C36*%
X126910000Y-107872267D02*
X126910000Y-107579733D01*
X127930000Y-107872267D02*
X127930000Y-107579733D01*
%TO.C,C35*%
X53038000Y-148704267D02*
X53038000Y-148411733D01*
X54058000Y-148704267D02*
X54058000Y-148411733D01*
%TO.C,C34*%
X123358000Y-109357733D02*
X123358000Y-109650267D01*
X122338000Y-109357733D02*
X122338000Y-109650267D01*
%TO.C,C33*%
X58012267Y-137638000D02*
X57719733Y-137638000D01*
X58012267Y-136618000D02*
X57719733Y-136618000D01*
%TO.C,C32*%
X110146000Y-107618267D02*
X110146000Y-107325733D01*
X111166000Y-107618267D02*
X111166000Y-107325733D01*
%TO.C,C31*%
X111670000Y-107618267D02*
X111670000Y-107325733D01*
X112690000Y-107618267D02*
X112690000Y-107325733D01*
%TO.C,C30*%
X140132267Y-126812000D02*
X139839733Y-126812000D01*
X140132267Y-125792000D02*
X139839733Y-125792000D01*
%TO.C,C29*%
X78974000Y-114587733D02*
X78974000Y-114880267D01*
X77954000Y-114587733D02*
X77954000Y-114880267D01*
%TO.C,C28*%
X86699733Y-106350000D02*
X86992267Y-106350000D01*
X86699733Y-107370000D02*
X86992267Y-107370000D01*
%TO.C,C27*%
X86699733Y-94412000D02*
X86992267Y-94412000D01*
X86699733Y-95432000D02*
X86992267Y-95432000D01*
%TO.C,C26*%
X67540000Y-88718267D02*
X67540000Y-88425733D01*
X68560000Y-88718267D02*
X68560000Y-88425733D01*
%TO.C,C25*%
X63370267Y-107878000D02*
X63077733Y-107878000D01*
X63370267Y-106858000D02*
X63077733Y-106858000D01*
%TO.C,C24*%
X71862000Y-114587733D02*
X71862000Y-114880267D01*
X70842000Y-114587733D02*
X70842000Y-114880267D01*
%TO.C,C23*%
X73386000Y-114587733D02*
X73386000Y-114880267D01*
X72366000Y-114587733D02*
X72366000Y-114880267D01*
%TO.C,C22*%
X69064000Y-88718267D02*
X69064000Y-88425733D01*
X70084000Y-88718267D02*
X70084000Y-88425733D01*
%TO.C,C21*%
X86699733Y-95936000D02*
X86992267Y-95936000D01*
X86699733Y-96956000D02*
X86992267Y-96956000D01*
%TO.C,C20*%
X76180000Y-114587733D02*
X76180000Y-114880267D01*
X75160000Y-114587733D02*
X75160000Y-114880267D01*
%TO.C,C12*%
X82788748Y-47090000D02*
X84211252Y-47090000D01*
X82788748Y-48910000D02*
X84211252Y-48910000D01*
%TO.C,C11*%
X82788748Y-60590000D02*
X84211252Y-60590000D01*
X82788748Y-62410000D02*
X84211252Y-62410000D01*
%TO.C,C9*%
X82788748Y-49590000D02*
X84211252Y-49590000D01*
X82788748Y-51410000D02*
X84211252Y-51410000D01*
%TO.C,C8*%
X82788748Y-63090000D02*
X84211252Y-63090000D01*
X82788748Y-64910000D02*
X84211252Y-64910000D01*
%TO.C,C7*%
X45410000Y-76788748D02*
X45410000Y-78211252D01*
X43590000Y-76788748D02*
X43590000Y-78211252D01*
%TO.C,C6*%
X58360000Y-83360000D02*
X58360000Y-80510000D01*
X58360000Y-74640000D02*
X58360000Y-77490000D01*
X50704437Y-74640000D02*
X58360000Y-74640000D01*
X50704437Y-83360000D02*
X58360000Y-83360000D01*
X49640000Y-82295563D02*
X49640000Y-80510000D01*
X49640000Y-75704437D02*
X49640000Y-77490000D01*
X49640000Y-75704437D02*
X50704437Y-74640000D01*
X49640000Y-82295563D02*
X50704437Y-83360000D01*
X48400000Y-76490000D02*
X49400000Y-76490000D01*
X48900000Y-75990000D02*
X48900000Y-76990000D01*
%TO.C,C5*%
X73860000Y-69360000D02*
X73860000Y-66510000D01*
X73860000Y-60640000D02*
X73860000Y-63490000D01*
X66204437Y-60640000D02*
X73860000Y-60640000D01*
X66204437Y-69360000D02*
X73860000Y-69360000D01*
X65140000Y-68295563D02*
X65140000Y-66510000D01*
X65140000Y-61704437D02*
X65140000Y-63490000D01*
X65140000Y-61704437D02*
X66204437Y-60640000D01*
X65140000Y-68295563D02*
X66204437Y-69360000D01*
X63900000Y-62490000D02*
X64900000Y-62490000D01*
X64400000Y-61990000D02*
X64400000Y-62990000D01*
%TO.C,C3*%
X42490000Y-125146267D02*
X42490000Y-124853733D01*
X43510000Y-125146267D02*
X43510000Y-124853733D01*
%TO.C,C2*%
X31490000Y-125146267D02*
X31490000Y-124853733D01*
X32510000Y-125146267D02*
X32510000Y-124853733D01*
%TO.C,C1*%
X50146267Y-122010000D02*
X49853733Y-122010000D01*
X50146267Y-120990000D02*
X49853733Y-120990000D01*
%TO.C,U2*%
X86500000Y-52500000D02*
X86500000Y-47000000D01*
X88500000Y-55500000D02*
X86500000Y-55500000D01*
X86500000Y-55500000D02*
X86500000Y-53500000D01*
X98500000Y-55000000D02*
X98500000Y-55500000D01*
X98500000Y-55500000D02*
X89500000Y-55500000D01*
X86500000Y-47000000D02*
X98500000Y-47000000D01*
X98500000Y-47000000D02*
X98500000Y-55000000D01*
%TO.C,U1*%
X86500000Y-66000000D02*
X86500000Y-60500000D01*
X88500000Y-69000000D02*
X86500000Y-69000000D01*
X86500000Y-69000000D02*
X86500000Y-67000000D01*
X98500000Y-68500000D02*
X98500000Y-69000000D01*
X98500000Y-69000000D02*
X89500000Y-69000000D01*
X86500000Y-60500000D02*
X98500000Y-60500000D01*
X98500000Y-60500000D02*
X98500000Y-68500000D01*
%TO.C,R3*%
X41245276Y-48022500D02*
X41754724Y-48022500D01*
X41245276Y-46977500D02*
X41754724Y-46977500D01*
%TO.C,R2*%
X43245276Y-54522500D02*
X43754724Y-54522500D01*
X43245276Y-53477500D02*
X43754724Y-53477500D01*
%TO.C,R1*%
X43245276Y-57522500D02*
X43754724Y-57522500D01*
X43245276Y-56477500D02*
X43754724Y-56477500D01*
%TO.C,L2*%
X81346000Y-52346000D02*
X85654000Y-52346000D01*
X85654000Y-56654000D02*
X81346000Y-56654000D01*
%TO.C,L1*%
X81346000Y-65846000D02*
X85654000Y-65846000D01*
X85654000Y-70154000D02*
X81346000Y-70154000D01*
%TO.C,F2*%
X43614564Y-70590000D02*
X42410436Y-70590000D01*
X43614564Y-72410000D02*
X42410436Y-72410000D01*
%TO.C,F1*%
X64410000Y-55602064D02*
X64410000Y-54397936D01*
X62590000Y-55602064D02*
X62590000Y-54397936D01*
%TO.C,D1*%
X39840000Y-50235000D02*
X42300000Y-50235000D01*
X39840000Y-48765000D02*
X39840000Y-50235000D01*
X42300000Y-48765000D02*
X39840000Y-48765000D01*
%TO.C,C18*%
X100788748Y-55360000D02*
X102211252Y-55360000D01*
X100788748Y-52640000D02*
X102211252Y-52640000D01*
%TO.C,C16*%
X100788748Y-68860000D02*
X102211252Y-68860000D01*
X100788748Y-66140000D02*
X102211252Y-66140000D01*
%TO.C,C15*%
X100788748Y-50860000D02*
X102211252Y-50860000D01*
X100788748Y-48140000D02*
X102211252Y-48140000D01*
%TO.C,C13*%
X100788748Y-64360000D02*
X102211252Y-64360000D01*
X100788748Y-61640000D02*
X102211252Y-61640000D01*
%TO.C,C58*%
D15*
X84157142Y-109427142D02*
X84109523Y-109474761D01*
X83966666Y-109522380D01*
X83871428Y-109522380D01*
X83728571Y-109474761D01*
X83633333Y-109379523D01*
X83585714Y-109284285D01*
X83538095Y-109093809D01*
X83538095Y-108950952D01*
X83585714Y-108760476D01*
X83633333Y-108665238D01*
X83728571Y-108570000D01*
X83871428Y-108522380D01*
X83966666Y-108522380D01*
X84109523Y-108570000D01*
X84157142Y-108617619D01*
X85061904Y-108522380D02*
X84585714Y-108522380D01*
X84538095Y-108998571D01*
X84585714Y-108950952D01*
X84680952Y-108903333D01*
X84919047Y-108903333D01*
X85014285Y-108950952D01*
X85061904Y-108998571D01*
X85109523Y-109093809D01*
X85109523Y-109331904D01*
X85061904Y-109427142D01*
X85014285Y-109474761D01*
X84919047Y-109522380D01*
X84680952Y-109522380D01*
X84585714Y-109474761D01*
X84538095Y-109427142D01*
X85680952Y-108950952D02*
X85585714Y-108903333D01*
X85538095Y-108855714D01*
X85490476Y-108760476D01*
X85490476Y-108712857D01*
X85538095Y-108617619D01*
X85585714Y-108570000D01*
X85680952Y-108522380D01*
X85871428Y-108522380D01*
X85966666Y-108570000D01*
X86014285Y-108617619D01*
X86061904Y-108712857D01*
X86061904Y-108760476D01*
X86014285Y-108855714D01*
X85966666Y-108903333D01*
X85871428Y-108950952D01*
X85680952Y-108950952D01*
X85585714Y-108998571D01*
X85538095Y-109046190D01*
X85490476Y-109141428D01*
X85490476Y-109331904D01*
X85538095Y-109427142D01*
X85585714Y-109474761D01*
X85680952Y-109522380D01*
X85871428Y-109522380D01*
X85966666Y-109474761D01*
X86014285Y-109427142D01*
X86061904Y-109331904D01*
X86061904Y-109141428D01*
X86014285Y-109046190D01*
X85966666Y-108998571D01*
X85871428Y-108950952D01*
%TO.C,R44*%
X81857142Y-121952380D02*
X81523809Y-121476190D01*
X81285714Y-121952380D02*
X81285714Y-120952380D01*
X81666666Y-120952380D01*
X81761904Y-121000000D01*
X81809523Y-121047619D01*
X81857142Y-121142857D01*
X81857142Y-121285714D01*
X81809523Y-121380952D01*
X81761904Y-121428571D01*
X81666666Y-121476190D01*
X81285714Y-121476190D01*
X82714285Y-121285714D02*
X82714285Y-121952380D01*
X82476190Y-120904761D02*
X82238095Y-121619047D01*
X82857142Y-121619047D01*
X83666666Y-121285714D02*
X83666666Y-121952380D01*
X83428571Y-120904761D02*
X83190476Y-121619047D01*
X83809523Y-121619047D01*
%TO.C,C57*%
X142757142Y-153105357D02*
X142804761Y-153152976D01*
X142852380Y-153295833D01*
X142852380Y-153391071D01*
X142804761Y-153533928D01*
X142709523Y-153629166D01*
X142614285Y-153676785D01*
X142423809Y-153724404D01*
X142280952Y-153724404D01*
X142090476Y-153676785D01*
X141995238Y-153629166D01*
X141900000Y-153533928D01*
X141852380Y-153391071D01*
X141852380Y-153295833D01*
X141900000Y-153152976D01*
X141947619Y-153105357D01*
X141852380Y-152200595D02*
X141852380Y-152676785D01*
X142328571Y-152724404D01*
X142280952Y-152676785D01*
X142233333Y-152581547D01*
X142233333Y-152343452D01*
X142280952Y-152248214D01*
X142328571Y-152200595D01*
X142423809Y-152152976D01*
X142661904Y-152152976D01*
X142757142Y-152200595D01*
X142804761Y-152248214D01*
X142852380Y-152343452D01*
X142852380Y-152581547D01*
X142804761Y-152676785D01*
X142757142Y-152724404D01*
X141852380Y-151819642D02*
X141852380Y-151152976D01*
X142852380Y-151581547D01*
%TO.C,C56*%
X119927142Y-151242857D02*
X119974761Y-151290476D01*
X120022380Y-151433333D01*
X120022380Y-151528571D01*
X119974761Y-151671428D01*
X119879523Y-151766666D01*
X119784285Y-151814285D01*
X119593809Y-151861904D01*
X119450952Y-151861904D01*
X119260476Y-151814285D01*
X119165238Y-151766666D01*
X119070000Y-151671428D01*
X119022380Y-151528571D01*
X119022380Y-151433333D01*
X119070000Y-151290476D01*
X119117619Y-151242857D01*
X119022380Y-150338095D02*
X119022380Y-150814285D01*
X119498571Y-150861904D01*
X119450952Y-150814285D01*
X119403333Y-150719047D01*
X119403333Y-150480952D01*
X119450952Y-150385714D01*
X119498571Y-150338095D01*
X119593809Y-150290476D01*
X119831904Y-150290476D01*
X119927142Y-150338095D01*
X119974761Y-150385714D01*
X120022380Y-150480952D01*
X120022380Y-150719047D01*
X119974761Y-150814285D01*
X119927142Y-150861904D01*
X119022380Y-149433333D02*
X119022380Y-149623809D01*
X119070000Y-149719047D01*
X119117619Y-149766666D01*
X119260476Y-149861904D01*
X119450952Y-149909523D01*
X119831904Y-149909523D01*
X119927142Y-149861904D01*
X119974761Y-149814285D01*
X120022380Y-149719047D01*
X120022380Y-149528571D01*
X119974761Y-149433333D01*
X119927142Y-149385714D01*
X119831904Y-149338095D01*
X119593809Y-149338095D01*
X119498571Y-149385714D01*
X119450952Y-149433333D01*
X119403333Y-149528571D01*
X119403333Y-149719047D01*
X119450952Y-149814285D01*
X119498571Y-149861904D01*
X119593809Y-149909523D01*
%TO.C,C55*%
X120057142Y-154642857D02*
X120104761Y-154690476D01*
X120152380Y-154833333D01*
X120152380Y-154928571D01*
X120104761Y-155071428D01*
X120009523Y-155166666D01*
X119914285Y-155214285D01*
X119723809Y-155261904D01*
X119580952Y-155261904D01*
X119390476Y-155214285D01*
X119295238Y-155166666D01*
X119200000Y-155071428D01*
X119152380Y-154928571D01*
X119152380Y-154833333D01*
X119200000Y-154690476D01*
X119247619Y-154642857D01*
X119152380Y-153738095D02*
X119152380Y-154214285D01*
X119628571Y-154261904D01*
X119580952Y-154214285D01*
X119533333Y-154119047D01*
X119533333Y-153880952D01*
X119580952Y-153785714D01*
X119628571Y-153738095D01*
X119723809Y-153690476D01*
X119961904Y-153690476D01*
X120057142Y-153738095D01*
X120104761Y-153785714D01*
X120152380Y-153880952D01*
X120152380Y-154119047D01*
X120104761Y-154214285D01*
X120057142Y-154261904D01*
X119152380Y-152785714D02*
X119152380Y-153261904D01*
X119628571Y-153309523D01*
X119580952Y-153261904D01*
X119533333Y-153166666D01*
X119533333Y-152928571D01*
X119580952Y-152833333D01*
X119628571Y-152785714D01*
X119723809Y-152738095D01*
X119961904Y-152738095D01*
X120057142Y-152785714D01*
X120104761Y-152833333D01*
X120152380Y-152928571D01*
X120152380Y-153166666D01*
X120104761Y-153261904D01*
X120057142Y-153309523D01*
%TO.C,C54*%
X82057142Y-120257142D02*
X82009523Y-120304761D01*
X81866666Y-120352380D01*
X81771428Y-120352380D01*
X81628571Y-120304761D01*
X81533333Y-120209523D01*
X81485714Y-120114285D01*
X81438095Y-119923809D01*
X81438095Y-119780952D01*
X81485714Y-119590476D01*
X81533333Y-119495238D01*
X81628571Y-119400000D01*
X81771428Y-119352380D01*
X81866666Y-119352380D01*
X82009523Y-119400000D01*
X82057142Y-119447619D01*
X82961904Y-119352380D02*
X82485714Y-119352380D01*
X82438095Y-119828571D01*
X82485714Y-119780952D01*
X82580952Y-119733333D01*
X82819047Y-119733333D01*
X82914285Y-119780952D01*
X82961904Y-119828571D01*
X83009523Y-119923809D01*
X83009523Y-120161904D01*
X82961904Y-120257142D01*
X82914285Y-120304761D01*
X82819047Y-120352380D01*
X82580952Y-120352380D01*
X82485714Y-120304761D01*
X82438095Y-120257142D01*
X83866666Y-119685714D02*
X83866666Y-120352380D01*
X83628571Y-119304761D02*
X83390476Y-120019047D01*
X84009523Y-120019047D01*
%TO.C,C41*%
X64057142Y-94387142D02*
X64009523Y-94434761D01*
X63866666Y-94482380D01*
X63771428Y-94482380D01*
X63628571Y-94434761D01*
X63533333Y-94339523D01*
X63485714Y-94244285D01*
X63438095Y-94053809D01*
X63438095Y-93910952D01*
X63485714Y-93720476D01*
X63533333Y-93625238D01*
X63628571Y-93530000D01*
X63771428Y-93482380D01*
X63866666Y-93482380D01*
X64009523Y-93530000D01*
X64057142Y-93577619D01*
X64914285Y-93815714D02*
X64914285Y-94482380D01*
X64676190Y-93434761D02*
X64438095Y-94149047D01*
X65057142Y-94149047D01*
X65961904Y-94482380D02*
X65390476Y-94482380D01*
X65676190Y-94482380D02*
X65676190Y-93482380D01*
X65580952Y-93625238D01*
X65485714Y-93720476D01*
X65390476Y-93768095D01*
%TO.C,C53*%
X82057142Y-118757142D02*
X82009523Y-118804761D01*
X81866666Y-118852380D01*
X81771428Y-118852380D01*
X81628571Y-118804761D01*
X81533333Y-118709523D01*
X81485714Y-118614285D01*
X81438095Y-118423809D01*
X81438095Y-118280952D01*
X81485714Y-118090476D01*
X81533333Y-117995238D01*
X81628571Y-117900000D01*
X81771428Y-117852380D01*
X81866666Y-117852380D01*
X82009523Y-117900000D01*
X82057142Y-117947619D01*
X82961904Y-117852380D02*
X82485714Y-117852380D01*
X82438095Y-118328571D01*
X82485714Y-118280952D01*
X82580952Y-118233333D01*
X82819047Y-118233333D01*
X82914285Y-118280952D01*
X82961904Y-118328571D01*
X83009523Y-118423809D01*
X83009523Y-118661904D01*
X82961904Y-118757142D01*
X82914285Y-118804761D01*
X82819047Y-118852380D01*
X82580952Y-118852380D01*
X82485714Y-118804761D01*
X82438095Y-118757142D01*
X83342857Y-117852380D02*
X83961904Y-117852380D01*
X83628571Y-118233333D01*
X83771428Y-118233333D01*
X83866666Y-118280952D01*
X83914285Y-118328571D01*
X83961904Y-118423809D01*
X83961904Y-118661904D01*
X83914285Y-118757142D01*
X83866666Y-118804761D01*
X83771428Y-118852380D01*
X83485714Y-118852380D01*
X83390476Y-118804761D01*
X83342857Y-118757142D01*
%TO.C,C48*%
X44057142Y-114587142D02*
X44009523Y-114634761D01*
X43866666Y-114682380D01*
X43771428Y-114682380D01*
X43628571Y-114634761D01*
X43533333Y-114539523D01*
X43485714Y-114444285D01*
X43438095Y-114253809D01*
X43438095Y-114110952D01*
X43485714Y-113920476D01*
X43533333Y-113825238D01*
X43628571Y-113730000D01*
X43771428Y-113682380D01*
X43866666Y-113682380D01*
X44009523Y-113730000D01*
X44057142Y-113777619D01*
X44914285Y-114015714D02*
X44914285Y-114682380D01*
X44676190Y-113634761D02*
X44438095Y-114349047D01*
X45057142Y-114349047D01*
X45580952Y-114110952D02*
X45485714Y-114063333D01*
X45438095Y-114015714D01*
X45390476Y-113920476D01*
X45390476Y-113872857D01*
X45438095Y-113777619D01*
X45485714Y-113730000D01*
X45580952Y-113682380D01*
X45771428Y-113682380D01*
X45866666Y-113730000D01*
X45914285Y-113777619D01*
X45961904Y-113872857D01*
X45961904Y-113920476D01*
X45914285Y-114015714D01*
X45866666Y-114063333D01*
X45771428Y-114110952D01*
X45580952Y-114110952D01*
X45485714Y-114158571D01*
X45438095Y-114206190D01*
X45390476Y-114301428D01*
X45390476Y-114491904D01*
X45438095Y-114587142D01*
X45485714Y-114634761D01*
X45580952Y-114682380D01*
X45771428Y-114682380D01*
X45866666Y-114634761D01*
X45914285Y-114587142D01*
X45961904Y-114491904D01*
X45961904Y-114301428D01*
X45914285Y-114206190D01*
X45866666Y-114158571D01*
X45771428Y-114110952D01*
%TO.C,C19*%
X43757142Y-92487142D02*
X43709523Y-92534761D01*
X43566666Y-92582380D01*
X43471428Y-92582380D01*
X43328571Y-92534761D01*
X43233333Y-92439523D01*
X43185714Y-92344285D01*
X43138095Y-92153809D01*
X43138095Y-92010952D01*
X43185714Y-91820476D01*
X43233333Y-91725238D01*
X43328571Y-91630000D01*
X43471428Y-91582380D01*
X43566666Y-91582380D01*
X43709523Y-91630000D01*
X43757142Y-91677619D01*
X44709523Y-92582380D02*
X44138095Y-92582380D01*
X44423809Y-92582380D02*
X44423809Y-91582380D01*
X44328571Y-91725238D01*
X44233333Y-91820476D01*
X44138095Y-91868095D01*
X45185714Y-92582380D02*
X45376190Y-92582380D01*
X45471428Y-92534761D01*
X45519047Y-92487142D01*
X45614285Y-92344285D01*
X45661904Y-92153809D01*
X45661904Y-91772857D01*
X45614285Y-91677619D01*
X45566666Y-91630000D01*
X45471428Y-91582380D01*
X45280952Y-91582380D01*
X45185714Y-91630000D01*
X45138095Y-91677619D01*
X45090476Y-91772857D01*
X45090476Y-92010952D01*
X45138095Y-92106190D01*
X45185714Y-92153809D01*
X45280952Y-92201428D01*
X45471428Y-92201428D01*
X45566666Y-92153809D01*
X45614285Y-92106190D01*
X45661904Y-92010952D01*
%TO.C,C17*%
X44057142Y-109687142D02*
X44009523Y-109734761D01*
X43866666Y-109782380D01*
X43771428Y-109782380D01*
X43628571Y-109734761D01*
X43533333Y-109639523D01*
X43485714Y-109544285D01*
X43438095Y-109353809D01*
X43438095Y-109210952D01*
X43485714Y-109020476D01*
X43533333Y-108925238D01*
X43628571Y-108830000D01*
X43771428Y-108782380D01*
X43866666Y-108782380D01*
X44009523Y-108830000D01*
X44057142Y-108877619D01*
X45009523Y-109782380D02*
X44438095Y-109782380D01*
X44723809Y-109782380D02*
X44723809Y-108782380D01*
X44628571Y-108925238D01*
X44533333Y-109020476D01*
X44438095Y-109068095D01*
X45342857Y-108782380D02*
X46009523Y-108782380D01*
X45580952Y-109782380D01*
%TO.C,C14*%
X43457142Y-86157142D02*
X43409523Y-86204761D01*
X43266666Y-86252380D01*
X43171428Y-86252380D01*
X43028571Y-86204761D01*
X42933333Y-86109523D01*
X42885714Y-86014285D01*
X42838095Y-85823809D01*
X42838095Y-85680952D01*
X42885714Y-85490476D01*
X42933333Y-85395238D01*
X43028571Y-85300000D01*
X43171428Y-85252380D01*
X43266666Y-85252380D01*
X43409523Y-85300000D01*
X43457142Y-85347619D01*
X44409523Y-86252380D02*
X43838095Y-86252380D01*
X44123809Y-86252380D02*
X44123809Y-85252380D01*
X44028571Y-85395238D01*
X43933333Y-85490476D01*
X43838095Y-85538095D01*
X45266666Y-85585714D02*
X45266666Y-86252380D01*
X45028571Y-85204761D02*
X44790476Y-85919047D01*
X45409523Y-85919047D01*
%TO.C,D16*%
X43285714Y-111852380D02*
X43285714Y-110852380D01*
X43523809Y-110852380D01*
X43666666Y-110900000D01*
X43761904Y-110995238D01*
X43809523Y-111090476D01*
X43857142Y-111280952D01*
X43857142Y-111423809D01*
X43809523Y-111614285D01*
X43761904Y-111709523D01*
X43666666Y-111804761D01*
X43523809Y-111852380D01*
X43285714Y-111852380D01*
X44809523Y-111852380D02*
X44238095Y-111852380D01*
X44523809Y-111852380D02*
X44523809Y-110852380D01*
X44428571Y-110995238D01*
X44333333Y-111090476D01*
X44238095Y-111138095D01*
X45666666Y-110852380D02*
X45476190Y-110852380D01*
X45380952Y-110900000D01*
X45333333Y-110947619D01*
X45238095Y-111090476D01*
X45190476Y-111280952D01*
X45190476Y-111661904D01*
X45238095Y-111757142D01*
X45285714Y-111804761D01*
X45380952Y-111852380D01*
X45571428Y-111852380D01*
X45666666Y-111804761D01*
X45714285Y-111757142D01*
X45761904Y-111661904D01*
X45761904Y-111423809D01*
X45714285Y-111328571D01*
X45666666Y-111280952D01*
X45571428Y-111233333D01*
X45380952Y-111233333D01*
X45285714Y-111280952D01*
X45238095Y-111328571D01*
X45190476Y-111423809D01*
%TO.C,D15*%
X42985714Y-106752380D02*
X42985714Y-105752380D01*
X43223809Y-105752380D01*
X43366666Y-105800000D01*
X43461904Y-105895238D01*
X43509523Y-105990476D01*
X43557142Y-106180952D01*
X43557142Y-106323809D01*
X43509523Y-106514285D01*
X43461904Y-106609523D01*
X43366666Y-106704761D01*
X43223809Y-106752380D01*
X42985714Y-106752380D01*
X44509523Y-106752380D02*
X43938095Y-106752380D01*
X44223809Y-106752380D02*
X44223809Y-105752380D01*
X44128571Y-105895238D01*
X44033333Y-105990476D01*
X43938095Y-106038095D01*
X45414285Y-105752380D02*
X44938095Y-105752380D01*
X44890476Y-106228571D01*
X44938095Y-106180952D01*
X45033333Y-106133333D01*
X45271428Y-106133333D01*
X45366666Y-106180952D01*
X45414285Y-106228571D01*
X45461904Y-106323809D01*
X45461904Y-106561904D01*
X45414285Y-106657142D01*
X45366666Y-106704761D01*
X45271428Y-106752380D01*
X45033333Y-106752380D01*
X44938095Y-106704761D01*
X44890476Y-106657142D01*
%TO.C,D14*%
X42785714Y-88552380D02*
X42785714Y-87552380D01*
X43023809Y-87552380D01*
X43166666Y-87600000D01*
X43261904Y-87695238D01*
X43309523Y-87790476D01*
X43357142Y-87980952D01*
X43357142Y-88123809D01*
X43309523Y-88314285D01*
X43261904Y-88409523D01*
X43166666Y-88504761D01*
X43023809Y-88552380D01*
X42785714Y-88552380D01*
X44309523Y-88552380D02*
X43738095Y-88552380D01*
X44023809Y-88552380D02*
X44023809Y-87552380D01*
X43928571Y-87695238D01*
X43833333Y-87790476D01*
X43738095Y-87838095D01*
X45166666Y-87885714D02*
X45166666Y-88552380D01*
X44928571Y-87504761D02*
X44690476Y-88219047D01*
X45309523Y-88219047D01*
%TO.C,D13*%
X42885714Y-83152380D02*
X42885714Y-82152380D01*
X43123809Y-82152380D01*
X43266666Y-82200000D01*
X43361904Y-82295238D01*
X43409523Y-82390476D01*
X43457142Y-82580952D01*
X43457142Y-82723809D01*
X43409523Y-82914285D01*
X43361904Y-83009523D01*
X43266666Y-83104761D01*
X43123809Y-83152380D01*
X42885714Y-83152380D01*
X44409523Y-83152380D02*
X43838095Y-83152380D01*
X44123809Y-83152380D02*
X44123809Y-82152380D01*
X44028571Y-82295238D01*
X43933333Y-82390476D01*
X43838095Y-82438095D01*
X44742857Y-82152380D02*
X45361904Y-82152380D01*
X45028571Y-82533333D01*
X45171428Y-82533333D01*
X45266666Y-82580952D01*
X45314285Y-82628571D01*
X45361904Y-82723809D01*
X45361904Y-82961904D01*
X45314285Y-83057142D01*
X45266666Y-83104761D01*
X45171428Y-83152380D01*
X44885714Y-83152380D01*
X44790476Y-83104761D01*
X44742857Y-83057142D01*
%TO.C,D12*%
X131185714Y-61852380D02*
X131185714Y-60852380D01*
X131423809Y-60852380D01*
X131566666Y-60900000D01*
X131661904Y-60995238D01*
X131709523Y-61090476D01*
X131757142Y-61280952D01*
X131757142Y-61423809D01*
X131709523Y-61614285D01*
X131661904Y-61709523D01*
X131566666Y-61804761D01*
X131423809Y-61852380D01*
X131185714Y-61852380D01*
X132709523Y-61852380D02*
X132138095Y-61852380D01*
X132423809Y-61852380D02*
X132423809Y-60852380D01*
X132328571Y-60995238D01*
X132233333Y-61090476D01*
X132138095Y-61138095D01*
X133090476Y-60947619D02*
X133138095Y-60900000D01*
X133233333Y-60852380D01*
X133471428Y-60852380D01*
X133566666Y-60900000D01*
X133614285Y-60947619D01*
X133661904Y-61042857D01*
X133661904Y-61138095D01*
X133614285Y-61280952D01*
X133042857Y-61852380D01*
X133661904Y-61852380D01*
%TO.C,D11*%
X131385714Y-73852380D02*
X131385714Y-72852380D01*
X131623809Y-72852380D01*
X131766666Y-72900000D01*
X131861904Y-72995238D01*
X131909523Y-73090476D01*
X131957142Y-73280952D01*
X131957142Y-73423809D01*
X131909523Y-73614285D01*
X131861904Y-73709523D01*
X131766666Y-73804761D01*
X131623809Y-73852380D01*
X131385714Y-73852380D01*
X132909523Y-73852380D02*
X132338095Y-73852380D01*
X132623809Y-73852380D02*
X132623809Y-72852380D01*
X132528571Y-72995238D01*
X132433333Y-73090476D01*
X132338095Y-73138095D01*
X133861904Y-73852380D02*
X133290476Y-73852380D01*
X133576190Y-73852380D02*
X133576190Y-72852380D01*
X133480952Y-72995238D01*
X133385714Y-73090476D01*
X133290476Y-73138095D01*
%TO.C,C10*%
X128927142Y-65242857D02*
X128974761Y-65290476D01*
X129022380Y-65433333D01*
X129022380Y-65528571D01*
X128974761Y-65671428D01*
X128879523Y-65766666D01*
X128784285Y-65814285D01*
X128593809Y-65861904D01*
X128450952Y-65861904D01*
X128260476Y-65814285D01*
X128165238Y-65766666D01*
X128070000Y-65671428D01*
X128022380Y-65528571D01*
X128022380Y-65433333D01*
X128070000Y-65290476D01*
X128117619Y-65242857D01*
X129022380Y-64290476D02*
X129022380Y-64861904D01*
X129022380Y-64576190D02*
X128022380Y-64576190D01*
X128165238Y-64671428D01*
X128260476Y-64766666D01*
X128308095Y-64861904D01*
X128022380Y-63671428D02*
X128022380Y-63576190D01*
X128070000Y-63480952D01*
X128117619Y-63433333D01*
X128212857Y-63385714D01*
X128403333Y-63338095D01*
X128641428Y-63338095D01*
X128831904Y-63385714D01*
X128927142Y-63433333D01*
X128974761Y-63480952D01*
X129022380Y-63576190D01*
X129022380Y-63671428D01*
X128974761Y-63766666D01*
X128927142Y-63814285D01*
X128831904Y-63861904D01*
X128641428Y-63909523D01*
X128403333Y-63909523D01*
X128212857Y-63861904D01*
X128117619Y-63814285D01*
X128070000Y-63766666D01*
X128022380Y-63671428D01*
%TO.C,C4*%
X128927142Y-71666666D02*
X128974761Y-71714285D01*
X129022380Y-71857142D01*
X129022380Y-71952380D01*
X128974761Y-72095238D01*
X128879523Y-72190476D01*
X128784285Y-72238095D01*
X128593809Y-72285714D01*
X128450952Y-72285714D01*
X128260476Y-72238095D01*
X128165238Y-72190476D01*
X128070000Y-72095238D01*
X128022380Y-71952380D01*
X128022380Y-71857142D01*
X128070000Y-71714285D01*
X128117619Y-71666666D01*
X128355714Y-70809523D02*
X129022380Y-70809523D01*
X127974761Y-71047619D02*
X128689047Y-71285714D01*
X128689047Y-70666666D01*
%TO.C,U3*%
X125488095Y-161902380D02*
X125488095Y-162711904D01*
X125535714Y-162807142D01*
X125583333Y-162854761D01*
X125678571Y-162902380D01*
X125869047Y-162902380D01*
X125964285Y-162854761D01*
X126011904Y-162807142D01*
X126059523Y-162711904D01*
X126059523Y-161902380D01*
X126440476Y-161902380D02*
X127059523Y-161902380D01*
X126726190Y-162283333D01*
X126869047Y-162283333D01*
X126964285Y-162330952D01*
X127011904Y-162378571D01*
X127059523Y-162473809D01*
X127059523Y-162711904D01*
X127011904Y-162807142D01*
X126964285Y-162854761D01*
X126869047Y-162902380D01*
X126583333Y-162902380D01*
X126488095Y-162854761D01*
X126440476Y-162807142D01*
%TO.C,C40*%
X31357142Y-149142857D02*
X31404761Y-149190476D01*
X31452380Y-149333333D01*
X31452380Y-149428571D01*
X31404761Y-149571428D01*
X31309523Y-149666666D01*
X31214285Y-149714285D01*
X31023809Y-149761904D01*
X30880952Y-149761904D01*
X30690476Y-149714285D01*
X30595238Y-149666666D01*
X30500000Y-149571428D01*
X30452380Y-149428571D01*
X30452380Y-149333333D01*
X30500000Y-149190476D01*
X30547619Y-149142857D01*
X30785714Y-148285714D02*
X31452380Y-148285714D01*
X30404761Y-148523809D02*
X31119047Y-148761904D01*
X31119047Y-148142857D01*
X30452380Y-147571428D02*
X30452380Y-147476190D01*
X30500000Y-147380952D01*
X30547619Y-147333333D01*
X30642857Y-147285714D01*
X30833333Y-147238095D01*
X31071428Y-147238095D01*
X31261904Y-147285714D01*
X31357142Y-147333333D01*
X31404761Y-147380952D01*
X31452380Y-147476190D01*
X31452380Y-147571428D01*
X31404761Y-147666666D01*
X31357142Y-147714285D01*
X31261904Y-147761904D01*
X31071428Y-147809523D01*
X30833333Y-147809523D01*
X30642857Y-147761904D01*
X30547619Y-147714285D01*
X30500000Y-147666666D01*
X30452380Y-147571428D01*
%TO.C,J5*%
X118308666Y-180746380D02*
X118308666Y-181460666D01*
X118261047Y-181603523D01*
X118165809Y-181698761D01*
X118022952Y-181746380D01*
X117927714Y-181746380D01*
X119261047Y-180746380D02*
X118784857Y-180746380D01*
X118737238Y-181222571D01*
X118784857Y-181174952D01*
X118880095Y-181127333D01*
X119118190Y-181127333D01*
X119213428Y-181174952D01*
X119261047Y-181222571D01*
X119308666Y-181317809D01*
X119308666Y-181555904D01*
X119261047Y-181651142D01*
X119213428Y-181698761D01*
X119118190Y-181746380D01*
X118880095Y-181746380D01*
X118784857Y-181698761D01*
X118737238Y-181651142D01*
%TO.C,TP4*%
X125438095Y-139952380D02*
X126009523Y-139952380D01*
X125723809Y-140952380D02*
X125723809Y-139952380D01*
X126342857Y-140952380D02*
X126342857Y-139952380D01*
X126723809Y-139952380D01*
X126819047Y-140000000D01*
X126866666Y-140047619D01*
X126914285Y-140142857D01*
X126914285Y-140285714D01*
X126866666Y-140380952D01*
X126819047Y-140428571D01*
X126723809Y-140476190D01*
X126342857Y-140476190D01*
X127771428Y-140285714D02*
X127771428Y-140952380D01*
X127533333Y-139904761D02*
X127295238Y-140619047D01*
X127914285Y-140619047D01*
%TO.C,TP3*%
X34188095Y-162202380D02*
X34759523Y-162202380D01*
X34473809Y-163202380D02*
X34473809Y-162202380D01*
X35092857Y-163202380D02*
X35092857Y-162202380D01*
X35473809Y-162202380D01*
X35569047Y-162250000D01*
X35616666Y-162297619D01*
X35664285Y-162392857D01*
X35664285Y-162535714D01*
X35616666Y-162630952D01*
X35569047Y-162678571D01*
X35473809Y-162726190D01*
X35092857Y-162726190D01*
X35997619Y-162202380D02*
X36616666Y-162202380D01*
X36283333Y-162583333D01*
X36426190Y-162583333D01*
X36521428Y-162630952D01*
X36569047Y-162678571D01*
X36616666Y-162773809D01*
X36616666Y-163011904D01*
X36569047Y-163107142D01*
X36521428Y-163154761D01*
X36426190Y-163202380D01*
X36140476Y-163202380D01*
X36045238Y-163154761D01*
X35997619Y-163107142D01*
%TO.C,TP2*%
X73438095Y-74452380D02*
X74009523Y-74452380D01*
X73723809Y-75452380D02*
X73723809Y-74452380D01*
X74342857Y-75452380D02*
X74342857Y-74452380D01*
X74723809Y-74452380D01*
X74819047Y-74500000D01*
X74866666Y-74547619D01*
X74914285Y-74642857D01*
X74914285Y-74785714D01*
X74866666Y-74880952D01*
X74819047Y-74928571D01*
X74723809Y-74976190D01*
X74342857Y-74976190D01*
X75295238Y-74547619D02*
X75342857Y-74500000D01*
X75438095Y-74452380D01*
X75676190Y-74452380D01*
X75771428Y-74500000D01*
X75819047Y-74547619D01*
X75866666Y-74642857D01*
X75866666Y-74738095D01*
X75819047Y-74880952D01*
X75247619Y-75452380D01*
X75866666Y-75452380D01*
%TO.C,TP1*%
X130438095Y-56452380D02*
X131009523Y-56452380D01*
X130723809Y-57452380D02*
X130723809Y-56452380D01*
X131342857Y-57452380D02*
X131342857Y-56452380D01*
X131723809Y-56452380D01*
X131819047Y-56500000D01*
X131866666Y-56547619D01*
X131914285Y-56642857D01*
X131914285Y-56785714D01*
X131866666Y-56880952D01*
X131819047Y-56928571D01*
X131723809Y-56976190D01*
X131342857Y-56976190D01*
X132866666Y-57452380D02*
X132295238Y-57452380D01*
X132580952Y-57452380D02*
X132580952Y-56452380D01*
X132485714Y-56595238D01*
X132390476Y-56690476D01*
X132295238Y-56738095D01*
%TO.C,RV2*%
X60452380Y-127595238D02*
X59976190Y-127928571D01*
X60452380Y-128166666D02*
X59452380Y-128166666D01*
X59452380Y-127785714D01*
X59500000Y-127690476D01*
X59547619Y-127642857D01*
X59642857Y-127595238D01*
X59785714Y-127595238D01*
X59880952Y-127642857D01*
X59928571Y-127690476D01*
X59976190Y-127785714D01*
X59976190Y-128166666D01*
X59452380Y-127309523D02*
X60452380Y-126976190D01*
X59452380Y-126642857D01*
X59547619Y-126357142D02*
X59500000Y-126309523D01*
X59452380Y-126214285D01*
X59452380Y-125976190D01*
X59500000Y-125880952D01*
X59547619Y-125833333D01*
X59642857Y-125785714D01*
X59738095Y-125785714D01*
X59880952Y-125833333D01*
X60452380Y-126404761D01*
X60452380Y-125785714D01*
%TO.C,R43*%
X111512380Y-131568857D02*
X111036190Y-131902190D01*
X111512380Y-132140285D02*
X110512380Y-132140285D01*
X110512380Y-131759333D01*
X110560000Y-131664095D01*
X110607619Y-131616476D01*
X110702857Y-131568857D01*
X110845714Y-131568857D01*
X110940952Y-131616476D01*
X110988571Y-131664095D01*
X111036190Y-131759333D01*
X111036190Y-132140285D01*
X110845714Y-130711714D02*
X111512380Y-130711714D01*
X110464761Y-130949809D02*
X111179047Y-131187904D01*
X111179047Y-130568857D01*
X110512380Y-130283142D02*
X110512380Y-129664095D01*
X110893333Y-129997428D01*
X110893333Y-129854571D01*
X110940952Y-129759333D01*
X110988571Y-129711714D01*
X111083809Y-129664095D01*
X111321904Y-129664095D01*
X111417142Y-129711714D01*
X111464761Y-129759333D01*
X111512380Y-129854571D01*
X111512380Y-130140285D01*
X111464761Y-130235523D01*
X111417142Y-130283142D01*
%TO.C,R42*%
X106193142Y-134078380D02*
X105859809Y-133602190D01*
X105621714Y-134078380D02*
X105621714Y-133078380D01*
X106002666Y-133078380D01*
X106097904Y-133126000D01*
X106145523Y-133173619D01*
X106193142Y-133268857D01*
X106193142Y-133411714D01*
X106145523Y-133506952D01*
X106097904Y-133554571D01*
X106002666Y-133602190D01*
X105621714Y-133602190D01*
X107050285Y-133411714D02*
X107050285Y-134078380D01*
X106812190Y-133030761D02*
X106574095Y-133745047D01*
X107193142Y-133745047D01*
X107526476Y-133173619D02*
X107574095Y-133126000D01*
X107669333Y-133078380D01*
X107907428Y-133078380D01*
X108002666Y-133126000D01*
X108050285Y-133173619D01*
X108097904Y-133268857D01*
X108097904Y-133364095D01*
X108050285Y-133506952D01*
X107478857Y-134078380D01*
X108097904Y-134078380D01*
%TO.C,R41*%
X124357142Y-120022380D02*
X124023809Y-119546190D01*
X123785714Y-120022380D02*
X123785714Y-119022380D01*
X124166666Y-119022380D01*
X124261904Y-119070000D01*
X124309523Y-119117619D01*
X124357142Y-119212857D01*
X124357142Y-119355714D01*
X124309523Y-119450952D01*
X124261904Y-119498571D01*
X124166666Y-119546190D01*
X123785714Y-119546190D01*
X125214285Y-119355714D02*
X125214285Y-120022380D01*
X124976190Y-118974761D02*
X124738095Y-119689047D01*
X125357142Y-119689047D01*
X126261904Y-120022380D02*
X125690476Y-120022380D01*
X125976190Y-120022380D02*
X125976190Y-119022380D01*
X125880952Y-119165238D01*
X125785714Y-119260476D01*
X125690476Y-119308095D01*
%TO.C,R40*%
X102357142Y-82452380D02*
X102023809Y-81976190D01*
X101785714Y-82452380D02*
X101785714Y-81452380D01*
X102166666Y-81452380D01*
X102261904Y-81500000D01*
X102309523Y-81547619D01*
X102357142Y-81642857D01*
X102357142Y-81785714D01*
X102309523Y-81880952D01*
X102261904Y-81928571D01*
X102166666Y-81976190D01*
X101785714Y-81976190D01*
X103214285Y-81785714D02*
X103214285Y-82452380D01*
X102976190Y-81404761D02*
X102738095Y-82119047D01*
X103357142Y-82119047D01*
X103928571Y-81452380D02*
X104023809Y-81452380D01*
X104119047Y-81500000D01*
X104166666Y-81547619D01*
X104214285Y-81642857D01*
X104261904Y-81833333D01*
X104261904Y-82071428D01*
X104214285Y-82261904D01*
X104166666Y-82357142D01*
X104119047Y-82404761D01*
X104023809Y-82452380D01*
X103928571Y-82452380D01*
X103833333Y-82404761D01*
X103785714Y-82357142D01*
X103738095Y-82261904D01*
X103690476Y-82071428D01*
X103690476Y-81833333D01*
X103738095Y-81642857D01*
X103785714Y-81547619D01*
X103833333Y-81500000D01*
X103928571Y-81452380D01*
%TO.C,R39*%
X102357142Y-80452380D02*
X102023809Y-79976190D01*
X101785714Y-80452380D02*
X101785714Y-79452380D01*
X102166666Y-79452380D01*
X102261904Y-79500000D01*
X102309523Y-79547619D01*
X102357142Y-79642857D01*
X102357142Y-79785714D01*
X102309523Y-79880952D01*
X102261904Y-79928571D01*
X102166666Y-79976190D01*
X101785714Y-79976190D01*
X102690476Y-79452380D02*
X103309523Y-79452380D01*
X102976190Y-79833333D01*
X103119047Y-79833333D01*
X103214285Y-79880952D01*
X103261904Y-79928571D01*
X103309523Y-80023809D01*
X103309523Y-80261904D01*
X103261904Y-80357142D01*
X103214285Y-80404761D01*
X103119047Y-80452380D01*
X102833333Y-80452380D01*
X102738095Y-80404761D01*
X102690476Y-80357142D01*
X103785714Y-80452380D02*
X103976190Y-80452380D01*
X104071428Y-80404761D01*
X104119047Y-80357142D01*
X104214285Y-80214285D01*
X104261904Y-80023809D01*
X104261904Y-79642857D01*
X104214285Y-79547619D01*
X104166666Y-79500000D01*
X104071428Y-79452380D01*
X103880952Y-79452380D01*
X103785714Y-79500000D01*
X103738095Y-79547619D01*
X103690476Y-79642857D01*
X103690476Y-79880952D01*
X103738095Y-79976190D01*
X103785714Y-80023809D01*
X103880952Y-80071428D01*
X104071428Y-80071428D01*
X104166666Y-80023809D01*
X104214285Y-79976190D01*
X104261904Y-79880952D01*
%TO.C,R38*%
X59357142Y-121952380D02*
X59023809Y-121476190D01*
X58785714Y-121952380D02*
X58785714Y-120952380D01*
X59166666Y-120952380D01*
X59261904Y-121000000D01*
X59309523Y-121047619D01*
X59357142Y-121142857D01*
X59357142Y-121285714D01*
X59309523Y-121380952D01*
X59261904Y-121428571D01*
X59166666Y-121476190D01*
X58785714Y-121476190D01*
X59690476Y-120952380D02*
X60309523Y-120952380D01*
X59976190Y-121333333D01*
X60119047Y-121333333D01*
X60214285Y-121380952D01*
X60261904Y-121428571D01*
X60309523Y-121523809D01*
X60309523Y-121761904D01*
X60261904Y-121857142D01*
X60214285Y-121904761D01*
X60119047Y-121952380D01*
X59833333Y-121952380D01*
X59738095Y-121904761D01*
X59690476Y-121857142D01*
X60880952Y-121380952D02*
X60785714Y-121333333D01*
X60738095Y-121285714D01*
X60690476Y-121190476D01*
X60690476Y-121142857D01*
X60738095Y-121047619D01*
X60785714Y-121000000D01*
X60880952Y-120952380D01*
X61071428Y-120952380D01*
X61166666Y-121000000D01*
X61214285Y-121047619D01*
X61261904Y-121142857D01*
X61261904Y-121190476D01*
X61214285Y-121285714D01*
X61166666Y-121333333D01*
X61071428Y-121380952D01*
X60880952Y-121380952D01*
X60785714Y-121428571D01*
X60738095Y-121476190D01*
X60690476Y-121571428D01*
X60690476Y-121761904D01*
X60738095Y-121857142D01*
X60785714Y-121904761D01*
X60880952Y-121952380D01*
X61071428Y-121952380D01*
X61166666Y-121904761D01*
X61214285Y-121857142D01*
X61261904Y-121761904D01*
X61261904Y-121571428D01*
X61214285Y-121476190D01*
X61166666Y-121428571D01*
X61071428Y-121380952D01*
%TO.C,R37*%
X122357142Y-77952380D02*
X122023809Y-77476190D01*
X121785714Y-77952380D02*
X121785714Y-76952380D01*
X122166666Y-76952380D01*
X122261904Y-77000000D01*
X122309523Y-77047619D01*
X122357142Y-77142857D01*
X122357142Y-77285714D01*
X122309523Y-77380952D01*
X122261904Y-77428571D01*
X122166666Y-77476190D01*
X121785714Y-77476190D01*
X122690476Y-76952380D02*
X123309523Y-76952380D01*
X122976190Y-77333333D01*
X123119047Y-77333333D01*
X123214285Y-77380952D01*
X123261904Y-77428571D01*
X123309523Y-77523809D01*
X123309523Y-77761904D01*
X123261904Y-77857142D01*
X123214285Y-77904761D01*
X123119047Y-77952380D01*
X122833333Y-77952380D01*
X122738095Y-77904761D01*
X122690476Y-77857142D01*
X123642857Y-76952380D02*
X124309523Y-76952380D01*
X123880952Y-77952380D01*
%TO.C,R36*%
X122357142Y-75952380D02*
X122023809Y-75476190D01*
X121785714Y-75952380D02*
X121785714Y-74952380D01*
X122166666Y-74952380D01*
X122261904Y-75000000D01*
X122309523Y-75047619D01*
X122357142Y-75142857D01*
X122357142Y-75285714D01*
X122309523Y-75380952D01*
X122261904Y-75428571D01*
X122166666Y-75476190D01*
X121785714Y-75476190D01*
X122690476Y-74952380D02*
X123309523Y-74952380D01*
X122976190Y-75333333D01*
X123119047Y-75333333D01*
X123214285Y-75380952D01*
X123261904Y-75428571D01*
X123309523Y-75523809D01*
X123309523Y-75761904D01*
X123261904Y-75857142D01*
X123214285Y-75904761D01*
X123119047Y-75952380D01*
X122833333Y-75952380D01*
X122738095Y-75904761D01*
X122690476Y-75857142D01*
X124166666Y-74952380D02*
X123976190Y-74952380D01*
X123880952Y-75000000D01*
X123833333Y-75047619D01*
X123738095Y-75190476D01*
X123690476Y-75380952D01*
X123690476Y-75761904D01*
X123738095Y-75857142D01*
X123785714Y-75904761D01*
X123880952Y-75952380D01*
X124071428Y-75952380D01*
X124166666Y-75904761D01*
X124214285Y-75857142D01*
X124261904Y-75761904D01*
X124261904Y-75523809D01*
X124214285Y-75428571D01*
X124166666Y-75380952D01*
X124071428Y-75333333D01*
X123880952Y-75333333D01*
X123785714Y-75380952D01*
X123738095Y-75428571D01*
X123690476Y-75523809D01*
%TO.C,R35*%
X102357142Y-76452380D02*
X102023809Y-75976190D01*
X101785714Y-76452380D02*
X101785714Y-75452380D01*
X102166666Y-75452380D01*
X102261904Y-75500000D01*
X102309523Y-75547619D01*
X102357142Y-75642857D01*
X102357142Y-75785714D01*
X102309523Y-75880952D01*
X102261904Y-75928571D01*
X102166666Y-75976190D01*
X101785714Y-75976190D01*
X102690476Y-75452380D02*
X103309523Y-75452380D01*
X102976190Y-75833333D01*
X103119047Y-75833333D01*
X103214285Y-75880952D01*
X103261904Y-75928571D01*
X103309523Y-76023809D01*
X103309523Y-76261904D01*
X103261904Y-76357142D01*
X103214285Y-76404761D01*
X103119047Y-76452380D01*
X102833333Y-76452380D01*
X102738095Y-76404761D01*
X102690476Y-76357142D01*
X104214285Y-75452380D02*
X103738095Y-75452380D01*
X103690476Y-75928571D01*
X103738095Y-75880952D01*
X103833333Y-75833333D01*
X104071428Y-75833333D01*
X104166666Y-75880952D01*
X104214285Y-75928571D01*
X104261904Y-76023809D01*
X104261904Y-76261904D01*
X104214285Y-76357142D01*
X104166666Y-76404761D01*
X104071428Y-76452380D01*
X103833333Y-76452380D01*
X103738095Y-76404761D01*
X103690476Y-76357142D01*
%TO.C,R34*%
X102357142Y-78452380D02*
X102023809Y-77976190D01*
X101785714Y-78452380D02*
X101785714Y-77452380D01*
X102166666Y-77452380D01*
X102261904Y-77500000D01*
X102309523Y-77547619D01*
X102357142Y-77642857D01*
X102357142Y-77785714D01*
X102309523Y-77880952D01*
X102261904Y-77928571D01*
X102166666Y-77976190D01*
X101785714Y-77976190D01*
X102690476Y-77452380D02*
X103309523Y-77452380D01*
X102976190Y-77833333D01*
X103119047Y-77833333D01*
X103214285Y-77880952D01*
X103261904Y-77928571D01*
X103309523Y-78023809D01*
X103309523Y-78261904D01*
X103261904Y-78357142D01*
X103214285Y-78404761D01*
X103119047Y-78452380D01*
X102833333Y-78452380D01*
X102738095Y-78404761D01*
X102690476Y-78357142D01*
X104166666Y-77785714D02*
X104166666Y-78452380D01*
X103928571Y-77404761D02*
X103690476Y-78119047D01*
X104309523Y-78119047D01*
%TO.C,R33*%
X109857142Y-77952380D02*
X109523809Y-77476190D01*
X109285714Y-77952380D02*
X109285714Y-76952380D01*
X109666666Y-76952380D01*
X109761904Y-77000000D01*
X109809523Y-77047619D01*
X109857142Y-77142857D01*
X109857142Y-77285714D01*
X109809523Y-77380952D01*
X109761904Y-77428571D01*
X109666666Y-77476190D01*
X109285714Y-77476190D01*
X110190476Y-76952380D02*
X110809523Y-76952380D01*
X110476190Y-77333333D01*
X110619047Y-77333333D01*
X110714285Y-77380952D01*
X110761904Y-77428571D01*
X110809523Y-77523809D01*
X110809523Y-77761904D01*
X110761904Y-77857142D01*
X110714285Y-77904761D01*
X110619047Y-77952380D01*
X110333333Y-77952380D01*
X110238095Y-77904761D01*
X110190476Y-77857142D01*
X111142857Y-76952380D02*
X111761904Y-76952380D01*
X111428571Y-77333333D01*
X111571428Y-77333333D01*
X111666666Y-77380952D01*
X111714285Y-77428571D01*
X111761904Y-77523809D01*
X111761904Y-77761904D01*
X111714285Y-77857142D01*
X111666666Y-77904761D01*
X111571428Y-77952380D01*
X111285714Y-77952380D01*
X111190476Y-77904761D01*
X111142857Y-77857142D01*
%TO.C,R32*%
X109857142Y-75952380D02*
X109523809Y-75476190D01*
X109285714Y-75952380D02*
X109285714Y-74952380D01*
X109666666Y-74952380D01*
X109761904Y-75000000D01*
X109809523Y-75047619D01*
X109857142Y-75142857D01*
X109857142Y-75285714D01*
X109809523Y-75380952D01*
X109761904Y-75428571D01*
X109666666Y-75476190D01*
X109285714Y-75476190D01*
X110190476Y-74952380D02*
X110809523Y-74952380D01*
X110476190Y-75333333D01*
X110619047Y-75333333D01*
X110714285Y-75380952D01*
X110761904Y-75428571D01*
X110809523Y-75523809D01*
X110809523Y-75761904D01*
X110761904Y-75857142D01*
X110714285Y-75904761D01*
X110619047Y-75952380D01*
X110333333Y-75952380D01*
X110238095Y-75904761D01*
X110190476Y-75857142D01*
X111190476Y-75047619D02*
X111238095Y-75000000D01*
X111333333Y-74952380D01*
X111571428Y-74952380D01*
X111666666Y-75000000D01*
X111714285Y-75047619D01*
X111761904Y-75142857D01*
X111761904Y-75238095D01*
X111714285Y-75380952D01*
X111142857Y-75952380D01*
X111761904Y-75952380D01*
%TO.C,Q8*%
X104883619Y-128481238D02*
X104836000Y-128576476D01*
X104740761Y-128671714D01*
X104597904Y-128814571D01*
X104550285Y-128909809D01*
X104550285Y-129005047D01*
X104788380Y-128957428D02*
X104740761Y-129052666D01*
X104645523Y-129147904D01*
X104455047Y-129195523D01*
X104121714Y-129195523D01*
X103931238Y-129147904D01*
X103836000Y-129052666D01*
X103788380Y-128957428D01*
X103788380Y-128766952D01*
X103836000Y-128671714D01*
X103931238Y-128576476D01*
X104121714Y-128528857D01*
X104455047Y-128528857D01*
X104645523Y-128576476D01*
X104740761Y-128671714D01*
X104788380Y-128766952D01*
X104788380Y-128957428D01*
X104216952Y-127957428D02*
X104169333Y-128052666D01*
X104121714Y-128100285D01*
X104026476Y-128147904D01*
X103978857Y-128147904D01*
X103883619Y-128100285D01*
X103836000Y-128052666D01*
X103788380Y-127957428D01*
X103788380Y-127766952D01*
X103836000Y-127671714D01*
X103883619Y-127624095D01*
X103978857Y-127576476D01*
X104026476Y-127576476D01*
X104121714Y-127624095D01*
X104169333Y-127671714D01*
X104216952Y-127766952D01*
X104216952Y-127957428D01*
X104264571Y-128052666D01*
X104312190Y-128100285D01*
X104407428Y-128147904D01*
X104597904Y-128147904D01*
X104693142Y-128100285D01*
X104740761Y-128052666D01*
X104788380Y-127957428D01*
X104788380Y-127766952D01*
X104740761Y-127671714D01*
X104693142Y-127624095D01*
X104597904Y-127576476D01*
X104407428Y-127576476D01*
X104312190Y-127624095D01*
X104264571Y-127671714D01*
X104216952Y-127766952D01*
%TO.C,Q7*%
X118047619Y-80595238D02*
X118000000Y-80690476D01*
X117904761Y-80785714D01*
X117761904Y-80928571D01*
X117714285Y-81023809D01*
X117714285Y-81119047D01*
X117952380Y-81071428D02*
X117904761Y-81166666D01*
X117809523Y-81261904D01*
X117619047Y-81309523D01*
X117285714Y-81309523D01*
X117095238Y-81261904D01*
X117000000Y-81166666D01*
X116952380Y-81071428D01*
X116952380Y-80880952D01*
X117000000Y-80785714D01*
X117095238Y-80690476D01*
X117285714Y-80642857D01*
X117619047Y-80642857D01*
X117809523Y-80690476D01*
X117904761Y-80785714D01*
X117952380Y-80880952D01*
X117952380Y-81071428D01*
X116952380Y-80309523D02*
X116952380Y-79642857D01*
X117952380Y-80071428D01*
%TO.C,Q6*%
X125404761Y-57547619D02*
X125309523Y-57500000D01*
X125214285Y-57404761D01*
X125071428Y-57261904D01*
X124976190Y-57214285D01*
X124880952Y-57214285D01*
X124928571Y-57452380D02*
X124833333Y-57404761D01*
X124738095Y-57309523D01*
X124690476Y-57119047D01*
X124690476Y-56785714D01*
X124738095Y-56595238D01*
X124833333Y-56500000D01*
X124928571Y-56452380D01*
X125119047Y-56452380D01*
X125214285Y-56500000D01*
X125309523Y-56595238D01*
X125357142Y-56785714D01*
X125357142Y-57119047D01*
X125309523Y-57309523D01*
X125214285Y-57404761D01*
X125119047Y-57452380D01*
X124928571Y-57452380D01*
X126214285Y-56452380D02*
X126023809Y-56452380D01*
X125928571Y-56500000D01*
X125880952Y-56547619D01*
X125785714Y-56690476D01*
X125738095Y-56880952D01*
X125738095Y-57261904D01*
X125785714Y-57357142D01*
X125833333Y-57404761D01*
X125928571Y-57452380D01*
X126119047Y-57452380D01*
X126214285Y-57404761D01*
X126261904Y-57357142D01*
X126309523Y-57261904D01*
X126309523Y-57023809D01*
X126261904Y-56928571D01*
X126214285Y-56880952D01*
X126119047Y-56833333D01*
X125928571Y-56833333D01*
X125833333Y-56880952D01*
X125785714Y-56928571D01*
X125738095Y-57023809D01*
%TO.C,Q5*%
X111547619Y-80595238D02*
X111500000Y-80690476D01*
X111404761Y-80785714D01*
X111261904Y-80928571D01*
X111214285Y-81023809D01*
X111214285Y-81119047D01*
X111452380Y-81071428D02*
X111404761Y-81166666D01*
X111309523Y-81261904D01*
X111119047Y-81309523D01*
X110785714Y-81309523D01*
X110595238Y-81261904D01*
X110500000Y-81166666D01*
X110452380Y-81071428D01*
X110452380Y-80880952D01*
X110500000Y-80785714D01*
X110595238Y-80690476D01*
X110785714Y-80642857D01*
X111119047Y-80642857D01*
X111309523Y-80690476D01*
X111404761Y-80785714D01*
X111452380Y-80880952D01*
X111452380Y-81071428D01*
X110452380Y-79738095D02*
X110452380Y-80214285D01*
X110928571Y-80261904D01*
X110880952Y-80214285D01*
X110833333Y-80119047D01*
X110833333Y-79880952D01*
X110880952Y-79785714D01*
X110928571Y-79738095D01*
X111023809Y-79690476D01*
X111261904Y-79690476D01*
X111357142Y-79738095D01*
X111404761Y-79785714D01*
X111452380Y-79880952D01*
X111452380Y-80119047D01*
X111404761Y-80214285D01*
X111357142Y-80261904D01*
%TO.C,Q4*%
X106704761Y-57547619D02*
X106609523Y-57500000D01*
X106514285Y-57404761D01*
X106371428Y-57261904D01*
X106276190Y-57214285D01*
X106180952Y-57214285D01*
X106228571Y-57452380D02*
X106133333Y-57404761D01*
X106038095Y-57309523D01*
X105990476Y-57119047D01*
X105990476Y-56785714D01*
X106038095Y-56595238D01*
X106133333Y-56500000D01*
X106228571Y-56452380D01*
X106419047Y-56452380D01*
X106514285Y-56500000D01*
X106609523Y-56595238D01*
X106657142Y-56785714D01*
X106657142Y-57119047D01*
X106609523Y-57309523D01*
X106514285Y-57404761D01*
X106419047Y-57452380D01*
X106228571Y-57452380D01*
X107514285Y-56785714D02*
X107514285Y-57452380D01*
X107276190Y-56404761D02*
X107038095Y-57119047D01*
X107657142Y-57119047D01*
%TO.C,J11*%
X126452380Y-51309523D02*
X127166666Y-51309523D01*
X127309523Y-51357142D01*
X127404761Y-51452380D01*
X127452380Y-51595238D01*
X127452380Y-51690476D01*
X127452380Y-50309523D02*
X127452380Y-50880952D01*
X127452380Y-50595238D02*
X126452380Y-50595238D01*
X126595238Y-50690476D01*
X126690476Y-50785714D01*
X126738095Y-50880952D01*
X127452380Y-49357142D02*
X127452380Y-49928571D01*
X127452380Y-49642857D02*
X126452380Y-49642857D01*
X126595238Y-49738095D01*
X126690476Y-49833333D01*
X126738095Y-49928571D01*
%TO.C,J9*%
X115752380Y-50833333D02*
X116466666Y-50833333D01*
X116609523Y-50880952D01*
X116704761Y-50976190D01*
X116752380Y-51119047D01*
X116752380Y-51214285D01*
X116752380Y-50309523D02*
X116752380Y-50119047D01*
X116704761Y-50023809D01*
X116657142Y-49976190D01*
X116514285Y-49880952D01*
X116323809Y-49833333D01*
X115942857Y-49833333D01*
X115847619Y-49880952D01*
X115800000Y-49928571D01*
X115752380Y-50023809D01*
X115752380Y-50214285D01*
X115800000Y-50309523D01*
X115847619Y-50357142D01*
X115942857Y-50404761D01*
X116180952Y-50404761D01*
X116276190Y-50357142D01*
X116323809Y-50309523D01*
X116371428Y-50214285D01*
X116371428Y-50023809D01*
X116323809Y-49928571D01*
X116276190Y-49880952D01*
X116180952Y-49833333D01*
%TO.C,D10*%
X133437714Y-116848380D02*
X133437714Y-115848380D01*
X133675809Y-115848380D01*
X133818666Y-115896000D01*
X133913904Y-115991238D01*
X133961523Y-116086476D01*
X134009142Y-116276952D01*
X134009142Y-116419809D01*
X133961523Y-116610285D01*
X133913904Y-116705523D01*
X133818666Y-116800761D01*
X133675809Y-116848380D01*
X133437714Y-116848380D01*
X134961523Y-116848380D02*
X134390095Y-116848380D01*
X134675809Y-116848380D02*
X134675809Y-115848380D01*
X134580571Y-115991238D01*
X134485333Y-116086476D01*
X134390095Y-116134095D01*
X135580571Y-115848380D02*
X135675809Y-115848380D01*
X135771047Y-115896000D01*
X135818666Y-115943619D01*
X135866285Y-116038857D01*
X135913904Y-116229333D01*
X135913904Y-116467428D01*
X135866285Y-116657904D01*
X135818666Y-116753142D01*
X135771047Y-116800761D01*
X135675809Y-116848380D01*
X135580571Y-116848380D01*
X135485333Y-116800761D01*
X135437714Y-116753142D01*
X135390095Y-116657904D01*
X135342476Y-116467428D01*
X135342476Y-116229333D01*
X135390095Y-116038857D01*
X135437714Y-115943619D01*
X135485333Y-115896000D01*
X135580571Y-115848380D01*
%TO.C,C52*%
X130785142Y-121356857D02*
X130832761Y-121404476D01*
X130880380Y-121547333D01*
X130880380Y-121642571D01*
X130832761Y-121785428D01*
X130737523Y-121880666D01*
X130642285Y-121928285D01*
X130451809Y-121975904D01*
X130308952Y-121975904D01*
X130118476Y-121928285D01*
X130023238Y-121880666D01*
X129928000Y-121785428D01*
X129880380Y-121642571D01*
X129880380Y-121547333D01*
X129928000Y-121404476D01*
X129975619Y-121356857D01*
X129880380Y-120452095D02*
X129880380Y-120928285D01*
X130356571Y-120975904D01*
X130308952Y-120928285D01*
X130261333Y-120833047D01*
X130261333Y-120594952D01*
X130308952Y-120499714D01*
X130356571Y-120452095D01*
X130451809Y-120404476D01*
X130689904Y-120404476D01*
X130785142Y-120452095D01*
X130832761Y-120499714D01*
X130880380Y-120594952D01*
X130880380Y-120833047D01*
X130832761Y-120928285D01*
X130785142Y-120975904D01*
X129975619Y-120023523D02*
X129928000Y-119975904D01*
X129880380Y-119880666D01*
X129880380Y-119642571D01*
X129928000Y-119547333D01*
X129975619Y-119499714D01*
X130070857Y-119452095D01*
X130166095Y-119452095D01*
X130308952Y-119499714D01*
X130880380Y-120071142D01*
X130880380Y-119452095D01*
%TO.C,C51*%
X59357142Y-123857142D02*
X59309523Y-123904761D01*
X59166666Y-123952380D01*
X59071428Y-123952380D01*
X58928571Y-123904761D01*
X58833333Y-123809523D01*
X58785714Y-123714285D01*
X58738095Y-123523809D01*
X58738095Y-123380952D01*
X58785714Y-123190476D01*
X58833333Y-123095238D01*
X58928571Y-123000000D01*
X59071428Y-122952380D01*
X59166666Y-122952380D01*
X59309523Y-123000000D01*
X59357142Y-123047619D01*
X60261904Y-122952380D02*
X59785714Y-122952380D01*
X59738095Y-123428571D01*
X59785714Y-123380952D01*
X59880952Y-123333333D01*
X60119047Y-123333333D01*
X60214285Y-123380952D01*
X60261904Y-123428571D01*
X60309523Y-123523809D01*
X60309523Y-123761904D01*
X60261904Y-123857142D01*
X60214285Y-123904761D01*
X60119047Y-123952380D01*
X59880952Y-123952380D01*
X59785714Y-123904761D01*
X59738095Y-123857142D01*
X61261904Y-123952380D02*
X60690476Y-123952380D01*
X60976190Y-123952380D02*
X60976190Y-122952380D01*
X60880952Y-123095238D01*
X60785714Y-123190476D01*
X60690476Y-123238095D01*
%TO.C,BZ1*%
X116877047Y-128568571D02*
X117019904Y-128616190D01*
X117067523Y-128663809D01*
X117115142Y-128759047D01*
X117115142Y-128901904D01*
X117067523Y-128997142D01*
X117019904Y-129044761D01*
X116924666Y-129092380D01*
X116543714Y-129092380D01*
X116543714Y-128092380D01*
X116877047Y-128092380D01*
X116972285Y-128140000D01*
X117019904Y-128187619D01*
X117067523Y-128282857D01*
X117067523Y-128378095D01*
X117019904Y-128473333D01*
X116972285Y-128520952D01*
X116877047Y-128568571D01*
X116543714Y-128568571D01*
X117448476Y-128092380D02*
X118115142Y-128092380D01*
X117448476Y-129092380D01*
X118115142Y-129092380D01*
X119019904Y-129092380D02*
X118448476Y-129092380D01*
X118734190Y-129092380D02*
X118734190Y-128092380D01*
X118638952Y-128235238D01*
X118543714Y-128330476D01*
X118448476Y-128378095D01*
X116879047Y-124901428D02*
X117640952Y-124901428D01*
X117260000Y-125282380D02*
X117260000Y-124520476D01*
%TO.C,L4*%
X134873333Y-104876380D02*
X134397142Y-104876380D01*
X134397142Y-103876380D01*
X135635238Y-104209714D02*
X135635238Y-104876380D01*
X135397142Y-103828761D02*
X135159047Y-104543047D01*
X135778095Y-104543047D01*
%TO.C,Y1*%
X71328190Y-119528190D02*
X71804380Y-119528190D01*
X70804380Y-119861523D02*
X71328190Y-119528190D01*
X70804380Y-119194857D01*
X71804380Y-118337714D02*
X71804380Y-118909142D01*
X71804380Y-118623428D02*
X70804380Y-118623428D01*
X70947238Y-118718666D01*
X71042476Y-118813904D01*
X71090095Y-118909142D01*
%TO.C,U13*%
X127816380Y-82148095D02*
X128625904Y-82148095D01*
X128721142Y-82100476D01*
X128768761Y-82052857D01*
X128816380Y-81957619D01*
X128816380Y-81767142D01*
X128768761Y-81671904D01*
X128721142Y-81624285D01*
X128625904Y-81576666D01*
X127816380Y-81576666D01*
X128816380Y-80576666D02*
X128816380Y-81148095D01*
X128816380Y-80862380D02*
X127816380Y-80862380D01*
X127959238Y-80957619D01*
X128054476Y-81052857D01*
X128102095Y-81148095D01*
X127816380Y-80243333D02*
X127816380Y-79624285D01*
X128197333Y-79957619D01*
X128197333Y-79814761D01*
X128244952Y-79719523D01*
X128292571Y-79671904D01*
X128387809Y-79624285D01*
X128625904Y-79624285D01*
X128721142Y-79671904D01*
X128768761Y-79719523D01*
X128816380Y-79814761D01*
X128816380Y-80100476D01*
X128768761Y-80195714D01*
X128721142Y-80243333D01*
%TO.C,U12*%
X117402380Y-99420095D02*
X118211904Y-99420095D01*
X118307142Y-99372476D01*
X118354761Y-99324857D01*
X118402380Y-99229619D01*
X118402380Y-99039142D01*
X118354761Y-98943904D01*
X118307142Y-98896285D01*
X118211904Y-98848666D01*
X117402380Y-98848666D01*
X118402380Y-97848666D02*
X118402380Y-98420095D01*
X118402380Y-98134380D02*
X117402380Y-98134380D01*
X117545238Y-98229619D01*
X117640476Y-98324857D01*
X117688095Y-98420095D01*
X117497619Y-97467714D02*
X117450000Y-97420095D01*
X117402380Y-97324857D01*
X117402380Y-97086761D01*
X117450000Y-96991523D01*
X117497619Y-96943904D01*
X117592857Y-96896285D01*
X117688095Y-96896285D01*
X117830952Y-96943904D01*
X118402380Y-97515333D01*
X118402380Y-96896285D01*
%TO.C,U10*%
X43197904Y-132058380D02*
X43197904Y-132867904D01*
X43245523Y-132963142D01*
X43293142Y-133010761D01*
X43388380Y-133058380D01*
X43578857Y-133058380D01*
X43674095Y-133010761D01*
X43721714Y-132963142D01*
X43769333Y-132867904D01*
X43769333Y-132058380D01*
X44769333Y-133058380D02*
X44197904Y-133058380D01*
X44483619Y-133058380D02*
X44483619Y-132058380D01*
X44388380Y-132201238D01*
X44293142Y-132296476D01*
X44197904Y-132344095D01*
X45388380Y-132058380D02*
X45483619Y-132058380D01*
X45578857Y-132106000D01*
X45626476Y-132153619D01*
X45674095Y-132248857D01*
X45721714Y-132439333D01*
X45721714Y-132677428D01*
X45674095Y-132867904D01*
X45626476Y-132963142D01*
X45578857Y-133010761D01*
X45483619Y-133058380D01*
X45388380Y-133058380D01*
X45293142Y-133010761D01*
X45245523Y-132963142D01*
X45197904Y-132867904D01*
X45150285Y-132677428D01*
X45150285Y-132439333D01*
X45197904Y-132248857D01*
X45245523Y-132153619D01*
X45293142Y-132106000D01*
X45388380Y-132058380D01*
%TO.C,U9*%
X60660095Y-137088380D02*
X60660095Y-137897904D01*
X60707714Y-137993142D01*
X60755333Y-138040761D01*
X60850571Y-138088380D01*
X61041047Y-138088380D01*
X61136285Y-138040761D01*
X61183904Y-137993142D01*
X61231523Y-137897904D01*
X61231523Y-137088380D01*
X61755333Y-138088380D02*
X61945809Y-138088380D01*
X62041047Y-138040761D01*
X62088666Y-137993142D01*
X62183904Y-137850285D01*
X62231523Y-137659809D01*
X62231523Y-137278857D01*
X62183904Y-137183619D01*
X62136285Y-137136000D01*
X62041047Y-137088380D01*
X61850571Y-137088380D01*
X61755333Y-137136000D01*
X61707714Y-137183619D01*
X61660095Y-137278857D01*
X61660095Y-137516952D01*
X61707714Y-137612190D01*
X61755333Y-137659809D01*
X61850571Y-137707428D01*
X62041047Y-137707428D01*
X62136285Y-137659809D01*
X62183904Y-137612190D01*
X62231523Y-137516952D01*
%TO.C,U8*%
X57866095Y-149444380D02*
X57866095Y-150253904D01*
X57913714Y-150349142D01*
X57961333Y-150396761D01*
X58056571Y-150444380D01*
X58247047Y-150444380D01*
X58342285Y-150396761D01*
X58389904Y-150349142D01*
X58437523Y-150253904D01*
X58437523Y-149444380D01*
X59056571Y-149872952D02*
X58961333Y-149825333D01*
X58913714Y-149777714D01*
X58866095Y-149682476D01*
X58866095Y-149634857D01*
X58913714Y-149539619D01*
X58961333Y-149492000D01*
X59056571Y-149444380D01*
X59247047Y-149444380D01*
X59342285Y-149492000D01*
X59389904Y-149539619D01*
X59437523Y-149634857D01*
X59437523Y-149682476D01*
X59389904Y-149777714D01*
X59342285Y-149825333D01*
X59247047Y-149872952D01*
X59056571Y-149872952D01*
X58961333Y-149920571D01*
X58913714Y-149968190D01*
X58866095Y-150063428D01*
X58866095Y-150253904D01*
X58913714Y-150349142D01*
X58961333Y-150396761D01*
X59056571Y-150444380D01*
X59247047Y-150444380D01*
X59342285Y-150396761D01*
X59389904Y-150349142D01*
X59437523Y-150253904D01*
X59437523Y-150063428D01*
X59389904Y-149968190D01*
X59342285Y-149920571D01*
X59247047Y-149872952D01*
%TO.C,U7*%
X120054095Y-104384380D02*
X120054095Y-105193904D01*
X120101714Y-105289142D01*
X120149333Y-105336761D01*
X120244571Y-105384380D01*
X120435047Y-105384380D01*
X120530285Y-105336761D01*
X120577904Y-105289142D01*
X120625523Y-105193904D01*
X120625523Y-104384380D01*
X121006476Y-104384380D02*
X121673142Y-104384380D01*
X121244571Y-105384380D01*
%TO.C,U6*%
X64686380Y-102033904D02*
X65495904Y-102033904D01*
X65591142Y-101986285D01*
X65638761Y-101938666D01*
X65686380Y-101843428D01*
X65686380Y-101652952D01*
X65638761Y-101557714D01*
X65591142Y-101510095D01*
X65495904Y-101462476D01*
X64686380Y-101462476D01*
X64686380Y-100557714D02*
X64686380Y-100748190D01*
X64734000Y-100843428D01*
X64781619Y-100891047D01*
X64924476Y-100986285D01*
X65114952Y-101033904D01*
X65495904Y-101033904D01*
X65591142Y-100986285D01*
X65638761Y-100938666D01*
X65686380Y-100843428D01*
X65686380Y-100652952D01*
X65638761Y-100557714D01*
X65591142Y-100510095D01*
X65495904Y-100462476D01*
X65257809Y-100462476D01*
X65162571Y-100510095D01*
X65114952Y-100557714D01*
X65067333Y-100652952D01*
X65067333Y-100843428D01*
X65114952Y-100938666D01*
X65162571Y-100986285D01*
X65257809Y-101033904D01*
%TO.C,U5*%
X36738095Y-121052380D02*
X36738095Y-121861904D01*
X36785714Y-121957142D01*
X36833333Y-122004761D01*
X36928571Y-122052380D01*
X37119047Y-122052380D01*
X37214285Y-122004761D01*
X37261904Y-121957142D01*
X37309523Y-121861904D01*
X37309523Y-121052380D01*
X38261904Y-121052380D02*
X37785714Y-121052380D01*
X37738095Y-121528571D01*
X37785714Y-121480952D01*
X37880952Y-121433333D01*
X38119047Y-121433333D01*
X38214285Y-121480952D01*
X38261904Y-121528571D01*
X38309523Y-121623809D01*
X38309523Y-121861904D01*
X38261904Y-121957142D01*
X38214285Y-122004761D01*
X38119047Y-122052380D01*
X37880952Y-122052380D01*
X37785714Y-122004761D01*
X37738095Y-121957142D01*
%TO.C,U4*%
X45238095Y-121202380D02*
X45238095Y-122011904D01*
X45285714Y-122107142D01*
X45333333Y-122154761D01*
X45428571Y-122202380D01*
X45619047Y-122202380D01*
X45714285Y-122154761D01*
X45761904Y-122107142D01*
X45809523Y-122011904D01*
X45809523Y-121202380D01*
X46714285Y-121535714D02*
X46714285Y-122202380D01*
X46476190Y-121154761D02*
X46238095Y-121869047D01*
X46857142Y-121869047D01*
%TO.C,SW2*%
X125252666Y-145802761D02*
X125395523Y-145850380D01*
X125633619Y-145850380D01*
X125728857Y-145802761D01*
X125776476Y-145755142D01*
X125824095Y-145659904D01*
X125824095Y-145564666D01*
X125776476Y-145469428D01*
X125728857Y-145421809D01*
X125633619Y-145374190D01*
X125443142Y-145326571D01*
X125347904Y-145278952D01*
X125300285Y-145231333D01*
X125252666Y-145136095D01*
X125252666Y-145040857D01*
X125300285Y-144945619D01*
X125347904Y-144898000D01*
X125443142Y-144850380D01*
X125681238Y-144850380D01*
X125824095Y-144898000D01*
X126157428Y-144850380D02*
X126395523Y-145850380D01*
X126586000Y-145136095D01*
X126776476Y-145850380D01*
X127014571Y-144850380D01*
X127347904Y-144945619D02*
X127395523Y-144898000D01*
X127490761Y-144850380D01*
X127728857Y-144850380D01*
X127824095Y-144898000D01*
X127871714Y-144945619D01*
X127919333Y-145040857D01*
X127919333Y-145136095D01*
X127871714Y-145278952D01*
X127300285Y-145850380D01*
X127919333Y-145850380D01*
%TO.C,SW1*%
X121618761Y-128779333D02*
X121666380Y-128636476D01*
X121666380Y-128398380D01*
X121618761Y-128303142D01*
X121571142Y-128255523D01*
X121475904Y-128207904D01*
X121380666Y-128207904D01*
X121285428Y-128255523D01*
X121237809Y-128303142D01*
X121190190Y-128398380D01*
X121142571Y-128588857D01*
X121094952Y-128684095D01*
X121047333Y-128731714D01*
X120952095Y-128779333D01*
X120856857Y-128779333D01*
X120761619Y-128731714D01*
X120714000Y-128684095D01*
X120666380Y-128588857D01*
X120666380Y-128350761D01*
X120714000Y-128207904D01*
X120666380Y-127874571D02*
X121666380Y-127636476D01*
X120952095Y-127446000D01*
X121666380Y-127255523D01*
X120666380Y-127017428D01*
X121666380Y-126112666D02*
X121666380Y-126684095D01*
X121666380Y-126398380D02*
X120666380Y-126398380D01*
X120809238Y-126493619D01*
X120904476Y-126588857D01*
X120952095Y-126684095D01*
%TO.C,RV1*%
X121164761Y-86696380D02*
X120831428Y-86220190D01*
X120593333Y-86696380D02*
X120593333Y-85696380D01*
X120974285Y-85696380D01*
X121069523Y-85744000D01*
X121117142Y-85791619D01*
X121164761Y-85886857D01*
X121164761Y-86029714D01*
X121117142Y-86124952D01*
X121069523Y-86172571D01*
X120974285Y-86220190D01*
X120593333Y-86220190D01*
X121450476Y-85696380D02*
X121783809Y-86696380D01*
X122117142Y-85696380D01*
X122974285Y-86696380D02*
X122402857Y-86696380D01*
X122688571Y-86696380D02*
X122688571Y-85696380D01*
X122593333Y-85839238D01*
X122498095Y-85934476D01*
X122402857Y-85982095D01*
%TO.C,R31*%
X144582380Y-61342857D02*
X144106190Y-61676190D01*
X144582380Y-61914285D02*
X143582380Y-61914285D01*
X143582380Y-61533333D01*
X143630000Y-61438095D01*
X143677619Y-61390476D01*
X143772857Y-61342857D01*
X143915714Y-61342857D01*
X144010952Y-61390476D01*
X144058571Y-61438095D01*
X144106190Y-61533333D01*
X144106190Y-61914285D01*
X143582380Y-61009523D02*
X143582380Y-60390476D01*
X143963333Y-60723809D01*
X143963333Y-60580952D01*
X144010952Y-60485714D01*
X144058571Y-60438095D01*
X144153809Y-60390476D01*
X144391904Y-60390476D01*
X144487142Y-60438095D01*
X144534761Y-60485714D01*
X144582380Y-60580952D01*
X144582380Y-60866666D01*
X144534761Y-60961904D01*
X144487142Y-61009523D01*
X144582380Y-59438095D02*
X144582380Y-60009523D01*
X144582380Y-59723809D02*
X143582380Y-59723809D01*
X143725238Y-59819047D01*
X143820476Y-59914285D01*
X143868095Y-60009523D01*
%TO.C,R30*%
X141722380Y-76242857D02*
X141246190Y-76576190D01*
X141722380Y-76814285D02*
X140722380Y-76814285D01*
X140722380Y-76433333D01*
X140770000Y-76338095D01*
X140817619Y-76290476D01*
X140912857Y-76242857D01*
X141055714Y-76242857D01*
X141150952Y-76290476D01*
X141198571Y-76338095D01*
X141246190Y-76433333D01*
X141246190Y-76814285D01*
X140722380Y-75909523D02*
X140722380Y-75290476D01*
X141103333Y-75623809D01*
X141103333Y-75480952D01*
X141150952Y-75385714D01*
X141198571Y-75338095D01*
X141293809Y-75290476D01*
X141531904Y-75290476D01*
X141627142Y-75338095D01*
X141674761Y-75385714D01*
X141722380Y-75480952D01*
X141722380Y-75766666D01*
X141674761Y-75861904D01*
X141627142Y-75909523D01*
X140722380Y-74671428D02*
X140722380Y-74576190D01*
X140770000Y-74480952D01*
X140817619Y-74433333D01*
X140912857Y-74385714D01*
X141103333Y-74338095D01*
X141341428Y-74338095D01*
X141531904Y-74385714D01*
X141627142Y-74433333D01*
X141674761Y-74480952D01*
X141722380Y-74576190D01*
X141722380Y-74671428D01*
X141674761Y-74766666D01*
X141627142Y-74814285D01*
X141531904Y-74861904D01*
X141341428Y-74909523D01*
X141103333Y-74909523D01*
X140912857Y-74861904D01*
X140817619Y-74814285D01*
X140770000Y-74766666D01*
X140722380Y-74671428D01*
%TO.C,R29*%
X138822380Y-76242857D02*
X138346190Y-76576190D01*
X138822380Y-76814285D02*
X137822380Y-76814285D01*
X137822380Y-76433333D01*
X137870000Y-76338095D01*
X137917619Y-76290476D01*
X138012857Y-76242857D01*
X138155714Y-76242857D01*
X138250952Y-76290476D01*
X138298571Y-76338095D01*
X138346190Y-76433333D01*
X138346190Y-76814285D01*
X137917619Y-75861904D02*
X137870000Y-75814285D01*
X137822380Y-75719047D01*
X137822380Y-75480952D01*
X137870000Y-75385714D01*
X137917619Y-75338095D01*
X138012857Y-75290476D01*
X138108095Y-75290476D01*
X138250952Y-75338095D01*
X138822380Y-75909523D01*
X138822380Y-75290476D01*
X138822380Y-74814285D02*
X138822380Y-74623809D01*
X138774761Y-74528571D01*
X138727142Y-74480952D01*
X138584285Y-74385714D01*
X138393809Y-74338095D01*
X138012857Y-74338095D01*
X137917619Y-74385714D01*
X137870000Y-74433333D01*
X137822380Y-74528571D01*
X137822380Y-74719047D01*
X137870000Y-74814285D01*
X137917619Y-74861904D01*
X138012857Y-74909523D01*
X138250952Y-74909523D01*
X138346190Y-74861904D01*
X138393809Y-74814285D01*
X138441428Y-74719047D01*
X138441428Y-74528571D01*
X138393809Y-74433333D01*
X138346190Y-74385714D01*
X138250952Y-74338095D01*
%TO.C,R28*%
X137612380Y-80536857D02*
X137136190Y-80870190D01*
X137612380Y-81108285D02*
X136612380Y-81108285D01*
X136612380Y-80727333D01*
X136660000Y-80632095D01*
X136707619Y-80584476D01*
X136802857Y-80536857D01*
X136945714Y-80536857D01*
X137040952Y-80584476D01*
X137088571Y-80632095D01*
X137136190Y-80727333D01*
X137136190Y-81108285D01*
X136707619Y-80155904D02*
X136660000Y-80108285D01*
X136612380Y-80013047D01*
X136612380Y-79774952D01*
X136660000Y-79679714D01*
X136707619Y-79632095D01*
X136802857Y-79584476D01*
X136898095Y-79584476D01*
X137040952Y-79632095D01*
X137612380Y-80203523D01*
X137612380Y-79584476D01*
X137040952Y-79013047D02*
X136993333Y-79108285D01*
X136945714Y-79155904D01*
X136850476Y-79203523D01*
X136802857Y-79203523D01*
X136707619Y-79155904D01*
X136660000Y-79108285D01*
X136612380Y-79013047D01*
X136612380Y-78822571D01*
X136660000Y-78727333D01*
X136707619Y-78679714D01*
X136802857Y-78632095D01*
X136850476Y-78632095D01*
X136945714Y-78679714D01*
X136993333Y-78727333D01*
X137040952Y-78822571D01*
X137040952Y-79013047D01*
X137088571Y-79108285D01*
X137136190Y-79155904D01*
X137231428Y-79203523D01*
X137421904Y-79203523D01*
X137517142Y-79155904D01*
X137564761Y-79108285D01*
X137612380Y-79013047D01*
X137612380Y-78822571D01*
X137564761Y-78727333D01*
X137517142Y-78679714D01*
X137421904Y-78632095D01*
X137231428Y-78632095D01*
X137136190Y-78679714D01*
X137088571Y-78727333D01*
X137040952Y-78822571D01*
%TO.C,R27*%
X140660380Y-80536857D02*
X140184190Y-80870190D01*
X140660380Y-81108285D02*
X139660380Y-81108285D01*
X139660380Y-80727333D01*
X139708000Y-80632095D01*
X139755619Y-80584476D01*
X139850857Y-80536857D01*
X139993714Y-80536857D01*
X140088952Y-80584476D01*
X140136571Y-80632095D01*
X140184190Y-80727333D01*
X140184190Y-81108285D01*
X139755619Y-80155904D02*
X139708000Y-80108285D01*
X139660380Y-80013047D01*
X139660380Y-79774952D01*
X139708000Y-79679714D01*
X139755619Y-79632095D01*
X139850857Y-79584476D01*
X139946095Y-79584476D01*
X140088952Y-79632095D01*
X140660380Y-80203523D01*
X140660380Y-79584476D01*
X139660380Y-79251142D02*
X139660380Y-78584476D01*
X140660380Y-79013047D01*
%TO.C,R26*%
X116545142Y-87298380D02*
X116211809Y-86822190D01*
X115973714Y-87298380D02*
X115973714Y-86298380D01*
X116354666Y-86298380D01*
X116449904Y-86346000D01*
X116497523Y-86393619D01*
X116545142Y-86488857D01*
X116545142Y-86631714D01*
X116497523Y-86726952D01*
X116449904Y-86774571D01*
X116354666Y-86822190D01*
X115973714Y-86822190D01*
X116926095Y-86393619D02*
X116973714Y-86346000D01*
X117068952Y-86298380D01*
X117307047Y-86298380D01*
X117402285Y-86346000D01*
X117449904Y-86393619D01*
X117497523Y-86488857D01*
X117497523Y-86584095D01*
X117449904Y-86726952D01*
X116878476Y-87298380D01*
X117497523Y-87298380D01*
X118354666Y-86298380D02*
X118164190Y-86298380D01*
X118068952Y-86346000D01*
X118021333Y-86393619D01*
X117926095Y-86536476D01*
X117878476Y-86726952D01*
X117878476Y-87107904D01*
X117926095Y-87203142D01*
X117973714Y-87250761D01*
X118068952Y-87298380D01*
X118259428Y-87298380D01*
X118354666Y-87250761D01*
X118402285Y-87203142D01*
X118449904Y-87107904D01*
X118449904Y-86869809D01*
X118402285Y-86774571D01*
X118354666Y-86726952D01*
X118259428Y-86679333D01*
X118068952Y-86679333D01*
X117973714Y-86726952D01*
X117926095Y-86774571D01*
X117878476Y-86869809D01*
%TO.C,R25*%
X122359142Y-102152380D02*
X122025809Y-101676190D01*
X121787714Y-102152380D02*
X121787714Y-101152380D01*
X122168666Y-101152380D01*
X122263904Y-101200000D01*
X122311523Y-101247619D01*
X122359142Y-101342857D01*
X122359142Y-101485714D01*
X122311523Y-101580952D01*
X122263904Y-101628571D01*
X122168666Y-101676190D01*
X121787714Y-101676190D01*
X122740095Y-101247619D02*
X122787714Y-101200000D01*
X122882952Y-101152380D01*
X123121047Y-101152380D01*
X123216285Y-101200000D01*
X123263904Y-101247619D01*
X123311523Y-101342857D01*
X123311523Y-101438095D01*
X123263904Y-101580952D01*
X122692476Y-102152380D01*
X123311523Y-102152380D01*
X124216285Y-101152380D02*
X123740095Y-101152380D01*
X123692476Y-101628571D01*
X123740095Y-101580952D01*
X123835333Y-101533333D01*
X124073428Y-101533333D01*
X124168666Y-101580952D01*
X124216285Y-101628571D01*
X124263904Y-101723809D01*
X124263904Y-101961904D01*
X124216285Y-102057142D01*
X124168666Y-102104761D01*
X124073428Y-102152380D01*
X123835333Y-102152380D01*
X123740095Y-102104761D01*
X123692476Y-102057142D01*
%TO.C,R24*%
X67637142Y-145708380D02*
X67303809Y-145232190D01*
X67065714Y-145708380D02*
X67065714Y-144708380D01*
X67446666Y-144708380D01*
X67541904Y-144756000D01*
X67589523Y-144803619D01*
X67637142Y-144898857D01*
X67637142Y-145041714D01*
X67589523Y-145136952D01*
X67541904Y-145184571D01*
X67446666Y-145232190D01*
X67065714Y-145232190D01*
X68018095Y-144803619D02*
X68065714Y-144756000D01*
X68160952Y-144708380D01*
X68399047Y-144708380D01*
X68494285Y-144756000D01*
X68541904Y-144803619D01*
X68589523Y-144898857D01*
X68589523Y-144994095D01*
X68541904Y-145136952D01*
X67970476Y-145708380D01*
X68589523Y-145708380D01*
X69446666Y-145041714D02*
X69446666Y-145708380D01*
X69208571Y-144660761D02*
X68970476Y-145375047D01*
X69589523Y-145375047D01*
%TO.C,R23*%
X67637142Y-144184380D02*
X67303809Y-143708190D01*
X67065714Y-144184380D02*
X67065714Y-143184380D01*
X67446666Y-143184380D01*
X67541904Y-143232000D01*
X67589523Y-143279619D01*
X67637142Y-143374857D01*
X67637142Y-143517714D01*
X67589523Y-143612952D01*
X67541904Y-143660571D01*
X67446666Y-143708190D01*
X67065714Y-143708190D01*
X68018095Y-143279619D02*
X68065714Y-143232000D01*
X68160952Y-143184380D01*
X68399047Y-143184380D01*
X68494285Y-143232000D01*
X68541904Y-143279619D01*
X68589523Y-143374857D01*
X68589523Y-143470095D01*
X68541904Y-143612952D01*
X67970476Y-144184380D01*
X68589523Y-144184380D01*
X68922857Y-143184380D02*
X69541904Y-143184380D01*
X69208571Y-143565333D01*
X69351428Y-143565333D01*
X69446666Y-143612952D01*
X69494285Y-143660571D01*
X69541904Y-143755809D01*
X69541904Y-143993904D01*
X69494285Y-144089142D01*
X69446666Y-144136761D01*
X69351428Y-144184380D01*
X69065714Y-144184380D01*
X68970476Y-144136761D01*
X68922857Y-144089142D01*
%TO.C,R22*%
X123984380Y-144390857D02*
X123508190Y-144724190D01*
X123984380Y-144962285D02*
X122984380Y-144962285D01*
X122984380Y-144581333D01*
X123032000Y-144486095D01*
X123079619Y-144438476D01*
X123174857Y-144390857D01*
X123317714Y-144390857D01*
X123412952Y-144438476D01*
X123460571Y-144486095D01*
X123508190Y-144581333D01*
X123508190Y-144962285D01*
X123079619Y-144009904D02*
X123032000Y-143962285D01*
X122984380Y-143867047D01*
X122984380Y-143628952D01*
X123032000Y-143533714D01*
X123079619Y-143486095D01*
X123174857Y-143438476D01*
X123270095Y-143438476D01*
X123412952Y-143486095D01*
X123984380Y-144057523D01*
X123984380Y-143438476D01*
X123079619Y-143057523D02*
X123032000Y-143009904D01*
X122984380Y-142914666D01*
X122984380Y-142676571D01*
X123032000Y-142581333D01*
X123079619Y-142533714D01*
X123174857Y-142486095D01*
X123270095Y-142486095D01*
X123412952Y-142533714D01*
X123984380Y-143105142D01*
X123984380Y-142486095D01*
%TO.C,R21*%
X122460380Y-144390857D02*
X121984190Y-144724190D01*
X122460380Y-144962285D02*
X121460380Y-144962285D01*
X121460380Y-144581333D01*
X121508000Y-144486095D01*
X121555619Y-144438476D01*
X121650857Y-144390857D01*
X121793714Y-144390857D01*
X121888952Y-144438476D01*
X121936571Y-144486095D01*
X121984190Y-144581333D01*
X121984190Y-144962285D01*
X121555619Y-144009904D02*
X121508000Y-143962285D01*
X121460380Y-143867047D01*
X121460380Y-143628952D01*
X121508000Y-143533714D01*
X121555619Y-143486095D01*
X121650857Y-143438476D01*
X121746095Y-143438476D01*
X121888952Y-143486095D01*
X122460380Y-144057523D01*
X122460380Y-143438476D01*
X122460380Y-142486095D02*
X122460380Y-143057523D01*
X122460380Y-142771809D02*
X121460380Y-142771809D01*
X121603238Y-142867047D01*
X121698476Y-142962285D01*
X121746095Y-143057523D01*
%TO.C,R20*%
X120936380Y-144390857D02*
X120460190Y-144724190D01*
X120936380Y-144962285D02*
X119936380Y-144962285D01*
X119936380Y-144581333D01*
X119984000Y-144486095D01*
X120031619Y-144438476D01*
X120126857Y-144390857D01*
X120269714Y-144390857D01*
X120364952Y-144438476D01*
X120412571Y-144486095D01*
X120460190Y-144581333D01*
X120460190Y-144962285D01*
X120031619Y-144009904D02*
X119984000Y-143962285D01*
X119936380Y-143867047D01*
X119936380Y-143628952D01*
X119984000Y-143533714D01*
X120031619Y-143486095D01*
X120126857Y-143438476D01*
X120222095Y-143438476D01*
X120364952Y-143486095D01*
X120936380Y-144057523D01*
X120936380Y-143438476D01*
X119936380Y-142819428D02*
X119936380Y-142724190D01*
X119984000Y-142628952D01*
X120031619Y-142581333D01*
X120126857Y-142533714D01*
X120317333Y-142486095D01*
X120555428Y-142486095D01*
X120745904Y-142533714D01*
X120841142Y-142581333D01*
X120888761Y-142628952D01*
X120936380Y-142724190D01*
X120936380Y-142819428D01*
X120888761Y-142914666D01*
X120841142Y-142962285D01*
X120745904Y-143009904D01*
X120555428Y-143057523D01*
X120317333Y-143057523D01*
X120126857Y-143009904D01*
X120031619Y-142962285D01*
X119984000Y-142914666D01*
X119936380Y-142819428D01*
%TO.C,R19*%
X131452380Y-180142857D02*
X130976190Y-180476190D01*
X131452380Y-180714285D02*
X130452380Y-180714285D01*
X130452380Y-180333333D01*
X130500000Y-180238095D01*
X130547619Y-180190476D01*
X130642857Y-180142857D01*
X130785714Y-180142857D01*
X130880952Y-180190476D01*
X130928571Y-180238095D01*
X130976190Y-180333333D01*
X130976190Y-180714285D01*
X131452380Y-179190476D02*
X131452380Y-179761904D01*
X131452380Y-179476190D02*
X130452380Y-179476190D01*
X130595238Y-179571428D01*
X130690476Y-179666666D01*
X130738095Y-179761904D01*
X131452380Y-178714285D02*
X131452380Y-178523809D01*
X131404761Y-178428571D01*
X131357142Y-178380952D01*
X131214285Y-178285714D01*
X131023809Y-178238095D01*
X130642857Y-178238095D01*
X130547619Y-178285714D01*
X130500000Y-178333333D01*
X130452380Y-178428571D01*
X130452380Y-178619047D01*
X130500000Y-178714285D01*
X130547619Y-178761904D01*
X130642857Y-178809523D01*
X130880952Y-178809523D01*
X130976190Y-178761904D01*
X131023809Y-178714285D01*
X131071428Y-178619047D01*
X131071428Y-178428571D01*
X131023809Y-178333333D01*
X130976190Y-178285714D01*
X130880952Y-178238095D01*
%TO.C,R18*%
X118357142Y-177928380D02*
X118023809Y-177452190D01*
X117785714Y-177928380D02*
X117785714Y-176928380D01*
X118166666Y-176928380D01*
X118261904Y-176976000D01*
X118309523Y-177023619D01*
X118357142Y-177118857D01*
X118357142Y-177261714D01*
X118309523Y-177356952D01*
X118261904Y-177404571D01*
X118166666Y-177452190D01*
X117785714Y-177452190D01*
X119309523Y-177928380D02*
X118738095Y-177928380D01*
X119023809Y-177928380D02*
X119023809Y-176928380D01*
X118928571Y-177071238D01*
X118833333Y-177166476D01*
X118738095Y-177214095D01*
X119880952Y-177356952D02*
X119785714Y-177309333D01*
X119738095Y-177261714D01*
X119690476Y-177166476D01*
X119690476Y-177118857D01*
X119738095Y-177023619D01*
X119785714Y-176976000D01*
X119880952Y-176928380D01*
X120071428Y-176928380D01*
X120166666Y-176976000D01*
X120214285Y-177023619D01*
X120261904Y-177118857D01*
X120261904Y-177166476D01*
X120214285Y-177261714D01*
X120166666Y-177309333D01*
X120071428Y-177356952D01*
X119880952Y-177356952D01*
X119785714Y-177404571D01*
X119738095Y-177452190D01*
X119690476Y-177547428D01*
X119690476Y-177737904D01*
X119738095Y-177833142D01*
X119785714Y-177880761D01*
X119880952Y-177928380D01*
X120071428Y-177928380D01*
X120166666Y-177880761D01*
X120214285Y-177833142D01*
X120261904Y-177737904D01*
X120261904Y-177547428D01*
X120214285Y-177452190D01*
X120166666Y-177404571D01*
X120071428Y-177356952D01*
%TO.C,R17*%
X118840380Y-168728857D02*
X118364190Y-169062190D01*
X118840380Y-169300285D02*
X117840380Y-169300285D01*
X117840380Y-168919333D01*
X117888000Y-168824095D01*
X117935619Y-168776476D01*
X118030857Y-168728857D01*
X118173714Y-168728857D01*
X118268952Y-168776476D01*
X118316571Y-168824095D01*
X118364190Y-168919333D01*
X118364190Y-169300285D01*
X118840380Y-167776476D02*
X118840380Y-168347904D01*
X118840380Y-168062190D02*
X117840380Y-168062190D01*
X117983238Y-168157428D01*
X118078476Y-168252666D01*
X118126095Y-168347904D01*
X117840380Y-167443142D02*
X117840380Y-166776476D01*
X118840380Y-167205047D01*
%TO.C,R16*%
X118840380Y-172030857D02*
X118364190Y-172364190D01*
X118840380Y-172602285D02*
X117840380Y-172602285D01*
X117840380Y-172221333D01*
X117888000Y-172126095D01*
X117935619Y-172078476D01*
X118030857Y-172030857D01*
X118173714Y-172030857D01*
X118268952Y-172078476D01*
X118316571Y-172126095D01*
X118364190Y-172221333D01*
X118364190Y-172602285D01*
X118840380Y-171078476D02*
X118840380Y-171649904D01*
X118840380Y-171364190D02*
X117840380Y-171364190D01*
X117983238Y-171459428D01*
X118078476Y-171554666D01*
X118126095Y-171649904D01*
X117840380Y-170221333D02*
X117840380Y-170411809D01*
X117888000Y-170507047D01*
X117935619Y-170554666D01*
X118078476Y-170649904D01*
X118268952Y-170697523D01*
X118649904Y-170697523D01*
X118745142Y-170649904D01*
X118792761Y-170602285D01*
X118840380Y-170507047D01*
X118840380Y-170316571D01*
X118792761Y-170221333D01*
X118745142Y-170173714D01*
X118649904Y-170126095D01*
X118411809Y-170126095D01*
X118316571Y-170173714D01*
X118268952Y-170221333D01*
X118221333Y-170316571D01*
X118221333Y-170507047D01*
X118268952Y-170602285D01*
X118316571Y-170649904D01*
X118411809Y-170697523D01*
%TO.C,R15*%
X122904380Y-172030857D02*
X122428190Y-172364190D01*
X122904380Y-172602285D02*
X121904380Y-172602285D01*
X121904380Y-172221333D01*
X121952000Y-172126095D01*
X121999619Y-172078476D01*
X122094857Y-172030857D01*
X122237714Y-172030857D01*
X122332952Y-172078476D01*
X122380571Y-172126095D01*
X122428190Y-172221333D01*
X122428190Y-172602285D01*
X122904380Y-171078476D02*
X122904380Y-171649904D01*
X122904380Y-171364190D02*
X121904380Y-171364190D01*
X122047238Y-171459428D01*
X122142476Y-171554666D01*
X122190095Y-171649904D01*
X121904380Y-170173714D02*
X121904380Y-170649904D01*
X122380571Y-170697523D01*
X122332952Y-170649904D01*
X122285333Y-170554666D01*
X122285333Y-170316571D01*
X122332952Y-170221333D01*
X122380571Y-170173714D01*
X122475809Y-170126095D01*
X122713904Y-170126095D01*
X122809142Y-170173714D01*
X122856761Y-170221333D01*
X122904380Y-170316571D01*
X122904380Y-170554666D01*
X122856761Y-170649904D01*
X122809142Y-170697523D01*
%TO.C,R14*%
X54937142Y-145200380D02*
X54603809Y-144724190D01*
X54365714Y-145200380D02*
X54365714Y-144200380D01*
X54746666Y-144200380D01*
X54841904Y-144248000D01*
X54889523Y-144295619D01*
X54937142Y-144390857D01*
X54937142Y-144533714D01*
X54889523Y-144628952D01*
X54841904Y-144676571D01*
X54746666Y-144724190D01*
X54365714Y-144724190D01*
X55889523Y-145200380D02*
X55318095Y-145200380D01*
X55603809Y-145200380D02*
X55603809Y-144200380D01*
X55508571Y-144343238D01*
X55413333Y-144438476D01*
X55318095Y-144486095D01*
X56746666Y-144533714D02*
X56746666Y-145200380D01*
X56508571Y-144152761D02*
X56270476Y-144867047D01*
X56889523Y-144867047D01*
%TO.C,R13*%
X124664380Y-110146857D02*
X124188190Y-110480190D01*
X124664380Y-110718285D02*
X123664380Y-110718285D01*
X123664380Y-110337333D01*
X123712000Y-110242095D01*
X123759619Y-110194476D01*
X123854857Y-110146857D01*
X123997714Y-110146857D01*
X124092952Y-110194476D01*
X124140571Y-110242095D01*
X124188190Y-110337333D01*
X124188190Y-110718285D01*
X124664380Y-109194476D02*
X124664380Y-109765904D01*
X124664380Y-109480190D02*
X123664380Y-109480190D01*
X123807238Y-109575428D01*
X123902476Y-109670666D01*
X123950095Y-109765904D01*
X123664380Y-108861142D02*
X123664380Y-108242095D01*
X124045333Y-108575428D01*
X124045333Y-108432571D01*
X124092952Y-108337333D01*
X124140571Y-108289714D01*
X124235809Y-108242095D01*
X124473904Y-108242095D01*
X124569142Y-108289714D01*
X124616761Y-108337333D01*
X124664380Y-108432571D01*
X124664380Y-108718285D01*
X124616761Y-108813523D01*
X124569142Y-108861142D01*
%TO.C,R12*%
X124664380Y-106590857D02*
X124188190Y-106924190D01*
X124664380Y-107162285D02*
X123664380Y-107162285D01*
X123664380Y-106781333D01*
X123712000Y-106686095D01*
X123759619Y-106638476D01*
X123854857Y-106590857D01*
X123997714Y-106590857D01*
X124092952Y-106638476D01*
X124140571Y-106686095D01*
X124188190Y-106781333D01*
X124188190Y-107162285D01*
X124664380Y-105638476D02*
X124664380Y-106209904D01*
X124664380Y-105924190D02*
X123664380Y-105924190D01*
X123807238Y-106019428D01*
X123902476Y-106114666D01*
X123950095Y-106209904D01*
X123759619Y-105257523D02*
X123712000Y-105209904D01*
X123664380Y-105114666D01*
X123664380Y-104876571D01*
X123712000Y-104781333D01*
X123759619Y-104733714D01*
X123854857Y-104686095D01*
X123950095Y-104686095D01*
X124092952Y-104733714D01*
X124664380Y-105305142D01*
X124664380Y-104686095D01*
%TO.C,R11*%
X133614380Y-177798857D02*
X133138190Y-178132190D01*
X133614380Y-178370285D02*
X132614380Y-178370285D01*
X132614380Y-177989333D01*
X132662000Y-177894095D01*
X132709619Y-177846476D01*
X132804857Y-177798857D01*
X132947714Y-177798857D01*
X133042952Y-177846476D01*
X133090571Y-177894095D01*
X133138190Y-177989333D01*
X133138190Y-178370285D01*
X133614380Y-176846476D02*
X133614380Y-177417904D01*
X133614380Y-177132190D02*
X132614380Y-177132190D01*
X132757238Y-177227428D01*
X132852476Y-177322666D01*
X132900095Y-177417904D01*
X133614380Y-175894095D02*
X133614380Y-176465523D01*
X133614380Y-176179809D02*
X132614380Y-176179809D01*
X132757238Y-176275047D01*
X132852476Y-176370285D01*
X132900095Y-176465523D01*
%TO.C,R10*%
X139822380Y-177798857D02*
X139346190Y-178132190D01*
X139822380Y-178370285D02*
X138822380Y-178370285D01*
X138822380Y-177989333D01*
X138870000Y-177894095D01*
X138917619Y-177846476D01*
X139012857Y-177798857D01*
X139155714Y-177798857D01*
X139250952Y-177846476D01*
X139298571Y-177894095D01*
X139346190Y-177989333D01*
X139346190Y-178370285D01*
X139822380Y-176846476D02*
X139822380Y-177417904D01*
X139822380Y-177132190D02*
X138822380Y-177132190D01*
X138965238Y-177227428D01*
X139060476Y-177322666D01*
X139108095Y-177417904D01*
X138822380Y-176227428D02*
X138822380Y-176132190D01*
X138870000Y-176036952D01*
X138917619Y-175989333D01*
X139012857Y-175941714D01*
X139203333Y-175894095D01*
X139441428Y-175894095D01*
X139631904Y-175941714D01*
X139727142Y-175989333D01*
X139774761Y-176036952D01*
X139822380Y-176132190D01*
X139822380Y-176227428D01*
X139774761Y-176322666D01*
X139727142Y-176370285D01*
X139631904Y-176417904D01*
X139441428Y-176465523D01*
X139203333Y-176465523D01*
X139012857Y-176417904D01*
X138917619Y-176370285D01*
X138870000Y-176322666D01*
X138822380Y-176227428D01*
%TO.C,R9*%
X138506380Y-177322666D02*
X138030190Y-177656000D01*
X138506380Y-177894095D02*
X137506380Y-177894095D01*
X137506380Y-177513142D01*
X137554000Y-177417904D01*
X137601619Y-177370285D01*
X137696857Y-177322666D01*
X137839714Y-177322666D01*
X137934952Y-177370285D01*
X137982571Y-177417904D01*
X138030190Y-177513142D01*
X138030190Y-177894095D01*
X138506380Y-176846476D02*
X138506380Y-176656000D01*
X138458761Y-176560761D01*
X138411142Y-176513142D01*
X138268285Y-176417904D01*
X138077809Y-176370285D01*
X137696857Y-176370285D01*
X137601619Y-176417904D01*
X137554000Y-176465523D01*
X137506380Y-176560761D01*
X137506380Y-176751238D01*
X137554000Y-176846476D01*
X137601619Y-176894095D01*
X137696857Y-176941714D01*
X137934952Y-176941714D01*
X138030190Y-176894095D01*
X138077809Y-176846476D01*
X138125428Y-176751238D01*
X138125428Y-176560761D01*
X138077809Y-176465523D01*
X138030190Y-176417904D01*
X137934952Y-176370285D01*
%TO.C,R8*%
X144714380Y-177322666D02*
X144238190Y-177656000D01*
X144714380Y-177894095D02*
X143714380Y-177894095D01*
X143714380Y-177513142D01*
X143762000Y-177417904D01*
X143809619Y-177370285D01*
X143904857Y-177322666D01*
X144047714Y-177322666D01*
X144142952Y-177370285D01*
X144190571Y-177417904D01*
X144238190Y-177513142D01*
X144238190Y-177894095D01*
X144142952Y-176751238D02*
X144095333Y-176846476D01*
X144047714Y-176894095D01*
X143952476Y-176941714D01*
X143904857Y-176941714D01*
X143809619Y-176894095D01*
X143762000Y-176846476D01*
X143714380Y-176751238D01*
X143714380Y-176560761D01*
X143762000Y-176465523D01*
X143809619Y-176417904D01*
X143904857Y-176370285D01*
X143952476Y-176370285D01*
X144047714Y-176417904D01*
X144095333Y-176465523D01*
X144142952Y-176560761D01*
X144142952Y-176751238D01*
X144190571Y-176846476D01*
X144238190Y-176894095D01*
X144333428Y-176941714D01*
X144523904Y-176941714D01*
X144619142Y-176894095D01*
X144666761Y-176846476D01*
X144714380Y-176751238D01*
X144714380Y-176560761D01*
X144666761Y-176465523D01*
X144619142Y-176417904D01*
X144523904Y-176370285D01*
X144333428Y-176370285D01*
X144238190Y-176417904D01*
X144190571Y-176465523D01*
X144142952Y-176560761D01*
%TO.C,R7*%
X132952380Y-183666666D02*
X132476190Y-184000000D01*
X132952380Y-184238095D02*
X131952380Y-184238095D01*
X131952380Y-183857142D01*
X132000000Y-183761904D01*
X132047619Y-183714285D01*
X132142857Y-183666666D01*
X132285714Y-183666666D01*
X132380952Y-183714285D01*
X132428571Y-183761904D01*
X132476190Y-183857142D01*
X132476190Y-184238095D01*
X131952380Y-183333333D02*
X131952380Y-182666666D01*
X132952380Y-183095238D01*
%TO.C,R6*%
X139452380Y-183666666D02*
X138976190Y-184000000D01*
X139452380Y-184238095D02*
X138452380Y-184238095D01*
X138452380Y-183857142D01*
X138500000Y-183761904D01*
X138547619Y-183714285D01*
X138642857Y-183666666D01*
X138785714Y-183666666D01*
X138880952Y-183714285D01*
X138928571Y-183761904D01*
X138976190Y-183857142D01*
X138976190Y-184238095D01*
X138452380Y-182809523D02*
X138452380Y-183000000D01*
X138500000Y-183095238D01*
X138547619Y-183142857D01*
X138690476Y-183238095D01*
X138880952Y-183285714D01*
X139261904Y-183285714D01*
X139357142Y-183238095D01*
X139404761Y-183190476D01*
X139452380Y-183095238D01*
X139452380Y-182904761D01*
X139404761Y-182809523D01*
X139357142Y-182761904D01*
X139261904Y-182714285D01*
X139023809Y-182714285D01*
X138928571Y-182761904D01*
X138880952Y-182809523D01*
X138833333Y-182904761D01*
X138833333Y-183095238D01*
X138880952Y-183190476D01*
X138928571Y-183238095D01*
X139023809Y-183285714D01*
%TO.C,R5*%
X115823333Y-111988380D02*
X115490000Y-111512190D01*
X115251904Y-111988380D02*
X115251904Y-110988380D01*
X115632857Y-110988380D01*
X115728095Y-111036000D01*
X115775714Y-111083619D01*
X115823333Y-111178857D01*
X115823333Y-111321714D01*
X115775714Y-111416952D01*
X115728095Y-111464571D01*
X115632857Y-111512190D01*
X115251904Y-111512190D01*
X116728095Y-110988380D02*
X116251904Y-110988380D01*
X116204285Y-111464571D01*
X116251904Y-111416952D01*
X116347142Y-111369333D01*
X116585238Y-111369333D01*
X116680476Y-111416952D01*
X116728095Y-111464571D01*
X116775714Y-111559809D01*
X116775714Y-111797904D01*
X116728095Y-111893142D01*
X116680476Y-111940761D01*
X116585238Y-111988380D01*
X116347142Y-111988380D01*
X116251904Y-111940761D01*
X116204285Y-111893142D01*
%TO.C,R4*%
X63057333Y-103342380D02*
X62724000Y-102866190D01*
X62485904Y-103342380D02*
X62485904Y-102342380D01*
X62866857Y-102342380D01*
X62962095Y-102390000D01*
X63009714Y-102437619D01*
X63057333Y-102532857D01*
X63057333Y-102675714D01*
X63009714Y-102770952D01*
X62962095Y-102818571D01*
X62866857Y-102866190D01*
X62485904Y-102866190D01*
X63914476Y-102675714D02*
X63914476Y-103342380D01*
X63676380Y-102294761D02*
X63438285Y-103009047D01*
X64057333Y-103009047D01*
%TO.C,Q3*%
X138047619Y-182595238D02*
X138000000Y-182690476D01*
X137904761Y-182785714D01*
X137761904Y-182928571D01*
X137714285Y-183023809D01*
X137714285Y-183119047D01*
X137952380Y-183071428D02*
X137904761Y-183166666D01*
X137809523Y-183261904D01*
X137619047Y-183309523D01*
X137285714Y-183309523D01*
X137095238Y-183261904D01*
X137000000Y-183166666D01*
X136952380Y-183071428D01*
X136952380Y-182880952D01*
X137000000Y-182785714D01*
X137095238Y-182690476D01*
X137285714Y-182642857D01*
X137619047Y-182642857D01*
X137809523Y-182690476D01*
X137904761Y-182785714D01*
X137952380Y-182880952D01*
X137952380Y-183071428D01*
X136952380Y-182309523D02*
X136952380Y-181690476D01*
X137333333Y-182023809D01*
X137333333Y-181880952D01*
X137380952Y-181785714D01*
X137428571Y-181738095D01*
X137523809Y-181690476D01*
X137761904Y-181690476D01*
X137857142Y-181738095D01*
X137904761Y-181785714D01*
X137952380Y-181880952D01*
X137952380Y-182166666D01*
X137904761Y-182261904D01*
X137857142Y-182309523D01*
%TO.C,Q2*%
X144297619Y-182845238D02*
X144250000Y-182940476D01*
X144154761Y-183035714D01*
X144011904Y-183178571D01*
X143964285Y-183273809D01*
X143964285Y-183369047D01*
X144202380Y-183321428D02*
X144154761Y-183416666D01*
X144059523Y-183511904D01*
X143869047Y-183559523D01*
X143535714Y-183559523D01*
X143345238Y-183511904D01*
X143250000Y-183416666D01*
X143202380Y-183321428D01*
X143202380Y-183130952D01*
X143250000Y-183035714D01*
X143345238Y-182940476D01*
X143535714Y-182892857D01*
X143869047Y-182892857D01*
X144059523Y-182940476D01*
X144154761Y-183035714D01*
X144202380Y-183130952D01*
X144202380Y-183321428D01*
X143297619Y-182511904D02*
X143250000Y-182464285D01*
X143202380Y-182369047D01*
X143202380Y-182130952D01*
X143250000Y-182035714D01*
X143297619Y-181988095D01*
X143392857Y-181940476D01*
X143488095Y-181940476D01*
X143630952Y-181988095D01*
X144202380Y-182559523D01*
X144202380Y-181940476D01*
%TO.C,Q1*%
X46404761Y-46547619D02*
X46309523Y-46500000D01*
X46214285Y-46404761D01*
X46071428Y-46261904D01*
X45976190Y-46214285D01*
X45880952Y-46214285D01*
X45928571Y-46452380D02*
X45833333Y-46404761D01*
X45738095Y-46309523D01*
X45690476Y-46119047D01*
X45690476Y-45785714D01*
X45738095Y-45595238D01*
X45833333Y-45500000D01*
X45928571Y-45452380D01*
X46119047Y-45452380D01*
X46214285Y-45500000D01*
X46309523Y-45595238D01*
X46357142Y-45785714D01*
X46357142Y-46119047D01*
X46309523Y-46309523D01*
X46214285Y-46404761D01*
X46119047Y-46452380D01*
X45928571Y-46452380D01*
X47309523Y-46452380D02*
X46738095Y-46452380D01*
X47023809Y-46452380D02*
X47023809Y-45452380D01*
X46928571Y-45595238D01*
X46833333Y-45690476D01*
X46738095Y-45738095D01*
%TO.C,J3*%
X136666666Y-112952380D02*
X136666666Y-113666666D01*
X136619047Y-113809523D01*
X136523809Y-113904761D01*
X136380952Y-113952380D01*
X136285714Y-113952380D01*
X137047619Y-112952380D02*
X137666666Y-112952380D01*
X137333333Y-113333333D01*
X137476190Y-113333333D01*
X137571428Y-113380952D01*
X137619047Y-113428571D01*
X137666666Y-113523809D01*
X137666666Y-113761904D01*
X137619047Y-113857142D01*
X137571428Y-113904761D01*
X137476190Y-113952380D01*
X137190476Y-113952380D01*
X137095238Y-113904761D01*
X137047619Y-113857142D01*
%TO.C,D9*%
X128816380Y-97904095D02*
X127816380Y-97904095D01*
X127816380Y-97666000D01*
X127864000Y-97523142D01*
X127959238Y-97427904D01*
X128054476Y-97380285D01*
X128244952Y-97332666D01*
X128387809Y-97332666D01*
X128578285Y-97380285D01*
X128673523Y-97427904D01*
X128768761Y-97523142D01*
X128816380Y-97666000D01*
X128816380Y-97904095D01*
X128816380Y-96856476D02*
X128816380Y-96666000D01*
X128768761Y-96570761D01*
X128721142Y-96523142D01*
X128578285Y-96427904D01*
X128387809Y-96380285D01*
X128006857Y-96380285D01*
X127911619Y-96427904D01*
X127864000Y-96475523D01*
X127816380Y-96570761D01*
X127816380Y-96761238D01*
X127864000Y-96856476D01*
X127911619Y-96904095D01*
X128006857Y-96951714D01*
X128244952Y-96951714D01*
X128340190Y-96904095D01*
X128387809Y-96856476D01*
X128435428Y-96761238D01*
X128435428Y-96570761D01*
X128387809Y-96475523D01*
X128340190Y-96427904D01*
X128244952Y-96380285D01*
%TO.C,D8*%
X128816380Y-91300095D02*
X127816380Y-91300095D01*
X127816380Y-91062000D01*
X127864000Y-90919142D01*
X127959238Y-90823904D01*
X128054476Y-90776285D01*
X128244952Y-90728666D01*
X128387809Y-90728666D01*
X128578285Y-90776285D01*
X128673523Y-90823904D01*
X128768761Y-90919142D01*
X128816380Y-91062000D01*
X128816380Y-91300095D01*
X128244952Y-90157238D02*
X128197333Y-90252476D01*
X128149714Y-90300095D01*
X128054476Y-90347714D01*
X128006857Y-90347714D01*
X127911619Y-90300095D01*
X127864000Y-90252476D01*
X127816380Y-90157238D01*
X127816380Y-89966761D01*
X127864000Y-89871523D01*
X127911619Y-89823904D01*
X128006857Y-89776285D01*
X128054476Y-89776285D01*
X128149714Y-89823904D01*
X128197333Y-89871523D01*
X128244952Y-89966761D01*
X128244952Y-90157238D01*
X128292571Y-90252476D01*
X128340190Y-90300095D01*
X128435428Y-90347714D01*
X128625904Y-90347714D01*
X128721142Y-90300095D01*
X128768761Y-90252476D01*
X128816380Y-90157238D01*
X128816380Y-89966761D01*
X128768761Y-89871523D01*
X128721142Y-89823904D01*
X128625904Y-89776285D01*
X128435428Y-89776285D01*
X128340190Y-89823904D01*
X128292571Y-89871523D01*
X128244952Y-89966761D01*
%TO.C,D7*%
X128816380Y-84950095D02*
X127816380Y-84950095D01*
X127816380Y-84712000D01*
X127864000Y-84569142D01*
X127959238Y-84473904D01*
X128054476Y-84426285D01*
X128244952Y-84378666D01*
X128387809Y-84378666D01*
X128578285Y-84426285D01*
X128673523Y-84473904D01*
X128768761Y-84569142D01*
X128816380Y-84712000D01*
X128816380Y-84950095D01*
X127816380Y-84045333D02*
X127816380Y-83378666D01*
X128816380Y-83807238D01*
%TO.C,D6*%
X123237904Y-174634380D02*
X123237904Y-173634380D01*
X123476000Y-173634380D01*
X123618857Y-173682000D01*
X123714095Y-173777238D01*
X123761714Y-173872476D01*
X123809333Y-174062952D01*
X123809333Y-174205809D01*
X123761714Y-174396285D01*
X123714095Y-174491523D01*
X123618857Y-174586761D01*
X123476000Y-174634380D01*
X123237904Y-174634380D01*
X124666476Y-173634380D02*
X124476000Y-173634380D01*
X124380761Y-173682000D01*
X124333142Y-173729619D01*
X124237904Y-173872476D01*
X124190285Y-174062952D01*
X124190285Y-174443904D01*
X124237904Y-174539142D01*
X124285523Y-174586761D01*
X124380761Y-174634380D01*
X124571238Y-174634380D01*
X124666476Y-174586761D01*
X124714095Y-174539142D01*
X124761714Y-174443904D01*
X124761714Y-174205809D01*
X124714095Y-174110571D01*
X124666476Y-174062952D01*
X124571238Y-174015333D01*
X124380761Y-174015333D01*
X124285523Y-174062952D01*
X124237904Y-174110571D01*
X124190285Y-174205809D01*
%TO.C,D5*%
X129221904Y-104876380D02*
X129221904Y-103876380D01*
X129460000Y-103876380D01*
X129602857Y-103924000D01*
X129698095Y-104019238D01*
X129745714Y-104114476D01*
X129793333Y-104304952D01*
X129793333Y-104447809D01*
X129745714Y-104638285D01*
X129698095Y-104733523D01*
X129602857Y-104828761D01*
X129460000Y-104876380D01*
X129221904Y-104876380D01*
X130698095Y-103876380D02*
X130221904Y-103876380D01*
X130174285Y-104352571D01*
X130221904Y-104304952D01*
X130317142Y-104257333D01*
X130555238Y-104257333D01*
X130650476Y-104304952D01*
X130698095Y-104352571D01*
X130745714Y-104447809D01*
X130745714Y-104685904D01*
X130698095Y-104781142D01*
X130650476Y-104828761D01*
X130555238Y-104876380D01*
X130317142Y-104876380D01*
X130221904Y-104828761D01*
X130174285Y-104781142D01*
%TO.C,D4*%
X134107904Y-185388380D02*
X134107904Y-184388380D01*
X134346000Y-184388380D01*
X134488857Y-184436000D01*
X134584095Y-184531238D01*
X134631714Y-184626476D01*
X134679333Y-184816952D01*
X134679333Y-184959809D01*
X134631714Y-185150285D01*
X134584095Y-185245523D01*
X134488857Y-185340761D01*
X134346000Y-185388380D01*
X134107904Y-185388380D01*
X135536476Y-184721714D02*
X135536476Y-185388380D01*
X135298380Y-184340761D02*
X135060285Y-185055047D01*
X135679333Y-185055047D01*
%TO.C,D3*%
X140315904Y-185388380D02*
X140315904Y-184388380D01*
X140554000Y-184388380D01*
X140696857Y-184436000D01*
X140792095Y-184531238D01*
X140839714Y-184626476D01*
X140887333Y-184816952D01*
X140887333Y-184959809D01*
X140839714Y-185150285D01*
X140792095Y-185245523D01*
X140696857Y-185340761D01*
X140554000Y-185388380D01*
X140315904Y-185388380D01*
X141220666Y-184388380D02*
X141839714Y-184388380D01*
X141506380Y-184769333D01*
X141649238Y-184769333D01*
X141744476Y-184816952D01*
X141792095Y-184864571D01*
X141839714Y-184959809D01*
X141839714Y-185197904D01*
X141792095Y-185293142D01*
X141744476Y-185340761D01*
X141649238Y-185388380D01*
X141363523Y-185388380D01*
X141268285Y-185340761D01*
X141220666Y-185293142D01*
%TO.C,D2*%
X56761904Y-70452380D02*
X56761904Y-69452380D01*
X57000000Y-69452380D01*
X57142857Y-69500000D01*
X57238095Y-69595238D01*
X57285714Y-69690476D01*
X57333333Y-69880952D01*
X57333333Y-70023809D01*
X57285714Y-70214285D01*
X57238095Y-70309523D01*
X57142857Y-70404761D01*
X57000000Y-70452380D01*
X56761904Y-70452380D01*
X57714285Y-69547619D02*
X57761904Y-69500000D01*
X57857142Y-69452380D01*
X58095238Y-69452380D01*
X58190476Y-69500000D01*
X58238095Y-69547619D01*
X58285714Y-69642857D01*
X58285714Y-69738095D01*
X58238095Y-69880952D01*
X57666666Y-70452380D01*
X58285714Y-70452380D01*
%TO.C,C50*%
X127451142Y-77488857D02*
X127498761Y-77536476D01*
X127546380Y-77679333D01*
X127546380Y-77774571D01*
X127498761Y-77917428D01*
X127403523Y-78012666D01*
X127308285Y-78060285D01*
X127117809Y-78107904D01*
X126974952Y-78107904D01*
X126784476Y-78060285D01*
X126689238Y-78012666D01*
X126594000Y-77917428D01*
X126546380Y-77774571D01*
X126546380Y-77679333D01*
X126594000Y-77536476D01*
X126641619Y-77488857D01*
X126546380Y-76584095D02*
X126546380Y-77060285D01*
X127022571Y-77107904D01*
X126974952Y-77060285D01*
X126927333Y-76965047D01*
X126927333Y-76726952D01*
X126974952Y-76631714D01*
X127022571Y-76584095D01*
X127117809Y-76536476D01*
X127355904Y-76536476D01*
X127451142Y-76584095D01*
X127498761Y-76631714D01*
X127546380Y-76726952D01*
X127546380Y-76965047D01*
X127498761Y-77060285D01*
X127451142Y-77107904D01*
X126546380Y-75917428D02*
X126546380Y-75822190D01*
X126594000Y-75726952D01*
X126641619Y-75679333D01*
X126736857Y-75631714D01*
X126927333Y-75584095D01*
X127165428Y-75584095D01*
X127355904Y-75631714D01*
X127451142Y-75679333D01*
X127498761Y-75726952D01*
X127546380Y-75822190D01*
X127546380Y-75917428D01*
X127498761Y-76012666D01*
X127451142Y-76060285D01*
X127355904Y-76107904D01*
X127165428Y-76155523D01*
X126927333Y-76155523D01*
X126736857Y-76107904D01*
X126641619Y-76060285D01*
X126594000Y-76012666D01*
X126546380Y-75917428D01*
%TO.C,C49*%
X127037142Y-100602857D02*
X127084761Y-100650476D01*
X127132380Y-100793333D01*
X127132380Y-100888571D01*
X127084761Y-101031428D01*
X126989523Y-101126666D01*
X126894285Y-101174285D01*
X126703809Y-101221904D01*
X126560952Y-101221904D01*
X126370476Y-101174285D01*
X126275238Y-101126666D01*
X126180000Y-101031428D01*
X126132380Y-100888571D01*
X126132380Y-100793333D01*
X126180000Y-100650476D01*
X126227619Y-100602857D01*
X126465714Y-99745714D02*
X127132380Y-99745714D01*
X126084761Y-99983809D02*
X126799047Y-100221904D01*
X126799047Y-99602857D01*
X127132380Y-99174285D02*
X127132380Y-98983809D01*
X127084761Y-98888571D01*
X127037142Y-98840952D01*
X126894285Y-98745714D01*
X126703809Y-98698095D01*
X126322857Y-98698095D01*
X126227619Y-98745714D01*
X126180000Y-98793333D01*
X126132380Y-98888571D01*
X126132380Y-99079047D01*
X126180000Y-99174285D01*
X126227619Y-99221904D01*
X126322857Y-99269523D01*
X126560952Y-99269523D01*
X126656190Y-99221904D01*
X126703809Y-99174285D01*
X126751428Y-99079047D01*
X126751428Y-98888571D01*
X126703809Y-98793333D01*
X126656190Y-98745714D01*
X126560952Y-98698095D01*
%TO.C,C47*%
X127037142Y-93998857D02*
X127084761Y-94046476D01*
X127132380Y-94189333D01*
X127132380Y-94284571D01*
X127084761Y-94427428D01*
X126989523Y-94522666D01*
X126894285Y-94570285D01*
X126703809Y-94617904D01*
X126560952Y-94617904D01*
X126370476Y-94570285D01*
X126275238Y-94522666D01*
X126180000Y-94427428D01*
X126132380Y-94284571D01*
X126132380Y-94189333D01*
X126180000Y-94046476D01*
X126227619Y-93998857D01*
X126465714Y-93141714D02*
X127132380Y-93141714D01*
X126084761Y-93379809D02*
X126799047Y-93617904D01*
X126799047Y-92998857D01*
X126132380Y-92713142D02*
X126132380Y-92046476D01*
X127132380Y-92475047D01*
%TO.C,C46*%
X127037142Y-87648857D02*
X127084761Y-87696476D01*
X127132380Y-87839333D01*
X127132380Y-87934571D01*
X127084761Y-88077428D01*
X126989523Y-88172666D01*
X126894285Y-88220285D01*
X126703809Y-88267904D01*
X126560952Y-88267904D01*
X126370476Y-88220285D01*
X126275238Y-88172666D01*
X126180000Y-88077428D01*
X126132380Y-87934571D01*
X126132380Y-87839333D01*
X126180000Y-87696476D01*
X126227619Y-87648857D01*
X126465714Y-86791714D02*
X127132380Y-86791714D01*
X126084761Y-87029809D02*
X126799047Y-87267904D01*
X126799047Y-86648857D01*
X126132380Y-85839333D02*
X126132380Y-86029809D01*
X126180000Y-86125047D01*
X126227619Y-86172666D01*
X126370476Y-86267904D01*
X126560952Y-86315523D01*
X126941904Y-86315523D01*
X127037142Y-86267904D01*
X127084761Y-86220285D01*
X127132380Y-86125047D01*
X127132380Y-85934571D01*
X127084761Y-85839333D01*
X127037142Y-85791714D01*
X126941904Y-85744095D01*
X126703809Y-85744095D01*
X126608571Y-85791714D01*
X126560952Y-85839333D01*
X126513333Y-85934571D01*
X126513333Y-86125047D01*
X126560952Y-86220285D01*
X126608571Y-86267904D01*
X126703809Y-86315523D01*
%TO.C,C45*%
X116783142Y-95522857D02*
X116830761Y-95570476D01*
X116878380Y-95713333D01*
X116878380Y-95808571D01*
X116830761Y-95951428D01*
X116735523Y-96046666D01*
X116640285Y-96094285D01*
X116449809Y-96141904D01*
X116306952Y-96141904D01*
X116116476Y-96094285D01*
X116021238Y-96046666D01*
X115926000Y-95951428D01*
X115878380Y-95808571D01*
X115878380Y-95713333D01*
X115926000Y-95570476D01*
X115973619Y-95522857D01*
X116211714Y-94665714D02*
X116878380Y-94665714D01*
X115830761Y-94903809D02*
X116545047Y-95141904D01*
X116545047Y-94522857D01*
X115878380Y-93665714D02*
X115878380Y-94141904D01*
X116354571Y-94189523D01*
X116306952Y-94141904D01*
X116259333Y-94046666D01*
X116259333Y-93808571D01*
X116306952Y-93713333D01*
X116354571Y-93665714D01*
X116449809Y-93618095D01*
X116687904Y-93618095D01*
X116783142Y-93665714D01*
X116830761Y-93713333D01*
X116878380Y-93808571D01*
X116878380Y-94046666D01*
X116830761Y-94141904D01*
X116783142Y-94189523D01*
%TO.C,C44*%
X116529142Y-91712857D02*
X116576761Y-91760476D01*
X116624380Y-91903333D01*
X116624380Y-91998571D01*
X116576761Y-92141428D01*
X116481523Y-92236666D01*
X116386285Y-92284285D01*
X116195809Y-92331904D01*
X116052952Y-92331904D01*
X115862476Y-92284285D01*
X115767238Y-92236666D01*
X115672000Y-92141428D01*
X115624380Y-91998571D01*
X115624380Y-91903333D01*
X115672000Y-91760476D01*
X115719619Y-91712857D01*
X115957714Y-90855714D02*
X116624380Y-90855714D01*
X115576761Y-91093809D02*
X116291047Y-91331904D01*
X116291047Y-90712857D01*
X115957714Y-89903333D02*
X116624380Y-89903333D01*
X115576761Y-90141428D02*
X116291047Y-90379523D01*
X116291047Y-89760476D01*
%TO.C,C43*%
X131607142Y-164642857D02*
X131654761Y-164690476D01*
X131702380Y-164833333D01*
X131702380Y-164928571D01*
X131654761Y-165071428D01*
X131559523Y-165166666D01*
X131464285Y-165214285D01*
X131273809Y-165261904D01*
X131130952Y-165261904D01*
X130940476Y-165214285D01*
X130845238Y-165166666D01*
X130750000Y-165071428D01*
X130702380Y-164928571D01*
X130702380Y-164833333D01*
X130750000Y-164690476D01*
X130797619Y-164642857D01*
X131035714Y-163785714D02*
X131702380Y-163785714D01*
X130654761Y-164023809D02*
X131369047Y-164261904D01*
X131369047Y-163642857D01*
X130702380Y-163357142D02*
X130702380Y-162738095D01*
X131083333Y-163071428D01*
X131083333Y-162928571D01*
X131130952Y-162833333D01*
X131178571Y-162785714D01*
X131273809Y-162738095D01*
X131511904Y-162738095D01*
X131607142Y-162785714D01*
X131654761Y-162833333D01*
X131702380Y-162928571D01*
X131702380Y-163214285D01*
X131654761Y-163309523D01*
X131607142Y-163357142D01*
%TO.C,C42*%
X125107142Y-170857142D02*
X125059523Y-170904761D01*
X124916666Y-170952380D01*
X124821428Y-170952380D01*
X124678571Y-170904761D01*
X124583333Y-170809523D01*
X124535714Y-170714285D01*
X124488095Y-170523809D01*
X124488095Y-170380952D01*
X124535714Y-170190476D01*
X124583333Y-170095238D01*
X124678571Y-170000000D01*
X124821428Y-169952380D01*
X124916666Y-169952380D01*
X125059523Y-170000000D01*
X125107142Y-170047619D01*
X125964285Y-170285714D02*
X125964285Y-170952380D01*
X125726190Y-169904761D02*
X125488095Y-170619047D01*
X126107142Y-170619047D01*
X126440476Y-170047619D02*
X126488095Y-170000000D01*
X126583333Y-169952380D01*
X126821428Y-169952380D01*
X126916666Y-170000000D01*
X126964285Y-170047619D01*
X127011904Y-170142857D01*
X127011904Y-170238095D01*
X126964285Y-170380952D01*
X126392857Y-170952380D01*
X127011904Y-170952380D01*
%TO.C,C39*%
X49841142Y-147422857D02*
X49888761Y-147470476D01*
X49936380Y-147613333D01*
X49936380Y-147708571D01*
X49888761Y-147851428D01*
X49793523Y-147946666D01*
X49698285Y-147994285D01*
X49507809Y-148041904D01*
X49364952Y-148041904D01*
X49174476Y-147994285D01*
X49079238Y-147946666D01*
X48984000Y-147851428D01*
X48936380Y-147708571D01*
X48936380Y-147613333D01*
X48984000Y-147470476D01*
X49031619Y-147422857D01*
X48936380Y-147089523D02*
X48936380Y-146470476D01*
X49317333Y-146803809D01*
X49317333Y-146660952D01*
X49364952Y-146565714D01*
X49412571Y-146518095D01*
X49507809Y-146470476D01*
X49745904Y-146470476D01*
X49841142Y-146518095D01*
X49888761Y-146565714D01*
X49936380Y-146660952D01*
X49936380Y-146946666D01*
X49888761Y-147041904D01*
X49841142Y-147089523D01*
X49936380Y-145994285D02*
X49936380Y-145803809D01*
X49888761Y-145708571D01*
X49841142Y-145660952D01*
X49698285Y-145565714D01*
X49507809Y-145518095D01*
X49126857Y-145518095D01*
X49031619Y-145565714D01*
X48984000Y-145613333D01*
X48936380Y-145708571D01*
X48936380Y-145899047D01*
X48984000Y-145994285D01*
X49031619Y-146041904D01*
X49126857Y-146089523D01*
X49364952Y-146089523D01*
X49460190Y-146041904D01*
X49507809Y-145994285D01*
X49555428Y-145899047D01*
X49555428Y-145708571D01*
X49507809Y-145613333D01*
X49460190Y-145565714D01*
X49364952Y-145518095D01*
%TO.C,C38*%
X120269142Y-175586857D02*
X120316761Y-175634476D01*
X120364380Y-175777333D01*
X120364380Y-175872571D01*
X120316761Y-176015428D01*
X120221523Y-176110666D01*
X120126285Y-176158285D01*
X119935809Y-176205904D01*
X119792952Y-176205904D01*
X119602476Y-176158285D01*
X119507238Y-176110666D01*
X119412000Y-176015428D01*
X119364380Y-175872571D01*
X119364380Y-175777333D01*
X119412000Y-175634476D01*
X119459619Y-175586857D01*
X119364380Y-175253523D02*
X119364380Y-174634476D01*
X119745333Y-174967809D01*
X119745333Y-174824952D01*
X119792952Y-174729714D01*
X119840571Y-174682095D01*
X119935809Y-174634476D01*
X120173904Y-174634476D01*
X120269142Y-174682095D01*
X120316761Y-174729714D01*
X120364380Y-174824952D01*
X120364380Y-175110666D01*
X120316761Y-175205904D01*
X120269142Y-175253523D01*
X119792952Y-174063047D02*
X119745333Y-174158285D01*
X119697714Y-174205904D01*
X119602476Y-174253523D01*
X119554857Y-174253523D01*
X119459619Y-174205904D01*
X119412000Y-174158285D01*
X119364380Y-174063047D01*
X119364380Y-173872571D01*
X119412000Y-173777333D01*
X119459619Y-173729714D01*
X119554857Y-173682095D01*
X119602476Y-173682095D01*
X119697714Y-173729714D01*
X119745333Y-173777333D01*
X119792952Y-173872571D01*
X119792952Y-174063047D01*
X119840571Y-174158285D01*
X119888190Y-174205904D01*
X119983428Y-174253523D01*
X120173904Y-174253523D01*
X120269142Y-174205904D01*
X120316761Y-174158285D01*
X120364380Y-174063047D01*
X120364380Y-173872571D01*
X120316761Y-173777333D01*
X120269142Y-173729714D01*
X120173904Y-173682095D01*
X119983428Y-173682095D01*
X119888190Y-173729714D01*
X119840571Y-173777333D01*
X119792952Y-173872571D01*
%TO.C,C37*%
X122809142Y-168728857D02*
X122856761Y-168776476D01*
X122904380Y-168919333D01*
X122904380Y-169014571D01*
X122856761Y-169157428D01*
X122761523Y-169252666D01*
X122666285Y-169300285D01*
X122475809Y-169347904D01*
X122332952Y-169347904D01*
X122142476Y-169300285D01*
X122047238Y-169252666D01*
X121952000Y-169157428D01*
X121904380Y-169014571D01*
X121904380Y-168919333D01*
X121952000Y-168776476D01*
X121999619Y-168728857D01*
X121904380Y-168395523D02*
X121904380Y-167776476D01*
X122285333Y-168109809D01*
X122285333Y-167966952D01*
X122332952Y-167871714D01*
X122380571Y-167824095D01*
X122475809Y-167776476D01*
X122713904Y-167776476D01*
X122809142Y-167824095D01*
X122856761Y-167871714D01*
X122904380Y-167966952D01*
X122904380Y-168252666D01*
X122856761Y-168347904D01*
X122809142Y-168395523D01*
X121904380Y-167443142D02*
X121904380Y-166776476D01*
X122904380Y-167205047D01*
%TO.C,C36*%
X127777142Y-105320857D02*
X127824761Y-105368476D01*
X127872380Y-105511333D01*
X127872380Y-105606571D01*
X127824761Y-105749428D01*
X127729523Y-105844666D01*
X127634285Y-105892285D01*
X127443809Y-105939904D01*
X127300952Y-105939904D01*
X127110476Y-105892285D01*
X127015238Y-105844666D01*
X126920000Y-105749428D01*
X126872380Y-105606571D01*
X126872380Y-105511333D01*
X126920000Y-105368476D01*
X126967619Y-105320857D01*
X126872380Y-104987523D02*
X126872380Y-104368476D01*
X127253333Y-104701809D01*
X127253333Y-104558952D01*
X127300952Y-104463714D01*
X127348571Y-104416095D01*
X127443809Y-104368476D01*
X127681904Y-104368476D01*
X127777142Y-104416095D01*
X127824761Y-104463714D01*
X127872380Y-104558952D01*
X127872380Y-104844666D01*
X127824761Y-104939904D01*
X127777142Y-104987523D01*
X126872380Y-103511333D02*
X126872380Y-103701809D01*
X126920000Y-103797047D01*
X126967619Y-103844666D01*
X127110476Y-103939904D01*
X127300952Y-103987523D01*
X127681904Y-103987523D01*
X127777142Y-103939904D01*
X127824761Y-103892285D01*
X127872380Y-103797047D01*
X127872380Y-103606571D01*
X127824761Y-103511333D01*
X127777142Y-103463714D01*
X127681904Y-103416095D01*
X127443809Y-103416095D01*
X127348571Y-103463714D01*
X127300952Y-103511333D01*
X127253333Y-103606571D01*
X127253333Y-103797047D01*
X127300952Y-103892285D01*
X127348571Y-103939904D01*
X127443809Y-103987523D01*
%TO.C,C35*%
X52475142Y-149200857D02*
X52522761Y-149248476D01*
X52570380Y-149391333D01*
X52570380Y-149486571D01*
X52522761Y-149629428D01*
X52427523Y-149724666D01*
X52332285Y-149772285D01*
X52141809Y-149819904D01*
X51998952Y-149819904D01*
X51808476Y-149772285D01*
X51713238Y-149724666D01*
X51618000Y-149629428D01*
X51570380Y-149486571D01*
X51570380Y-149391333D01*
X51618000Y-149248476D01*
X51665619Y-149200857D01*
X51570380Y-148867523D02*
X51570380Y-148248476D01*
X51951333Y-148581809D01*
X51951333Y-148438952D01*
X51998952Y-148343714D01*
X52046571Y-148296095D01*
X52141809Y-148248476D01*
X52379904Y-148248476D01*
X52475142Y-148296095D01*
X52522761Y-148343714D01*
X52570380Y-148438952D01*
X52570380Y-148724666D01*
X52522761Y-148819904D01*
X52475142Y-148867523D01*
X51570380Y-147343714D02*
X51570380Y-147819904D01*
X52046571Y-147867523D01*
X51998952Y-147819904D01*
X51951333Y-147724666D01*
X51951333Y-147486571D01*
X51998952Y-147391333D01*
X52046571Y-147343714D01*
X52141809Y-147296095D01*
X52379904Y-147296095D01*
X52475142Y-147343714D01*
X52522761Y-147391333D01*
X52570380Y-147486571D01*
X52570380Y-147724666D01*
X52522761Y-147819904D01*
X52475142Y-147867523D01*
%TO.C,C34*%
X123205142Y-107098857D02*
X123252761Y-107146476D01*
X123300380Y-107289333D01*
X123300380Y-107384571D01*
X123252761Y-107527428D01*
X123157523Y-107622666D01*
X123062285Y-107670285D01*
X122871809Y-107717904D01*
X122728952Y-107717904D01*
X122538476Y-107670285D01*
X122443238Y-107622666D01*
X122348000Y-107527428D01*
X122300380Y-107384571D01*
X122300380Y-107289333D01*
X122348000Y-107146476D01*
X122395619Y-107098857D01*
X122300380Y-106765523D02*
X122300380Y-106146476D01*
X122681333Y-106479809D01*
X122681333Y-106336952D01*
X122728952Y-106241714D01*
X122776571Y-106194095D01*
X122871809Y-106146476D01*
X123109904Y-106146476D01*
X123205142Y-106194095D01*
X123252761Y-106241714D01*
X123300380Y-106336952D01*
X123300380Y-106622666D01*
X123252761Y-106717904D01*
X123205142Y-106765523D01*
X122633714Y-105289333D02*
X123300380Y-105289333D01*
X122252761Y-105527428D02*
X122967047Y-105765523D01*
X122967047Y-105146476D01*
%TO.C,C33*%
X57223142Y-136215142D02*
X57175523Y-136262761D01*
X57032666Y-136310380D01*
X56937428Y-136310380D01*
X56794571Y-136262761D01*
X56699333Y-136167523D01*
X56651714Y-136072285D01*
X56604095Y-135881809D01*
X56604095Y-135738952D01*
X56651714Y-135548476D01*
X56699333Y-135453238D01*
X56794571Y-135358000D01*
X56937428Y-135310380D01*
X57032666Y-135310380D01*
X57175523Y-135358000D01*
X57223142Y-135405619D01*
X57556476Y-135310380D02*
X58175523Y-135310380D01*
X57842190Y-135691333D01*
X57985047Y-135691333D01*
X58080285Y-135738952D01*
X58127904Y-135786571D01*
X58175523Y-135881809D01*
X58175523Y-136119904D01*
X58127904Y-136215142D01*
X58080285Y-136262761D01*
X57985047Y-136310380D01*
X57699333Y-136310380D01*
X57604095Y-136262761D01*
X57556476Y-136215142D01*
X58508857Y-135310380D02*
X59127904Y-135310380D01*
X58794571Y-135691333D01*
X58937428Y-135691333D01*
X59032666Y-135738952D01*
X59080285Y-135786571D01*
X59127904Y-135881809D01*
X59127904Y-136119904D01*
X59080285Y-136215142D01*
X59032666Y-136262761D01*
X58937428Y-136310380D01*
X58651714Y-136310380D01*
X58556476Y-136262761D01*
X58508857Y-136215142D01*
%TO.C,C32*%
X111013142Y-111162857D02*
X111060761Y-111210476D01*
X111108380Y-111353333D01*
X111108380Y-111448571D01*
X111060761Y-111591428D01*
X110965523Y-111686666D01*
X110870285Y-111734285D01*
X110679809Y-111781904D01*
X110536952Y-111781904D01*
X110346476Y-111734285D01*
X110251238Y-111686666D01*
X110156000Y-111591428D01*
X110108380Y-111448571D01*
X110108380Y-111353333D01*
X110156000Y-111210476D01*
X110203619Y-111162857D01*
X110108380Y-110829523D02*
X110108380Y-110210476D01*
X110489333Y-110543809D01*
X110489333Y-110400952D01*
X110536952Y-110305714D01*
X110584571Y-110258095D01*
X110679809Y-110210476D01*
X110917904Y-110210476D01*
X111013142Y-110258095D01*
X111060761Y-110305714D01*
X111108380Y-110400952D01*
X111108380Y-110686666D01*
X111060761Y-110781904D01*
X111013142Y-110829523D01*
X110203619Y-109829523D02*
X110156000Y-109781904D01*
X110108380Y-109686666D01*
X110108380Y-109448571D01*
X110156000Y-109353333D01*
X110203619Y-109305714D01*
X110298857Y-109258095D01*
X110394095Y-109258095D01*
X110536952Y-109305714D01*
X111108380Y-109877142D01*
X111108380Y-109258095D01*
%TO.C,C31*%
X112537142Y-111162857D02*
X112584761Y-111210476D01*
X112632380Y-111353333D01*
X112632380Y-111448571D01*
X112584761Y-111591428D01*
X112489523Y-111686666D01*
X112394285Y-111734285D01*
X112203809Y-111781904D01*
X112060952Y-111781904D01*
X111870476Y-111734285D01*
X111775238Y-111686666D01*
X111680000Y-111591428D01*
X111632380Y-111448571D01*
X111632380Y-111353333D01*
X111680000Y-111210476D01*
X111727619Y-111162857D01*
X111632380Y-110829523D02*
X111632380Y-110210476D01*
X112013333Y-110543809D01*
X112013333Y-110400952D01*
X112060952Y-110305714D01*
X112108571Y-110258095D01*
X112203809Y-110210476D01*
X112441904Y-110210476D01*
X112537142Y-110258095D01*
X112584761Y-110305714D01*
X112632380Y-110400952D01*
X112632380Y-110686666D01*
X112584761Y-110781904D01*
X112537142Y-110829523D01*
X112632380Y-109258095D02*
X112632380Y-109829523D01*
X112632380Y-109543809D02*
X111632380Y-109543809D01*
X111775238Y-109639047D01*
X111870476Y-109734285D01*
X111918095Y-109829523D01*
%TO.C,C30*%
X136295142Y-126659142D02*
X136247523Y-126706761D01*
X136104666Y-126754380D01*
X136009428Y-126754380D01*
X135866571Y-126706761D01*
X135771333Y-126611523D01*
X135723714Y-126516285D01*
X135676095Y-126325809D01*
X135676095Y-126182952D01*
X135723714Y-125992476D01*
X135771333Y-125897238D01*
X135866571Y-125802000D01*
X136009428Y-125754380D01*
X136104666Y-125754380D01*
X136247523Y-125802000D01*
X136295142Y-125849619D01*
X136628476Y-125754380D02*
X137247523Y-125754380D01*
X136914190Y-126135333D01*
X137057047Y-126135333D01*
X137152285Y-126182952D01*
X137199904Y-126230571D01*
X137247523Y-126325809D01*
X137247523Y-126563904D01*
X137199904Y-126659142D01*
X137152285Y-126706761D01*
X137057047Y-126754380D01*
X136771333Y-126754380D01*
X136676095Y-126706761D01*
X136628476Y-126659142D01*
X137866571Y-125754380D02*
X137961809Y-125754380D01*
X138057047Y-125802000D01*
X138104666Y-125849619D01*
X138152285Y-125944857D01*
X138199904Y-126135333D01*
X138199904Y-126373428D01*
X138152285Y-126563904D01*
X138104666Y-126659142D01*
X138057047Y-126706761D01*
X137961809Y-126754380D01*
X137866571Y-126754380D01*
X137771333Y-126706761D01*
X137723714Y-126659142D01*
X137676095Y-126563904D01*
X137628476Y-126373428D01*
X137628476Y-126135333D01*
X137676095Y-125944857D01*
X137723714Y-125849619D01*
X137771333Y-125802000D01*
X137866571Y-125754380D01*
%TO.C,C29*%
X80251142Y-115376857D02*
X80298761Y-115424476D01*
X80346380Y-115567333D01*
X80346380Y-115662571D01*
X80298761Y-115805428D01*
X80203523Y-115900666D01*
X80108285Y-115948285D01*
X79917809Y-115995904D01*
X79774952Y-115995904D01*
X79584476Y-115948285D01*
X79489238Y-115900666D01*
X79394000Y-115805428D01*
X79346380Y-115662571D01*
X79346380Y-115567333D01*
X79394000Y-115424476D01*
X79441619Y-115376857D01*
X79441619Y-114995904D02*
X79394000Y-114948285D01*
X79346380Y-114853047D01*
X79346380Y-114614952D01*
X79394000Y-114519714D01*
X79441619Y-114472095D01*
X79536857Y-114424476D01*
X79632095Y-114424476D01*
X79774952Y-114472095D01*
X80346380Y-115043523D01*
X80346380Y-114424476D01*
X80346380Y-113948285D02*
X80346380Y-113757809D01*
X80298761Y-113662571D01*
X80251142Y-113614952D01*
X80108285Y-113519714D01*
X79917809Y-113472095D01*
X79536857Y-113472095D01*
X79441619Y-113519714D01*
X79394000Y-113567333D01*
X79346380Y-113662571D01*
X79346380Y-113853047D01*
X79394000Y-113948285D01*
X79441619Y-113995904D01*
X79536857Y-114043523D01*
X79774952Y-114043523D01*
X79870190Y-113995904D01*
X79917809Y-113948285D01*
X79965428Y-113853047D01*
X79965428Y-113662571D01*
X79917809Y-113567333D01*
X79870190Y-113519714D01*
X79774952Y-113472095D01*
%TO.C,C28*%
X86203142Y-105787142D02*
X86155523Y-105834761D01*
X86012666Y-105882380D01*
X85917428Y-105882380D01*
X85774571Y-105834761D01*
X85679333Y-105739523D01*
X85631714Y-105644285D01*
X85584095Y-105453809D01*
X85584095Y-105310952D01*
X85631714Y-105120476D01*
X85679333Y-105025238D01*
X85774571Y-104930000D01*
X85917428Y-104882380D01*
X86012666Y-104882380D01*
X86155523Y-104930000D01*
X86203142Y-104977619D01*
X86584095Y-104977619D02*
X86631714Y-104930000D01*
X86726952Y-104882380D01*
X86965047Y-104882380D01*
X87060285Y-104930000D01*
X87107904Y-104977619D01*
X87155523Y-105072857D01*
X87155523Y-105168095D01*
X87107904Y-105310952D01*
X86536476Y-105882380D01*
X87155523Y-105882380D01*
X87726952Y-105310952D02*
X87631714Y-105263333D01*
X87584095Y-105215714D01*
X87536476Y-105120476D01*
X87536476Y-105072857D01*
X87584095Y-104977619D01*
X87631714Y-104930000D01*
X87726952Y-104882380D01*
X87917428Y-104882380D01*
X88012666Y-104930000D01*
X88060285Y-104977619D01*
X88107904Y-105072857D01*
X88107904Y-105120476D01*
X88060285Y-105215714D01*
X88012666Y-105263333D01*
X87917428Y-105310952D01*
X87726952Y-105310952D01*
X87631714Y-105358571D01*
X87584095Y-105406190D01*
X87536476Y-105501428D01*
X87536476Y-105691904D01*
X87584095Y-105787142D01*
X87631714Y-105834761D01*
X87726952Y-105882380D01*
X87917428Y-105882380D01*
X88012666Y-105834761D01*
X88060285Y-105787142D01*
X88107904Y-105691904D01*
X88107904Y-105501428D01*
X88060285Y-105406190D01*
X88012666Y-105358571D01*
X87917428Y-105310952D01*
%TO.C,C27*%
X86457142Y-93755142D02*
X86409523Y-93802761D01*
X86266666Y-93850380D01*
X86171428Y-93850380D01*
X86028571Y-93802761D01*
X85933333Y-93707523D01*
X85885714Y-93612285D01*
X85838095Y-93421809D01*
X85838095Y-93278952D01*
X85885714Y-93088476D01*
X85933333Y-92993238D01*
X86028571Y-92898000D01*
X86171428Y-92850380D01*
X86266666Y-92850380D01*
X86409523Y-92898000D01*
X86457142Y-92945619D01*
X86838095Y-92945619D02*
X86885714Y-92898000D01*
X86980952Y-92850380D01*
X87219047Y-92850380D01*
X87314285Y-92898000D01*
X87361904Y-92945619D01*
X87409523Y-93040857D01*
X87409523Y-93136095D01*
X87361904Y-93278952D01*
X86790476Y-93850380D01*
X87409523Y-93850380D01*
X87742857Y-92850380D02*
X88409523Y-92850380D01*
X87980952Y-93850380D01*
%TO.C,C26*%
X67137142Y-89214857D02*
X67184761Y-89262476D01*
X67232380Y-89405333D01*
X67232380Y-89500571D01*
X67184761Y-89643428D01*
X67089523Y-89738666D01*
X66994285Y-89786285D01*
X66803809Y-89833904D01*
X66660952Y-89833904D01*
X66470476Y-89786285D01*
X66375238Y-89738666D01*
X66280000Y-89643428D01*
X66232380Y-89500571D01*
X66232380Y-89405333D01*
X66280000Y-89262476D01*
X66327619Y-89214857D01*
X66327619Y-88833904D02*
X66280000Y-88786285D01*
X66232380Y-88691047D01*
X66232380Y-88452952D01*
X66280000Y-88357714D01*
X66327619Y-88310095D01*
X66422857Y-88262476D01*
X66518095Y-88262476D01*
X66660952Y-88310095D01*
X67232380Y-88881523D01*
X67232380Y-88262476D01*
X66232380Y-87405333D02*
X66232380Y-87595809D01*
X66280000Y-87691047D01*
X66327619Y-87738666D01*
X66470476Y-87833904D01*
X66660952Y-87881523D01*
X67041904Y-87881523D01*
X67137142Y-87833904D01*
X67184761Y-87786285D01*
X67232380Y-87691047D01*
X67232380Y-87500571D01*
X67184761Y-87405333D01*
X67137142Y-87357714D01*
X67041904Y-87310095D01*
X66803809Y-87310095D01*
X66708571Y-87357714D01*
X66660952Y-87405333D01*
X66613333Y-87500571D01*
X66613333Y-87691047D01*
X66660952Y-87786285D01*
X66708571Y-87833904D01*
X66803809Y-87881523D01*
%TO.C,C25*%
X62581142Y-109155142D02*
X62533523Y-109202761D01*
X62390666Y-109250380D01*
X62295428Y-109250380D01*
X62152571Y-109202761D01*
X62057333Y-109107523D01*
X62009714Y-109012285D01*
X61962095Y-108821809D01*
X61962095Y-108678952D01*
X62009714Y-108488476D01*
X62057333Y-108393238D01*
X62152571Y-108298000D01*
X62295428Y-108250380D01*
X62390666Y-108250380D01*
X62533523Y-108298000D01*
X62581142Y-108345619D01*
X62962095Y-108345619D02*
X63009714Y-108298000D01*
X63104952Y-108250380D01*
X63343047Y-108250380D01*
X63438285Y-108298000D01*
X63485904Y-108345619D01*
X63533523Y-108440857D01*
X63533523Y-108536095D01*
X63485904Y-108678952D01*
X62914476Y-109250380D01*
X63533523Y-109250380D01*
X64438285Y-108250380D02*
X63962095Y-108250380D01*
X63914476Y-108726571D01*
X63962095Y-108678952D01*
X64057333Y-108631333D01*
X64295428Y-108631333D01*
X64390666Y-108678952D01*
X64438285Y-108726571D01*
X64485904Y-108821809D01*
X64485904Y-109059904D01*
X64438285Y-109155142D01*
X64390666Y-109202761D01*
X64295428Y-109250380D01*
X64057333Y-109250380D01*
X63962095Y-109202761D01*
X63914476Y-109155142D01*
%TO.C,C24*%
X70439142Y-115376857D02*
X70486761Y-115424476D01*
X70534380Y-115567333D01*
X70534380Y-115662571D01*
X70486761Y-115805428D01*
X70391523Y-115900666D01*
X70296285Y-115948285D01*
X70105809Y-115995904D01*
X69962952Y-115995904D01*
X69772476Y-115948285D01*
X69677238Y-115900666D01*
X69582000Y-115805428D01*
X69534380Y-115662571D01*
X69534380Y-115567333D01*
X69582000Y-115424476D01*
X69629619Y-115376857D01*
X69629619Y-114995904D02*
X69582000Y-114948285D01*
X69534380Y-114853047D01*
X69534380Y-114614952D01*
X69582000Y-114519714D01*
X69629619Y-114472095D01*
X69724857Y-114424476D01*
X69820095Y-114424476D01*
X69962952Y-114472095D01*
X70534380Y-115043523D01*
X70534380Y-114424476D01*
X69867714Y-113567333D02*
X70534380Y-113567333D01*
X69486761Y-113805428D02*
X70201047Y-114043523D01*
X70201047Y-113424476D01*
%TO.C,C23*%
X74503142Y-115376857D02*
X74550761Y-115424476D01*
X74598380Y-115567333D01*
X74598380Y-115662571D01*
X74550761Y-115805428D01*
X74455523Y-115900666D01*
X74360285Y-115948285D01*
X74169809Y-115995904D01*
X74026952Y-115995904D01*
X73836476Y-115948285D01*
X73741238Y-115900666D01*
X73646000Y-115805428D01*
X73598380Y-115662571D01*
X73598380Y-115567333D01*
X73646000Y-115424476D01*
X73693619Y-115376857D01*
X73693619Y-114995904D02*
X73646000Y-114948285D01*
X73598380Y-114853047D01*
X73598380Y-114614952D01*
X73646000Y-114519714D01*
X73693619Y-114472095D01*
X73788857Y-114424476D01*
X73884095Y-114424476D01*
X74026952Y-114472095D01*
X74598380Y-115043523D01*
X74598380Y-114424476D01*
X73598380Y-114091142D02*
X73598380Y-113472095D01*
X73979333Y-113805428D01*
X73979333Y-113662571D01*
X74026952Y-113567333D01*
X74074571Y-113519714D01*
X74169809Y-113472095D01*
X74407904Y-113472095D01*
X74503142Y-113519714D01*
X74550761Y-113567333D01*
X74598380Y-113662571D01*
X74598380Y-113948285D01*
X74550761Y-114043523D01*
X74503142Y-114091142D01*
%TO.C,C22*%
X71455142Y-89214857D02*
X71502761Y-89262476D01*
X71550380Y-89405333D01*
X71550380Y-89500571D01*
X71502761Y-89643428D01*
X71407523Y-89738666D01*
X71312285Y-89786285D01*
X71121809Y-89833904D01*
X70978952Y-89833904D01*
X70788476Y-89786285D01*
X70693238Y-89738666D01*
X70598000Y-89643428D01*
X70550380Y-89500571D01*
X70550380Y-89405333D01*
X70598000Y-89262476D01*
X70645619Y-89214857D01*
X70645619Y-88833904D02*
X70598000Y-88786285D01*
X70550380Y-88691047D01*
X70550380Y-88452952D01*
X70598000Y-88357714D01*
X70645619Y-88310095D01*
X70740857Y-88262476D01*
X70836095Y-88262476D01*
X70978952Y-88310095D01*
X71550380Y-88881523D01*
X71550380Y-88262476D01*
X70645619Y-87881523D02*
X70598000Y-87833904D01*
X70550380Y-87738666D01*
X70550380Y-87500571D01*
X70598000Y-87405333D01*
X70645619Y-87357714D01*
X70740857Y-87310095D01*
X70836095Y-87310095D01*
X70978952Y-87357714D01*
X71550380Y-87929142D01*
X71550380Y-87310095D01*
%TO.C,C21*%
X86203142Y-98073142D02*
X86155523Y-98120761D01*
X86012666Y-98168380D01*
X85917428Y-98168380D01*
X85774571Y-98120761D01*
X85679333Y-98025523D01*
X85631714Y-97930285D01*
X85584095Y-97739809D01*
X85584095Y-97596952D01*
X85631714Y-97406476D01*
X85679333Y-97311238D01*
X85774571Y-97216000D01*
X85917428Y-97168380D01*
X86012666Y-97168380D01*
X86155523Y-97216000D01*
X86203142Y-97263619D01*
X86584095Y-97263619D02*
X86631714Y-97216000D01*
X86726952Y-97168380D01*
X86965047Y-97168380D01*
X87060285Y-97216000D01*
X87107904Y-97263619D01*
X87155523Y-97358857D01*
X87155523Y-97454095D01*
X87107904Y-97596952D01*
X86536476Y-98168380D01*
X87155523Y-98168380D01*
X88107904Y-98168380D02*
X87536476Y-98168380D01*
X87822190Y-98168380D02*
X87822190Y-97168380D01*
X87726952Y-97311238D01*
X87631714Y-97406476D01*
X87536476Y-97454095D01*
%TO.C,C20*%
X77457142Y-115376857D02*
X77504761Y-115424476D01*
X77552380Y-115567333D01*
X77552380Y-115662571D01*
X77504761Y-115805428D01*
X77409523Y-115900666D01*
X77314285Y-115948285D01*
X77123809Y-115995904D01*
X76980952Y-115995904D01*
X76790476Y-115948285D01*
X76695238Y-115900666D01*
X76600000Y-115805428D01*
X76552380Y-115662571D01*
X76552380Y-115567333D01*
X76600000Y-115424476D01*
X76647619Y-115376857D01*
X76647619Y-114995904D02*
X76600000Y-114948285D01*
X76552380Y-114853047D01*
X76552380Y-114614952D01*
X76600000Y-114519714D01*
X76647619Y-114472095D01*
X76742857Y-114424476D01*
X76838095Y-114424476D01*
X76980952Y-114472095D01*
X77552380Y-115043523D01*
X77552380Y-114424476D01*
X76552380Y-113805428D02*
X76552380Y-113710190D01*
X76600000Y-113614952D01*
X76647619Y-113567333D01*
X76742857Y-113519714D01*
X76933333Y-113472095D01*
X77171428Y-113472095D01*
X77361904Y-113519714D01*
X77457142Y-113567333D01*
X77504761Y-113614952D01*
X77552380Y-113710190D01*
X77552380Y-113805428D01*
X77504761Y-113900666D01*
X77457142Y-113948285D01*
X77361904Y-113995904D01*
X77171428Y-114043523D01*
X76933333Y-114043523D01*
X76742857Y-113995904D01*
X76647619Y-113948285D01*
X76600000Y-113900666D01*
X76552380Y-113805428D01*
%TO.C,C12*%
X78857142Y-48357142D02*
X78809523Y-48404761D01*
X78666666Y-48452380D01*
X78571428Y-48452380D01*
X78428571Y-48404761D01*
X78333333Y-48309523D01*
X78285714Y-48214285D01*
X78238095Y-48023809D01*
X78238095Y-47880952D01*
X78285714Y-47690476D01*
X78333333Y-47595238D01*
X78428571Y-47500000D01*
X78571428Y-47452380D01*
X78666666Y-47452380D01*
X78809523Y-47500000D01*
X78857142Y-47547619D01*
X79809523Y-48452380D02*
X79238095Y-48452380D01*
X79523809Y-48452380D02*
X79523809Y-47452380D01*
X79428571Y-47595238D01*
X79333333Y-47690476D01*
X79238095Y-47738095D01*
X80190476Y-47547619D02*
X80238095Y-47500000D01*
X80333333Y-47452380D01*
X80571428Y-47452380D01*
X80666666Y-47500000D01*
X80714285Y-47547619D01*
X80761904Y-47642857D01*
X80761904Y-47738095D01*
X80714285Y-47880952D01*
X80142857Y-48452380D01*
X80761904Y-48452380D01*
%TO.C,C11*%
X78857142Y-61857142D02*
X78809523Y-61904761D01*
X78666666Y-61952380D01*
X78571428Y-61952380D01*
X78428571Y-61904761D01*
X78333333Y-61809523D01*
X78285714Y-61714285D01*
X78238095Y-61523809D01*
X78238095Y-61380952D01*
X78285714Y-61190476D01*
X78333333Y-61095238D01*
X78428571Y-61000000D01*
X78571428Y-60952380D01*
X78666666Y-60952380D01*
X78809523Y-61000000D01*
X78857142Y-61047619D01*
X79809523Y-61952380D02*
X79238095Y-61952380D01*
X79523809Y-61952380D02*
X79523809Y-60952380D01*
X79428571Y-61095238D01*
X79333333Y-61190476D01*
X79238095Y-61238095D01*
X80761904Y-61952380D02*
X80190476Y-61952380D01*
X80476190Y-61952380D02*
X80476190Y-60952380D01*
X80380952Y-61095238D01*
X80285714Y-61190476D01*
X80190476Y-61238095D01*
%TO.C,C9*%
X79833333Y-50857142D02*
X79785714Y-50904761D01*
X79642857Y-50952380D01*
X79547619Y-50952380D01*
X79404761Y-50904761D01*
X79309523Y-50809523D01*
X79261904Y-50714285D01*
X79214285Y-50523809D01*
X79214285Y-50380952D01*
X79261904Y-50190476D01*
X79309523Y-50095238D01*
X79404761Y-50000000D01*
X79547619Y-49952380D01*
X79642857Y-49952380D01*
X79785714Y-50000000D01*
X79833333Y-50047619D01*
X80309523Y-50952380D02*
X80500000Y-50952380D01*
X80595238Y-50904761D01*
X80642857Y-50857142D01*
X80738095Y-50714285D01*
X80785714Y-50523809D01*
X80785714Y-50142857D01*
X80738095Y-50047619D01*
X80690476Y-50000000D01*
X80595238Y-49952380D01*
X80404761Y-49952380D01*
X80309523Y-50000000D01*
X80261904Y-50047619D01*
X80214285Y-50142857D01*
X80214285Y-50380952D01*
X80261904Y-50476190D01*
X80309523Y-50523809D01*
X80404761Y-50571428D01*
X80595238Y-50571428D01*
X80690476Y-50523809D01*
X80738095Y-50476190D01*
X80785714Y-50380952D01*
%TO.C,C8*%
X79833333Y-64357142D02*
X79785714Y-64404761D01*
X79642857Y-64452380D01*
X79547619Y-64452380D01*
X79404761Y-64404761D01*
X79309523Y-64309523D01*
X79261904Y-64214285D01*
X79214285Y-64023809D01*
X79214285Y-63880952D01*
X79261904Y-63690476D01*
X79309523Y-63595238D01*
X79404761Y-63500000D01*
X79547619Y-63452380D01*
X79642857Y-63452380D01*
X79785714Y-63500000D01*
X79833333Y-63547619D01*
X80404761Y-63880952D02*
X80309523Y-63833333D01*
X80261904Y-63785714D01*
X80214285Y-63690476D01*
X80214285Y-63642857D01*
X80261904Y-63547619D01*
X80309523Y-63500000D01*
X80404761Y-63452380D01*
X80595238Y-63452380D01*
X80690476Y-63500000D01*
X80738095Y-63547619D01*
X80785714Y-63642857D01*
X80785714Y-63690476D01*
X80738095Y-63785714D01*
X80690476Y-63833333D01*
X80595238Y-63880952D01*
X80404761Y-63880952D01*
X80309523Y-63928571D01*
X80261904Y-63976190D01*
X80214285Y-64071428D01*
X80214285Y-64261904D01*
X80261904Y-64357142D01*
X80309523Y-64404761D01*
X80404761Y-64452380D01*
X80595238Y-64452380D01*
X80690476Y-64404761D01*
X80738095Y-64357142D01*
X80785714Y-64261904D01*
X80785714Y-64071428D01*
X80738095Y-63976190D01*
X80690476Y-63928571D01*
X80595238Y-63880952D01*
%TO.C,C7*%
X46707142Y-77666666D02*
X46754761Y-77714285D01*
X46802380Y-77857142D01*
X46802380Y-77952380D01*
X46754761Y-78095238D01*
X46659523Y-78190476D01*
X46564285Y-78238095D01*
X46373809Y-78285714D01*
X46230952Y-78285714D01*
X46040476Y-78238095D01*
X45945238Y-78190476D01*
X45850000Y-78095238D01*
X45802380Y-77952380D01*
X45802380Y-77857142D01*
X45850000Y-77714285D01*
X45897619Y-77666666D01*
X45802380Y-77333333D02*
X45802380Y-76666666D01*
X46802380Y-77095238D01*
%TO.C,C6*%
X59607142Y-81916666D02*
X59654761Y-81964285D01*
X59702380Y-82107142D01*
X59702380Y-82202380D01*
X59654761Y-82345238D01*
X59559523Y-82440476D01*
X59464285Y-82488095D01*
X59273809Y-82535714D01*
X59130952Y-82535714D01*
X58940476Y-82488095D01*
X58845238Y-82440476D01*
X58750000Y-82345238D01*
X58702380Y-82202380D01*
X58702380Y-82107142D01*
X58750000Y-81964285D01*
X58797619Y-81916666D01*
X58702380Y-81059523D02*
X58702380Y-81250000D01*
X58750000Y-81345238D01*
X58797619Y-81392857D01*
X58940476Y-81488095D01*
X59130952Y-81535714D01*
X59511904Y-81535714D01*
X59607142Y-81488095D01*
X59654761Y-81440476D01*
X59702380Y-81345238D01*
X59702380Y-81154761D01*
X59654761Y-81059523D01*
X59607142Y-81011904D01*
X59511904Y-80964285D01*
X59273809Y-80964285D01*
X59178571Y-81011904D01*
X59130952Y-81059523D01*
X59083333Y-81154761D01*
X59083333Y-81345238D01*
X59130952Y-81440476D01*
X59178571Y-81488095D01*
X59273809Y-81535714D01*
%TO.C,C5*%
X75357142Y-62166666D02*
X75404761Y-62214285D01*
X75452380Y-62357142D01*
X75452380Y-62452380D01*
X75404761Y-62595238D01*
X75309523Y-62690476D01*
X75214285Y-62738095D01*
X75023809Y-62785714D01*
X74880952Y-62785714D01*
X74690476Y-62738095D01*
X74595238Y-62690476D01*
X74500000Y-62595238D01*
X74452380Y-62452380D01*
X74452380Y-62357142D01*
X74500000Y-62214285D01*
X74547619Y-62166666D01*
X74452380Y-61261904D02*
X74452380Y-61738095D01*
X74928571Y-61785714D01*
X74880952Y-61738095D01*
X74833333Y-61642857D01*
X74833333Y-61404761D01*
X74880952Y-61309523D01*
X74928571Y-61261904D01*
X75023809Y-61214285D01*
X75261904Y-61214285D01*
X75357142Y-61261904D01*
X75404761Y-61309523D01*
X75452380Y-61404761D01*
X75452380Y-61642857D01*
X75404761Y-61738095D01*
X75357142Y-61785714D01*
%TO.C,C3*%
X42833333Y-122857142D02*
X42785714Y-122904761D01*
X42642857Y-122952380D01*
X42547619Y-122952380D01*
X42404761Y-122904761D01*
X42309523Y-122809523D01*
X42261904Y-122714285D01*
X42214285Y-122523809D01*
X42214285Y-122380952D01*
X42261904Y-122190476D01*
X42309523Y-122095238D01*
X42404761Y-122000000D01*
X42547619Y-121952380D01*
X42642857Y-121952380D01*
X42785714Y-122000000D01*
X42833333Y-122047619D01*
X43166666Y-121952380D02*
X43785714Y-121952380D01*
X43452380Y-122333333D01*
X43595238Y-122333333D01*
X43690476Y-122380952D01*
X43738095Y-122428571D01*
X43785714Y-122523809D01*
X43785714Y-122761904D01*
X43738095Y-122857142D01*
X43690476Y-122904761D01*
X43595238Y-122952380D01*
X43309523Y-122952380D01*
X43214285Y-122904761D01*
X43166666Y-122857142D01*
%TO.C,C2*%
X31833333Y-122857142D02*
X31785714Y-122904761D01*
X31642857Y-122952380D01*
X31547619Y-122952380D01*
X31404761Y-122904761D01*
X31309523Y-122809523D01*
X31261904Y-122714285D01*
X31214285Y-122523809D01*
X31214285Y-122380952D01*
X31261904Y-122190476D01*
X31309523Y-122095238D01*
X31404761Y-122000000D01*
X31547619Y-121952380D01*
X31642857Y-121952380D01*
X31785714Y-122000000D01*
X31833333Y-122047619D01*
X32214285Y-122047619D02*
X32261904Y-122000000D01*
X32357142Y-121952380D01*
X32595238Y-121952380D01*
X32690476Y-122000000D01*
X32738095Y-122047619D01*
X32785714Y-122142857D01*
X32785714Y-122238095D01*
X32738095Y-122380952D01*
X32166666Y-122952380D01*
X32785714Y-122952380D01*
%TO.C,C1*%
X52333333Y-121857142D02*
X52285714Y-121904761D01*
X52142857Y-121952380D01*
X52047619Y-121952380D01*
X51904761Y-121904761D01*
X51809523Y-121809523D01*
X51761904Y-121714285D01*
X51714285Y-121523809D01*
X51714285Y-121380952D01*
X51761904Y-121190476D01*
X51809523Y-121095238D01*
X51904761Y-121000000D01*
X52047619Y-120952380D01*
X52142857Y-120952380D01*
X52285714Y-121000000D01*
X52333333Y-121047619D01*
X53285714Y-121952380D02*
X52714285Y-121952380D01*
X53000000Y-121952380D02*
X53000000Y-120952380D01*
X52904761Y-121095238D01*
X52809523Y-121190476D01*
X52714285Y-121238095D01*
%TO.C,U2*%
X87418095Y-56272380D02*
X87418095Y-57081904D01*
X87465714Y-57177142D01*
X87513333Y-57224761D01*
X87608571Y-57272380D01*
X87799047Y-57272380D01*
X87894285Y-57224761D01*
X87941904Y-57177142D01*
X87989523Y-57081904D01*
X87989523Y-56272380D01*
X88418095Y-56367619D02*
X88465714Y-56320000D01*
X88560952Y-56272380D01*
X88799047Y-56272380D01*
X88894285Y-56320000D01*
X88941904Y-56367619D01*
X88989523Y-56462857D01*
X88989523Y-56558095D01*
X88941904Y-56700952D01*
X88370476Y-57272380D01*
X88989523Y-57272380D01*
%TO.C,U1*%
X87418095Y-69772380D02*
X87418095Y-70581904D01*
X87465714Y-70677142D01*
X87513333Y-70724761D01*
X87608571Y-70772380D01*
X87799047Y-70772380D01*
X87894285Y-70724761D01*
X87941904Y-70677142D01*
X87989523Y-70581904D01*
X87989523Y-69772380D01*
X88989523Y-70772380D02*
X88418095Y-70772380D01*
X88703809Y-70772380D02*
X88703809Y-69772380D01*
X88608571Y-69915238D01*
X88513333Y-70010476D01*
X88418095Y-70058095D01*
%TO.C,R3*%
X44183333Y-47872380D02*
X43850000Y-47396190D01*
X43611904Y-47872380D02*
X43611904Y-46872380D01*
X43992857Y-46872380D01*
X44088095Y-46920000D01*
X44135714Y-46967619D01*
X44183333Y-47062857D01*
X44183333Y-47205714D01*
X44135714Y-47300952D01*
X44088095Y-47348571D01*
X43992857Y-47396190D01*
X43611904Y-47396190D01*
X44516666Y-46872380D02*
X45135714Y-46872380D01*
X44802380Y-47253333D01*
X44945238Y-47253333D01*
X45040476Y-47300952D01*
X45088095Y-47348571D01*
X45135714Y-47443809D01*
X45135714Y-47681904D01*
X45088095Y-47777142D01*
X45040476Y-47824761D01*
X44945238Y-47872380D01*
X44659523Y-47872380D01*
X44564285Y-47824761D01*
X44516666Y-47777142D01*
%TO.C,R2*%
X43333333Y-53022380D02*
X43000000Y-52546190D01*
X42761904Y-53022380D02*
X42761904Y-52022380D01*
X43142857Y-52022380D01*
X43238095Y-52070000D01*
X43285714Y-52117619D01*
X43333333Y-52212857D01*
X43333333Y-52355714D01*
X43285714Y-52450952D01*
X43238095Y-52498571D01*
X43142857Y-52546190D01*
X42761904Y-52546190D01*
X43714285Y-52117619D02*
X43761904Y-52070000D01*
X43857142Y-52022380D01*
X44095238Y-52022380D01*
X44190476Y-52070000D01*
X44238095Y-52117619D01*
X44285714Y-52212857D01*
X44285714Y-52308095D01*
X44238095Y-52450952D01*
X43666666Y-53022380D01*
X44285714Y-53022380D01*
%TO.C,R1*%
X43333333Y-56022380D02*
X43000000Y-55546190D01*
X42761904Y-56022380D02*
X42761904Y-55022380D01*
X43142857Y-55022380D01*
X43238095Y-55070000D01*
X43285714Y-55117619D01*
X43333333Y-55212857D01*
X43333333Y-55355714D01*
X43285714Y-55450952D01*
X43238095Y-55498571D01*
X43142857Y-55546190D01*
X42761904Y-55546190D01*
X44285714Y-56022380D02*
X43714285Y-56022380D01*
X44000000Y-56022380D02*
X44000000Y-55022380D01*
X43904761Y-55165238D01*
X43809523Y-55260476D01*
X43714285Y-55308095D01*
%TO.C,L2*%
X80333333Y-53452380D02*
X79857142Y-53452380D01*
X79857142Y-52452380D01*
X80619047Y-52547619D02*
X80666666Y-52500000D01*
X80761904Y-52452380D01*
X81000000Y-52452380D01*
X81095238Y-52500000D01*
X81142857Y-52547619D01*
X81190476Y-52642857D01*
X81190476Y-52738095D01*
X81142857Y-52880952D01*
X80571428Y-53452380D01*
X81190476Y-53452380D01*
%TO.C,L1*%
X80333333Y-66952380D02*
X79857142Y-66952380D01*
X79857142Y-65952380D01*
X81190476Y-66952380D02*
X80619047Y-66952380D01*
X80904761Y-66952380D02*
X80904761Y-65952380D01*
X80809523Y-66095238D01*
X80714285Y-66190476D01*
X80619047Y-66238095D01*
%TO.C,F2*%
X38166666Y-71428571D02*
X37833333Y-71428571D01*
X37833333Y-71952380D02*
X37833333Y-70952380D01*
X38309523Y-70952380D01*
X38642857Y-71047619D02*
X38690476Y-71000000D01*
X38785714Y-70952380D01*
X39023809Y-70952380D01*
X39119047Y-71000000D01*
X39166666Y-71047619D01*
X39214285Y-71142857D01*
X39214285Y-71238095D01*
X39166666Y-71380952D01*
X38595238Y-71952380D01*
X39214285Y-71952380D01*
%TO.C,F1*%
X63428571Y-59833333D02*
X63428571Y-60166666D01*
X63952380Y-60166666D02*
X62952380Y-60166666D01*
X62952380Y-59690476D01*
X63952380Y-58785714D02*
X63952380Y-59357142D01*
X63952380Y-59071428D02*
X62952380Y-59071428D01*
X63095238Y-59166666D01*
X63190476Y-59261904D01*
X63238095Y-59357142D01*
%TO.C,D1*%
X43761904Y-49952380D02*
X43761904Y-48952380D01*
X44000000Y-48952380D01*
X44142857Y-49000000D01*
X44238095Y-49095238D01*
X44285714Y-49190476D01*
X44333333Y-49380952D01*
X44333333Y-49523809D01*
X44285714Y-49714285D01*
X44238095Y-49809523D01*
X44142857Y-49904761D01*
X44000000Y-49952380D01*
X43761904Y-49952380D01*
X45285714Y-49952380D02*
X44714285Y-49952380D01*
X45000000Y-49952380D02*
X45000000Y-48952380D01*
X44904761Y-49095238D01*
X44809523Y-49190476D01*
X44714285Y-49238095D01*
%TO.C,C18*%
X100857142Y-52057142D02*
X100809523Y-52104761D01*
X100666666Y-52152380D01*
X100571428Y-52152380D01*
X100428571Y-52104761D01*
X100333333Y-52009523D01*
X100285714Y-51914285D01*
X100238095Y-51723809D01*
X100238095Y-51580952D01*
X100285714Y-51390476D01*
X100333333Y-51295238D01*
X100428571Y-51200000D01*
X100571428Y-51152380D01*
X100666666Y-51152380D01*
X100809523Y-51200000D01*
X100857142Y-51247619D01*
X101809523Y-52152380D02*
X101238095Y-52152380D01*
X101523809Y-52152380D02*
X101523809Y-51152380D01*
X101428571Y-51295238D01*
X101333333Y-51390476D01*
X101238095Y-51438095D01*
X102380952Y-51580952D02*
X102285714Y-51533333D01*
X102238095Y-51485714D01*
X102190476Y-51390476D01*
X102190476Y-51342857D01*
X102238095Y-51247619D01*
X102285714Y-51200000D01*
X102380952Y-51152380D01*
X102571428Y-51152380D01*
X102666666Y-51200000D01*
X102714285Y-51247619D01*
X102761904Y-51342857D01*
X102761904Y-51390476D01*
X102714285Y-51485714D01*
X102666666Y-51533333D01*
X102571428Y-51580952D01*
X102380952Y-51580952D01*
X102285714Y-51628571D01*
X102238095Y-51676190D01*
X102190476Y-51771428D01*
X102190476Y-51961904D01*
X102238095Y-52057142D01*
X102285714Y-52104761D01*
X102380952Y-52152380D01*
X102571428Y-52152380D01*
X102666666Y-52104761D01*
X102714285Y-52057142D01*
X102761904Y-51961904D01*
X102761904Y-51771428D01*
X102714285Y-51676190D01*
X102666666Y-51628571D01*
X102571428Y-51580952D01*
%TO.C,C16*%
X100857142Y-65557142D02*
X100809523Y-65604761D01*
X100666666Y-65652380D01*
X100571428Y-65652380D01*
X100428571Y-65604761D01*
X100333333Y-65509523D01*
X100285714Y-65414285D01*
X100238095Y-65223809D01*
X100238095Y-65080952D01*
X100285714Y-64890476D01*
X100333333Y-64795238D01*
X100428571Y-64700000D01*
X100571428Y-64652380D01*
X100666666Y-64652380D01*
X100809523Y-64700000D01*
X100857142Y-64747619D01*
X101809523Y-65652380D02*
X101238095Y-65652380D01*
X101523809Y-65652380D02*
X101523809Y-64652380D01*
X101428571Y-64795238D01*
X101333333Y-64890476D01*
X101238095Y-64938095D01*
X102666666Y-64652380D02*
X102476190Y-64652380D01*
X102380952Y-64700000D01*
X102333333Y-64747619D01*
X102238095Y-64890476D01*
X102190476Y-65080952D01*
X102190476Y-65461904D01*
X102238095Y-65557142D01*
X102285714Y-65604761D01*
X102380952Y-65652380D01*
X102571428Y-65652380D01*
X102666666Y-65604761D01*
X102714285Y-65557142D01*
X102761904Y-65461904D01*
X102761904Y-65223809D01*
X102714285Y-65128571D01*
X102666666Y-65080952D01*
X102571428Y-65033333D01*
X102380952Y-65033333D01*
X102285714Y-65080952D01*
X102238095Y-65128571D01*
X102190476Y-65223809D01*
%TO.C,C15*%
X100857142Y-47557142D02*
X100809523Y-47604761D01*
X100666666Y-47652380D01*
X100571428Y-47652380D01*
X100428571Y-47604761D01*
X100333333Y-47509523D01*
X100285714Y-47414285D01*
X100238095Y-47223809D01*
X100238095Y-47080952D01*
X100285714Y-46890476D01*
X100333333Y-46795238D01*
X100428571Y-46700000D01*
X100571428Y-46652380D01*
X100666666Y-46652380D01*
X100809523Y-46700000D01*
X100857142Y-46747619D01*
X101809523Y-47652380D02*
X101238095Y-47652380D01*
X101523809Y-47652380D02*
X101523809Y-46652380D01*
X101428571Y-46795238D01*
X101333333Y-46890476D01*
X101238095Y-46938095D01*
X102714285Y-46652380D02*
X102238095Y-46652380D01*
X102190476Y-47128571D01*
X102238095Y-47080952D01*
X102333333Y-47033333D01*
X102571428Y-47033333D01*
X102666666Y-47080952D01*
X102714285Y-47128571D01*
X102761904Y-47223809D01*
X102761904Y-47461904D01*
X102714285Y-47557142D01*
X102666666Y-47604761D01*
X102571428Y-47652380D01*
X102333333Y-47652380D01*
X102238095Y-47604761D01*
X102190476Y-47557142D01*
%TO.C,C13*%
X100857142Y-61057142D02*
X100809523Y-61104761D01*
X100666666Y-61152380D01*
X100571428Y-61152380D01*
X100428571Y-61104761D01*
X100333333Y-61009523D01*
X100285714Y-60914285D01*
X100238095Y-60723809D01*
X100238095Y-60580952D01*
X100285714Y-60390476D01*
X100333333Y-60295238D01*
X100428571Y-60200000D01*
X100571428Y-60152380D01*
X100666666Y-60152380D01*
X100809523Y-60200000D01*
X100857142Y-60247619D01*
X101809523Y-61152380D02*
X101238095Y-61152380D01*
X101523809Y-61152380D02*
X101523809Y-60152380D01*
X101428571Y-60295238D01*
X101333333Y-60390476D01*
X101238095Y-60438095D01*
X102142857Y-60152380D02*
X102761904Y-60152380D01*
X102428571Y-60533333D01*
X102571428Y-60533333D01*
X102666666Y-60580952D01*
X102714285Y-60628571D01*
X102761904Y-60723809D01*
X102761904Y-60961904D01*
X102714285Y-61057142D01*
X102666666Y-61104761D01*
X102571428Y-61152380D01*
X102285714Y-61152380D01*
X102190476Y-61104761D01*
X102142857Y-61057142D01*
%TD*%
M02*
