M48
; DRILL file {KiCad (5.1.10)-1} date 12/22/21 14:35:32
; FORMAT={-:-/ absolute / inch / decimal}
; #@! TF.CreationDate,2021-12-22T14:35:32+01:00
; #@! TF.GenerationSoftware,Kicad,Pcbnew,(5.1.10)-1
; #@! TF.FileFunction,Plated,1,4,PTH
FMAT,2
INCH
T1C0.0118
T2C0.0157
T3C0.0197
T4C0.0236
T5C0.0276
T6C0.0315
T7C0.0350
T8C0.0394
T9C0.0433
T10C0.0512
T11C0.0630
T12C0.0791
T13C0.0866
T14C0.1260
%
G90
G05
T1
X4.8031Y-6.9587
X5.0197Y-6.9587
X5.0886Y-6.6437
X5.1083Y-6.6732
X5.128Y-6.4764
T2
X1.2441Y-5.626
X1.2992Y-4.8504
X1.4016Y-6.0866
X1.4488Y-4.9961
X1.4528Y-6.0906
X1.4961Y-4.874
X1.5157Y-4.248
X1.5197Y-3.315
X1.5236Y-3.5207
X1.5276Y-4.4409
X1.5896Y-4.1102
X1.5984Y-2.0039
X1.6181Y-3.6614
X1.6181Y-4.626
X1.6969Y-4.5472
X1.748Y-3.5226
X1.7953Y-2.2441
X1.8268Y-3.3189
X1.8355Y-3.5797
X1.8386Y-4.2953
X1.8425Y-2.189
X1.8425Y-4.248
X1.8425Y-4.4409
X1.8425Y-4.4961
X1.8563Y-4.4006
X1.8819Y-5.0
X1.9055Y-4.377
X1.9134Y-4.0276
X1.9331Y-3.3661
X1.9331Y-4.8268
X2.0748Y-4.6969
X2.0787Y-5.5394
X2.0827Y-4.8268
X2.1339Y-2.9449
X2.1575Y-5.7835
X2.1772Y-3.2677
X2.189Y-4.7362
X2.248Y-7.2835
X2.252Y-3.7717
X2.2913Y-6.1142
X2.2953Y-3.8071
X2.3453Y-4.0532
X2.3661Y-4.0866
X2.4016Y-4.2224
X2.4044Y-4.1059
X2.4134Y-5.7008
X2.4528Y-3.6457
X2.4567Y-5.7677
X2.4685Y-5.5748
X2.5197Y-5.5906
X2.5748Y-2.7953
X2.6535Y-3.6772
X2.7067Y-3.4055
X2.7087Y-4.0472
X2.7228Y-4.1948
X2.7264Y-3.75
X2.7323Y-2.4449
X2.7598Y-4.0039
X2.7717Y-4.1614
X2.7835Y-6.2165
X2.7874Y-3.5906
X2.811Y-4.5974
X2.8194Y-4.2239
X2.8346Y-3.8937
X2.8386Y-4.3976
X2.8386Y-6.3189
X2.8474Y-3.492
X2.8661Y-5.5118
X2.8701Y-4.3543
X2.876Y-3.5647
X2.8776Y-4.2161
X2.9016Y-3.5276
X2.9163Y-4.7839
X2.9528Y-6.7126
X2.9734Y-4.7795
X2.9764Y-3.8583
X2.9764Y-3.9016
X2.9764Y-3.9449
X2.9911Y-4.9606
X3.0069Y-4.4193
X3.0118Y-4.2205
X3.0236Y-5.8386
X3.0376Y-3.7698
X3.0376Y-4.3561
X3.0384Y-4.5873
X3.0482Y-4.7008
X3.064Y-4.4134
X3.0689Y-4.2301
X3.0709Y-4.1378
X3.0745Y-4.0986
X3.0866Y-3.7441
X3.1063Y-5.9173
X3.1064Y-3.8297
X3.1378Y-4.185
X3.1614Y-2.874
X3.1614Y-4.1417
X3.1791Y-4.2136
X3.1791Y-3.7794
X3.1951Y-4.4461
X3.1969Y-4.689
X3.2047Y-4.626
X3.3346Y-5.7047
X3.3386Y-3.8207
X3.3671Y-4.4409
X3.4134Y-4.0079
X3.4153Y-4.5522
X3.4449Y-4.3504
X3.4685Y-4.4764
X3.5039Y-3.7697
X3.5118Y-4.5276
X3.5157Y-4.0373
X3.5206Y-4.2136
X3.5434Y-4.1545
X3.811Y-3.2913
X3.8661Y-3.189
X3.8661Y-3.9134
X3.8976Y-4.2244
X3.9094Y-3.0315
X3.9094Y-3.9449
X3.9567Y-4.0945
X3.9606Y-2.9094
X4.0039Y-4.0915
X4.0039Y-5.7677
X4.0433Y-3.8504
X4.0433Y-5.2087
X4.1142Y-3.9291
X4.1142Y-6.1181
X4.1575Y-3.8937
X4.1575Y-6.1575
X4.248Y-3.6181
X4.248Y-4.0984
X4.2756Y-2.9921
X4.2756Y-3.2283
X4.2835Y-5.0748
X4.3583Y-3.5049
X4.374Y-5.8898
X4.3937Y-6.8661
X4.4094Y-3.5748
X4.4488Y-3.5433
X4.4488Y-6.2795
X4.4803Y-3.4764
X4.4882Y-5.8228
X4.5157Y-4.3937
X4.5236Y-3.5197
X4.5276Y-3.3543
X4.5591Y-3.205
X4.563Y-2.938
X4.5906Y-4.2283
X4.5984Y-3.811
X4.6024Y-6.689
X4.6063Y-2.5
X4.6339Y-4.2795
X4.6772Y-6.1181
X4.6811Y-4.0787
X4.7244Y-3.6417
X4.7283Y-6.1575
X4.7402Y-6.5394
X4.748Y-4.0591
X4.7795Y-7.063
X4.7909Y-7.1176
X4.7909Y-7.1707
X4.8Y-3.5896
X4.8071Y-3.2087
X4.8228Y-6.8268
X4.8244Y-7.1176
X4.8244Y-7.1707
X4.8346Y-6.4213
X4.8386Y-4.3898
X4.8465Y-3.8346
X4.8579Y-7.1176
X4.8579Y-7.1707
X4.8913Y-7.1176
X4.8913Y-7.1707
X4.9248Y-7.1176
X4.9248Y-7.1707
X4.9331Y-3.7677
X4.9409Y-2.4409
X4.9567Y-4.811
X4.9583Y-7.1176
X4.9583Y-7.1707
X4.9685Y-6.5433
X4.9724Y-5.7756
X4.9764Y-3.9567
X4.9917Y-7.1176
X4.9917Y-7.1707
X4.9961Y-3.563
X5.0039Y-3.6969
X5.0079Y-3.3622
X5.0079Y-3.6102
X5.0118Y-3.8622
X5.0118Y-4.4134
X5.0118Y-6.8268
X5.0157Y-4.315
X5.0252Y-7.1176
X5.0252Y-7.1707
X5.0276Y-3.5039
X5.0276Y-6.4016
X5.0315Y-3.7598
X5.0315Y-4.5866
X5.0315Y-7.2323
X5.0394Y-6.7717
X5.0551Y-2.4724
X5.0551Y-2.937
X5.0945Y-3.0669
X5.1181Y-2.4567
X5.1181Y-2.7362
X5.1299Y-4.0512
X5.1378Y-4.5276
X5.1496Y-2.9026
X5.1811Y-7.3307
X5.1929Y-4.6732
X5.1998Y-4.2403
X5.2047Y-4.0197
X5.2205Y-1.8268
X5.2283Y-4.8504
X5.2598Y-4.0984
X5.2638Y-3.1142
X5.2913Y-4.4409
X5.3031Y-2.8661
X5.3071Y-6.3071
X5.3386Y-2.9567
X5.3386Y-7.0433
X5.3504Y-3.0197
X5.4488Y-3.9449
X5.4764Y-4.9252
X5.5039Y-3.0551
X5.5827Y-3.2047
X5.5827Y-6.8819
X5.5827Y-7.0433
X5.6181Y-2.315
X5.6181Y-3.0551
X5.622Y-4.0709
X5.6447Y-4.185
X5.6732Y-4.4764
T3
X1.2835Y-1.9685
X1.2835Y-5.315
X1.2835Y-6.6929
X1.3111Y-1.9017
X1.3111Y-2.0353
X1.3111Y-5.2481
X1.3111Y-5.3818
X1.3111Y-6.6261
X1.3111Y-6.7597
X1.378Y-1.874
X1.378Y-2.063
X1.378Y-5.2205
X1.378Y-5.4094
X1.378Y-6.5984
X1.378Y-6.7874
X1.4448Y-1.9017
X1.4448Y-2.0353
X1.4448Y-5.2481
X1.4448Y-5.3818
X1.4448Y-6.6261
X1.4448Y-6.7597
X1.4724Y-1.9685
X1.4724Y-5.315
X1.4724Y-6.6929
X5.4173Y-1.9685
X5.4173Y-5.315
X5.4173Y-6.6929
X5.445Y-1.9017
X5.445Y-2.0353
X5.445Y-5.2481
X5.445Y-5.3818
X5.445Y-6.6261
X5.445Y-6.7597
X5.5118Y-1.874
X5.5118Y-2.063
X5.5118Y-5.2205
X5.5118Y-5.4094
X5.5118Y-6.5984
X5.5118Y-6.7874
X5.5786Y-1.9017
X5.5786Y-2.0353
X5.5786Y-5.2481
X5.5786Y-5.3818
X5.5786Y-6.6261
X5.5786Y-6.7597
X5.6063Y-1.9685
X5.6063Y-5.315
X5.6063Y-6.6929
T5
X5.5013Y-4.5825
X5.5013Y-4.6325
X5.5013Y-4.6825
X5.5013Y-4.7325
X5.5013Y-4.7825
X5.5513Y-4.5825
X5.5513Y-4.6325
X5.5513Y-4.6825
X5.5513Y-4.7325
X5.5513Y-4.7825
T6
X1.2638Y-3.9567
X1.3661Y-2.748
X1.7225Y-3.1781
X1.815Y-2.0394
X2.1949Y-3.0118
X2.2638Y-3.0118
X2.3327Y-3.0118
X2.3425Y-2.6673
X2.3425Y-2.8445
X3.0217Y-2.4902
X3.0217Y-2.5591
X3.0217Y-2.628
X3.4154Y-1.8898
X3.4154Y-1.9882
X3.4154Y-2.4213
X3.4154Y-2.5197
X4.124Y-1.9488
X4.124Y-2.126
X4.124Y-2.4803
X4.124Y-2.6575
T7
X1.6913Y-6.8504
X1.7913Y-6.8504
X2.5312Y-6.8504
X2.6312Y-6.8504
X3.3711Y-6.8504
X3.4711Y-6.8504
X4.211Y-6.8504
X4.311Y-6.8504
T8
X1.337Y-3.1693
X1.337Y-3.2693
X1.337Y-3.3693
X1.337Y-3.4693
X1.337Y-3.5693
X1.337Y-4.0945
X1.337Y-4.1945
X1.337Y-4.2945
X1.337Y-4.3945
X1.337Y-4.4945
X1.437Y-3.1693
X1.437Y-3.2693
X1.437Y-3.3693
X1.437Y-3.4693
X1.437Y-3.5693
X1.437Y-4.0945
X1.437Y-4.1945
X1.437Y-4.2945
X1.437Y-4.3945
X1.437Y-4.4945
X1.8282Y-5.6187
X1.8282Y-5.7187
X1.8282Y-5.8187
X1.8282Y-5.9187
X1.8282Y-6.0187
X1.8282Y-6.1187
X1.8282Y-6.2187
X1.8282Y-6.3187
X3.5417Y-2.0866
X3.5417Y-2.6181
X3.6417Y-2.0866
X3.6417Y-2.6181
X3.7417Y-2.0866
X3.7417Y-2.6181
X4.3169Y-4.8146
X4.3819Y-1.9882
X4.4819Y-1.9882
X4.6161Y-4.8146
X4.8031Y-1.9882
X4.8735Y-5.9094
X4.8735Y-6.0078
X4.8735Y-6.1062
X4.9031Y-1.9882
X5.4118Y-2.4409
X5.4118Y-2.5409
X5.4118Y-2.6409
X5.4118Y-2.7409
X5.4118Y-2.8409
X5.4118Y-3.4252
X5.4118Y-3.5252
X5.4118Y-3.6252
X5.4118Y-3.7252
X5.4118Y-3.8252
X5.4443Y-5.9094
X5.4443Y-6.1062
X5.4528Y-4.1339
X5.4528Y-4.2339
X5.4528Y-4.3339
X5.5118Y-2.4409
X5.5118Y-2.5409
X5.5118Y-2.6409
X5.5118Y-2.7409
X5.5118Y-2.8409
X5.5118Y-3.4252
X5.5118Y-3.5252
X5.5118Y-3.6252
X5.5118Y-3.7252
X5.5118Y-3.8252
T9
X1.9882Y-2.5591
X2.0882Y-2.5591
X2.1882Y-2.5591
X4.2606Y-2.126
X4.3606Y-2.126
X4.4606Y-2.126
X4.6819Y-2.126
X4.7819Y-2.126
X4.8509Y-4.8896
X4.8509Y-5.1455
X4.8819Y-2.126
X5.0281Y-4.8896
X5.0281Y-5.1455
T10
X1.6929Y-2.4016
X1.6929Y-2.5984
X2.6969Y-2.185
X2.8937Y-2.185
T11
X1.3681Y-6.3091
X2.9134Y-2.8543
X4.9606Y-5.4331
X5.1575Y-2.1457
T12
X1.5913Y-7.0504
X1.9913Y-7.0504
X2.4312Y-7.0504
X2.8312Y-7.0504
X3.2711Y-7.0504
X3.6711Y-7.0504
X4.111Y-7.0504
X4.511Y-7.0504
T13
X5.1687Y-5.7873
X5.1687Y-6.2283
T14
X1.378Y-1.9685
X1.378Y-5.315
X1.378Y-6.6929
X5.5118Y-1.9685
X5.5118Y-5.315
X5.5118Y-6.6929
T4
G00X4.7378Y-7.1266
M15
G01X4.7378Y-7.1857
M16
G05
G00X4.7378Y-7.2735
M15
G01X4.7378Y-7.305
M16
G05
G00X5.0783Y-7.1266
M15
G01X5.0783Y-7.1857
M16
G05
G00X5.0783Y-7.2735
M15
G01X5.0783Y-7.305
M16
G05
T0
M30
