%TF.GenerationSoftware,KiCad,Pcbnew,(5.1.10)-1*%
%TF.CreationDate,2021-12-22T14:35:30+01:00*%
%TF.ProjectId,vca_main_board,7663615f-6d61-4696-9e5f-626f6172642e,rev?*%
%TF.SameCoordinates,Original*%
%TF.FileFunction,Copper,L4,Bot*%
%TF.FilePolarity,Positive*%
%FSLAX46Y46*%
G04 Gerber Fmt 4.6, Leading zero omitted, Abs format (unit mm)*
G04 Created by KiCad (PCBNEW (5.1.10)-1) date 2021-12-22 14:35:30*
%MOMM*%
%LPD*%
G01*
G04 APERTURE LIST*
%TA.AperFunction,ComponentPad*%
%ADD10C,1.700000*%
%TD*%
%TA.AperFunction,ComponentPad*%
%ADD11O,1.600000X2.500000*%
%TD*%
%TA.AperFunction,ComponentPad*%
%ADD12O,3.500000X7.000000*%
%TD*%
%TA.AperFunction,ComponentPad*%
%ADD13O,1.700000X1.700000*%
%TD*%
%TA.AperFunction,ComponentPad*%
%ADD14R,1.700000X1.700000*%
%TD*%
%TA.AperFunction,ComponentPad*%
%ADD15O,0.900000X1.700000*%
%TD*%
%TA.AperFunction,ComponentPad*%
%ADD16O,0.900000X2.400000*%
%TD*%
%TA.AperFunction,ComponentPad*%
%ADD17C,0.700000*%
%TD*%
%TA.AperFunction,ComponentPad*%
%ADD18C,0.800000*%
%TD*%
%TA.AperFunction,ComponentPad*%
%ADD19C,6.400000*%
%TD*%
%TA.AperFunction,ComponentPad*%
%ADD20C,3.000000*%
%TD*%
%TA.AperFunction,ComponentPad*%
%ADD21O,1.905000X2.000000*%
%TD*%
%TA.AperFunction,ComponentPad*%
%ADD22R,1.905000X2.000000*%
%TD*%
%TA.AperFunction,ComponentPad*%
%ADD23C,2.000000*%
%TD*%
%TA.AperFunction,ComponentPad*%
%ADD24R,2.000000X2.000000*%
%TD*%
%TA.AperFunction,ComponentPad*%
%ADD25C,1.800000*%
%TD*%
%TA.AperFunction,ComponentPad*%
%ADD26C,2.800000*%
%TD*%
%TA.AperFunction,ComponentPad*%
%ADD27R,1.000000X1.000000*%
%TD*%
%TA.AperFunction,ComponentPad*%
%ADD28O,1.000000X1.000000*%
%TD*%
%TA.AperFunction,ComponentPad*%
%ADD29C,2.600000*%
%TD*%
%TA.AperFunction,ComponentPad*%
%ADD30R,2.600000X2.600000*%
%TD*%
%TA.AperFunction,ViaPad*%
%ADD31C,0.800000*%
%TD*%
%TA.AperFunction,ViaPad*%
%ADD32C,1.500000*%
%TD*%
%TA.AperFunction,ViaPad*%
%ADD33C,0.600000*%
%TD*%
%TA.AperFunction,Conductor*%
%ADD34C,1.000000*%
%TD*%
%TA.AperFunction,Conductor*%
%ADD35C,0.400000*%
%TD*%
%TA.AperFunction,Conductor*%
%ADD36C,0.250000*%
%TD*%
%TA.AperFunction,Conductor*%
%ADD37C,0.600000*%
%TD*%
G04 APERTURE END LIST*
D10*
%TO.P,J12,10*%
%TO.N,/EXTB_7*%
X33960000Y-114160000D03*
%TO.P,J12,8*%
%TO.N,/EXTB_5*%
X33960000Y-111620000D03*
%TO.P,J12,6*%
%TO.N,/EXTB_3*%
X33960000Y-109080000D03*
%TO.P,J12,4*%
%TO.N,/EXTB_1*%
X33960000Y-106540000D03*
%TO.P,J12,2*%
%TO.N,GND*%
X33960000Y-104000000D03*
%TO.P,J12,9*%
%TO.N,/EXTB_6*%
X36500000Y-114160000D03*
%TO.P,J12,7*%
%TO.N,/EXTB_4*%
X36500000Y-111620000D03*
%TO.P,J12,5*%
%TO.N,/EXTB_2*%
X36500000Y-109080000D03*
%TO.P,J12,3*%
%TO.N,/EXTB_0*%
X36500000Y-106540000D03*
%TO.P,J12,1*%
%TO.N,+5V*%
%TA.AperFunction,ComponentPad*%
G36*
G01*
X37350000Y-103400000D02*
X37350000Y-104600000D01*
G75*
G02*
X37100000Y-104850000I-250000J0D01*
G01*
X35900000Y-104850000D01*
G75*
G02*
X35650000Y-104600000I0J250000D01*
G01*
X35650000Y-103400000D01*
G75*
G02*
X35900000Y-103150000I250000J0D01*
G01*
X37100000Y-103150000D01*
G75*
G02*
X37350000Y-103400000I0J-250000D01*
G01*
G37*
%TD.AperFunction*%
%TD*%
D11*
%TO.P,J15,2*%
%TO.N,GND*%
X42960000Y-174000000D03*
%TO.P,J15,1*%
%TO.N,/GPIO_B*%
X45500000Y-174000000D03*
D12*
%TO.P,J15,2*%
%TO.N,GND*%
X50580000Y-179080000D03*
X40420000Y-179080000D03*
%TD*%
D11*
%TO.P,J14,2*%
%TO.N,GND*%
X64293333Y-174000000D03*
%TO.P,J14,1*%
%TO.N,/GPIO_A*%
X66833333Y-174000000D03*
D12*
%TO.P,J14,2*%
%TO.N,GND*%
X71913333Y-179080000D03*
X61753333Y-179080000D03*
%TD*%
D11*
%TO.P,J13,2*%
%TO.N,GND*%
X85626666Y-174000000D03*
%TO.P,J13,1*%
%TO.N,/Mirror_Enc_B*%
X88166666Y-174000000D03*
D12*
%TO.P,J13,2*%
%TO.N,GND*%
X93246666Y-179080000D03*
X83086666Y-179080000D03*
%TD*%
D11*
%TO.P,J7,2*%
%TO.N,GND*%
X106960000Y-174000000D03*
%TO.P,J7,1*%
%TO.N,/Mirror_Enc_A*%
X109500000Y-174000000D03*
D12*
%TO.P,J7,2*%
%TO.N,GND*%
X114580000Y-179080000D03*
X104420000Y-179080000D03*
%TD*%
D13*
%TO.P,J4,3*%
%TO.N,GND*%
X138500000Y-110080000D03*
%TO.P,J4,2*%
%TO.N,Net-(J4-Pad2)*%
X138500000Y-107540000D03*
D14*
%TO.P,J4,1*%
%TO.N,Net-(J4-Pad1)*%
X138500000Y-105000000D03*
%TD*%
D15*
%TO.P,J5,S1*%
%TO.N,GND*%
X128990000Y-185146000D03*
X120340000Y-185146000D03*
D16*
X128990000Y-181766000D03*
X120340000Y-181766000D03*
D17*
%TO.P,J5,B6*%
%TO.N,/MCU/peripherals/DP*%
X125090000Y-182136000D03*
%TO.P,J5,B1*%
%TO.N,GND*%
X127640000Y-182136000D03*
%TO.P,J5,B4*%
%TO.N,VBUS*%
X126790000Y-182136000D03*
%TO.P,J5,B5*%
%TO.N,Net-(J5-PadB5)*%
X125940000Y-182136000D03*
%TO.P,J5,B12*%
%TO.N,GND*%
X121690000Y-182136000D03*
%TO.P,J5,B8*%
%TO.N,N/C*%
X123390000Y-182136000D03*
%TO.P,J5,B7*%
%TO.N,/MCU/peripherals/DM*%
X124240000Y-182136000D03*
%TO.P,J5,B9*%
%TO.N,VBUS*%
X122540000Y-182136000D03*
%TO.P,J5,A12*%
%TO.N,GND*%
X127640000Y-180786000D03*
%TO.P,J5,A9*%
%TO.N,VBUS*%
X126790000Y-180786000D03*
%TO.P,J5,A8*%
%TO.N,N/C*%
X125940000Y-180786000D03*
%TO.P,J5,A7*%
%TO.N,/MCU/peripherals/DM*%
X125090000Y-180786000D03*
%TO.P,J5,A6*%
%TO.N,/MCU/peripherals/DP*%
X124240000Y-180786000D03*
%TO.P,J5,A5*%
%TO.N,Net-(J5-PadA5)*%
X123390000Y-180786000D03*
%TO.P,J5,A4*%
%TO.N,VBUS*%
X122540000Y-180786000D03*
%TO.P,J5,A1*%
%TO.N,GND*%
X121690000Y-180786000D03*
%TD*%
D18*
%TO.P,H6,1*%
%TO.N,N/C*%
X36697056Y-48302944D03*
X35000000Y-47600000D03*
X33302944Y-48302944D03*
X32600000Y-50000000D03*
X33302944Y-51697056D03*
X35000000Y-52400000D03*
X36697056Y-51697056D03*
X37400000Y-50000000D03*
D19*
X35000000Y-50000000D03*
%TD*%
D18*
%TO.P,H5,1*%
%TO.N,N/C*%
X141697056Y-48302944D03*
X140000000Y-47600000D03*
X138302944Y-48302944D03*
X137600000Y-50000000D03*
X138302944Y-51697056D03*
X140000000Y-52400000D03*
X141697056Y-51697056D03*
X142400000Y-50000000D03*
D19*
X140000000Y-50000000D03*
%TD*%
D20*
%TO.P,TP4,1*%
%TO.N,GND*%
X126000000Y-138000000D03*
%TD*%
%TO.P,TP3,1*%
%TO.N,GND*%
X34750000Y-160250000D03*
%TD*%
%TO.P,TP2,1*%
%TO.N,GND*%
X74000000Y-72500000D03*
%TD*%
%TO.P,TP1,1*%
%TO.N,GND*%
X131000000Y-54500000D03*
%TD*%
D21*
%TO.P,Q6,3*%
%TO.N,GND*%
X118920000Y-54000000D03*
%TO.P,Q6,2*%
%TO.N,Net-(J11-Pad1)*%
X121460000Y-54000000D03*
D22*
%TO.P,Q6,1*%
%TO.N,Net-(Q6-Pad1)*%
X124000000Y-54000000D03*
%TD*%
D21*
%TO.P,Q4,3*%
%TO.N,GND*%
X108220000Y-54000000D03*
%TO.P,Q4,2*%
%TO.N,Net-(J9-Pad1)*%
X110760000Y-54000000D03*
D22*
%TO.P,Q4,1*%
%TO.N,Net-(Q4-Pad1)*%
X113300000Y-54000000D03*
%TD*%
D13*
%TO.P,J11,2*%
%TO.N,+12V*%
X124540000Y-50500000D03*
D14*
%TO.P,J11,1*%
%TO.N,Net-(J11-Pad1)*%
X122000000Y-50500000D03*
%TD*%
D10*
%TO.P,J10,10*%
%TO.N,/EXTA_7*%
X33960000Y-90660000D03*
%TO.P,J10,8*%
%TO.N,/EXTA_5*%
X33960000Y-88120000D03*
%TO.P,J10,6*%
%TO.N,/EXTA_3*%
X33960000Y-85580000D03*
%TO.P,J10,4*%
%TO.N,/EXTA_1*%
X33960000Y-83040000D03*
%TO.P,J10,2*%
%TO.N,GND*%
X33960000Y-80500000D03*
%TO.P,J10,9*%
%TO.N,/EXTA_6*%
X36500000Y-90660000D03*
%TO.P,J10,7*%
%TO.N,/EXTA_4*%
X36500000Y-88120000D03*
%TO.P,J10,5*%
%TO.N,/EXTA_2*%
X36500000Y-85580000D03*
%TO.P,J10,3*%
%TO.N,/EXTA_0*%
X36500000Y-83040000D03*
%TO.P,J10,1*%
%TO.N,+5V*%
%TA.AperFunction,ComponentPad*%
G36*
G01*
X37350000Y-79900000D02*
X37350000Y-81100000D01*
G75*
G02*
X37100000Y-81350000I-250000J0D01*
G01*
X35900000Y-81350000D01*
G75*
G02*
X35650000Y-81100000I0J250000D01*
G01*
X35650000Y-79900000D01*
G75*
G02*
X35900000Y-79650000I250000J0D01*
G01*
X37100000Y-79650000D01*
G75*
G02*
X37350000Y-79900000I0J-250000D01*
G01*
G37*
%TD.AperFunction*%
%TD*%
D13*
%TO.P,J9,2*%
%TO.N,+12V*%
X113840000Y-50500000D03*
D14*
%TO.P,J9,1*%
%TO.N,Net-(J9-Pad1)*%
X111300000Y-50500000D03*
%TD*%
D23*
%TO.P,BZ1,2*%
%TO.N,Net-(BZ1-Pad2)*%
X109650000Y-122290000D03*
D24*
%TO.P,BZ1,1*%
%TO.N,+3V3*%
X117250000Y-122290000D03*
%TD*%
D25*
%TO.P,U10,8*%
%TO.N,/MCU/LCD_BL*%
X46436000Y-160496000D03*
%TO.P,U10,7*%
%TO.N,/MCU/LCD_RST*%
X46436000Y-157956000D03*
%TO.P,U10,6*%
%TO.N,/MCU/LCD_DC*%
X46436000Y-155416000D03*
%TO.P,U10,5*%
%TO.N,/MCU/LCD_CS*%
X46436000Y-152876000D03*
%TO.P,U10,4*%
%TO.N,/MCU/LCD_CLK*%
X46436000Y-150336000D03*
%TO.P,U10,3*%
%TO.N,/MCU/LCD_DIN*%
X46436000Y-147796000D03*
%TO.P,U10,2*%
%TO.N,GND*%
X46436000Y-145256000D03*
%TO.P,U10,1*%
%TO.N,+3V3*%
%TA.AperFunction,ComponentPad*%
G36*
G01*
X45536000Y-143166000D02*
X45536000Y-142266000D01*
G75*
G02*
X45986000Y-141816000I450000J0D01*
G01*
X46886000Y-141816000D01*
G75*
G02*
X47336000Y-142266000I0J-450000D01*
G01*
X47336000Y-143166000D01*
G75*
G02*
X46886000Y-143616000I-450000J0D01*
G01*
X45986000Y-143616000D01*
G75*
G02*
X45536000Y-143166000I0J450000D01*
G01*
G37*
%TD.AperFunction*%
%TD*%
D24*
%TO.P,SW2,A*%
%TO.N,/MCU/Knob_A*%
X123786000Y-150098000D03*
D23*
%TO.P,SW2,C*%
%TO.N,GND*%
X123786000Y-152598000D03*
%TO.P,SW2,B*%
%TO.N,/MCU/Knob_B*%
X123786000Y-155098000D03*
D26*
%TO.P,SW2,MP*%
%TO.N,N/C*%
X131286000Y-146998000D03*
X131286000Y-158198000D03*
D23*
%TO.P,SW2,S1*%
%TO.N,/MCU/Knob_S*%
X138286000Y-150098000D03*
%TO.P,SW2,S2*%
%TO.N,GND*%
X138286000Y-155098000D03*
%TD*%
%TO.P,SW1,1*%
%TO.N,Net-(R41-Pad1)*%
X123214000Y-124196000D03*
%TO.P,SW1,2*%
%TO.N,/MCU/NRST*%
X127714000Y-124196000D03*
%TO.P,SW1,1*%
%TO.N,Net-(R41-Pad1)*%
X123214000Y-130696000D03*
%TO.P,SW1,2*%
%TO.N,/MCU/NRST*%
X127714000Y-130696000D03*
%TD*%
D21*
%TO.P,Q1,3*%
%TO.N,GND*%
X55580000Y-65000000D03*
%TO.P,Q1,2*%
%TO.N,Net-(J2-Pad2)*%
X53040000Y-65000000D03*
D22*
%TO.P,Q1,1*%
%TO.N,Net-(D2-Pad2)*%
X50500000Y-65000000D03*
%TD*%
D10*
%TO.P,J8,10*%
%TO.N,/Device connenction/THERMISTOR_2*%
X137460000Y-72160000D03*
%TO.P,J8,8*%
%TO.N,/Device connenction/THERMISTOR_1*%
X137460000Y-69620000D03*
%TO.P,J8,6*%
%TO.N,/Coil_Fans*%
X137460000Y-67080000D03*
%TO.P,J8,4*%
%TO.N,+12V*%
X137460000Y-64540000D03*
%TO.P,J8,2*%
%TO.N,+5V*%
X137460000Y-62000000D03*
%TO.P,J8,9*%
%TO.N,/Mirror_Enc_Z*%
X140000000Y-72160000D03*
%TO.P,J8,7*%
%TO.N,/Mirror_Enc_B*%
X140000000Y-69620000D03*
%TO.P,J8,5*%
%TO.N,/Mirror_Enc_A*%
X140000000Y-67080000D03*
%TO.P,J8,3*%
%TO.N,GND*%
X140000000Y-64540000D03*
%TO.P,J8,1*%
%TO.N,+3V3*%
%TA.AperFunction,ComponentPad*%
G36*
G01*
X140850000Y-61400000D02*
X140850000Y-62600000D01*
G75*
G02*
X140600000Y-62850000I-250000J0D01*
G01*
X139400000Y-62850000D01*
G75*
G02*
X139150000Y-62600000I0J250000D01*
G01*
X139150000Y-61400000D01*
G75*
G02*
X139400000Y-61150000I250000J0D01*
G01*
X140600000Y-61150000D01*
G75*
G02*
X140850000Y-61400000I0J-250000D01*
G01*
G37*
%TD.AperFunction*%
%TD*%
%TO.P,J6,10*%
%TO.N,/H_Voltage*%
X137460000Y-97160000D03*
%TO.P,J6,8*%
%TO.N,/H_Current*%
X137460000Y-94620000D03*
%TO.P,J6,6*%
%TO.N,/H_Sum*%
X137460000Y-92080000D03*
%TO.P,J6,4*%
%TO.N,/H_Ref_High*%
X137460000Y-89540000D03*
%TO.P,J6,2*%
%TO.N,/H_Load_Volt*%
X137460000Y-87000000D03*
%TO.P,J6,9*%
%TO.N,/H_Thermistor*%
X140000000Y-97160000D03*
%TO.P,J6,7*%
%TO.N,/H bridge connection/REF_IN*%
X140000000Y-94620000D03*
%TO.P,J6,5*%
%TO.N,/H_Offset*%
X140000000Y-92080000D03*
%TO.P,J6,3*%
%TO.N,GND*%
X140000000Y-89540000D03*
%TO.P,J6,1*%
%TO.N,/H_Excitation*%
%TA.AperFunction,ComponentPad*%
G36*
G01*
X140850000Y-86400000D02*
X140850000Y-87600000D01*
G75*
G02*
X140600000Y-87850000I-250000J0D01*
G01*
X139400000Y-87850000D01*
G75*
G02*
X139150000Y-87600000I0J250000D01*
G01*
X139150000Y-86400000D01*
G75*
G02*
X139400000Y-86150000I250000J0D01*
G01*
X140600000Y-86150000D01*
G75*
G02*
X140850000Y-86400000I0J-250000D01*
G01*
G37*
%TD.AperFunction*%
%TD*%
D27*
%TO.P,J3,1*%
%TO.N,+3V3*%
X141002000Y-121476000D03*
D28*
%TO.P,J3,2*%
%TO.N,/MCU/SWDIO*%
X139732000Y-121476000D03*
%TO.P,J3,3*%
%TO.N,GND*%
X141002000Y-120206000D03*
%TO.P,J3,4*%
%TO.N,/MCU/SWDCLK*%
X139732000Y-120206000D03*
%TO.P,J3,5*%
%TO.N,GND*%
X141002000Y-118936000D03*
%TO.P,J3,6*%
%TO.N,/MCU/SWO*%
X139732000Y-118936000D03*
%TO.P,J3,7*%
%TO.N,N/C*%
X141002000Y-117666000D03*
%TO.P,J3,8*%
X139732000Y-117666000D03*
%TO.P,J3,9*%
%TO.N,GND*%
X141002000Y-116396000D03*
%TO.P,J3,10*%
%TO.N,/MCU/NRST*%
X139732000Y-116396000D03*
%TD*%
D29*
%TO.P,J1,2*%
%TO.N,GND*%
X73500000Y-55500000D03*
D30*
%TO.P,J1,1*%
%TO.N,Net-(F1-Pad2)*%
X68500000Y-55500000D03*
%TD*%
D18*
%TO.P,H4,1*%
%TO.N,N/C*%
X36697056Y-133302944D03*
X35000000Y-132600000D03*
X33302944Y-133302944D03*
X32600000Y-135000000D03*
X33302944Y-136697056D03*
X35000000Y-137400000D03*
X36697056Y-136697056D03*
X37400000Y-135000000D03*
D19*
X35000000Y-135000000D03*
%TD*%
D18*
%TO.P,H3,1*%
%TO.N,N/C*%
X141697056Y-133302944D03*
X140000000Y-132600000D03*
X138302944Y-133302944D03*
X137600000Y-135000000D03*
X138302944Y-136697056D03*
X140000000Y-137400000D03*
X141697056Y-136697056D03*
X142400000Y-135000000D03*
D19*
X140000000Y-135000000D03*
%TD*%
D18*
%TO.P,H2,1*%
%TO.N,N/C*%
X36697056Y-168302944D03*
X35000000Y-167600000D03*
X33302944Y-168302944D03*
X32600000Y-170000000D03*
X33302944Y-171697056D03*
X35000000Y-172400000D03*
X36697056Y-171697056D03*
X37400000Y-170000000D03*
D19*
X35000000Y-170000000D03*
%TD*%
D18*
%TO.P,H1,1*%
%TO.N,N/C*%
X141697056Y-168302944D03*
X140000000Y-167600000D03*
X138302944Y-168302944D03*
X137600000Y-170000000D03*
X138302944Y-171697056D03*
X140000000Y-172400000D03*
X141697056Y-171697056D03*
X142400000Y-170000000D03*
D19*
X140000000Y-170000000D03*
%TD*%
D23*
%TO.P,U2,2*%
%TO.N,GND*%
X92500000Y-53000000D03*
%TO.P,U2,1*%
%TO.N,Net-(C12-Pad1)*%
%TA.AperFunction,ComponentPad*%
G36*
G01*
X88960000Y-53500000D02*
X88960000Y-52500000D01*
G75*
G02*
X89460000Y-52000000I500000J0D01*
G01*
X90460000Y-52000000D01*
G75*
G02*
X90960000Y-52500000I0J-500000D01*
G01*
X90960000Y-53500000D01*
G75*
G02*
X90460000Y-54000000I-500000J0D01*
G01*
X89460000Y-54000000D01*
G75*
G02*
X88960000Y-53500000I0J500000D01*
G01*
G37*
%TD.AperFunction*%
%TO.P,U2,3*%
%TO.N,+5V*%
X95040000Y-53000000D03*
%TD*%
%TO.P,U1,2*%
%TO.N,GND*%
X92500000Y-66500000D03*
%TO.P,U1,1*%
%TO.N,Net-(C11-Pad1)*%
%TA.AperFunction,ComponentPad*%
G36*
G01*
X88960000Y-67000000D02*
X88960000Y-66000000D01*
G75*
G02*
X89460000Y-65500000I500000J0D01*
G01*
X90460000Y-65500000D01*
G75*
G02*
X90960000Y-66000000I0J-500000D01*
G01*
X90960000Y-67000000D01*
G75*
G02*
X90460000Y-67500000I-500000J0D01*
G01*
X89460000Y-67500000D01*
G75*
G02*
X88960000Y-67000000I0J500000D01*
G01*
G37*
%TD.AperFunction*%
%TO.P,U1,3*%
%TO.N,+3V3*%
X95040000Y-66500000D03*
%TD*%
D29*
%TO.P,J2,2*%
%TO.N,Net-(J2-Pad2)*%
X43000000Y-61000000D03*
D30*
%TO.P,J2,1*%
%TO.N,Net-(F2-Pad2)*%
X43000000Y-66000000D03*
%TD*%
D31*
%TO.N,*%
X126200000Y-166200000D03*
D32*
%TO.N,GND*%
X57500000Y-76500000D03*
X55750000Y-76500000D03*
X59250000Y-76500000D03*
X59500000Y-67750000D03*
X59500000Y-72250000D03*
X76750000Y-65000000D03*
X76750000Y-63250000D03*
X76750000Y-66750000D03*
X86750000Y-61500000D03*
X86750000Y-64000000D03*
X86750000Y-50500000D03*
X86750000Y-48000000D03*
X104750000Y-49500000D03*
X104750000Y-54000000D03*
X104750000Y-63000000D03*
X104750000Y-67500000D03*
D33*
X127500000Y-176750000D03*
X122000000Y-176750000D03*
X129750000Y-169500000D03*
X129250000Y-168750000D03*
X130250000Y-164500000D03*
D31*
X68750000Y-86500000D03*
X61000000Y-107250000D03*
X89000000Y-95750000D03*
X69250000Y-95250000D03*
X36900000Y-154700000D03*
X35600000Y-154600000D03*
X54800000Y-146900000D03*
X62400000Y-146500000D03*
X127200000Y-85400000D03*
X127200000Y-91700000D03*
X127300000Y-98100000D03*
X122900000Y-111500000D03*
X116600000Y-107400000D03*
X131900000Y-118700000D03*
X139100000Y-125100000D03*
X89422795Y-107025010D03*
X129400000Y-77900000D03*
X133700000Y-79100000D03*
X142700000Y-58800000D03*
X139800000Y-77600000D03*
X142700000Y-77600000D03*
X33000000Y-123200000D03*
X38000000Y-123800000D03*
X36800000Y-126900000D03*
X49100000Y-122600000D03*
X47800000Y-127000000D03*
X55600000Y-120300000D03*
X73090787Y-107089457D03*
X69160066Y-106546990D03*
X116800000Y-96800000D03*
X123100000Y-97400000D03*
X122100000Y-81500000D03*
X108600000Y-82000000D03*
X108600000Y-76000000D03*
X120400000Y-166100000D03*
X38600000Y-84200000D03*
X38500000Y-107900000D03*
X38800000Y-112800000D03*
X40600000Y-50900000D03*
X45600000Y-57000000D03*
D32*
X43752029Y-80724990D03*
D31*
X71399990Y-116774990D03*
X38700000Y-89425010D03*
X108800000Y-128900000D03*
X80750000Y-95997010D03*
X80748190Y-107025010D03*
X127700000Y-162600000D03*
X135600000Y-178900000D03*
X141800000Y-178900000D03*
X132074990Y-107702532D03*
X121920657Y-91174990D03*
X130000000Y-62400000D03*
X130000000Y-69500000D03*
X61071586Y-104290267D03*
X77950011Y-107444410D03*
X77174990Y-116517586D03*
X74074967Y-121509889D03*
X115800010Y-81407170D03*
X52800000Y-140700000D03*
X125900000Y-122200000D03*
X62300000Y-92600000D03*
X87500000Y-110500000D03*
X81200000Y-119100000D03*
D32*
%TO.N,+3V3*%
X34700000Y-69800000D03*
D31*
X70400000Y-105700000D03*
D32*
X32100000Y-100500000D03*
D31*
X127400000Y-109600000D03*
X127300000Y-112100000D03*
X65400000Y-71000000D03*
X78400000Y-95100000D03*
X67400000Y-93400000D03*
X131600000Y-186200000D03*
X31600000Y-142900000D03*
X141800000Y-81400000D03*
X115000000Y-85200000D03*
X117000000Y-63500000D03*
%TO.N,+5V*%
X46400000Y-84300000D03*
X46800000Y-107900000D03*
X46800000Y-112800000D03*
X46620657Y-90925010D03*
D32*
X46100000Y-51800000D03*
D31*
X52900000Y-122600000D03*
X52700000Y-119300000D03*
X128400000Y-74600000D03*
X128400000Y-62800000D03*
X132600000Y-46400000D03*
X126400000Y-100500000D03*
X127700000Y-89000000D03*
X127100000Y-93900000D03*
X125300000Y-95700000D03*
%TO.N,/MCU/NRST*%
X127800000Y-116500000D03*
X76374990Y-112250169D03*
X75974990Y-126000000D03*
%TO.N,VBUS*%
X127300000Y-173400000D03*
X122500000Y-173400000D03*
%TO.N,Net-(C42-Pad1)*%
X122800000Y-163100000D03*
X128000000Y-172000000D03*
%TO.N,Net-(D2-Pad2)*%
X46800000Y-55600000D03*
%TO.N,/H bridge connection/REF_IN*%
X120000000Y-92500000D03*
%TO.N,/MCU/SWDIO*%
X75600000Y-100200000D03*
X132200000Y-102100000D03*
X132800000Y-123200000D03*
%TO.N,/MCU/SWDCLK*%
X72000000Y-98900000D03*
X75524979Y-121400000D03*
%TO.N,/MCU/SWO*%
X70100000Y-101700000D03*
X138400000Y-100200000D03*
%TO.N,Net-(J5-PadB5)*%
X127800000Y-183700000D03*
%TO.N,Net-(J5-PadA5)*%
X121400000Y-179400000D03*
%TO.N,/Device connenction/THERMISTOR_2*%
X135900000Y-76700000D03*
%TO.N,/Device connenction/THERMISTOR_1*%
X135600000Y-75100000D03*
%TO.N,/MCU/CAN_FAULT*%
X78000000Y-105100000D03*
X117700000Y-108700000D03*
%TO.N,/VREF*%
X114700000Y-111600000D03*
X114900000Y-89400000D03*
X77825010Y-112099400D03*
X77425000Y-119400000D03*
%TO.N,/MCU/CAN_S*%
X118900000Y-103600000D03*
X78093164Y-104104337D03*
%TO.N,/MCU/USB_DET*%
X70800000Y-91200000D03*
X75000000Y-170500000D03*
X116900000Y-169900000D03*
%TO.N,/H_Ref_High*%
X134400000Y-112800000D03*
X85525010Y-112800000D03*
%TO.N,/H_Load_Volt*%
X80300000Y-105200000D03*
X133600000Y-104100000D03*
%TO.N,/H_Excitation*%
X79700000Y-106300000D03*
X143374990Y-106300000D03*
%TO.N,/H_Sum*%
X107900000Y-104100000D03*
X107900000Y-91900000D03*
X126900000Y-90500000D03*
%TO.N,/H_Thermistor*%
X120600000Y-103100000D03*
X89300000Y-102546990D03*
%TO.N,/H_Offset*%
X142800000Y-103400000D03*
X90002532Y-105525010D03*
%TO.N,/H_Voltage*%
X89200000Y-115000000D03*
X130500000Y-115000000D03*
X130300000Y-102900000D03*
%TO.N,/H_Current*%
X77154000Y-110646000D03*
X77154000Y-95754000D03*
X127800000Y-95500000D03*
%TO.N,/Coil_Fans*%
X69400000Y-62100000D03*
X125500000Y-62000000D03*
%TO.N,/Mirror_Enc_Z*%
X80300000Y-73000000D03*
X134700000Y-72800000D03*
%TO.N,/Mirror_Enc_B*%
X88100000Y-113700000D03*
X144100000Y-113700000D03*
%TO.N,/Mirror_Enc_A*%
X57100000Y-185000000D03*
X57200000Y-95800000D03*
X54200000Y-74800000D03*
%TO.N,/EXTA_7*%
X41100000Y-93000000D03*
X41100000Y-117500000D03*
X81400000Y-117500000D03*
X81155740Y-112932090D03*
%TO.N,/EXTA_5*%
X72325010Y-88697837D03*
%TO.N,/EXTA_6*%
X73050020Y-90543401D03*
%TO.N,/EXTA_2*%
X49100000Y-85500000D03*
%TO.N,/EXTA_0*%
X55300000Y-83000000D03*
%TO.N,/EXTB_7*%
X43100000Y-115500000D03*
X86700000Y-101800000D03*
X86749317Y-115625010D03*
%TO.N,/EXTB_5*%
X47149845Y-111775165D03*
%TO.N,/EXTB_6*%
X46800000Y-114200000D03*
%TO.N,/EXTB_4*%
X48400000Y-111174990D03*
%TO.N,/EXTB_2*%
X46700000Y-109100000D03*
%TO.N,/EXTB_0*%
X40374990Y-104400000D03*
%TO.N,Net-(Q4-Pad1)*%
X115900000Y-74625010D03*
%TO.N,/MCU/LED_1*%
X112000000Y-90800000D03*
X111600000Y-174400000D03*
X141800000Y-174800000D03*
%TO.N,/MCU/LED_2*%
X113000000Y-90000000D03*
X113000000Y-159500000D03*
X134800000Y-160200000D03*
%TO.N,/MCU/TH_ALERT*%
X84700000Y-144900000D03*
X61300000Y-144800000D03*
X84800000Y-97046990D03*
%TO.N,/MCU/Knob_B*%
X113800000Y-88300000D03*
X114000000Y-147900000D03*
%TO.N,/MCU/Knob_A*%
X111100000Y-149600000D03*
X110700000Y-89025010D03*
%TO.N,/MCU/Knob_S*%
X101700000Y-146500000D03*
X126300000Y-146700000D03*
X101700000Y-103925010D03*
%TO.N,/MCU/SDA*%
X60100000Y-103800000D03*
X64000000Y-142000000D03*
%TO.N,/MCU/SCL*%
X62700000Y-141600000D03*
X59569995Y-102951992D03*
%TO.N,/FAN_1*%
X99300000Y-100200000D03*
X99300000Y-77000000D03*
%TO.N,/FAN_2*%
X98200000Y-99400000D03*
X98200000Y-81000000D03*
%TO.N,/MCU/BUZZ*%
X102700000Y-97800000D03*
X102700000Y-132300000D03*
%TO.N,/MCU/LCD_CS*%
X48600000Y-102300000D03*
%TO.N,/MCU/LCD_DC*%
X58300000Y-96700000D03*
X58200000Y-155300000D03*
%TO.N,/MCU/USB_RX*%
X75600000Y-99100000D03*
X104500000Y-99800000D03*
X104500000Y-155400000D03*
X118800000Y-155400000D03*
%TO.N,/MCU/USB_TX*%
X75600000Y-98000000D03*
X105600000Y-98900000D03*
X105600000Y-156400000D03*
X120100000Y-156400000D03*
%TO.N,/MCU/LCD_CLK*%
X78900000Y-150300000D03*
X78902532Y-97274990D03*
%TO.N,/Coil_Thermistor_2*%
X100500000Y-104000000D03*
X100600000Y-73900000D03*
X130800000Y-73725010D03*
%TO.N,/Coil_Thermistor_1*%
X99000000Y-107300000D03*
X96800000Y-83600000D03*
%TO.N,/MCU/LCD_DIN*%
X76500000Y-107200000D03*
X76800000Y-148300000D03*
%TO.N,/MCU/EEP_~WC*%
X72900000Y-110600000D03*
X72800000Y-140000000D03*
%TO.N,/MCU/LCD_BL*%
X72100000Y-111700000D03*
X72100000Y-160500000D03*
%TO.N,/MCU/LCD_RST*%
X70700000Y-157900000D03*
X71611613Y-107286293D03*
%TO.N,/GPIO_A*%
X68800000Y-102800000D03*
%TO.N,/GPIO_B*%
X73700000Y-89600000D03*
X44399502Y-89475279D03*
%TD*%
D34*
%TO.N,+3V3*%
X95040000Y-68160000D02*
X95040000Y-66500000D01*
X93400000Y-69800000D02*
X95040000Y-68160000D01*
D35*
X70400000Y-105700000D02*
X53400000Y-105700000D01*
X53400000Y-105700000D02*
X48200000Y-100500000D01*
X48200000Y-100500000D02*
X32100000Y-100500000D01*
X127400000Y-112000000D02*
X127300000Y-112100000D01*
X127400000Y-109600000D02*
X127400000Y-112000000D01*
X65400000Y-69900000D02*
X65300000Y-69800000D01*
D34*
X65300000Y-69800000D02*
X93400000Y-69800000D01*
D35*
X65400000Y-71000000D02*
X65400000Y-69900000D01*
D34*
X34700000Y-69800000D02*
X65300000Y-69800000D01*
D36*
X76700000Y-93400000D02*
X67400000Y-93400000D01*
X78400000Y-95100000D02*
X76700000Y-93400000D01*
D34*
X95040000Y-66500000D02*
X96940000Y-64600000D01*
X131600000Y-64600000D02*
X136000000Y-60200000D01*
X136000000Y-60200000D02*
X139400000Y-60200000D01*
X140000000Y-60800000D02*
X140000000Y-62000000D01*
X139400000Y-60200000D02*
X140000000Y-60800000D01*
D35*
X141800000Y-63800000D02*
X140000000Y-62000000D01*
X141800000Y-81400000D02*
X141800000Y-63800000D01*
X116200000Y-64300000D02*
X116200000Y-64600000D01*
X117000000Y-63500000D02*
X116200000Y-64300000D01*
D34*
X116200000Y-64600000D02*
X131600000Y-64600000D01*
X96940000Y-64600000D02*
X116200000Y-64600000D01*
D37*
%TO.N,+5V*%
X46800000Y-107900000D02*
X46800000Y-106500000D01*
X46800000Y-106500000D02*
X43500000Y-103200000D01*
X37300000Y-103200000D02*
X36500000Y-104000000D01*
X43500000Y-103200000D02*
X37300000Y-103200000D01*
D35*
X52900000Y-119500000D02*
X52700000Y-119300000D01*
X52900000Y-122600000D02*
X52900000Y-119500000D01*
D36*
%TO.N,/MCU/NRST*%
X125910000Y-126000000D02*
X75974990Y-126000000D01*
X127714000Y-124196000D02*
X125910000Y-126000000D01*
D35*
%TO.N,VBUS*%
X127300000Y-173400000D02*
X122500000Y-173400000D01*
D36*
%TO.N,Net-(C42-Pad1)*%
X122800000Y-166800000D02*
X128000000Y-172000000D01*
X122800000Y-163100000D02*
X122800000Y-166800000D01*
%TO.N,/MCU/peripherals/DP*%
X125090000Y-181986998D02*
X125090000Y-182136000D01*
X124240000Y-181136998D02*
X125090000Y-181986998D01*
X124240000Y-180786000D02*
X124240000Y-181136998D01*
D35*
%TO.N,/H bridge connection/REF_IN*%
X138749999Y-93369999D02*
X128469999Y-93369999D01*
X140000000Y-94620000D02*
X138749999Y-93369999D01*
X127600000Y-92500000D02*
X120000000Y-92500000D01*
X128469999Y-93369999D02*
X127600000Y-92500000D01*
D36*
%TO.N,/MCU/SWDIO*%
X75600000Y-100200000D02*
X97800000Y-100200000D01*
X97800000Y-100200000D02*
X99000000Y-101400000D01*
X131500000Y-101400000D02*
X132200000Y-102100000D01*
X99000000Y-101400000D02*
X131500000Y-101400000D01*
%TO.N,/MCU/SWDCLK*%
X76718979Y-120206000D02*
X75524979Y-121400000D01*
X139732000Y-120206000D02*
X76718979Y-120206000D01*
%TO.N,/MCU/SWO*%
X135774998Y-102825002D02*
X138000001Y-100599999D01*
X70725001Y-101074999D02*
X87048001Y-101074999D01*
X87048001Y-101074999D02*
X87273003Y-101300001D01*
X87273003Y-101300001D02*
X98263591Y-101300001D01*
X98263591Y-101300001D02*
X98813600Y-101850011D01*
X98813600Y-101850011D02*
X130877007Y-101850011D01*
X130877007Y-101850011D02*
X131851998Y-102825002D01*
X131851998Y-102825002D02*
X135774998Y-102825002D01*
X70100000Y-101700000D02*
X70725001Y-101074999D01*
X138000001Y-100599999D02*
X138400000Y-100200000D01*
D35*
%TO.N,Net-(J5-PadB5)*%
X125940000Y-182405685D02*
X125940000Y-182136000D01*
X127234315Y-183700000D02*
X125940000Y-182405685D01*
X127800000Y-183700000D02*
X127234315Y-183700000D01*
%TO.N,Net-(J5-PadA5)*%
X122498974Y-179400000D02*
X121400000Y-179400000D01*
X123390000Y-180291026D02*
X122498974Y-179400000D01*
X123390000Y-180786000D02*
X123390000Y-180291026D01*
%TO.N,/Device connenction/THERMISTOR_2*%
X137460000Y-75140000D02*
X135900000Y-76700000D01*
X137460000Y-72160000D02*
X137460000Y-75140000D01*
%TO.N,/Device connenction/THERMISTOR_1*%
X137460000Y-69620000D02*
X135600000Y-71480000D01*
X135600000Y-71480000D02*
X135600000Y-75100000D01*
D36*
%TO.N,/MCU/CAN_FAULT*%
X78000000Y-105100000D02*
X78000000Y-105800000D01*
X78000000Y-105800000D02*
X80100000Y-107900000D01*
X80100000Y-107900000D02*
X97100000Y-107900000D01*
X97100000Y-107900000D02*
X98000000Y-108800000D01*
X117600000Y-108800000D02*
X117700000Y-108700000D01*
X98000000Y-108800000D02*
X117600000Y-108800000D01*
%TO.N,/VREF*%
X114700000Y-111600000D02*
X78324410Y-111600000D01*
X78324410Y-111600000D02*
X77825010Y-112099400D01*
%TO.N,/MCU/CAN_S*%
X98495663Y-104104337D02*
X78093164Y-104104337D01*
X118900000Y-103600000D02*
X118500000Y-103200000D01*
X118500000Y-103200000D02*
X99400000Y-103200000D01*
X99400000Y-103200000D02*
X98495663Y-104104337D01*
%TO.N,/MCU/USB_DET*%
X116300000Y-170500000D02*
X116900000Y-169900000D01*
X75000000Y-170500000D02*
X116300000Y-170500000D01*
%TO.N,/H_Ref_High*%
X125900000Y-112800000D02*
X85525010Y-112800000D01*
X134000001Y-113199999D02*
X126299999Y-113199999D01*
X134400000Y-112800000D02*
X134000001Y-113199999D01*
X126299999Y-113199999D02*
X125900000Y-112800000D01*
%TO.N,/H_Load_Volt*%
X80300000Y-105200000D02*
X80700000Y-104800000D01*
X80700000Y-104800000D02*
X107526998Y-104800000D01*
X107526998Y-104800000D02*
X107551999Y-104825001D01*
X107551999Y-104825001D02*
X132874999Y-104825001D01*
X132874999Y-104825001D02*
X133200001Y-104499999D01*
X133200001Y-104499999D02*
X133600000Y-104100000D01*
%TO.N,/H_Excitation*%
X142809305Y-106300000D02*
X143374990Y-106300000D01*
X79700000Y-106300000D02*
X142809305Y-106300000D01*
%TO.N,/H_Sum*%
X119526996Y-91900000D02*
X119651998Y-91774998D01*
X125500000Y-91900000D02*
X126900000Y-90500000D01*
X107900000Y-91900000D02*
X119526996Y-91900000D01*
X119651998Y-91774998D02*
X120348002Y-91774998D01*
X120348002Y-91774998D02*
X120473004Y-91900000D01*
X120473004Y-91900000D02*
X125500000Y-91900000D01*
%TO.N,/H_Thermistor*%
X120600000Y-103100000D02*
X120200001Y-102700001D01*
X120200001Y-102700001D02*
X90018696Y-102700001D01*
X90018696Y-102700001D02*
X89865685Y-102546990D01*
X89865685Y-102546990D02*
X89300000Y-102546990D01*
%TO.N,/H_Offset*%
X135373004Y-103400000D02*
X133247994Y-105525010D01*
X142800000Y-103400000D02*
X135373004Y-103400000D01*
X133247994Y-105525010D02*
X90002532Y-105525010D01*
%TO.N,/H_Voltage*%
X89200000Y-115000000D02*
X130500000Y-115000000D01*
%TO.N,/H_Current*%
X78846001Y-96153999D02*
X80000000Y-95000000D01*
X77154000Y-95754000D02*
X77553999Y-96153999D01*
X77553999Y-96153999D02*
X78846001Y-96153999D01*
X80000000Y-95000000D02*
X124926998Y-95000000D01*
X124926998Y-95000000D02*
X124951999Y-94974999D01*
X124951999Y-94974999D02*
X127274999Y-94974999D01*
X127274999Y-94974999D02*
X127800000Y-95500000D01*
%TO.N,/Coil_Fans*%
X69400000Y-62100000D02*
X84400000Y-62100000D01*
X84400000Y-62100000D02*
X84900000Y-62600000D01*
X84900000Y-62600000D02*
X103300000Y-62600000D01*
X103300000Y-62600000D02*
X104000000Y-61900000D01*
X125400000Y-61900000D02*
X125500000Y-62000000D01*
X104000000Y-61900000D02*
X125400000Y-61900000D01*
%TO.N,/Mirror_Enc_Z*%
X80300000Y-73000000D02*
X128400000Y-73000000D01*
X134500000Y-73000000D02*
X134700000Y-72800000D01*
X128400000Y-73000000D02*
X134500000Y-73000000D01*
%TO.N,/Mirror_Enc_B*%
X88100000Y-113700000D02*
X144100000Y-113700000D01*
%TO.N,/Mirror_Enc_A*%
X138824999Y-65904999D02*
X100595001Y-65904999D01*
X140000000Y-67080000D02*
X138824999Y-65904999D01*
X100595001Y-65904999D02*
X95200000Y-71300000D01*
X95200000Y-71300000D02*
X79100000Y-71300000D01*
X79100000Y-71300000D02*
X75600000Y-74800000D01*
X75600000Y-74800000D02*
X54200000Y-74800000D01*
%TO.N,/EXTA_7*%
X41100000Y-117500000D02*
X81400000Y-117500000D01*
%TO.N,/EXTA_5*%
X35135001Y-89295001D02*
X37695001Y-89295001D01*
X38292165Y-88697837D02*
X72325010Y-88697837D01*
X37695001Y-89295001D02*
X38292165Y-88697837D01*
X33960000Y-88120000D02*
X35135001Y-89295001D01*
%TO.N,/EXTA_6*%
X43960000Y-90660000D02*
X44420000Y-90200000D01*
X36500000Y-90660000D02*
X43960000Y-90660000D01*
X72706619Y-90200000D02*
X73050020Y-90543401D01*
X44420000Y-90200000D02*
X72706619Y-90200000D01*
%TO.N,/EXTA_2*%
X49020000Y-85580000D02*
X49100000Y-85500000D01*
X36500000Y-85580000D02*
X49020000Y-85580000D01*
%TO.N,/EXTA_0*%
X55260000Y-83040000D02*
X55300000Y-83000000D01*
X36500000Y-83040000D02*
X55260000Y-83040000D01*
%TO.N,/EXTB_7*%
X43100000Y-115500000D02*
X86700000Y-115500000D01*
X86700000Y-115500000D02*
X86749317Y-115549317D01*
X86749317Y-115549317D02*
X86749317Y-115625010D01*
%TO.N,/EXTB_5*%
X37204999Y-112795001D02*
X38224835Y-111775165D01*
X33960000Y-111620000D02*
X35135001Y-112795001D01*
X35135001Y-112795001D02*
X37204999Y-112795001D01*
X38224835Y-111775165D02*
X47149845Y-111775165D01*
%TO.N,/EXTB_6*%
X46760000Y-114160000D02*
X46800000Y-114200000D01*
X36500000Y-114160000D02*
X46760000Y-114160000D01*
%TO.N,/EXTB_4*%
X36500000Y-111620000D02*
X37349999Y-110770001D01*
X37349999Y-110770001D02*
X47995011Y-110770001D01*
X47995011Y-110770001D02*
X48400000Y-111174990D01*
%TO.N,/EXTB_2*%
X46680000Y-109080000D02*
X46700000Y-109100000D01*
X36500000Y-109080000D02*
X46680000Y-109080000D01*
%TO.N,/EXTB_0*%
X36500000Y-106540000D02*
X38234990Y-106540000D01*
X38234990Y-106540000D02*
X40374990Y-104400000D01*
%TO.N,/MCU/LED_1*%
X141400000Y-174400000D02*
X141800000Y-174800000D01*
X111600000Y-174400000D02*
X141400000Y-174400000D01*
%TO.N,/MCU/LED_2*%
X134523001Y-159923001D02*
X134800000Y-160200000D01*
X113423001Y-159923001D02*
X134523001Y-159923001D01*
X113000000Y-159500000D02*
X113423001Y-159923001D01*
%TO.N,/MCU/TH_ALERT*%
X61400000Y-144900000D02*
X61300000Y-144800000D01*
X84700000Y-144900000D02*
X61400000Y-144900000D01*
D35*
%TO.N,/MCU/Knob_A*%
X111598000Y-150098000D02*
X111100000Y-149600000D01*
X123786000Y-150098000D02*
X111598000Y-150098000D01*
D36*
%TO.N,/MCU/Knob_S*%
X126100000Y-146500000D02*
X126300000Y-146700000D01*
X101700000Y-146500000D02*
X126100000Y-146500000D01*
%TO.N,/MCU/USB_RX*%
X75600000Y-99100000D02*
X96600000Y-99100000D01*
X96600000Y-99100000D02*
X97200000Y-98500000D01*
X97200000Y-98500000D02*
X99700000Y-98500000D01*
X101000000Y-99800000D02*
X104500000Y-99800000D01*
X99700000Y-98500000D02*
X101000000Y-99800000D01*
X104500000Y-155400000D02*
X118800000Y-155400000D01*
%TO.N,/MCU/USB_TX*%
X75600000Y-98000000D02*
X100200000Y-98000000D01*
X100200000Y-98000000D02*
X101100000Y-98900000D01*
X101100000Y-98900000D02*
X105600000Y-98900000D01*
X105600000Y-156400000D02*
X120100000Y-156400000D01*
%TO.N,/Coil_Thermistor_2*%
X100600000Y-73900000D02*
X100999999Y-73500001D01*
X100999999Y-73500001D02*
X130574991Y-73500001D01*
X130574991Y-73500001D02*
X130800000Y-73725010D01*
%TO.N,/MCU/LCD_DIN*%
X46940000Y-148300000D02*
X46436000Y-147796000D01*
X76800000Y-148300000D02*
X46940000Y-148300000D01*
%TO.N,/GPIO_B*%
X73700000Y-89600000D02*
X44524223Y-89600000D01*
X44524223Y-89600000D02*
X44399502Y-89475279D01*
%TD*%
M02*
