%TF.GenerationSoftware,KiCad,Pcbnew,(5.1.10)-1*%
%TF.CreationDate,2021-12-22T14:35:30+01:00*%
%TF.ProjectId,vca_main_board,7663615f-6d61-4696-9e5f-626f6172642e,rev?*%
%TF.SameCoordinates,Original*%
%TF.FileFunction,Soldermask,Top*%
%TF.FilePolarity,Negative*%
%FSLAX46Y46*%
G04 Gerber Fmt 4.6, Leading zero omitted, Abs format (unit mm)*
G04 Created by KiCad (PCBNEW (5.1.10)-1) date 2021-12-22 14:35:30*
%MOMM*%
%LPD*%
G01*
G04 APERTURE LIST*
%ADD10R,0.650000X1.060000*%
%ADD11C,1.700000*%
%ADD12O,1.600000X2.500000*%
%ADD13O,3.500000X7.000000*%
%ADD14R,3.600000X3.600000*%
%ADD15O,1.700000X1.700000*%
%ADD16R,1.700000X1.700000*%
%ADD17O,0.900000X1.700000*%
%ADD18O,0.900000X2.400000*%
%ADD19C,0.700000*%
%ADD20C,0.800000*%
%ADD21C,6.400000*%
%ADD22C,3.000000*%
%ADD23R,0.800000X0.900000*%
%ADD24O,1.905000X2.000000*%
%ADD25R,1.905000X2.000000*%
%ADD26O,3.500000X3.500000*%
%ADD27R,0.650000X1.560000*%
%ADD28C,2.000000*%
%ADD29R,2.000000X2.000000*%
%ADD30R,0.400000X3.200000*%
%ADD31C,3.500000*%
%ADD32C,1.800000*%
%ADD33C,2.800000*%
%ADD34R,1.000000X1.000000*%
%ADD35O,1.000000X1.000000*%
%ADD36C,2.600000*%
%ADD37R,2.600000X2.600000*%
%ADD38R,1.560000X0.650000*%
%ADD39R,6.400000X5.800000*%
%ADD40R,2.200000X1.200000*%
%ADD41R,0.980000X3.400000*%
G04 APERTURE END LIST*
%TO.C,C58*%
G36*
G01*
X85125000Y-110737500D02*
X85125000Y-110262500D01*
G75*
G02*
X85362500Y-110025000I237500J0D01*
G01*
X85962500Y-110025000D01*
G75*
G02*
X86200000Y-110262500I0J-237500D01*
G01*
X86200000Y-110737500D01*
G75*
G02*
X85962500Y-110975000I-237500J0D01*
G01*
X85362500Y-110975000D01*
G75*
G02*
X85125000Y-110737500I0J237500D01*
G01*
G37*
G36*
G01*
X83400000Y-110737500D02*
X83400000Y-110262500D01*
G75*
G02*
X83637500Y-110025000I237500J0D01*
G01*
X84237500Y-110025000D01*
G75*
G02*
X84475000Y-110262500I0J-237500D01*
G01*
X84475000Y-110737500D01*
G75*
G02*
X84237500Y-110975000I-237500J0D01*
G01*
X83637500Y-110975000D01*
G75*
G02*
X83400000Y-110737500I0J237500D01*
G01*
G37*
%TD*%
%TO.C,R44*%
G36*
G01*
X79725000Y-121737500D02*
X79725000Y-121262500D01*
G75*
G02*
X79962500Y-121025000I237500J0D01*
G01*
X80462500Y-121025000D01*
G75*
G02*
X80700000Y-121262500I0J-237500D01*
G01*
X80700000Y-121737500D01*
G75*
G02*
X80462500Y-121975000I-237500J0D01*
G01*
X79962500Y-121975000D01*
G75*
G02*
X79725000Y-121737500I0J237500D01*
G01*
G37*
G36*
G01*
X77900000Y-121737500D02*
X77900000Y-121262500D01*
G75*
G02*
X78137500Y-121025000I237500J0D01*
G01*
X78637500Y-121025000D01*
G75*
G02*
X78875000Y-121262500I0J-237500D01*
G01*
X78875000Y-121737500D01*
G75*
G02*
X78637500Y-121975000I-237500J0D01*
G01*
X78137500Y-121975000D01*
G75*
G02*
X77900000Y-121737500I0J237500D01*
G01*
G37*
%TD*%
%TO.C,C57*%
G36*
G01*
X141037500Y-152175000D02*
X140562500Y-152175000D01*
G75*
G02*
X140325000Y-151937500I0J237500D01*
G01*
X140325000Y-151337500D01*
G75*
G02*
X140562500Y-151100000I237500J0D01*
G01*
X141037500Y-151100000D01*
G75*
G02*
X141275000Y-151337500I0J-237500D01*
G01*
X141275000Y-151937500D01*
G75*
G02*
X141037500Y-152175000I-237500J0D01*
G01*
G37*
G36*
G01*
X141037500Y-153900000D02*
X140562500Y-153900000D01*
G75*
G02*
X140325000Y-153662500I0J237500D01*
G01*
X140325000Y-153062500D01*
G75*
G02*
X140562500Y-152825000I237500J0D01*
G01*
X141037500Y-152825000D01*
G75*
G02*
X141275000Y-153062500I0J-237500D01*
G01*
X141275000Y-153662500D01*
G75*
G02*
X141037500Y-153900000I-237500J0D01*
G01*
G37*
%TD*%
%TO.C,C56*%
G36*
G01*
X121237500Y-150275000D02*
X120762500Y-150275000D01*
G75*
G02*
X120525000Y-150037500I0J237500D01*
G01*
X120525000Y-149437500D01*
G75*
G02*
X120762500Y-149200000I237500J0D01*
G01*
X121237500Y-149200000D01*
G75*
G02*
X121475000Y-149437500I0J-237500D01*
G01*
X121475000Y-150037500D01*
G75*
G02*
X121237500Y-150275000I-237500J0D01*
G01*
G37*
G36*
G01*
X121237500Y-152000000D02*
X120762500Y-152000000D01*
G75*
G02*
X120525000Y-151762500I0J237500D01*
G01*
X120525000Y-151162500D01*
G75*
G02*
X120762500Y-150925000I237500J0D01*
G01*
X121237500Y-150925000D01*
G75*
G02*
X121475000Y-151162500I0J-237500D01*
G01*
X121475000Y-151762500D01*
G75*
G02*
X121237500Y-152000000I-237500J0D01*
G01*
G37*
%TD*%
%TO.C,C55*%
G36*
G01*
X120762500Y-154325000D02*
X121237500Y-154325000D01*
G75*
G02*
X121475000Y-154562500I0J-237500D01*
G01*
X121475000Y-155162500D01*
G75*
G02*
X121237500Y-155400000I-237500J0D01*
G01*
X120762500Y-155400000D01*
G75*
G02*
X120525000Y-155162500I0J237500D01*
G01*
X120525000Y-154562500D01*
G75*
G02*
X120762500Y-154325000I237500J0D01*
G01*
G37*
G36*
G01*
X120762500Y-152600000D02*
X121237500Y-152600000D01*
G75*
G02*
X121475000Y-152837500I0J-237500D01*
G01*
X121475000Y-153437500D01*
G75*
G02*
X121237500Y-153675000I-237500J0D01*
G01*
X120762500Y-153675000D01*
G75*
G02*
X120525000Y-153437500I0J237500D01*
G01*
X120525000Y-152837500D01*
G75*
G02*
X120762500Y-152600000I237500J0D01*
G01*
G37*
%TD*%
%TO.C,C54*%
G36*
G01*
X79625000Y-120137500D02*
X79625000Y-119662500D01*
G75*
G02*
X79862500Y-119425000I237500J0D01*
G01*
X80462500Y-119425000D01*
G75*
G02*
X80700000Y-119662500I0J-237500D01*
G01*
X80700000Y-120137500D01*
G75*
G02*
X80462500Y-120375000I-237500J0D01*
G01*
X79862500Y-120375000D01*
G75*
G02*
X79625000Y-120137500I0J237500D01*
G01*
G37*
G36*
G01*
X77900000Y-120137500D02*
X77900000Y-119662500D01*
G75*
G02*
X78137500Y-119425000I237500J0D01*
G01*
X78737500Y-119425000D01*
G75*
G02*
X78975000Y-119662500I0J-237500D01*
G01*
X78975000Y-120137500D01*
G75*
G02*
X78737500Y-120375000I-237500J0D01*
G01*
X78137500Y-120375000D01*
G75*
G02*
X77900000Y-120137500I0J237500D01*
G01*
G37*
%TD*%
%TO.C,C41*%
G36*
G01*
X64375000Y-92362500D02*
X64375000Y-92837500D01*
G75*
G02*
X64137500Y-93075000I-237500J0D01*
G01*
X63537500Y-93075000D01*
G75*
G02*
X63300000Y-92837500I0J237500D01*
G01*
X63300000Y-92362500D01*
G75*
G02*
X63537500Y-92125000I237500J0D01*
G01*
X64137500Y-92125000D01*
G75*
G02*
X64375000Y-92362500I0J-237500D01*
G01*
G37*
G36*
G01*
X66100000Y-92362500D02*
X66100000Y-92837500D01*
G75*
G02*
X65862500Y-93075000I-237500J0D01*
G01*
X65262500Y-93075000D01*
G75*
G02*
X65025000Y-92837500I0J237500D01*
G01*
X65025000Y-92362500D01*
G75*
G02*
X65262500Y-92125000I237500J0D01*
G01*
X65862500Y-92125000D01*
G75*
G02*
X66100000Y-92362500I0J-237500D01*
G01*
G37*
%TD*%
%TO.C,C53*%
G36*
G01*
X79625000Y-118537500D02*
X79625000Y-118062500D01*
G75*
G02*
X79862500Y-117825000I237500J0D01*
G01*
X80462500Y-117825000D01*
G75*
G02*
X80700000Y-118062500I0J-237500D01*
G01*
X80700000Y-118537500D01*
G75*
G02*
X80462500Y-118775000I-237500J0D01*
G01*
X79862500Y-118775000D01*
G75*
G02*
X79625000Y-118537500I0J237500D01*
G01*
G37*
G36*
G01*
X77900000Y-118537500D02*
X77900000Y-118062500D01*
G75*
G02*
X78137500Y-117825000I237500J0D01*
G01*
X78737500Y-117825000D01*
G75*
G02*
X78975000Y-118062500I0J-237500D01*
G01*
X78975000Y-118537500D01*
G75*
G02*
X78737500Y-118775000I-237500J0D01*
G01*
X78137500Y-118775000D01*
G75*
G02*
X77900000Y-118537500I0J237500D01*
G01*
G37*
%TD*%
%TO.C,C48*%
G36*
G01*
X44375000Y-112562500D02*
X44375000Y-113037500D01*
G75*
G02*
X44137500Y-113275000I-237500J0D01*
G01*
X43537500Y-113275000D01*
G75*
G02*
X43300000Y-113037500I0J237500D01*
G01*
X43300000Y-112562500D01*
G75*
G02*
X43537500Y-112325000I237500J0D01*
G01*
X44137500Y-112325000D01*
G75*
G02*
X44375000Y-112562500I0J-237500D01*
G01*
G37*
G36*
G01*
X46100000Y-112562500D02*
X46100000Y-113037500D01*
G75*
G02*
X45862500Y-113275000I-237500J0D01*
G01*
X45262500Y-113275000D01*
G75*
G02*
X45025000Y-113037500I0J237500D01*
G01*
X45025000Y-112562500D01*
G75*
G02*
X45262500Y-112325000I237500J0D01*
G01*
X45862500Y-112325000D01*
G75*
G02*
X46100000Y-112562500I0J-237500D01*
G01*
G37*
%TD*%
%TO.C,C19*%
G36*
G01*
X44075000Y-90462500D02*
X44075000Y-90937500D01*
G75*
G02*
X43837500Y-91175000I-237500J0D01*
G01*
X43237500Y-91175000D01*
G75*
G02*
X43000000Y-90937500I0J237500D01*
G01*
X43000000Y-90462500D01*
G75*
G02*
X43237500Y-90225000I237500J0D01*
G01*
X43837500Y-90225000D01*
G75*
G02*
X44075000Y-90462500I0J-237500D01*
G01*
G37*
G36*
G01*
X45800000Y-90462500D02*
X45800000Y-90937500D01*
G75*
G02*
X45562500Y-91175000I-237500J0D01*
G01*
X44962500Y-91175000D01*
G75*
G02*
X44725000Y-90937500I0J237500D01*
G01*
X44725000Y-90462500D01*
G75*
G02*
X44962500Y-90225000I237500J0D01*
G01*
X45562500Y-90225000D01*
G75*
G02*
X45800000Y-90462500I0J-237500D01*
G01*
G37*
%TD*%
%TO.C,C17*%
G36*
G01*
X44375000Y-107662500D02*
X44375000Y-108137500D01*
G75*
G02*
X44137500Y-108375000I-237500J0D01*
G01*
X43537500Y-108375000D01*
G75*
G02*
X43300000Y-108137500I0J237500D01*
G01*
X43300000Y-107662500D01*
G75*
G02*
X43537500Y-107425000I237500J0D01*
G01*
X44137500Y-107425000D01*
G75*
G02*
X44375000Y-107662500I0J-237500D01*
G01*
G37*
G36*
G01*
X46100000Y-107662500D02*
X46100000Y-108137500D01*
G75*
G02*
X45862500Y-108375000I-237500J0D01*
G01*
X45262500Y-108375000D01*
G75*
G02*
X45025000Y-108137500I0J237500D01*
G01*
X45025000Y-107662500D01*
G75*
G02*
X45262500Y-107425000I237500J0D01*
G01*
X45862500Y-107425000D01*
G75*
G02*
X46100000Y-107662500I0J-237500D01*
G01*
G37*
%TD*%
%TO.C,C14*%
G36*
G01*
X43975000Y-84062500D02*
X43975000Y-84537500D01*
G75*
G02*
X43737500Y-84775000I-237500J0D01*
G01*
X43137500Y-84775000D01*
G75*
G02*
X42900000Y-84537500I0J237500D01*
G01*
X42900000Y-84062500D01*
G75*
G02*
X43137500Y-83825000I237500J0D01*
G01*
X43737500Y-83825000D01*
G75*
G02*
X43975000Y-84062500I0J-237500D01*
G01*
G37*
G36*
G01*
X45700000Y-84062500D02*
X45700000Y-84537500D01*
G75*
G02*
X45462500Y-84775000I-237500J0D01*
G01*
X44862500Y-84775000D01*
G75*
G02*
X44625000Y-84537500I0J237500D01*
G01*
X44625000Y-84062500D01*
G75*
G02*
X44862500Y-83825000I237500J0D01*
G01*
X45462500Y-83825000D01*
G75*
G02*
X45700000Y-84062500I0J-237500D01*
G01*
G37*
%TD*%
D10*
%TO.C,D16*%
X40800000Y-114000000D03*
X41750000Y-114000000D03*
X39850000Y-114000000D03*
X39850000Y-111800000D03*
X40800000Y-111800000D03*
X41750000Y-111800000D03*
%TD*%
%TO.C,D15*%
X40800000Y-109000000D03*
X41750000Y-109000000D03*
X39850000Y-109000000D03*
X39850000Y-106800000D03*
X40800000Y-106800000D03*
X41750000Y-106800000D03*
%TD*%
%TO.C,D14*%
X40800000Y-90500000D03*
X41750000Y-90500000D03*
X39850000Y-90500000D03*
X39850000Y-88300000D03*
X40800000Y-88300000D03*
X41750000Y-88300000D03*
%TD*%
%TO.C,D13*%
X40800000Y-85300000D03*
X41750000Y-85300000D03*
X39850000Y-85300000D03*
X39850000Y-83100000D03*
X40800000Y-83100000D03*
X41750000Y-83100000D03*
%TD*%
D11*
%TO.C,J12*%
X33960000Y-114160000D03*
X33960000Y-111620000D03*
X33960000Y-109080000D03*
X33960000Y-106540000D03*
X33960000Y-104000000D03*
X36500000Y-114160000D03*
X36500000Y-111620000D03*
X36500000Y-109080000D03*
X36500000Y-106540000D03*
G36*
G01*
X37350000Y-103400000D02*
X37350000Y-104600000D01*
G75*
G02*
X37100000Y-104850000I-250000J0D01*
G01*
X35900000Y-104850000D01*
G75*
G02*
X35650000Y-104600000I0J250000D01*
G01*
X35650000Y-103400000D01*
G75*
G02*
X35900000Y-103150000I250000J0D01*
G01*
X37100000Y-103150000D01*
G75*
G02*
X37350000Y-103400000I0J-250000D01*
G01*
G37*
%TD*%
D10*
%TO.C,D12*%
X132600000Y-65000000D03*
X133550000Y-65000000D03*
X131650000Y-65000000D03*
X131650000Y-62800000D03*
X132600000Y-62800000D03*
X133550000Y-62800000D03*
%TD*%
%TO.C,D11*%
X132600000Y-71900000D03*
X133550000Y-71900000D03*
X131650000Y-71900000D03*
X131650000Y-69700000D03*
X132600000Y-69700000D03*
X133550000Y-69700000D03*
%TD*%
%TO.C,C10*%
G36*
G01*
X130237500Y-64275000D02*
X129762500Y-64275000D01*
G75*
G02*
X129525000Y-64037500I0J237500D01*
G01*
X129525000Y-63437500D01*
G75*
G02*
X129762500Y-63200000I237500J0D01*
G01*
X130237500Y-63200000D01*
G75*
G02*
X130475000Y-63437500I0J-237500D01*
G01*
X130475000Y-64037500D01*
G75*
G02*
X130237500Y-64275000I-237500J0D01*
G01*
G37*
G36*
G01*
X130237500Y-66000000D02*
X129762500Y-66000000D01*
G75*
G02*
X129525000Y-65762500I0J237500D01*
G01*
X129525000Y-65162500D01*
G75*
G02*
X129762500Y-64925000I237500J0D01*
G01*
X130237500Y-64925000D01*
G75*
G02*
X130475000Y-65162500I0J-237500D01*
G01*
X130475000Y-65762500D01*
G75*
G02*
X130237500Y-66000000I-237500J0D01*
G01*
G37*
%TD*%
%TO.C,C4*%
G36*
G01*
X130237500Y-71175000D02*
X129762500Y-71175000D01*
G75*
G02*
X129525000Y-70937500I0J237500D01*
G01*
X129525000Y-70337500D01*
G75*
G02*
X129762500Y-70100000I237500J0D01*
G01*
X130237500Y-70100000D01*
G75*
G02*
X130475000Y-70337500I0J-237500D01*
G01*
X130475000Y-70937500D01*
G75*
G02*
X130237500Y-71175000I-237500J0D01*
G01*
G37*
G36*
G01*
X130237500Y-72900000D02*
X129762500Y-72900000D01*
G75*
G02*
X129525000Y-72662500I0J237500D01*
G01*
X129525000Y-72062500D01*
G75*
G02*
X129762500Y-71825000I237500J0D01*
G01*
X130237500Y-71825000D01*
G75*
G02*
X130475000Y-72062500I0J-237500D01*
G01*
X130475000Y-72662500D01*
G75*
G02*
X130237500Y-72900000I-237500J0D01*
G01*
G37*
%TD*%
D12*
%TO.C,J15*%
X42960000Y-174000000D03*
X45500000Y-174000000D03*
D13*
X50580000Y-179080000D03*
X40420000Y-179080000D03*
%TD*%
D12*
%TO.C,J14*%
X64293333Y-174000000D03*
X66833333Y-174000000D03*
D13*
X71913333Y-179080000D03*
X61753333Y-179080000D03*
%TD*%
D12*
%TO.C,J13*%
X85626666Y-174000000D03*
X88166666Y-174000000D03*
D13*
X93246666Y-179080000D03*
X83086666Y-179080000D03*
%TD*%
D12*
%TO.C,J7*%
X106960000Y-174000000D03*
X109500000Y-174000000D03*
D13*
X114580000Y-179080000D03*
X104420000Y-179080000D03*
%TD*%
D14*
%TO.C,U3*%
X126250000Y-166250000D03*
G36*
G01*
X124375000Y-164137500D02*
X124375000Y-163462500D01*
G75*
G02*
X124437500Y-163400000I62500J0D01*
G01*
X124562500Y-163400000D01*
G75*
G02*
X124625000Y-163462500I0J-62500D01*
G01*
X124625000Y-164137500D01*
G75*
G02*
X124562500Y-164200000I-62500J0D01*
G01*
X124437500Y-164200000D01*
G75*
G02*
X124375000Y-164137500I0J62500D01*
G01*
G37*
G36*
G01*
X124875000Y-164137500D02*
X124875000Y-163462500D01*
G75*
G02*
X124937500Y-163400000I62500J0D01*
G01*
X125062500Y-163400000D01*
G75*
G02*
X125125000Y-163462500I0J-62500D01*
G01*
X125125000Y-164137500D01*
G75*
G02*
X125062500Y-164200000I-62500J0D01*
G01*
X124937500Y-164200000D01*
G75*
G02*
X124875000Y-164137500I0J62500D01*
G01*
G37*
G36*
G01*
X125375000Y-164137500D02*
X125375000Y-163462500D01*
G75*
G02*
X125437500Y-163400000I62500J0D01*
G01*
X125562500Y-163400000D01*
G75*
G02*
X125625000Y-163462500I0J-62500D01*
G01*
X125625000Y-164137500D01*
G75*
G02*
X125562500Y-164200000I-62500J0D01*
G01*
X125437500Y-164200000D01*
G75*
G02*
X125375000Y-164137500I0J62500D01*
G01*
G37*
G36*
G01*
X125875000Y-164137500D02*
X125875000Y-163462500D01*
G75*
G02*
X125937500Y-163400000I62500J0D01*
G01*
X126062500Y-163400000D01*
G75*
G02*
X126125000Y-163462500I0J-62500D01*
G01*
X126125000Y-164137500D01*
G75*
G02*
X126062500Y-164200000I-62500J0D01*
G01*
X125937500Y-164200000D01*
G75*
G02*
X125875000Y-164137500I0J62500D01*
G01*
G37*
G36*
G01*
X126375000Y-164137500D02*
X126375000Y-163462500D01*
G75*
G02*
X126437500Y-163400000I62500J0D01*
G01*
X126562500Y-163400000D01*
G75*
G02*
X126625000Y-163462500I0J-62500D01*
G01*
X126625000Y-164137500D01*
G75*
G02*
X126562500Y-164200000I-62500J0D01*
G01*
X126437500Y-164200000D01*
G75*
G02*
X126375000Y-164137500I0J62500D01*
G01*
G37*
G36*
G01*
X126875000Y-164137500D02*
X126875000Y-163462500D01*
G75*
G02*
X126937500Y-163400000I62500J0D01*
G01*
X127062500Y-163400000D01*
G75*
G02*
X127125000Y-163462500I0J-62500D01*
G01*
X127125000Y-164137500D01*
G75*
G02*
X127062500Y-164200000I-62500J0D01*
G01*
X126937500Y-164200000D01*
G75*
G02*
X126875000Y-164137500I0J62500D01*
G01*
G37*
G36*
G01*
X127375000Y-164137500D02*
X127375000Y-163462500D01*
G75*
G02*
X127437500Y-163400000I62500J0D01*
G01*
X127562500Y-163400000D01*
G75*
G02*
X127625000Y-163462500I0J-62500D01*
G01*
X127625000Y-164137500D01*
G75*
G02*
X127562500Y-164200000I-62500J0D01*
G01*
X127437500Y-164200000D01*
G75*
G02*
X127375000Y-164137500I0J62500D01*
G01*
G37*
G36*
G01*
X127875000Y-164137500D02*
X127875000Y-163462500D01*
G75*
G02*
X127937500Y-163400000I62500J0D01*
G01*
X128062500Y-163400000D01*
G75*
G02*
X128125000Y-163462500I0J-62500D01*
G01*
X128125000Y-164137500D01*
G75*
G02*
X128062500Y-164200000I-62500J0D01*
G01*
X127937500Y-164200000D01*
G75*
G02*
X127875000Y-164137500I0J62500D01*
G01*
G37*
G36*
G01*
X128300000Y-164562500D02*
X128300000Y-164437500D01*
G75*
G02*
X128362500Y-164375000I62500J0D01*
G01*
X129037500Y-164375000D01*
G75*
G02*
X129100000Y-164437500I0J-62500D01*
G01*
X129100000Y-164562500D01*
G75*
G02*
X129037500Y-164625000I-62500J0D01*
G01*
X128362500Y-164625000D01*
G75*
G02*
X128300000Y-164562500I0J62500D01*
G01*
G37*
G36*
G01*
X128300000Y-165062500D02*
X128300000Y-164937500D01*
G75*
G02*
X128362500Y-164875000I62500J0D01*
G01*
X129037500Y-164875000D01*
G75*
G02*
X129100000Y-164937500I0J-62500D01*
G01*
X129100000Y-165062500D01*
G75*
G02*
X129037500Y-165125000I-62500J0D01*
G01*
X128362500Y-165125000D01*
G75*
G02*
X128300000Y-165062500I0J62500D01*
G01*
G37*
G36*
G01*
X128300000Y-165562500D02*
X128300000Y-165437500D01*
G75*
G02*
X128362500Y-165375000I62500J0D01*
G01*
X129037500Y-165375000D01*
G75*
G02*
X129100000Y-165437500I0J-62500D01*
G01*
X129100000Y-165562500D01*
G75*
G02*
X129037500Y-165625000I-62500J0D01*
G01*
X128362500Y-165625000D01*
G75*
G02*
X128300000Y-165562500I0J62500D01*
G01*
G37*
G36*
G01*
X128300000Y-166062500D02*
X128300000Y-165937500D01*
G75*
G02*
X128362500Y-165875000I62500J0D01*
G01*
X129037500Y-165875000D01*
G75*
G02*
X129100000Y-165937500I0J-62500D01*
G01*
X129100000Y-166062500D01*
G75*
G02*
X129037500Y-166125000I-62500J0D01*
G01*
X128362500Y-166125000D01*
G75*
G02*
X128300000Y-166062500I0J62500D01*
G01*
G37*
G36*
G01*
X128300000Y-166562500D02*
X128300000Y-166437500D01*
G75*
G02*
X128362500Y-166375000I62500J0D01*
G01*
X129037500Y-166375000D01*
G75*
G02*
X129100000Y-166437500I0J-62500D01*
G01*
X129100000Y-166562500D01*
G75*
G02*
X129037500Y-166625000I-62500J0D01*
G01*
X128362500Y-166625000D01*
G75*
G02*
X128300000Y-166562500I0J62500D01*
G01*
G37*
G36*
G01*
X128300000Y-167062500D02*
X128300000Y-166937500D01*
G75*
G02*
X128362500Y-166875000I62500J0D01*
G01*
X129037500Y-166875000D01*
G75*
G02*
X129100000Y-166937500I0J-62500D01*
G01*
X129100000Y-167062500D01*
G75*
G02*
X129037500Y-167125000I-62500J0D01*
G01*
X128362500Y-167125000D01*
G75*
G02*
X128300000Y-167062500I0J62500D01*
G01*
G37*
G36*
G01*
X128300000Y-167562500D02*
X128300000Y-167437500D01*
G75*
G02*
X128362500Y-167375000I62500J0D01*
G01*
X129037500Y-167375000D01*
G75*
G02*
X129100000Y-167437500I0J-62500D01*
G01*
X129100000Y-167562500D01*
G75*
G02*
X129037500Y-167625000I-62500J0D01*
G01*
X128362500Y-167625000D01*
G75*
G02*
X128300000Y-167562500I0J62500D01*
G01*
G37*
G36*
G01*
X128300000Y-168062500D02*
X128300000Y-167937500D01*
G75*
G02*
X128362500Y-167875000I62500J0D01*
G01*
X129037500Y-167875000D01*
G75*
G02*
X129100000Y-167937500I0J-62500D01*
G01*
X129100000Y-168062500D01*
G75*
G02*
X129037500Y-168125000I-62500J0D01*
G01*
X128362500Y-168125000D01*
G75*
G02*
X128300000Y-168062500I0J62500D01*
G01*
G37*
G36*
G01*
X127875000Y-169037500D02*
X127875000Y-168362500D01*
G75*
G02*
X127937500Y-168300000I62500J0D01*
G01*
X128062500Y-168300000D01*
G75*
G02*
X128125000Y-168362500I0J-62500D01*
G01*
X128125000Y-169037500D01*
G75*
G02*
X128062500Y-169100000I-62500J0D01*
G01*
X127937500Y-169100000D01*
G75*
G02*
X127875000Y-169037500I0J62500D01*
G01*
G37*
G36*
G01*
X127375000Y-169037500D02*
X127375000Y-168362500D01*
G75*
G02*
X127437500Y-168300000I62500J0D01*
G01*
X127562500Y-168300000D01*
G75*
G02*
X127625000Y-168362500I0J-62500D01*
G01*
X127625000Y-169037500D01*
G75*
G02*
X127562500Y-169100000I-62500J0D01*
G01*
X127437500Y-169100000D01*
G75*
G02*
X127375000Y-169037500I0J62500D01*
G01*
G37*
G36*
G01*
X126875000Y-169037500D02*
X126875000Y-168362500D01*
G75*
G02*
X126937500Y-168300000I62500J0D01*
G01*
X127062500Y-168300000D01*
G75*
G02*
X127125000Y-168362500I0J-62500D01*
G01*
X127125000Y-169037500D01*
G75*
G02*
X127062500Y-169100000I-62500J0D01*
G01*
X126937500Y-169100000D01*
G75*
G02*
X126875000Y-169037500I0J62500D01*
G01*
G37*
G36*
G01*
X126375000Y-169037500D02*
X126375000Y-168362500D01*
G75*
G02*
X126437500Y-168300000I62500J0D01*
G01*
X126562500Y-168300000D01*
G75*
G02*
X126625000Y-168362500I0J-62500D01*
G01*
X126625000Y-169037500D01*
G75*
G02*
X126562500Y-169100000I-62500J0D01*
G01*
X126437500Y-169100000D01*
G75*
G02*
X126375000Y-169037500I0J62500D01*
G01*
G37*
G36*
G01*
X125875000Y-169037500D02*
X125875000Y-168362500D01*
G75*
G02*
X125937500Y-168300000I62500J0D01*
G01*
X126062500Y-168300000D01*
G75*
G02*
X126125000Y-168362500I0J-62500D01*
G01*
X126125000Y-169037500D01*
G75*
G02*
X126062500Y-169100000I-62500J0D01*
G01*
X125937500Y-169100000D01*
G75*
G02*
X125875000Y-169037500I0J62500D01*
G01*
G37*
G36*
G01*
X125375000Y-169037500D02*
X125375000Y-168362500D01*
G75*
G02*
X125437500Y-168300000I62500J0D01*
G01*
X125562500Y-168300000D01*
G75*
G02*
X125625000Y-168362500I0J-62500D01*
G01*
X125625000Y-169037500D01*
G75*
G02*
X125562500Y-169100000I-62500J0D01*
G01*
X125437500Y-169100000D01*
G75*
G02*
X125375000Y-169037500I0J62500D01*
G01*
G37*
G36*
G01*
X124875000Y-169037500D02*
X124875000Y-168362500D01*
G75*
G02*
X124937500Y-168300000I62500J0D01*
G01*
X125062500Y-168300000D01*
G75*
G02*
X125125000Y-168362500I0J-62500D01*
G01*
X125125000Y-169037500D01*
G75*
G02*
X125062500Y-169100000I-62500J0D01*
G01*
X124937500Y-169100000D01*
G75*
G02*
X124875000Y-169037500I0J62500D01*
G01*
G37*
G36*
G01*
X124375000Y-169037500D02*
X124375000Y-168362500D01*
G75*
G02*
X124437500Y-168300000I62500J0D01*
G01*
X124562500Y-168300000D01*
G75*
G02*
X124625000Y-168362500I0J-62500D01*
G01*
X124625000Y-169037500D01*
G75*
G02*
X124562500Y-169100000I-62500J0D01*
G01*
X124437500Y-169100000D01*
G75*
G02*
X124375000Y-169037500I0J62500D01*
G01*
G37*
G36*
G01*
X123400000Y-168062500D02*
X123400000Y-167937500D01*
G75*
G02*
X123462500Y-167875000I62500J0D01*
G01*
X124137500Y-167875000D01*
G75*
G02*
X124200000Y-167937500I0J-62500D01*
G01*
X124200000Y-168062500D01*
G75*
G02*
X124137500Y-168125000I-62500J0D01*
G01*
X123462500Y-168125000D01*
G75*
G02*
X123400000Y-168062500I0J62500D01*
G01*
G37*
G36*
G01*
X123400000Y-167562500D02*
X123400000Y-167437500D01*
G75*
G02*
X123462500Y-167375000I62500J0D01*
G01*
X124137500Y-167375000D01*
G75*
G02*
X124200000Y-167437500I0J-62500D01*
G01*
X124200000Y-167562500D01*
G75*
G02*
X124137500Y-167625000I-62500J0D01*
G01*
X123462500Y-167625000D01*
G75*
G02*
X123400000Y-167562500I0J62500D01*
G01*
G37*
G36*
G01*
X123400000Y-167062500D02*
X123400000Y-166937500D01*
G75*
G02*
X123462500Y-166875000I62500J0D01*
G01*
X124137500Y-166875000D01*
G75*
G02*
X124200000Y-166937500I0J-62500D01*
G01*
X124200000Y-167062500D01*
G75*
G02*
X124137500Y-167125000I-62500J0D01*
G01*
X123462500Y-167125000D01*
G75*
G02*
X123400000Y-167062500I0J62500D01*
G01*
G37*
G36*
G01*
X123400000Y-166562500D02*
X123400000Y-166437500D01*
G75*
G02*
X123462500Y-166375000I62500J0D01*
G01*
X124137500Y-166375000D01*
G75*
G02*
X124200000Y-166437500I0J-62500D01*
G01*
X124200000Y-166562500D01*
G75*
G02*
X124137500Y-166625000I-62500J0D01*
G01*
X123462500Y-166625000D01*
G75*
G02*
X123400000Y-166562500I0J62500D01*
G01*
G37*
G36*
G01*
X123400000Y-166062500D02*
X123400000Y-165937500D01*
G75*
G02*
X123462500Y-165875000I62500J0D01*
G01*
X124137500Y-165875000D01*
G75*
G02*
X124200000Y-165937500I0J-62500D01*
G01*
X124200000Y-166062500D01*
G75*
G02*
X124137500Y-166125000I-62500J0D01*
G01*
X123462500Y-166125000D01*
G75*
G02*
X123400000Y-166062500I0J62500D01*
G01*
G37*
G36*
G01*
X123400000Y-165562500D02*
X123400000Y-165437500D01*
G75*
G02*
X123462500Y-165375000I62500J0D01*
G01*
X124137500Y-165375000D01*
G75*
G02*
X124200000Y-165437500I0J-62500D01*
G01*
X124200000Y-165562500D01*
G75*
G02*
X124137500Y-165625000I-62500J0D01*
G01*
X123462500Y-165625000D01*
G75*
G02*
X123400000Y-165562500I0J62500D01*
G01*
G37*
G36*
G01*
X123400000Y-165062500D02*
X123400000Y-164937500D01*
G75*
G02*
X123462500Y-164875000I62500J0D01*
G01*
X124137500Y-164875000D01*
G75*
G02*
X124200000Y-164937500I0J-62500D01*
G01*
X124200000Y-165062500D01*
G75*
G02*
X124137500Y-165125000I-62500J0D01*
G01*
X123462500Y-165125000D01*
G75*
G02*
X123400000Y-165062500I0J62500D01*
G01*
G37*
G36*
G01*
X123400000Y-164562500D02*
X123400000Y-164437500D01*
G75*
G02*
X123462500Y-164375000I62500J0D01*
G01*
X124137500Y-164375000D01*
G75*
G02*
X124200000Y-164437500I0J-62500D01*
G01*
X124200000Y-164562500D01*
G75*
G02*
X124137500Y-164625000I-62500J0D01*
G01*
X123462500Y-164625000D01*
G75*
G02*
X123400000Y-164562500I0J62500D01*
G01*
G37*
%TD*%
%TO.C,C40*%
G36*
G01*
X35250000Y-149500000D02*
X37250000Y-149500000D01*
G75*
G02*
X37500000Y-149750000I0J-250000D01*
G01*
X37500000Y-153650000D01*
G75*
G02*
X37250000Y-153900000I-250000J0D01*
G01*
X35250000Y-153900000D01*
G75*
G02*
X35000000Y-153650000I0J250000D01*
G01*
X35000000Y-149750000D01*
G75*
G02*
X35250000Y-149500000I250000J0D01*
G01*
G37*
G36*
G01*
X35250000Y-142100000D02*
X37250000Y-142100000D01*
G75*
G02*
X37500000Y-142350000I0J-250000D01*
G01*
X37500000Y-146250000D01*
G75*
G02*
X37250000Y-146500000I-250000J0D01*
G01*
X35250000Y-146500000D01*
G75*
G02*
X35000000Y-146250000I0J250000D01*
G01*
X35000000Y-142350000D01*
G75*
G02*
X35250000Y-142100000I250000J0D01*
G01*
G37*
%TD*%
D15*
%TO.C,J4*%
X138500000Y-110080000D03*
X138500000Y-107540000D03*
D16*
X138500000Y-105000000D03*
%TD*%
D17*
%TO.C,J5*%
X128990000Y-185146000D03*
X120340000Y-185146000D03*
D18*
X128990000Y-181766000D03*
X120340000Y-181766000D03*
D19*
X125090000Y-182136000D03*
X127640000Y-182136000D03*
X126790000Y-182136000D03*
X125940000Y-182136000D03*
X121690000Y-182136000D03*
X123390000Y-182136000D03*
X124240000Y-182136000D03*
X122540000Y-182136000D03*
X127640000Y-180786000D03*
X126790000Y-180786000D03*
X125940000Y-180786000D03*
X125090000Y-180786000D03*
X124240000Y-180786000D03*
X123390000Y-180786000D03*
X122540000Y-180786000D03*
X121690000Y-180786000D03*
%TD*%
D20*
%TO.C,H6*%
X36697056Y-48302944D03*
X35000000Y-47600000D03*
X33302944Y-48302944D03*
X32600000Y-50000000D03*
X33302944Y-51697056D03*
X35000000Y-52400000D03*
X36697056Y-51697056D03*
X37400000Y-50000000D03*
D21*
X35000000Y-50000000D03*
%TD*%
D20*
%TO.C,H5*%
X141697056Y-48302944D03*
X140000000Y-47600000D03*
X138302944Y-48302944D03*
X137600000Y-50000000D03*
X138302944Y-51697056D03*
X140000000Y-52400000D03*
X141697056Y-51697056D03*
X142400000Y-50000000D03*
D21*
X140000000Y-50000000D03*
%TD*%
D22*
%TO.C,TP4*%
X126000000Y-138000000D03*
%TD*%
%TO.C,TP3*%
X34750000Y-160250000D03*
%TD*%
%TO.C,TP2*%
X74000000Y-72500000D03*
%TD*%
%TO.C,TP1*%
X131000000Y-54500000D03*
%TD*%
%TO.C,RV2*%
G36*
G01*
X54600000Y-126025000D02*
X54600000Y-125075000D01*
G75*
G02*
X54925000Y-124750000I325000J0D01*
G01*
X55575000Y-124750000D01*
G75*
G02*
X55900000Y-125075000I0J-325000D01*
G01*
X55900000Y-126025000D01*
G75*
G02*
X55575000Y-126350000I-325000J0D01*
G01*
X54925000Y-126350000D01*
G75*
G02*
X54600000Y-126025000I0J325000D01*
G01*
G37*
G36*
G01*
X55500000Y-128850000D02*
X55500000Y-128050000D01*
G75*
G02*
X55900000Y-127650000I400000J0D01*
G01*
X57100000Y-127650000D01*
G75*
G02*
X57500000Y-128050000I0J-400000D01*
G01*
X57500000Y-128850000D01*
G75*
G02*
X57100000Y-129250000I-400000J0D01*
G01*
X55900000Y-129250000D01*
G75*
G02*
X55500000Y-128850000I0J400000D01*
G01*
G37*
G36*
G01*
X57100000Y-126025000D02*
X57100000Y-125075000D01*
G75*
G02*
X57425000Y-124750000I325000J0D01*
G01*
X58075000Y-124750000D01*
G75*
G02*
X58400000Y-125075000I0J-325000D01*
G01*
X58400000Y-126025000D01*
G75*
G02*
X58075000Y-126350000I-325000J0D01*
G01*
X57425000Y-126350000D01*
G75*
G02*
X57100000Y-126025000I0J325000D01*
G01*
G37*
%TD*%
%TO.C,R43*%
G36*
G01*
X109392500Y-131351000D02*
X109867500Y-131351000D01*
G75*
G02*
X110105000Y-131588500I0J-237500D01*
G01*
X110105000Y-132088500D01*
G75*
G02*
X109867500Y-132326000I-237500J0D01*
G01*
X109392500Y-132326000D01*
G75*
G02*
X109155000Y-132088500I0J237500D01*
G01*
X109155000Y-131588500D01*
G75*
G02*
X109392500Y-131351000I237500J0D01*
G01*
G37*
G36*
G01*
X109392500Y-129526000D02*
X109867500Y-129526000D01*
G75*
G02*
X110105000Y-129763500I0J-237500D01*
G01*
X110105000Y-130263500D01*
G75*
G02*
X109867500Y-130501000I-237500J0D01*
G01*
X109392500Y-130501000D01*
G75*
G02*
X109155000Y-130263500I0J237500D01*
G01*
X109155000Y-129763500D01*
G75*
G02*
X109392500Y-129526000I237500J0D01*
G01*
G37*
%TD*%
%TO.C,R42*%
G36*
G01*
X106411000Y-131958500D02*
X106411000Y-132433500D01*
G75*
G02*
X106173500Y-132671000I-237500J0D01*
G01*
X105673500Y-132671000D01*
G75*
G02*
X105436000Y-132433500I0J237500D01*
G01*
X105436000Y-131958500D01*
G75*
G02*
X105673500Y-131721000I237500J0D01*
G01*
X106173500Y-131721000D01*
G75*
G02*
X106411000Y-131958500I0J-237500D01*
G01*
G37*
G36*
G01*
X108236000Y-131958500D02*
X108236000Y-132433500D01*
G75*
G02*
X107998500Y-132671000I-237500J0D01*
G01*
X107498500Y-132671000D01*
G75*
G02*
X107261000Y-132433500I0J237500D01*
G01*
X107261000Y-131958500D01*
G75*
G02*
X107498500Y-131721000I237500J0D01*
G01*
X107998500Y-131721000D01*
G75*
G02*
X108236000Y-131958500I0J-237500D01*
G01*
G37*
%TD*%
%TO.C,R41*%
G36*
G01*
X125425000Y-121237500D02*
X125425000Y-120762500D01*
G75*
G02*
X125662500Y-120525000I237500J0D01*
G01*
X126162500Y-120525000D01*
G75*
G02*
X126400000Y-120762500I0J-237500D01*
G01*
X126400000Y-121237500D01*
G75*
G02*
X126162500Y-121475000I-237500J0D01*
G01*
X125662500Y-121475000D01*
G75*
G02*
X125425000Y-121237500I0J237500D01*
G01*
G37*
G36*
G01*
X123600000Y-121237500D02*
X123600000Y-120762500D01*
G75*
G02*
X123837500Y-120525000I237500J0D01*
G01*
X124337500Y-120525000D01*
G75*
G02*
X124575000Y-120762500I0J-237500D01*
G01*
X124575000Y-121237500D01*
G75*
G02*
X124337500Y-121475000I-237500J0D01*
G01*
X123837500Y-121475000D01*
G75*
G02*
X123600000Y-121237500I0J237500D01*
G01*
G37*
%TD*%
%TO.C,R40*%
G36*
G01*
X106075000Y-81762500D02*
X106075000Y-82237500D01*
G75*
G02*
X105837500Y-82475000I-237500J0D01*
G01*
X105337500Y-82475000D01*
G75*
G02*
X105100000Y-82237500I0J237500D01*
G01*
X105100000Y-81762500D01*
G75*
G02*
X105337500Y-81525000I237500J0D01*
G01*
X105837500Y-81525000D01*
G75*
G02*
X106075000Y-81762500I0J-237500D01*
G01*
G37*
G36*
G01*
X107900000Y-81762500D02*
X107900000Y-82237500D01*
G75*
G02*
X107662500Y-82475000I-237500J0D01*
G01*
X107162500Y-82475000D01*
G75*
G02*
X106925000Y-82237500I0J237500D01*
G01*
X106925000Y-81762500D01*
G75*
G02*
X107162500Y-81525000I237500J0D01*
G01*
X107662500Y-81525000D01*
G75*
G02*
X107900000Y-81762500I0J-237500D01*
G01*
G37*
%TD*%
%TO.C,R39*%
G36*
G01*
X106925000Y-80237500D02*
X106925000Y-79762500D01*
G75*
G02*
X107162500Y-79525000I237500J0D01*
G01*
X107662500Y-79525000D01*
G75*
G02*
X107900000Y-79762500I0J-237500D01*
G01*
X107900000Y-80237500D01*
G75*
G02*
X107662500Y-80475000I-237500J0D01*
G01*
X107162500Y-80475000D01*
G75*
G02*
X106925000Y-80237500I0J237500D01*
G01*
G37*
G36*
G01*
X105100000Y-80237500D02*
X105100000Y-79762500D01*
G75*
G02*
X105337500Y-79525000I237500J0D01*
G01*
X105837500Y-79525000D01*
G75*
G02*
X106075000Y-79762500I0J-237500D01*
G01*
X106075000Y-80237500D01*
G75*
G02*
X105837500Y-80475000I-237500J0D01*
G01*
X105337500Y-80475000D01*
G75*
G02*
X105100000Y-80237500I0J237500D01*
G01*
G37*
%TD*%
%TO.C,R38*%
G36*
G01*
X56925000Y-121737500D02*
X56925000Y-121262500D01*
G75*
G02*
X57162500Y-121025000I237500J0D01*
G01*
X57662500Y-121025000D01*
G75*
G02*
X57900000Y-121262500I0J-237500D01*
G01*
X57900000Y-121737500D01*
G75*
G02*
X57662500Y-121975000I-237500J0D01*
G01*
X57162500Y-121975000D01*
G75*
G02*
X56925000Y-121737500I0J237500D01*
G01*
G37*
G36*
G01*
X55100000Y-121737500D02*
X55100000Y-121262500D01*
G75*
G02*
X55337500Y-121025000I237500J0D01*
G01*
X55837500Y-121025000D01*
G75*
G02*
X56075000Y-121262500I0J-237500D01*
G01*
X56075000Y-121737500D01*
G75*
G02*
X55837500Y-121975000I-237500J0D01*
G01*
X55337500Y-121975000D01*
G75*
G02*
X55100000Y-121737500I0J237500D01*
G01*
G37*
%TD*%
%TO.C,R37*%
G36*
G01*
X120425000Y-77737500D02*
X120425000Y-77262500D01*
G75*
G02*
X120662500Y-77025000I237500J0D01*
G01*
X121162500Y-77025000D01*
G75*
G02*
X121400000Y-77262500I0J-237500D01*
G01*
X121400000Y-77737500D01*
G75*
G02*
X121162500Y-77975000I-237500J0D01*
G01*
X120662500Y-77975000D01*
G75*
G02*
X120425000Y-77737500I0J237500D01*
G01*
G37*
G36*
G01*
X118600000Y-77737500D02*
X118600000Y-77262500D01*
G75*
G02*
X118837500Y-77025000I237500J0D01*
G01*
X119337500Y-77025000D01*
G75*
G02*
X119575000Y-77262500I0J-237500D01*
G01*
X119575000Y-77737500D01*
G75*
G02*
X119337500Y-77975000I-237500J0D01*
G01*
X118837500Y-77975000D01*
G75*
G02*
X118600000Y-77737500I0J237500D01*
G01*
G37*
%TD*%
%TO.C,R36*%
G36*
G01*
X120425000Y-75737500D02*
X120425000Y-75262500D01*
G75*
G02*
X120662500Y-75025000I237500J0D01*
G01*
X121162500Y-75025000D01*
G75*
G02*
X121400000Y-75262500I0J-237500D01*
G01*
X121400000Y-75737500D01*
G75*
G02*
X121162500Y-75975000I-237500J0D01*
G01*
X120662500Y-75975000D01*
G75*
G02*
X120425000Y-75737500I0J237500D01*
G01*
G37*
G36*
G01*
X118600000Y-75737500D02*
X118600000Y-75262500D01*
G75*
G02*
X118837500Y-75025000I237500J0D01*
G01*
X119337500Y-75025000D01*
G75*
G02*
X119575000Y-75262500I0J-237500D01*
G01*
X119575000Y-75737500D01*
G75*
G02*
X119337500Y-75975000I-237500J0D01*
G01*
X118837500Y-75975000D01*
G75*
G02*
X118600000Y-75737500I0J237500D01*
G01*
G37*
%TD*%
%TO.C,R35*%
G36*
G01*
X106075000Y-75762500D02*
X106075000Y-76237500D01*
G75*
G02*
X105837500Y-76475000I-237500J0D01*
G01*
X105337500Y-76475000D01*
G75*
G02*
X105100000Y-76237500I0J237500D01*
G01*
X105100000Y-75762500D01*
G75*
G02*
X105337500Y-75525000I237500J0D01*
G01*
X105837500Y-75525000D01*
G75*
G02*
X106075000Y-75762500I0J-237500D01*
G01*
G37*
G36*
G01*
X107900000Y-75762500D02*
X107900000Y-76237500D01*
G75*
G02*
X107662500Y-76475000I-237500J0D01*
G01*
X107162500Y-76475000D01*
G75*
G02*
X106925000Y-76237500I0J237500D01*
G01*
X106925000Y-75762500D01*
G75*
G02*
X107162500Y-75525000I237500J0D01*
G01*
X107662500Y-75525000D01*
G75*
G02*
X107900000Y-75762500I0J-237500D01*
G01*
G37*
%TD*%
%TO.C,R34*%
G36*
G01*
X106925000Y-78237500D02*
X106925000Y-77762500D01*
G75*
G02*
X107162500Y-77525000I237500J0D01*
G01*
X107662500Y-77525000D01*
G75*
G02*
X107900000Y-77762500I0J-237500D01*
G01*
X107900000Y-78237500D01*
G75*
G02*
X107662500Y-78475000I-237500J0D01*
G01*
X107162500Y-78475000D01*
G75*
G02*
X106925000Y-78237500I0J237500D01*
G01*
G37*
G36*
G01*
X105100000Y-78237500D02*
X105100000Y-77762500D01*
G75*
G02*
X105337500Y-77525000I237500J0D01*
G01*
X105837500Y-77525000D01*
G75*
G02*
X106075000Y-77762500I0J-237500D01*
G01*
X106075000Y-78237500D01*
G75*
G02*
X105837500Y-78475000I-237500J0D01*
G01*
X105337500Y-78475000D01*
G75*
G02*
X105100000Y-78237500I0J237500D01*
G01*
G37*
%TD*%
%TO.C,R33*%
G36*
G01*
X113925000Y-77737500D02*
X113925000Y-77262500D01*
G75*
G02*
X114162500Y-77025000I237500J0D01*
G01*
X114662500Y-77025000D01*
G75*
G02*
X114900000Y-77262500I0J-237500D01*
G01*
X114900000Y-77737500D01*
G75*
G02*
X114662500Y-77975000I-237500J0D01*
G01*
X114162500Y-77975000D01*
G75*
G02*
X113925000Y-77737500I0J237500D01*
G01*
G37*
G36*
G01*
X112100000Y-77737500D02*
X112100000Y-77262500D01*
G75*
G02*
X112337500Y-77025000I237500J0D01*
G01*
X112837500Y-77025000D01*
G75*
G02*
X113075000Y-77262500I0J-237500D01*
G01*
X113075000Y-77737500D01*
G75*
G02*
X112837500Y-77975000I-237500J0D01*
G01*
X112337500Y-77975000D01*
G75*
G02*
X112100000Y-77737500I0J237500D01*
G01*
G37*
%TD*%
%TO.C,R32*%
G36*
G01*
X113925000Y-75737500D02*
X113925000Y-75262500D01*
G75*
G02*
X114162500Y-75025000I237500J0D01*
G01*
X114662500Y-75025000D01*
G75*
G02*
X114900000Y-75262500I0J-237500D01*
G01*
X114900000Y-75737500D01*
G75*
G02*
X114662500Y-75975000I-237500J0D01*
G01*
X114162500Y-75975000D01*
G75*
G02*
X113925000Y-75737500I0J237500D01*
G01*
G37*
G36*
G01*
X112100000Y-75737500D02*
X112100000Y-75262500D01*
G75*
G02*
X112337500Y-75025000I237500J0D01*
G01*
X112837500Y-75025000D01*
G75*
G02*
X113075000Y-75262500I0J-237500D01*
G01*
X113075000Y-75737500D01*
G75*
G02*
X112837500Y-75975000I-237500J0D01*
G01*
X112337500Y-75975000D01*
G75*
G02*
X112100000Y-75737500I0J237500D01*
G01*
G37*
%TD*%
D23*
%TO.C,Q8*%
X106836000Y-127386000D03*
X107786000Y-129386000D03*
X105886000Y-129386000D03*
%TD*%
%TO.C,Q7*%
X120000000Y-79500000D03*
X120950000Y-81500000D03*
X119050000Y-81500000D03*
%TD*%
D24*
%TO.C,Q6*%
X118920000Y-54000000D03*
X121460000Y-54000000D03*
D25*
X124000000Y-54000000D03*
D26*
X121460000Y-70660000D03*
%TD*%
D23*
%TO.C,Q5*%
X113500000Y-79500000D03*
X114450000Y-81500000D03*
X112550000Y-81500000D03*
%TD*%
D24*
%TO.C,Q4*%
X108220000Y-54000000D03*
X110760000Y-54000000D03*
D25*
X113300000Y-54000000D03*
D26*
X110760000Y-70660000D03*
%TD*%
D15*
%TO.C,J11*%
X124540000Y-50500000D03*
D16*
X122000000Y-50500000D03*
%TD*%
D11*
%TO.C,J10*%
X33960000Y-90660000D03*
X33960000Y-88120000D03*
X33960000Y-85580000D03*
X33960000Y-83040000D03*
X33960000Y-80500000D03*
X36500000Y-90660000D03*
X36500000Y-88120000D03*
X36500000Y-85580000D03*
X36500000Y-83040000D03*
G36*
G01*
X37350000Y-79900000D02*
X37350000Y-81100000D01*
G75*
G02*
X37100000Y-81350000I-250000J0D01*
G01*
X35900000Y-81350000D01*
G75*
G02*
X35650000Y-81100000I0J250000D01*
G01*
X35650000Y-79900000D01*
G75*
G02*
X35900000Y-79650000I250000J0D01*
G01*
X37100000Y-79650000D01*
G75*
G02*
X37350000Y-79900000I0J-250000D01*
G01*
G37*
%TD*%
D15*
%TO.C,J9*%
X113840000Y-50500000D03*
D16*
X111300000Y-50500000D03*
%TD*%
D27*
%TO.C,D10*%
X134652000Y-121048000D03*
X135602000Y-121048000D03*
X133702000Y-121048000D03*
X133702000Y-118348000D03*
X134652000Y-118348000D03*
X135602000Y-118348000D03*
%TD*%
%TO.C,C52*%
G36*
G01*
X132095500Y-120389000D02*
X131620500Y-120389000D01*
G75*
G02*
X131383000Y-120151500I0J237500D01*
G01*
X131383000Y-119551500D01*
G75*
G02*
X131620500Y-119314000I237500J0D01*
G01*
X132095500Y-119314000D01*
G75*
G02*
X132333000Y-119551500I0J-237500D01*
G01*
X132333000Y-120151500D01*
G75*
G02*
X132095500Y-120389000I-237500J0D01*
G01*
G37*
G36*
G01*
X132095500Y-122114000D02*
X131620500Y-122114000D01*
G75*
G02*
X131383000Y-121876500I0J237500D01*
G01*
X131383000Y-121276500D01*
G75*
G02*
X131620500Y-121039000I237500J0D01*
G01*
X132095500Y-121039000D01*
G75*
G02*
X132333000Y-121276500I0J-237500D01*
G01*
X132333000Y-121876500D01*
G75*
G02*
X132095500Y-122114000I-237500J0D01*
G01*
G37*
%TD*%
%TO.C,C51*%
G36*
G01*
X56175000Y-123262500D02*
X56175000Y-123737500D01*
G75*
G02*
X55937500Y-123975000I-237500J0D01*
G01*
X55337500Y-123975000D01*
G75*
G02*
X55100000Y-123737500I0J237500D01*
G01*
X55100000Y-123262500D01*
G75*
G02*
X55337500Y-123025000I237500J0D01*
G01*
X55937500Y-123025000D01*
G75*
G02*
X56175000Y-123262500I0J-237500D01*
G01*
G37*
G36*
G01*
X57900000Y-123262500D02*
X57900000Y-123737500D01*
G75*
G02*
X57662500Y-123975000I-237500J0D01*
G01*
X57062500Y-123975000D01*
G75*
G02*
X56825000Y-123737500I0J237500D01*
G01*
X56825000Y-123262500D01*
G75*
G02*
X57062500Y-123025000I237500J0D01*
G01*
X57662500Y-123025000D01*
G75*
G02*
X57900000Y-123262500I0J-237500D01*
G01*
G37*
%TD*%
D28*
%TO.C,BZ1*%
X109650000Y-122290000D03*
D29*
X117250000Y-122290000D03*
%TD*%
%TO.C,L4*%
G36*
G01*
X134568000Y-106336000D02*
X134568000Y-105436000D01*
G75*
G02*
X134618000Y-105386000I50000J0D01*
G01*
X135668000Y-105386000D01*
G75*
G02*
X135718000Y-105436000I0J-50000D01*
G01*
X135718000Y-106336000D01*
G75*
G02*
X135668000Y-106386000I-50000J0D01*
G01*
X134618000Y-106386000D01*
G75*
G02*
X134568000Y-106336000I0J50000D01*
G01*
G37*
G36*
G01*
X134568000Y-110016000D02*
X134568000Y-109116000D01*
G75*
G02*
X134618000Y-109066000I50000J0D01*
G01*
X135668000Y-109066000D01*
G75*
G02*
X135718000Y-109116000I0J-50000D01*
G01*
X135718000Y-110016000D01*
G75*
G02*
X135668000Y-110066000I-50000J0D01*
G01*
X134618000Y-110066000D01*
G75*
G02*
X134568000Y-110016000I0J50000D01*
G01*
G37*
G36*
G01*
X132838000Y-110016000D02*
X132838000Y-109116000D01*
G75*
G02*
X132888000Y-109066000I50000J0D01*
G01*
X133938000Y-109066000D01*
G75*
G02*
X133988000Y-109116000I0J-50000D01*
G01*
X133988000Y-110016000D01*
G75*
G02*
X133938000Y-110066000I-50000J0D01*
G01*
X132888000Y-110066000D01*
G75*
G02*
X132838000Y-110016000I0J50000D01*
G01*
G37*
G36*
G01*
X132838000Y-106336000D02*
X132838000Y-105436000D01*
G75*
G02*
X132888000Y-105386000I50000J0D01*
G01*
X133938000Y-105386000D01*
G75*
G02*
X133988000Y-105436000I0J-50000D01*
G01*
X133988000Y-106336000D01*
G75*
G02*
X133938000Y-106386000I-50000J0D01*
G01*
X132888000Y-106386000D01*
G75*
G02*
X132838000Y-106336000I0J50000D01*
G01*
G37*
%TD*%
D30*
%TO.C,Y1*%
X75346000Y-119052000D03*
X74146000Y-119052000D03*
X72946000Y-119052000D03*
%TD*%
%TO.C,U13*%
G36*
G01*
X130031000Y-76726000D02*
X129731000Y-76726000D01*
G75*
G02*
X129581000Y-76576000I0J150000D01*
G01*
X129581000Y-74926000D01*
G75*
G02*
X129731000Y-74776000I150000J0D01*
G01*
X130031000Y-74776000D01*
G75*
G02*
X130181000Y-74926000I0J-150000D01*
G01*
X130181000Y-76576000D01*
G75*
G02*
X130031000Y-76726000I-150000J0D01*
G01*
G37*
G36*
G01*
X131301000Y-76726000D02*
X131001000Y-76726000D01*
G75*
G02*
X130851000Y-76576000I0J150000D01*
G01*
X130851000Y-74926000D01*
G75*
G02*
X131001000Y-74776000I150000J0D01*
G01*
X131301000Y-74776000D01*
G75*
G02*
X131451000Y-74926000I0J-150000D01*
G01*
X131451000Y-76576000D01*
G75*
G02*
X131301000Y-76726000I-150000J0D01*
G01*
G37*
G36*
G01*
X132571000Y-76726000D02*
X132271000Y-76726000D01*
G75*
G02*
X132121000Y-76576000I0J150000D01*
G01*
X132121000Y-74926000D01*
G75*
G02*
X132271000Y-74776000I150000J0D01*
G01*
X132571000Y-74776000D01*
G75*
G02*
X132721000Y-74926000I0J-150000D01*
G01*
X132721000Y-76576000D01*
G75*
G02*
X132571000Y-76726000I-150000J0D01*
G01*
G37*
G36*
G01*
X133841000Y-76726000D02*
X133541000Y-76726000D01*
G75*
G02*
X133391000Y-76576000I0J150000D01*
G01*
X133391000Y-74926000D01*
G75*
G02*
X133541000Y-74776000I150000J0D01*
G01*
X133841000Y-74776000D01*
G75*
G02*
X133991000Y-74926000I0J-150000D01*
G01*
X133991000Y-76576000D01*
G75*
G02*
X133841000Y-76726000I-150000J0D01*
G01*
G37*
G36*
G01*
X133841000Y-81676000D02*
X133541000Y-81676000D01*
G75*
G02*
X133391000Y-81526000I0J150000D01*
G01*
X133391000Y-79876000D01*
G75*
G02*
X133541000Y-79726000I150000J0D01*
G01*
X133841000Y-79726000D01*
G75*
G02*
X133991000Y-79876000I0J-150000D01*
G01*
X133991000Y-81526000D01*
G75*
G02*
X133841000Y-81676000I-150000J0D01*
G01*
G37*
G36*
G01*
X132571000Y-81676000D02*
X132271000Y-81676000D01*
G75*
G02*
X132121000Y-81526000I0J150000D01*
G01*
X132121000Y-79876000D01*
G75*
G02*
X132271000Y-79726000I150000J0D01*
G01*
X132571000Y-79726000D01*
G75*
G02*
X132721000Y-79876000I0J-150000D01*
G01*
X132721000Y-81526000D01*
G75*
G02*
X132571000Y-81676000I-150000J0D01*
G01*
G37*
G36*
G01*
X131301000Y-81676000D02*
X131001000Y-81676000D01*
G75*
G02*
X130851000Y-81526000I0J150000D01*
G01*
X130851000Y-79876000D01*
G75*
G02*
X131001000Y-79726000I150000J0D01*
G01*
X131301000Y-79726000D01*
G75*
G02*
X131451000Y-79876000I0J-150000D01*
G01*
X131451000Y-81526000D01*
G75*
G02*
X131301000Y-81676000I-150000J0D01*
G01*
G37*
G36*
G01*
X130031000Y-81676000D02*
X129731000Y-81676000D01*
G75*
G02*
X129581000Y-81526000I0J150000D01*
G01*
X129581000Y-79876000D01*
G75*
G02*
X129731000Y-79726000I150000J0D01*
G01*
X130031000Y-79726000D01*
G75*
G02*
X130181000Y-79876000I0J-150000D01*
G01*
X130181000Y-81526000D01*
G75*
G02*
X130031000Y-81676000I-150000J0D01*
G01*
G37*
%TD*%
%TO.C,U12*%
G36*
G01*
X119497000Y-94904000D02*
X119197000Y-94904000D01*
G75*
G02*
X119047000Y-94754000I0J150000D01*
G01*
X119047000Y-93104000D01*
G75*
G02*
X119197000Y-92954000I150000J0D01*
G01*
X119497000Y-92954000D01*
G75*
G02*
X119647000Y-93104000I0J-150000D01*
G01*
X119647000Y-94754000D01*
G75*
G02*
X119497000Y-94904000I-150000J0D01*
G01*
G37*
G36*
G01*
X120767000Y-94904000D02*
X120467000Y-94904000D01*
G75*
G02*
X120317000Y-94754000I0J150000D01*
G01*
X120317000Y-93104000D01*
G75*
G02*
X120467000Y-92954000I150000J0D01*
G01*
X120767000Y-92954000D01*
G75*
G02*
X120917000Y-93104000I0J-150000D01*
G01*
X120917000Y-94754000D01*
G75*
G02*
X120767000Y-94904000I-150000J0D01*
G01*
G37*
G36*
G01*
X122037000Y-94904000D02*
X121737000Y-94904000D01*
G75*
G02*
X121587000Y-94754000I0J150000D01*
G01*
X121587000Y-93104000D01*
G75*
G02*
X121737000Y-92954000I150000J0D01*
G01*
X122037000Y-92954000D01*
G75*
G02*
X122187000Y-93104000I0J-150000D01*
G01*
X122187000Y-94754000D01*
G75*
G02*
X122037000Y-94904000I-150000J0D01*
G01*
G37*
G36*
G01*
X123307000Y-94904000D02*
X123007000Y-94904000D01*
G75*
G02*
X122857000Y-94754000I0J150000D01*
G01*
X122857000Y-93104000D01*
G75*
G02*
X123007000Y-92954000I150000J0D01*
G01*
X123307000Y-92954000D01*
G75*
G02*
X123457000Y-93104000I0J-150000D01*
G01*
X123457000Y-94754000D01*
G75*
G02*
X123307000Y-94904000I-150000J0D01*
G01*
G37*
G36*
G01*
X123307000Y-99854000D02*
X123007000Y-99854000D01*
G75*
G02*
X122857000Y-99704000I0J150000D01*
G01*
X122857000Y-98054000D01*
G75*
G02*
X123007000Y-97904000I150000J0D01*
G01*
X123307000Y-97904000D01*
G75*
G02*
X123457000Y-98054000I0J-150000D01*
G01*
X123457000Y-99704000D01*
G75*
G02*
X123307000Y-99854000I-150000J0D01*
G01*
G37*
G36*
G01*
X122037000Y-99854000D02*
X121737000Y-99854000D01*
G75*
G02*
X121587000Y-99704000I0J150000D01*
G01*
X121587000Y-98054000D01*
G75*
G02*
X121737000Y-97904000I150000J0D01*
G01*
X122037000Y-97904000D01*
G75*
G02*
X122187000Y-98054000I0J-150000D01*
G01*
X122187000Y-99704000D01*
G75*
G02*
X122037000Y-99854000I-150000J0D01*
G01*
G37*
G36*
G01*
X120767000Y-99854000D02*
X120467000Y-99854000D01*
G75*
G02*
X120317000Y-99704000I0J150000D01*
G01*
X120317000Y-98054000D01*
G75*
G02*
X120467000Y-97904000I150000J0D01*
G01*
X120767000Y-97904000D01*
G75*
G02*
X120917000Y-98054000I0J-150000D01*
G01*
X120917000Y-99704000D01*
G75*
G02*
X120767000Y-99854000I-150000J0D01*
G01*
G37*
G36*
G01*
X119497000Y-99854000D02*
X119197000Y-99854000D01*
G75*
G02*
X119047000Y-99704000I0J150000D01*
G01*
X119047000Y-98054000D01*
G75*
G02*
X119197000Y-97904000I150000J0D01*
G01*
X119497000Y-97904000D01*
G75*
G02*
X119647000Y-98054000I0J-150000D01*
G01*
X119647000Y-99704000D01*
G75*
G02*
X119497000Y-99854000I-150000J0D01*
G01*
G37*
%TD*%
D31*
%TO.C,U10*%
X97936000Y-166106000D03*
X97936000Y-137106000D03*
X46436000Y-166106000D03*
X46436000Y-137106000D03*
D32*
X46436000Y-160496000D03*
X46436000Y-157956000D03*
X46436000Y-155416000D03*
X46436000Y-152876000D03*
X46436000Y-150336000D03*
X46436000Y-147796000D03*
X46436000Y-145256000D03*
G36*
G01*
X45536000Y-143166000D02*
X45536000Y-142266000D01*
G75*
G02*
X45986000Y-141816000I450000J0D01*
G01*
X46886000Y-141816000D01*
G75*
G02*
X47336000Y-142266000I0J-450000D01*
G01*
X47336000Y-143166000D01*
G75*
G02*
X46886000Y-143616000I-450000J0D01*
G01*
X45986000Y-143616000D01*
G75*
G02*
X45536000Y-143166000I0J450000D01*
G01*
G37*
%TD*%
%TO.C,U9*%
G36*
G01*
X59366000Y-138929000D02*
X59366000Y-138629000D01*
G75*
G02*
X59516000Y-138479000I150000J0D01*
G01*
X61166000Y-138479000D01*
G75*
G02*
X61316000Y-138629000I0J-150000D01*
G01*
X61316000Y-138929000D01*
G75*
G02*
X61166000Y-139079000I-150000J0D01*
G01*
X59516000Y-139079000D01*
G75*
G02*
X59366000Y-138929000I0J150000D01*
G01*
G37*
G36*
G01*
X59366000Y-140199000D02*
X59366000Y-139899000D01*
G75*
G02*
X59516000Y-139749000I150000J0D01*
G01*
X61166000Y-139749000D01*
G75*
G02*
X61316000Y-139899000I0J-150000D01*
G01*
X61316000Y-140199000D01*
G75*
G02*
X61166000Y-140349000I-150000J0D01*
G01*
X59516000Y-140349000D01*
G75*
G02*
X59366000Y-140199000I0J150000D01*
G01*
G37*
G36*
G01*
X59366000Y-141469000D02*
X59366000Y-141169000D01*
G75*
G02*
X59516000Y-141019000I150000J0D01*
G01*
X61166000Y-141019000D01*
G75*
G02*
X61316000Y-141169000I0J-150000D01*
G01*
X61316000Y-141469000D01*
G75*
G02*
X61166000Y-141619000I-150000J0D01*
G01*
X59516000Y-141619000D01*
G75*
G02*
X59366000Y-141469000I0J150000D01*
G01*
G37*
G36*
G01*
X59366000Y-142739000D02*
X59366000Y-142439000D01*
G75*
G02*
X59516000Y-142289000I150000J0D01*
G01*
X61166000Y-142289000D01*
G75*
G02*
X61316000Y-142439000I0J-150000D01*
G01*
X61316000Y-142739000D01*
G75*
G02*
X61166000Y-142889000I-150000J0D01*
G01*
X59516000Y-142889000D01*
G75*
G02*
X59366000Y-142739000I0J150000D01*
G01*
G37*
G36*
G01*
X54416000Y-142739000D02*
X54416000Y-142439000D01*
G75*
G02*
X54566000Y-142289000I150000J0D01*
G01*
X56216000Y-142289000D01*
G75*
G02*
X56366000Y-142439000I0J-150000D01*
G01*
X56366000Y-142739000D01*
G75*
G02*
X56216000Y-142889000I-150000J0D01*
G01*
X54566000Y-142889000D01*
G75*
G02*
X54416000Y-142739000I0J150000D01*
G01*
G37*
G36*
G01*
X54416000Y-141469000D02*
X54416000Y-141169000D01*
G75*
G02*
X54566000Y-141019000I150000J0D01*
G01*
X56216000Y-141019000D01*
G75*
G02*
X56366000Y-141169000I0J-150000D01*
G01*
X56366000Y-141469000D01*
G75*
G02*
X56216000Y-141619000I-150000J0D01*
G01*
X54566000Y-141619000D01*
G75*
G02*
X54416000Y-141469000I0J150000D01*
G01*
G37*
G36*
G01*
X54416000Y-140199000D02*
X54416000Y-139899000D01*
G75*
G02*
X54566000Y-139749000I150000J0D01*
G01*
X56216000Y-139749000D01*
G75*
G02*
X56366000Y-139899000I0J-150000D01*
G01*
X56366000Y-140199000D01*
G75*
G02*
X56216000Y-140349000I-150000J0D01*
G01*
X54566000Y-140349000D01*
G75*
G02*
X54416000Y-140199000I0J150000D01*
G01*
G37*
G36*
G01*
X54416000Y-138929000D02*
X54416000Y-138629000D01*
G75*
G02*
X54566000Y-138479000I150000J0D01*
G01*
X56216000Y-138479000D01*
G75*
G02*
X56366000Y-138629000I0J-150000D01*
G01*
X56366000Y-138929000D01*
G75*
G02*
X56216000Y-139079000I-150000J0D01*
G01*
X54566000Y-139079000D01*
G75*
G02*
X54416000Y-138929000I0J150000D01*
G01*
G37*
%TD*%
%TO.C,U8*%
G36*
G01*
X57328000Y-148417000D02*
X57328000Y-148617000D01*
G75*
G02*
X57228000Y-148717000I-100000J0D01*
G01*
X55803000Y-148717000D01*
G75*
G02*
X55703000Y-148617000I0J100000D01*
G01*
X55703000Y-148417000D01*
G75*
G02*
X55803000Y-148317000I100000J0D01*
G01*
X57228000Y-148317000D01*
G75*
G02*
X57328000Y-148417000I0J-100000D01*
G01*
G37*
G36*
G01*
X57328000Y-147767000D02*
X57328000Y-147967000D01*
G75*
G02*
X57228000Y-148067000I-100000J0D01*
G01*
X55803000Y-148067000D01*
G75*
G02*
X55703000Y-147967000I0J100000D01*
G01*
X55703000Y-147767000D01*
G75*
G02*
X55803000Y-147667000I100000J0D01*
G01*
X57228000Y-147667000D01*
G75*
G02*
X57328000Y-147767000I0J-100000D01*
G01*
G37*
G36*
G01*
X57328000Y-147117000D02*
X57328000Y-147317000D01*
G75*
G02*
X57228000Y-147417000I-100000J0D01*
G01*
X55803000Y-147417000D01*
G75*
G02*
X55703000Y-147317000I0J100000D01*
G01*
X55703000Y-147117000D01*
G75*
G02*
X55803000Y-147017000I100000J0D01*
G01*
X57228000Y-147017000D01*
G75*
G02*
X57328000Y-147117000I0J-100000D01*
G01*
G37*
G36*
G01*
X57328000Y-146467000D02*
X57328000Y-146667000D01*
G75*
G02*
X57228000Y-146767000I-100000J0D01*
G01*
X55803000Y-146767000D01*
G75*
G02*
X55703000Y-146667000I0J100000D01*
G01*
X55703000Y-146467000D01*
G75*
G02*
X55803000Y-146367000I100000J0D01*
G01*
X57228000Y-146367000D01*
G75*
G02*
X57328000Y-146467000I0J-100000D01*
G01*
G37*
G36*
G01*
X61553000Y-146467000D02*
X61553000Y-146667000D01*
G75*
G02*
X61453000Y-146767000I-100000J0D01*
G01*
X60028000Y-146767000D01*
G75*
G02*
X59928000Y-146667000I0J100000D01*
G01*
X59928000Y-146467000D01*
G75*
G02*
X60028000Y-146367000I100000J0D01*
G01*
X61453000Y-146367000D01*
G75*
G02*
X61553000Y-146467000I0J-100000D01*
G01*
G37*
G36*
G01*
X61553000Y-147117000D02*
X61553000Y-147317000D01*
G75*
G02*
X61453000Y-147417000I-100000J0D01*
G01*
X60028000Y-147417000D01*
G75*
G02*
X59928000Y-147317000I0J100000D01*
G01*
X59928000Y-147117000D01*
G75*
G02*
X60028000Y-147017000I100000J0D01*
G01*
X61453000Y-147017000D01*
G75*
G02*
X61553000Y-147117000I0J-100000D01*
G01*
G37*
G36*
G01*
X61553000Y-147767000D02*
X61553000Y-147967000D01*
G75*
G02*
X61453000Y-148067000I-100000J0D01*
G01*
X60028000Y-148067000D01*
G75*
G02*
X59928000Y-147967000I0J100000D01*
G01*
X59928000Y-147767000D01*
G75*
G02*
X60028000Y-147667000I100000J0D01*
G01*
X61453000Y-147667000D01*
G75*
G02*
X61553000Y-147767000I0J-100000D01*
G01*
G37*
G36*
G01*
X61553000Y-148417000D02*
X61553000Y-148617000D01*
G75*
G02*
X61453000Y-148717000I-100000J0D01*
G01*
X60028000Y-148717000D01*
G75*
G02*
X59928000Y-148617000I0J100000D01*
G01*
X59928000Y-148417000D01*
G75*
G02*
X60028000Y-148317000I100000J0D01*
G01*
X61453000Y-148317000D01*
G75*
G02*
X61553000Y-148417000I0J-100000D01*
G01*
G37*
%TD*%
%TO.C,U7*%
G36*
G01*
X118760000Y-106225000D02*
X118760000Y-105925000D01*
G75*
G02*
X118910000Y-105775000I150000J0D01*
G01*
X120560000Y-105775000D01*
G75*
G02*
X120710000Y-105925000I0J-150000D01*
G01*
X120710000Y-106225000D01*
G75*
G02*
X120560000Y-106375000I-150000J0D01*
G01*
X118910000Y-106375000D01*
G75*
G02*
X118760000Y-106225000I0J150000D01*
G01*
G37*
G36*
G01*
X118760000Y-107495000D02*
X118760000Y-107195000D01*
G75*
G02*
X118910000Y-107045000I150000J0D01*
G01*
X120560000Y-107045000D01*
G75*
G02*
X120710000Y-107195000I0J-150000D01*
G01*
X120710000Y-107495000D01*
G75*
G02*
X120560000Y-107645000I-150000J0D01*
G01*
X118910000Y-107645000D01*
G75*
G02*
X118760000Y-107495000I0J150000D01*
G01*
G37*
G36*
G01*
X118760000Y-108765000D02*
X118760000Y-108465000D01*
G75*
G02*
X118910000Y-108315000I150000J0D01*
G01*
X120560000Y-108315000D01*
G75*
G02*
X120710000Y-108465000I0J-150000D01*
G01*
X120710000Y-108765000D01*
G75*
G02*
X120560000Y-108915000I-150000J0D01*
G01*
X118910000Y-108915000D01*
G75*
G02*
X118760000Y-108765000I0J150000D01*
G01*
G37*
G36*
G01*
X118760000Y-110035000D02*
X118760000Y-109735000D01*
G75*
G02*
X118910000Y-109585000I150000J0D01*
G01*
X120560000Y-109585000D01*
G75*
G02*
X120710000Y-109735000I0J-150000D01*
G01*
X120710000Y-110035000D01*
G75*
G02*
X120560000Y-110185000I-150000J0D01*
G01*
X118910000Y-110185000D01*
G75*
G02*
X118760000Y-110035000I0J150000D01*
G01*
G37*
G36*
G01*
X113810000Y-110035000D02*
X113810000Y-109735000D01*
G75*
G02*
X113960000Y-109585000I150000J0D01*
G01*
X115610000Y-109585000D01*
G75*
G02*
X115760000Y-109735000I0J-150000D01*
G01*
X115760000Y-110035000D01*
G75*
G02*
X115610000Y-110185000I-150000J0D01*
G01*
X113960000Y-110185000D01*
G75*
G02*
X113810000Y-110035000I0J150000D01*
G01*
G37*
G36*
G01*
X113810000Y-108765000D02*
X113810000Y-108465000D01*
G75*
G02*
X113960000Y-108315000I150000J0D01*
G01*
X115610000Y-108315000D01*
G75*
G02*
X115760000Y-108465000I0J-150000D01*
G01*
X115760000Y-108765000D01*
G75*
G02*
X115610000Y-108915000I-150000J0D01*
G01*
X113960000Y-108915000D01*
G75*
G02*
X113810000Y-108765000I0J150000D01*
G01*
G37*
G36*
G01*
X113810000Y-107495000D02*
X113810000Y-107195000D01*
G75*
G02*
X113960000Y-107045000I150000J0D01*
G01*
X115610000Y-107045000D01*
G75*
G02*
X115760000Y-107195000I0J-150000D01*
G01*
X115760000Y-107495000D01*
G75*
G02*
X115610000Y-107645000I-150000J0D01*
G01*
X113960000Y-107645000D01*
G75*
G02*
X113810000Y-107495000I0J150000D01*
G01*
G37*
G36*
G01*
X113810000Y-106225000D02*
X113810000Y-105925000D01*
G75*
G02*
X113960000Y-105775000I150000J0D01*
G01*
X115610000Y-105775000D01*
G75*
G02*
X115760000Y-105925000I0J-150000D01*
G01*
X115760000Y-106225000D01*
G75*
G02*
X115610000Y-106375000I-150000J0D01*
G01*
X113960000Y-106375000D01*
G75*
G02*
X113810000Y-106225000I0J150000D01*
G01*
G37*
%TD*%
%TO.C,U6*%
G36*
G01*
X67704000Y-107422000D02*
X66254000Y-107422000D01*
G75*
G02*
X66179000Y-107347000I0J75000D01*
G01*
X66179000Y-107197000D01*
G75*
G02*
X66254000Y-107122000I75000J0D01*
G01*
X67704000Y-107122000D01*
G75*
G02*
X67779000Y-107197000I0J-75000D01*
G01*
X67779000Y-107347000D01*
G75*
G02*
X67704000Y-107422000I-75000J0D01*
G01*
G37*
G36*
G01*
X67704000Y-106922000D02*
X66254000Y-106922000D01*
G75*
G02*
X66179000Y-106847000I0J75000D01*
G01*
X66179000Y-106697000D01*
G75*
G02*
X66254000Y-106622000I75000J0D01*
G01*
X67704000Y-106622000D01*
G75*
G02*
X67779000Y-106697000I0J-75000D01*
G01*
X67779000Y-106847000D01*
G75*
G02*
X67704000Y-106922000I-75000J0D01*
G01*
G37*
G36*
G01*
X67704000Y-106422000D02*
X66254000Y-106422000D01*
G75*
G02*
X66179000Y-106347000I0J75000D01*
G01*
X66179000Y-106197000D01*
G75*
G02*
X66254000Y-106122000I75000J0D01*
G01*
X67704000Y-106122000D01*
G75*
G02*
X67779000Y-106197000I0J-75000D01*
G01*
X67779000Y-106347000D01*
G75*
G02*
X67704000Y-106422000I-75000J0D01*
G01*
G37*
G36*
G01*
X67704000Y-105922000D02*
X66254000Y-105922000D01*
G75*
G02*
X66179000Y-105847000I0J75000D01*
G01*
X66179000Y-105697000D01*
G75*
G02*
X66254000Y-105622000I75000J0D01*
G01*
X67704000Y-105622000D01*
G75*
G02*
X67779000Y-105697000I0J-75000D01*
G01*
X67779000Y-105847000D01*
G75*
G02*
X67704000Y-105922000I-75000J0D01*
G01*
G37*
G36*
G01*
X67704000Y-105422000D02*
X66254000Y-105422000D01*
G75*
G02*
X66179000Y-105347000I0J75000D01*
G01*
X66179000Y-105197000D01*
G75*
G02*
X66254000Y-105122000I75000J0D01*
G01*
X67704000Y-105122000D01*
G75*
G02*
X67779000Y-105197000I0J-75000D01*
G01*
X67779000Y-105347000D01*
G75*
G02*
X67704000Y-105422000I-75000J0D01*
G01*
G37*
G36*
G01*
X67704000Y-104922000D02*
X66254000Y-104922000D01*
G75*
G02*
X66179000Y-104847000I0J75000D01*
G01*
X66179000Y-104697000D01*
G75*
G02*
X66254000Y-104622000I75000J0D01*
G01*
X67704000Y-104622000D01*
G75*
G02*
X67779000Y-104697000I0J-75000D01*
G01*
X67779000Y-104847000D01*
G75*
G02*
X67704000Y-104922000I-75000J0D01*
G01*
G37*
G36*
G01*
X67704000Y-104422000D02*
X66254000Y-104422000D01*
G75*
G02*
X66179000Y-104347000I0J75000D01*
G01*
X66179000Y-104197000D01*
G75*
G02*
X66254000Y-104122000I75000J0D01*
G01*
X67704000Y-104122000D01*
G75*
G02*
X67779000Y-104197000I0J-75000D01*
G01*
X67779000Y-104347000D01*
G75*
G02*
X67704000Y-104422000I-75000J0D01*
G01*
G37*
G36*
G01*
X67704000Y-103922000D02*
X66254000Y-103922000D01*
G75*
G02*
X66179000Y-103847000I0J75000D01*
G01*
X66179000Y-103697000D01*
G75*
G02*
X66254000Y-103622000I75000J0D01*
G01*
X67704000Y-103622000D01*
G75*
G02*
X67779000Y-103697000I0J-75000D01*
G01*
X67779000Y-103847000D01*
G75*
G02*
X67704000Y-103922000I-75000J0D01*
G01*
G37*
G36*
G01*
X67704000Y-103422000D02*
X66254000Y-103422000D01*
G75*
G02*
X66179000Y-103347000I0J75000D01*
G01*
X66179000Y-103197000D01*
G75*
G02*
X66254000Y-103122000I75000J0D01*
G01*
X67704000Y-103122000D01*
G75*
G02*
X67779000Y-103197000I0J-75000D01*
G01*
X67779000Y-103347000D01*
G75*
G02*
X67704000Y-103422000I-75000J0D01*
G01*
G37*
G36*
G01*
X67704000Y-102922000D02*
X66254000Y-102922000D01*
G75*
G02*
X66179000Y-102847000I0J75000D01*
G01*
X66179000Y-102697000D01*
G75*
G02*
X66254000Y-102622000I75000J0D01*
G01*
X67704000Y-102622000D01*
G75*
G02*
X67779000Y-102697000I0J-75000D01*
G01*
X67779000Y-102847000D01*
G75*
G02*
X67704000Y-102922000I-75000J0D01*
G01*
G37*
G36*
G01*
X67704000Y-102422000D02*
X66254000Y-102422000D01*
G75*
G02*
X66179000Y-102347000I0J75000D01*
G01*
X66179000Y-102197000D01*
G75*
G02*
X66254000Y-102122000I75000J0D01*
G01*
X67704000Y-102122000D01*
G75*
G02*
X67779000Y-102197000I0J-75000D01*
G01*
X67779000Y-102347000D01*
G75*
G02*
X67704000Y-102422000I-75000J0D01*
G01*
G37*
G36*
G01*
X67704000Y-101922000D02*
X66254000Y-101922000D01*
G75*
G02*
X66179000Y-101847000I0J75000D01*
G01*
X66179000Y-101697000D01*
G75*
G02*
X66254000Y-101622000I75000J0D01*
G01*
X67704000Y-101622000D01*
G75*
G02*
X67779000Y-101697000I0J-75000D01*
G01*
X67779000Y-101847000D01*
G75*
G02*
X67704000Y-101922000I-75000J0D01*
G01*
G37*
G36*
G01*
X67704000Y-101422000D02*
X66254000Y-101422000D01*
G75*
G02*
X66179000Y-101347000I0J75000D01*
G01*
X66179000Y-101197000D01*
G75*
G02*
X66254000Y-101122000I75000J0D01*
G01*
X67704000Y-101122000D01*
G75*
G02*
X67779000Y-101197000I0J-75000D01*
G01*
X67779000Y-101347000D01*
G75*
G02*
X67704000Y-101422000I-75000J0D01*
G01*
G37*
G36*
G01*
X67704000Y-100922000D02*
X66254000Y-100922000D01*
G75*
G02*
X66179000Y-100847000I0J75000D01*
G01*
X66179000Y-100697000D01*
G75*
G02*
X66254000Y-100622000I75000J0D01*
G01*
X67704000Y-100622000D01*
G75*
G02*
X67779000Y-100697000I0J-75000D01*
G01*
X67779000Y-100847000D01*
G75*
G02*
X67704000Y-100922000I-75000J0D01*
G01*
G37*
G36*
G01*
X67704000Y-100422000D02*
X66254000Y-100422000D01*
G75*
G02*
X66179000Y-100347000I0J75000D01*
G01*
X66179000Y-100197000D01*
G75*
G02*
X66254000Y-100122000I75000J0D01*
G01*
X67704000Y-100122000D01*
G75*
G02*
X67779000Y-100197000I0J-75000D01*
G01*
X67779000Y-100347000D01*
G75*
G02*
X67704000Y-100422000I-75000J0D01*
G01*
G37*
G36*
G01*
X67704000Y-99922000D02*
X66254000Y-99922000D01*
G75*
G02*
X66179000Y-99847000I0J75000D01*
G01*
X66179000Y-99697000D01*
G75*
G02*
X66254000Y-99622000I75000J0D01*
G01*
X67704000Y-99622000D01*
G75*
G02*
X67779000Y-99697000I0J-75000D01*
G01*
X67779000Y-99847000D01*
G75*
G02*
X67704000Y-99922000I-75000J0D01*
G01*
G37*
G36*
G01*
X67704000Y-99422000D02*
X66254000Y-99422000D01*
G75*
G02*
X66179000Y-99347000I0J75000D01*
G01*
X66179000Y-99197000D01*
G75*
G02*
X66254000Y-99122000I75000J0D01*
G01*
X67704000Y-99122000D01*
G75*
G02*
X67779000Y-99197000I0J-75000D01*
G01*
X67779000Y-99347000D01*
G75*
G02*
X67704000Y-99422000I-75000J0D01*
G01*
G37*
G36*
G01*
X67704000Y-98922000D02*
X66254000Y-98922000D01*
G75*
G02*
X66179000Y-98847000I0J75000D01*
G01*
X66179000Y-98697000D01*
G75*
G02*
X66254000Y-98622000I75000J0D01*
G01*
X67704000Y-98622000D01*
G75*
G02*
X67779000Y-98697000I0J-75000D01*
G01*
X67779000Y-98847000D01*
G75*
G02*
X67704000Y-98922000I-75000J0D01*
G01*
G37*
G36*
G01*
X67704000Y-98422000D02*
X66254000Y-98422000D01*
G75*
G02*
X66179000Y-98347000I0J75000D01*
G01*
X66179000Y-98197000D01*
G75*
G02*
X66254000Y-98122000I75000J0D01*
G01*
X67704000Y-98122000D01*
G75*
G02*
X67779000Y-98197000I0J-75000D01*
G01*
X67779000Y-98347000D01*
G75*
G02*
X67704000Y-98422000I-75000J0D01*
G01*
G37*
G36*
G01*
X67704000Y-97922000D02*
X66254000Y-97922000D01*
G75*
G02*
X66179000Y-97847000I0J75000D01*
G01*
X66179000Y-97697000D01*
G75*
G02*
X66254000Y-97622000I75000J0D01*
G01*
X67704000Y-97622000D01*
G75*
G02*
X67779000Y-97697000I0J-75000D01*
G01*
X67779000Y-97847000D01*
G75*
G02*
X67704000Y-97922000I-75000J0D01*
G01*
G37*
G36*
G01*
X67704000Y-97422000D02*
X66254000Y-97422000D01*
G75*
G02*
X66179000Y-97347000I0J75000D01*
G01*
X66179000Y-97197000D01*
G75*
G02*
X66254000Y-97122000I75000J0D01*
G01*
X67704000Y-97122000D01*
G75*
G02*
X67779000Y-97197000I0J-75000D01*
G01*
X67779000Y-97347000D01*
G75*
G02*
X67704000Y-97422000I-75000J0D01*
G01*
G37*
G36*
G01*
X67704000Y-96922000D02*
X66254000Y-96922000D01*
G75*
G02*
X66179000Y-96847000I0J75000D01*
G01*
X66179000Y-96697000D01*
G75*
G02*
X66254000Y-96622000I75000J0D01*
G01*
X67704000Y-96622000D01*
G75*
G02*
X67779000Y-96697000I0J-75000D01*
G01*
X67779000Y-96847000D01*
G75*
G02*
X67704000Y-96922000I-75000J0D01*
G01*
G37*
G36*
G01*
X67704000Y-96422000D02*
X66254000Y-96422000D01*
G75*
G02*
X66179000Y-96347000I0J75000D01*
G01*
X66179000Y-96197000D01*
G75*
G02*
X66254000Y-96122000I75000J0D01*
G01*
X67704000Y-96122000D01*
G75*
G02*
X67779000Y-96197000I0J-75000D01*
G01*
X67779000Y-96347000D01*
G75*
G02*
X67704000Y-96422000I-75000J0D01*
G01*
G37*
G36*
G01*
X67704000Y-95922000D02*
X66254000Y-95922000D01*
G75*
G02*
X66179000Y-95847000I0J75000D01*
G01*
X66179000Y-95697000D01*
G75*
G02*
X66254000Y-95622000I75000J0D01*
G01*
X67704000Y-95622000D01*
G75*
G02*
X67779000Y-95697000I0J-75000D01*
G01*
X67779000Y-95847000D01*
G75*
G02*
X67704000Y-95922000I-75000J0D01*
G01*
G37*
G36*
G01*
X67704000Y-95422000D02*
X66254000Y-95422000D01*
G75*
G02*
X66179000Y-95347000I0J75000D01*
G01*
X66179000Y-95197000D01*
G75*
G02*
X66254000Y-95122000I75000J0D01*
G01*
X67704000Y-95122000D01*
G75*
G02*
X67779000Y-95197000I0J-75000D01*
G01*
X67779000Y-95347000D01*
G75*
G02*
X67704000Y-95422000I-75000J0D01*
G01*
G37*
G36*
G01*
X68729000Y-94397000D02*
X68579000Y-94397000D01*
G75*
G02*
X68504000Y-94322000I0J75000D01*
G01*
X68504000Y-92872000D01*
G75*
G02*
X68579000Y-92797000I75000J0D01*
G01*
X68729000Y-92797000D01*
G75*
G02*
X68804000Y-92872000I0J-75000D01*
G01*
X68804000Y-94322000D01*
G75*
G02*
X68729000Y-94397000I-75000J0D01*
G01*
G37*
G36*
G01*
X69229000Y-94397000D02*
X69079000Y-94397000D01*
G75*
G02*
X69004000Y-94322000I0J75000D01*
G01*
X69004000Y-92872000D01*
G75*
G02*
X69079000Y-92797000I75000J0D01*
G01*
X69229000Y-92797000D01*
G75*
G02*
X69304000Y-92872000I0J-75000D01*
G01*
X69304000Y-94322000D01*
G75*
G02*
X69229000Y-94397000I-75000J0D01*
G01*
G37*
G36*
G01*
X69729000Y-94397000D02*
X69579000Y-94397000D01*
G75*
G02*
X69504000Y-94322000I0J75000D01*
G01*
X69504000Y-92872000D01*
G75*
G02*
X69579000Y-92797000I75000J0D01*
G01*
X69729000Y-92797000D01*
G75*
G02*
X69804000Y-92872000I0J-75000D01*
G01*
X69804000Y-94322000D01*
G75*
G02*
X69729000Y-94397000I-75000J0D01*
G01*
G37*
G36*
G01*
X70229000Y-94397000D02*
X70079000Y-94397000D01*
G75*
G02*
X70004000Y-94322000I0J75000D01*
G01*
X70004000Y-92872000D01*
G75*
G02*
X70079000Y-92797000I75000J0D01*
G01*
X70229000Y-92797000D01*
G75*
G02*
X70304000Y-92872000I0J-75000D01*
G01*
X70304000Y-94322000D01*
G75*
G02*
X70229000Y-94397000I-75000J0D01*
G01*
G37*
G36*
G01*
X70729000Y-94397000D02*
X70579000Y-94397000D01*
G75*
G02*
X70504000Y-94322000I0J75000D01*
G01*
X70504000Y-92872000D01*
G75*
G02*
X70579000Y-92797000I75000J0D01*
G01*
X70729000Y-92797000D01*
G75*
G02*
X70804000Y-92872000I0J-75000D01*
G01*
X70804000Y-94322000D01*
G75*
G02*
X70729000Y-94397000I-75000J0D01*
G01*
G37*
G36*
G01*
X71229000Y-94397000D02*
X71079000Y-94397000D01*
G75*
G02*
X71004000Y-94322000I0J75000D01*
G01*
X71004000Y-92872000D01*
G75*
G02*
X71079000Y-92797000I75000J0D01*
G01*
X71229000Y-92797000D01*
G75*
G02*
X71304000Y-92872000I0J-75000D01*
G01*
X71304000Y-94322000D01*
G75*
G02*
X71229000Y-94397000I-75000J0D01*
G01*
G37*
G36*
G01*
X71729000Y-94397000D02*
X71579000Y-94397000D01*
G75*
G02*
X71504000Y-94322000I0J75000D01*
G01*
X71504000Y-92872000D01*
G75*
G02*
X71579000Y-92797000I75000J0D01*
G01*
X71729000Y-92797000D01*
G75*
G02*
X71804000Y-92872000I0J-75000D01*
G01*
X71804000Y-94322000D01*
G75*
G02*
X71729000Y-94397000I-75000J0D01*
G01*
G37*
G36*
G01*
X72229000Y-94397000D02*
X72079000Y-94397000D01*
G75*
G02*
X72004000Y-94322000I0J75000D01*
G01*
X72004000Y-92872000D01*
G75*
G02*
X72079000Y-92797000I75000J0D01*
G01*
X72229000Y-92797000D01*
G75*
G02*
X72304000Y-92872000I0J-75000D01*
G01*
X72304000Y-94322000D01*
G75*
G02*
X72229000Y-94397000I-75000J0D01*
G01*
G37*
G36*
G01*
X72729000Y-94397000D02*
X72579000Y-94397000D01*
G75*
G02*
X72504000Y-94322000I0J75000D01*
G01*
X72504000Y-92872000D01*
G75*
G02*
X72579000Y-92797000I75000J0D01*
G01*
X72729000Y-92797000D01*
G75*
G02*
X72804000Y-92872000I0J-75000D01*
G01*
X72804000Y-94322000D01*
G75*
G02*
X72729000Y-94397000I-75000J0D01*
G01*
G37*
G36*
G01*
X73229000Y-94397000D02*
X73079000Y-94397000D01*
G75*
G02*
X73004000Y-94322000I0J75000D01*
G01*
X73004000Y-92872000D01*
G75*
G02*
X73079000Y-92797000I75000J0D01*
G01*
X73229000Y-92797000D01*
G75*
G02*
X73304000Y-92872000I0J-75000D01*
G01*
X73304000Y-94322000D01*
G75*
G02*
X73229000Y-94397000I-75000J0D01*
G01*
G37*
G36*
G01*
X73729000Y-94397000D02*
X73579000Y-94397000D01*
G75*
G02*
X73504000Y-94322000I0J75000D01*
G01*
X73504000Y-92872000D01*
G75*
G02*
X73579000Y-92797000I75000J0D01*
G01*
X73729000Y-92797000D01*
G75*
G02*
X73804000Y-92872000I0J-75000D01*
G01*
X73804000Y-94322000D01*
G75*
G02*
X73729000Y-94397000I-75000J0D01*
G01*
G37*
G36*
G01*
X74229000Y-94397000D02*
X74079000Y-94397000D01*
G75*
G02*
X74004000Y-94322000I0J75000D01*
G01*
X74004000Y-92872000D01*
G75*
G02*
X74079000Y-92797000I75000J0D01*
G01*
X74229000Y-92797000D01*
G75*
G02*
X74304000Y-92872000I0J-75000D01*
G01*
X74304000Y-94322000D01*
G75*
G02*
X74229000Y-94397000I-75000J0D01*
G01*
G37*
G36*
G01*
X74729000Y-94397000D02*
X74579000Y-94397000D01*
G75*
G02*
X74504000Y-94322000I0J75000D01*
G01*
X74504000Y-92872000D01*
G75*
G02*
X74579000Y-92797000I75000J0D01*
G01*
X74729000Y-92797000D01*
G75*
G02*
X74804000Y-92872000I0J-75000D01*
G01*
X74804000Y-94322000D01*
G75*
G02*
X74729000Y-94397000I-75000J0D01*
G01*
G37*
G36*
G01*
X75229000Y-94397000D02*
X75079000Y-94397000D01*
G75*
G02*
X75004000Y-94322000I0J75000D01*
G01*
X75004000Y-92872000D01*
G75*
G02*
X75079000Y-92797000I75000J0D01*
G01*
X75229000Y-92797000D01*
G75*
G02*
X75304000Y-92872000I0J-75000D01*
G01*
X75304000Y-94322000D01*
G75*
G02*
X75229000Y-94397000I-75000J0D01*
G01*
G37*
G36*
G01*
X75729000Y-94397000D02*
X75579000Y-94397000D01*
G75*
G02*
X75504000Y-94322000I0J75000D01*
G01*
X75504000Y-92872000D01*
G75*
G02*
X75579000Y-92797000I75000J0D01*
G01*
X75729000Y-92797000D01*
G75*
G02*
X75804000Y-92872000I0J-75000D01*
G01*
X75804000Y-94322000D01*
G75*
G02*
X75729000Y-94397000I-75000J0D01*
G01*
G37*
G36*
G01*
X76229000Y-94397000D02*
X76079000Y-94397000D01*
G75*
G02*
X76004000Y-94322000I0J75000D01*
G01*
X76004000Y-92872000D01*
G75*
G02*
X76079000Y-92797000I75000J0D01*
G01*
X76229000Y-92797000D01*
G75*
G02*
X76304000Y-92872000I0J-75000D01*
G01*
X76304000Y-94322000D01*
G75*
G02*
X76229000Y-94397000I-75000J0D01*
G01*
G37*
G36*
G01*
X76729000Y-94397000D02*
X76579000Y-94397000D01*
G75*
G02*
X76504000Y-94322000I0J75000D01*
G01*
X76504000Y-92872000D01*
G75*
G02*
X76579000Y-92797000I75000J0D01*
G01*
X76729000Y-92797000D01*
G75*
G02*
X76804000Y-92872000I0J-75000D01*
G01*
X76804000Y-94322000D01*
G75*
G02*
X76729000Y-94397000I-75000J0D01*
G01*
G37*
G36*
G01*
X77229000Y-94397000D02*
X77079000Y-94397000D01*
G75*
G02*
X77004000Y-94322000I0J75000D01*
G01*
X77004000Y-92872000D01*
G75*
G02*
X77079000Y-92797000I75000J0D01*
G01*
X77229000Y-92797000D01*
G75*
G02*
X77304000Y-92872000I0J-75000D01*
G01*
X77304000Y-94322000D01*
G75*
G02*
X77229000Y-94397000I-75000J0D01*
G01*
G37*
G36*
G01*
X77729000Y-94397000D02*
X77579000Y-94397000D01*
G75*
G02*
X77504000Y-94322000I0J75000D01*
G01*
X77504000Y-92872000D01*
G75*
G02*
X77579000Y-92797000I75000J0D01*
G01*
X77729000Y-92797000D01*
G75*
G02*
X77804000Y-92872000I0J-75000D01*
G01*
X77804000Y-94322000D01*
G75*
G02*
X77729000Y-94397000I-75000J0D01*
G01*
G37*
G36*
G01*
X78229000Y-94397000D02*
X78079000Y-94397000D01*
G75*
G02*
X78004000Y-94322000I0J75000D01*
G01*
X78004000Y-92872000D01*
G75*
G02*
X78079000Y-92797000I75000J0D01*
G01*
X78229000Y-92797000D01*
G75*
G02*
X78304000Y-92872000I0J-75000D01*
G01*
X78304000Y-94322000D01*
G75*
G02*
X78229000Y-94397000I-75000J0D01*
G01*
G37*
G36*
G01*
X78729000Y-94397000D02*
X78579000Y-94397000D01*
G75*
G02*
X78504000Y-94322000I0J75000D01*
G01*
X78504000Y-92872000D01*
G75*
G02*
X78579000Y-92797000I75000J0D01*
G01*
X78729000Y-92797000D01*
G75*
G02*
X78804000Y-92872000I0J-75000D01*
G01*
X78804000Y-94322000D01*
G75*
G02*
X78729000Y-94397000I-75000J0D01*
G01*
G37*
G36*
G01*
X79229000Y-94397000D02*
X79079000Y-94397000D01*
G75*
G02*
X79004000Y-94322000I0J75000D01*
G01*
X79004000Y-92872000D01*
G75*
G02*
X79079000Y-92797000I75000J0D01*
G01*
X79229000Y-92797000D01*
G75*
G02*
X79304000Y-92872000I0J-75000D01*
G01*
X79304000Y-94322000D01*
G75*
G02*
X79229000Y-94397000I-75000J0D01*
G01*
G37*
G36*
G01*
X79729000Y-94397000D02*
X79579000Y-94397000D01*
G75*
G02*
X79504000Y-94322000I0J75000D01*
G01*
X79504000Y-92872000D01*
G75*
G02*
X79579000Y-92797000I75000J0D01*
G01*
X79729000Y-92797000D01*
G75*
G02*
X79804000Y-92872000I0J-75000D01*
G01*
X79804000Y-94322000D01*
G75*
G02*
X79729000Y-94397000I-75000J0D01*
G01*
G37*
G36*
G01*
X80229000Y-94397000D02*
X80079000Y-94397000D01*
G75*
G02*
X80004000Y-94322000I0J75000D01*
G01*
X80004000Y-92872000D01*
G75*
G02*
X80079000Y-92797000I75000J0D01*
G01*
X80229000Y-92797000D01*
G75*
G02*
X80304000Y-92872000I0J-75000D01*
G01*
X80304000Y-94322000D01*
G75*
G02*
X80229000Y-94397000I-75000J0D01*
G01*
G37*
G36*
G01*
X80729000Y-94397000D02*
X80579000Y-94397000D01*
G75*
G02*
X80504000Y-94322000I0J75000D01*
G01*
X80504000Y-92872000D01*
G75*
G02*
X80579000Y-92797000I75000J0D01*
G01*
X80729000Y-92797000D01*
G75*
G02*
X80804000Y-92872000I0J-75000D01*
G01*
X80804000Y-94322000D01*
G75*
G02*
X80729000Y-94397000I-75000J0D01*
G01*
G37*
G36*
G01*
X83054000Y-95422000D02*
X81604000Y-95422000D01*
G75*
G02*
X81529000Y-95347000I0J75000D01*
G01*
X81529000Y-95197000D01*
G75*
G02*
X81604000Y-95122000I75000J0D01*
G01*
X83054000Y-95122000D01*
G75*
G02*
X83129000Y-95197000I0J-75000D01*
G01*
X83129000Y-95347000D01*
G75*
G02*
X83054000Y-95422000I-75000J0D01*
G01*
G37*
G36*
G01*
X83054000Y-95922000D02*
X81604000Y-95922000D01*
G75*
G02*
X81529000Y-95847000I0J75000D01*
G01*
X81529000Y-95697000D01*
G75*
G02*
X81604000Y-95622000I75000J0D01*
G01*
X83054000Y-95622000D01*
G75*
G02*
X83129000Y-95697000I0J-75000D01*
G01*
X83129000Y-95847000D01*
G75*
G02*
X83054000Y-95922000I-75000J0D01*
G01*
G37*
G36*
G01*
X83054000Y-96422000D02*
X81604000Y-96422000D01*
G75*
G02*
X81529000Y-96347000I0J75000D01*
G01*
X81529000Y-96197000D01*
G75*
G02*
X81604000Y-96122000I75000J0D01*
G01*
X83054000Y-96122000D01*
G75*
G02*
X83129000Y-96197000I0J-75000D01*
G01*
X83129000Y-96347000D01*
G75*
G02*
X83054000Y-96422000I-75000J0D01*
G01*
G37*
G36*
G01*
X83054000Y-96922000D02*
X81604000Y-96922000D01*
G75*
G02*
X81529000Y-96847000I0J75000D01*
G01*
X81529000Y-96697000D01*
G75*
G02*
X81604000Y-96622000I75000J0D01*
G01*
X83054000Y-96622000D01*
G75*
G02*
X83129000Y-96697000I0J-75000D01*
G01*
X83129000Y-96847000D01*
G75*
G02*
X83054000Y-96922000I-75000J0D01*
G01*
G37*
G36*
G01*
X83054000Y-97422000D02*
X81604000Y-97422000D01*
G75*
G02*
X81529000Y-97347000I0J75000D01*
G01*
X81529000Y-97197000D01*
G75*
G02*
X81604000Y-97122000I75000J0D01*
G01*
X83054000Y-97122000D01*
G75*
G02*
X83129000Y-97197000I0J-75000D01*
G01*
X83129000Y-97347000D01*
G75*
G02*
X83054000Y-97422000I-75000J0D01*
G01*
G37*
G36*
G01*
X83054000Y-97922000D02*
X81604000Y-97922000D01*
G75*
G02*
X81529000Y-97847000I0J75000D01*
G01*
X81529000Y-97697000D01*
G75*
G02*
X81604000Y-97622000I75000J0D01*
G01*
X83054000Y-97622000D01*
G75*
G02*
X83129000Y-97697000I0J-75000D01*
G01*
X83129000Y-97847000D01*
G75*
G02*
X83054000Y-97922000I-75000J0D01*
G01*
G37*
G36*
G01*
X83054000Y-98422000D02*
X81604000Y-98422000D01*
G75*
G02*
X81529000Y-98347000I0J75000D01*
G01*
X81529000Y-98197000D01*
G75*
G02*
X81604000Y-98122000I75000J0D01*
G01*
X83054000Y-98122000D01*
G75*
G02*
X83129000Y-98197000I0J-75000D01*
G01*
X83129000Y-98347000D01*
G75*
G02*
X83054000Y-98422000I-75000J0D01*
G01*
G37*
G36*
G01*
X83054000Y-98922000D02*
X81604000Y-98922000D01*
G75*
G02*
X81529000Y-98847000I0J75000D01*
G01*
X81529000Y-98697000D01*
G75*
G02*
X81604000Y-98622000I75000J0D01*
G01*
X83054000Y-98622000D01*
G75*
G02*
X83129000Y-98697000I0J-75000D01*
G01*
X83129000Y-98847000D01*
G75*
G02*
X83054000Y-98922000I-75000J0D01*
G01*
G37*
G36*
G01*
X83054000Y-99422000D02*
X81604000Y-99422000D01*
G75*
G02*
X81529000Y-99347000I0J75000D01*
G01*
X81529000Y-99197000D01*
G75*
G02*
X81604000Y-99122000I75000J0D01*
G01*
X83054000Y-99122000D01*
G75*
G02*
X83129000Y-99197000I0J-75000D01*
G01*
X83129000Y-99347000D01*
G75*
G02*
X83054000Y-99422000I-75000J0D01*
G01*
G37*
G36*
G01*
X83054000Y-99922000D02*
X81604000Y-99922000D01*
G75*
G02*
X81529000Y-99847000I0J75000D01*
G01*
X81529000Y-99697000D01*
G75*
G02*
X81604000Y-99622000I75000J0D01*
G01*
X83054000Y-99622000D01*
G75*
G02*
X83129000Y-99697000I0J-75000D01*
G01*
X83129000Y-99847000D01*
G75*
G02*
X83054000Y-99922000I-75000J0D01*
G01*
G37*
G36*
G01*
X83054000Y-100422000D02*
X81604000Y-100422000D01*
G75*
G02*
X81529000Y-100347000I0J75000D01*
G01*
X81529000Y-100197000D01*
G75*
G02*
X81604000Y-100122000I75000J0D01*
G01*
X83054000Y-100122000D01*
G75*
G02*
X83129000Y-100197000I0J-75000D01*
G01*
X83129000Y-100347000D01*
G75*
G02*
X83054000Y-100422000I-75000J0D01*
G01*
G37*
G36*
G01*
X83054000Y-100922000D02*
X81604000Y-100922000D01*
G75*
G02*
X81529000Y-100847000I0J75000D01*
G01*
X81529000Y-100697000D01*
G75*
G02*
X81604000Y-100622000I75000J0D01*
G01*
X83054000Y-100622000D01*
G75*
G02*
X83129000Y-100697000I0J-75000D01*
G01*
X83129000Y-100847000D01*
G75*
G02*
X83054000Y-100922000I-75000J0D01*
G01*
G37*
G36*
G01*
X83054000Y-101422000D02*
X81604000Y-101422000D01*
G75*
G02*
X81529000Y-101347000I0J75000D01*
G01*
X81529000Y-101197000D01*
G75*
G02*
X81604000Y-101122000I75000J0D01*
G01*
X83054000Y-101122000D01*
G75*
G02*
X83129000Y-101197000I0J-75000D01*
G01*
X83129000Y-101347000D01*
G75*
G02*
X83054000Y-101422000I-75000J0D01*
G01*
G37*
G36*
G01*
X83054000Y-101922000D02*
X81604000Y-101922000D01*
G75*
G02*
X81529000Y-101847000I0J75000D01*
G01*
X81529000Y-101697000D01*
G75*
G02*
X81604000Y-101622000I75000J0D01*
G01*
X83054000Y-101622000D01*
G75*
G02*
X83129000Y-101697000I0J-75000D01*
G01*
X83129000Y-101847000D01*
G75*
G02*
X83054000Y-101922000I-75000J0D01*
G01*
G37*
G36*
G01*
X83054000Y-102422000D02*
X81604000Y-102422000D01*
G75*
G02*
X81529000Y-102347000I0J75000D01*
G01*
X81529000Y-102197000D01*
G75*
G02*
X81604000Y-102122000I75000J0D01*
G01*
X83054000Y-102122000D01*
G75*
G02*
X83129000Y-102197000I0J-75000D01*
G01*
X83129000Y-102347000D01*
G75*
G02*
X83054000Y-102422000I-75000J0D01*
G01*
G37*
G36*
G01*
X83054000Y-102922000D02*
X81604000Y-102922000D01*
G75*
G02*
X81529000Y-102847000I0J75000D01*
G01*
X81529000Y-102697000D01*
G75*
G02*
X81604000Y-102622000I75000J0D01*
G01*
X83054000Y-102622000D01*
G75*
G02*
X83129000Y-102697000I0J-75000D01*
G01*
X83129000Y-102847000D01*
G75*
G02*
X83054000Y-102922000I-75000J0D01*
G01*
G37*
G36*
G01*
X83054000Y-103422000D02*
X81604000Y-103422000D01*
G75*
G02*
X81529000Y-103347000I0J75000D01*
G01*
X81529000Y-103197000D01*
G75*
G02*
X81604000Y-103122000I75000J0D01*
G01*
X83054000Y-103122000D01*
G75*
G02*
X83129000Y-103197000I0J-75000D01*
G01*
X83129000Y-103347000D01*
G75*
G02*
X83054000Y-103422000I-75000J0D01*
G01*
G37*
G36*
G01*
X83054000Y-103922000D02*
X81604000Y-103922000D01*
G75*
G02*
X81529000Y-103847000I0J75000D01*
G01*
X81529000Y-103697000D01*
G75*
G02*
X81604000Y-103622000I75000J0D01*
G01*
X83054000Y-103622000D01*
G75*
G02*
X83129000Y-103697000I0J-75000D01*
G01*
X83129000Y-103847000D01*
G75*
G02*
X83054000Y-103922000I-75000J0D01*
G01*
G37*
G36*
G01*
X83054000Y-104422000D02*
X81604000Y-104422000D01*
G75*
G02*
X81529000Y-104347000I0J75000D01*
G01*
X81529000Y-104197000D01*
G75*
G02*
X81604000Y-104122000I75000J0D01*
G01*
X83054000Y-104122000D01*
G75*
G02*
X83129000Y-104197000I0J-75000D01*
G01*
X83129000Y-104347000D01*
G75*
G02*
X83054000Y-104422000I-75000J0D01*
G01*
G37*
G36*
G01*
X83054000Y-104922000D02*
X81604000Y-104922000D01*
G75*
G02*
X81529000Y-104847000I0J75000D01*
G01*
X81529000Y-104697000D01*
G75*
G02*
X81604000Y-104622000I75000J0D01*
G01*
X83054000Y-104622000D01*
G75*
G02*
X83129000Y-104697000I0J-75000D01*
G01*
X83129000Y-104847000D01*
G75*
G02*
X83054000Y-104922000I-75000J0D01*
G01*
G37*
G36*
G01*
X83054000Y-105422000D02*
X81604000Y-105422000D01*
G75*
G02*
X81529000Y-105347000I0J75000D01*
G01*
X81529000Y-105197000D01*
G75*
G02*
X81604000Y-105122000I75000J0D01*
G01*
X83054000Y-105122000D01*
G75*
G02*
X83129000Y-105197000I0J-75000D01*
G01*
X83129000Y-105347000D01*
G75*
G02*
X83054000Y-105422000I-75000J0D01*
G01*
G37*
G36*
G01*
X83054000Y-105922000D02*
X81604000Y-105922000D01*
G75*
G02*
X81529000Y-105847000I0J75000D01*
G01*
X81529000Y-105697000D01*
G75*
G02*
X81604000Y-105622000I75000J0D01*
G01*
X83054000Y-105622000D01*
G75*
G02*
X83129000Y-105697000I0J-75000D01*
G01*
X83129000Y-105847000D01*
G75*
G02*
X83054000Y-105922000I-75000J0D01*
G01*
G37*
G36*
G01*
X83054000Y-106422000D02*
X81604000Y-106422000D01*
G75*
G02*
X81529000Y-106347000I0J75000D01*
G01*
X81529000Y-106197000D01*
G75*
G02*
X81604000Y-106122000I75000J0D01*
G01*
X83054000Y-106122000D01*
G75*
G02*
X83129000Y-106197000I0J-75000D01*
G01*
X83129000Y-106347000D01*
G75*
G02*
X83054000Y-106422000I-75000J0D01*
G01*
G37*
G36*
G01*
X83054000Y-106922000D02*
X81604000Y-106922000D01*
G75*
G02*
X81529000Y-106847000I0J75000D01*
G01*
X81529000Y-106697000D01*
G75*
G02*
X81604000Y-106622000I75000J0D01*
G01*
X83054000Y-106622000D01*
G75*
G02*
X83129000Y-106697000I0J-75000D01*
G01*
X83129000Y-106847000D01*
G75*
G02*
X83054000Y-106922000I-75000J0D01*
G01*
G37*
G36*
G01*
X83054000Y-107422000D02*
X81604000Y-107422000D01*
G75*
G02*
X81529000Y-107347000I0J75000D01*
G01*
X81529000Y-107197000D01*
G75*
G02*
X81604000Y-107122000I75000J0D01*
G01*
X83054000Y-107122000D01*
G75*
G02*
X83129000Y-107197000I0J-75000D01*
G01*
X83129000Y-107347000D01*
G75*
G02*
X83054000Y-107422000I-75000J0D01*
G01*
G37*
G36*
G01*
X80729000Y-109747000D02*
X80579000Y-109747000D01*
G75*
G02*
X80504000Y-109672000I0J75000D01*
G01*
X80504000Y-108222000D01*
G75*
G02*
X80579000Y-108147000I75000J0D01*
G01*
X80729000Y-108147000D01*
G75*
G02*
X80804000Y-108222000I0J-75000D01*
G01*
X80804000Y-109672000D01*
G75*
G02*
X80729000Y-109747000I-75000J0D01*
G01*
G37*
G36*
G01*
X80229000Y-109747000D02*
X80079000Y-109747000D01*
G75*
G02*
X80004000Y-109672000I0J75000D01*
G01*
X80004000Y-108222000D01*
G75*
G02*
X80079000Y-108147000I75000J0D01*
G01*
X80229000Y-108147000D01*
G75*
G02*
X80304000Y-108222000I0J-75000D01*
G01*
X80304000Y-109672000D01*
G75*
G02*
X80229000Y-109747000I-75000J0D01*
G01*
G37*
G36*
G01*
X79729000Y-109747000D02*
X79579000Y-109747000D01*
G75*
G02*
X79504000Y-109672000I0J75000D01*
G01*
X79504000Y-108222000D01*
G75*
G02*
X79579000Y-108147000I75000J0D01*
G01*
X79729000Y-108147000D01*
G75*
G02*
X79804000Y-108222000I0J-75000D01*
G01*
X79804000Y-109672000D01*
G75*
G02*
X79729000Y-109747000I-75000J0D01*
G01*
G37*
G36*
G01*
X79229000Y-109747000D02*
X79079000Y-109747000D01*
G75*
G02*
X79004000Y-109672000I0J75000D01*
G01*
X79004000Y-108222000D01*
G75*
G02*
X79079000Y-108147000I75000J0D01*
G01*
X79229000Y-108147000D01*
G75*
G02*
X79304000Y-108222000I0J-75000D01*
G01*
X79304000Y-109672000D01*
G75*
G02*
X79229000Y-109747000I-75000J0D01*
G01*
G37*
G36*
G01*
X78729000Y-109747000D02*
X78579000Y-109747000D01*
G75*
G02*
X78504000Y-109672000I0J75000D01*
G01*
X78504000Y-108222000D01*
G75*
G02*
X78579000Y-108147000I75000J0D01*
G01*
X78729000Y-108147000D01*
G75*
G02*
X78804000Y-108222000I0J-75000D01*
G01*
X78804000Y-109672000D01*
G75*
G02*
X78729000Y-109747000I-75000J0D01*
G01*
G37*
G36*
G01*
X78229000Y-109747000D02*
X78079000Y-109747000D01*
G75*
G02*
X78004000Y-109672000I0J75000D01*
G01*
X78004000Y-108222000D01*
G75*
G02*
X78079000Y-108147000I75000J0D01*
G01*
X78229000Y-108147000D01*
G75*
G02*
X78304000Y-108222000I0J-75000D01*
G01*
X78304000Y-109672000D01*
G75*
G02*
X78229000Y-109747000I-75000J0D01*
G01*
G37*
G36*
G01*
X77729000Y-109747000D02*
X77579000Y-109747000D01*
G75*
G02*
X77504000Y-109672000I0J75000D01*
G01*
X77504000Y-108222000D01*
G75*
G02*
X77579000Y-108147000I75000J0D01*
G01*
X77729000Y-108147000D01*
G75*
G02*
X77804000Y-108222000I0J-75000D01*
G01*
X77804000Y-109672000D01*
G75*
G02*
X77729000Y-109747000I-75000J0D01*
G01*
G37*
G36*
G01*
X77229000Y-109747000D02*
X77079000Y-109747000D01*
G75*
G02*
X77004000Y-109672000I0J75000D01*
G01*
X77004000Y-108222000D01*
G75*
G02*
X77079000Y-108147000I75000J0D01*
G01*
X77229000Y-108147000D01*
G75*
G02*
X77304000Y-108222000I0J-75000D01*
G01*
X77304000Y-109672000D01*
G75*
G02*
X77229000Y-109747000I-75000J0D01*
G01*
G37*
G36*
G01*
X76729000Y-109747000D02*
X76579000Y-109747000D01*
G75*
G02*
X76504000Y-109672000I0J75000D01*
G01*
X76504000Y-108222000D01*
G75*
G02*
X76579000Y-108147000I75000J0D01*
G01*
X76729000Y-108147000D01*
G75*
G02*
X76804000Y-108222000I0J-75000D01*
G01*
X76804000Y-109672000D01*
G75*
G02*
X76729000Y-109747000I-75000J0D01*
G01*
G37*
G36*
G01*
X76229000Y-109747000D02*
X76079000Y-109747000D01*
G75*
G02*
X76004000Y-109672000I0J75000D01*
G01*
X76004000Y-108222000D01*
G75*
G02*
X76079000Y-108147000I75000J0D01*
G01*
X76229000Y-108147000D01*
G75*
G02*
X76304000Y-108222000I0J-75000D01*
G01*
X76304000Y-109672000D01*
G75*
G02*
X76229000Y-109747000I-75000J0D01*
G01*
G37*
G36*
G01*
X75729000Y-109747000D02*
X75579000Y-109747000D01*
G75*
G02*
X75504000Y-109672000I0J75000D01*
G01*
X75504000Y-108222000D01*
G75*
G02*
X75579000Y-108147000I75000J0D01*
G01*
X75729000Y-108147000D01*
G75*
G02*
X75804000Y-108222000I0J-75000D01*
G01*
X75804000Y-109672000D01*
G75*
G02*
X75729000Y-109747000I-75000J0D01*
G01*
G37*
G36*
G01*
X75229000Y-109747000D02*
X75079000Y-109747000D01*
G75*
G02*
X75004000Y-109672000I0J75000D01*
G01*
X75004000Y-108222000D01*
G75*
G02*
X75079000Y-108147000I75000J0D01*
G01*
X75229000Y-108147000D01*
G75*
G02*
X75304000Y-108222000I0J-75000D01*
G01*
X75304000Y-109672000D01*
G75*
G02*
X75229000Y-109747000I-75000J0D01*
G01*
G37*
G36*
G01*
X74729000Y-109747000D02*
X74579000Y-109747000D01*
G75*
G02*
X74504000Y-109672000I0J75000D01*
G01*
X74504000Y-108222000D01*
G75*
G02*
X74579000Y-108147000I75000J0D01*
G01*
X74729000Y-108147000D01*
G75*
G02*
X74804000Y-108222000I0J-75000D01*
G01*
X74804000Y-109672000D01*
G75*
G02*
X74729000Y-109747000I-75000J0D01*
G01*
G37*
G36*
G01*
X74229000Y-109747000D02*
X74079000Y-109747000D01*
G75*
G02*
X74004000Y-109672000I0J75000D01*
G01*
X74004000Y-108222000D01*
G75*
G02*
X74079000Y-108147000I75000J0D01*
G01*
X74229000Y-108147000D01*
G75*
G02*
X74304000Y-108222000I0J-75000D01*
G01*
X74304000Y-109672000D01*
G75*
G02*
X74229000Y-109747000I-75000J0D01*
G01*
G37*
G36*
G01*
X73729000Y-109747000D02*
X73579000Y-109747000D01*
G75*
G02*
X73504000Y-109672000I0J75000D01*
G01*
X73504000Y-108222000D01*
G75*
G02*
X73579000Y-108147000I75000J0D01*
G01*
X73729000Y-108147000D01*
G75*
G02*
X73804000Y-108222000I0J-75000D01*
G01*
X73804000Y-109672000D01*
G75*
G02*
X73729000Y-109747000I-75000J0D01*
G01*
G37*
G36*
G01*
X73229000Y-109747000D02*
X73079000Y-109747000D01*
G75*
G02*
X73004000Y-109672000I0J75000D01*
G01*
X73004000Y-108222000D01*
G75*
G02*
X73079000Y-108147000I75000J0D01*
G01*
X73229000Y-108147000D01*
G75*
G02*
X73304000Y-108222000I0J-75000D01*
G01*
X73304000Y-109672000D01*
G75*
G02*
X73229000Y-109747000I-75000J0D01*
G01*
G37*
G36*
G01*
X72729000Y-109747000D02*
X72579000Y-109747000D01*
G75*
G02*
X72504000Y-109672000I0J75000D01*
G01*
X72504000Y-108222000D01*
G75*
G02*
X72579000Y-108147000I75000J0D01*
G01*
X72729000Y-108147000D01*
G75*
G02*
X72804000Y-108222000I0J-75000D01*
G01*
X72804000Y-109672000D01*
G75*
G02*
X72729000Y-109747000I-75000J0D01*
G01*
G37*
G36*
G01*
X72229000Y-109747000D02*
X72079000Y-109747000D01*
G75*
G02*
X72004000Y-109672000I0J75000D01*
G01*
X72004000Y-108222000D01*
G75*
G02*
X72079000Y-108147000I75000J0D01*
G01*
X72229000Y-108147000D01*
G75*
G02*
X72304000Y-108222000I0J-75000D01*
G01*
X72304000Y-109672000D01*
G75*
G02*
X72229000Y-109747000I-75000J0D01*
G01*
G37*
G36*
G01*
X71729000Y-109747000D02*
X71579000Y-109747000D01*
G75*
G02*
X71504000Y-109672000I0J75000D01*
G01*
X71504000Y-108222000D01*
G75*
G02*
X71579000Y-108147000I75000J0D01*
G01*
X71729000Y-108147000D01*
G75*
G02*
X71804000Y-108222000I0J-75000D01*
G01*
X71804000Y-109672000D01*
G75*
G02*
X71729000Y-109747000I-75000J0D01*
G01*
G37*
G36*
G01*
X71229000Y-109747000D02*
X71079000Y-109747000D01*
G75*
G02*
X71004000Y-109672000I0J75000D01*
G01*
X71004000Y-108222000D01*
G75*
G02*
X71079000Y-108147000I75000J0D01*
G01*
X71229000Y-108147000D01*
G75*
G02*
X71304000Y-108222000I0J-75000D01*
G01*
X71304000Y-109672000D01*
G75*
G02*
X71229000Y-109747000I-75000J0D01*
G01*
G37*
G36*
G01*
X70729000Y-109747000D02*
X70579000Y-109747000D01*
G75*
G02*
X70504000Y-109672000I0J75000D01*
G01*
X70504000Y-108222000D01*
G75*
G02*
X70579000Y-108147000I75000J0D01*
G01*
X70729000Y-108147000D01*
G75*
G02*
X70804000Y-108222000I0J-75000D01*
G01*
X70804000Y-109672000D01*
G75*
G02*
X70729000Y-109747000I-75000J0D01*
G01*
G37*
G36*
G01*
X70229000Y-109747000D02*
X70079000Y-109747000D01*
G75*
G02*
X70004000Y-109672000I0J75000D01*
G01*
X70004000Y-108222000D01*
G75*
G02*
X70079000Y-108147000I75000J0D01*
G01*
X70229000Y-108147000D01*
G75*
G02*
X70304000Y-108222000I0J-75000D01*
G01*
X70304000Y-109672000D01*
G75*
G02*
X70229000Y-109747000I-75000J0D01*
G01*
G37*
G36*
G01*
X69729000Y-109747000D02*
X69579000Y-109747000D01*
G75*
G02*
X69504000Y-109672000I0J75000D01*
G01*
X69504000Y-108222000D01*
G75*
G02*
X69579000Y-108147000I75000J0D01*
G01*
X69729000Y-108147000D01*
G75*
G02*
X69804000Y-108222000I0J-75000D01*
G01*
X69804000Y-109672000D01*
G75*
G02*
X69729000Y-109747000I-75000J0D01*
G01*
G37*
G36*
G01*
X69229000Y-109747000D02*
X69079000Y-109747000D01*
G75*
G02*
X69004000Y-109672000I0J75000D01*
G01*
X69004000Y-108222000D01*
G75*
G02*
X69079000Y-108147000I75000J0D01*
G01*
X69229000Y-108147000D01*
G75*
G02*
X69304000Y-108222000I0J-75000D01*
G01*
X69304000Y-109672000D01*
G75*
G02*
X69229000Y-109747000I-75000J0D01*
G01*
G37*
G36*
G01*
X68729000Y-109747000D02*
X68579000Y-109747000D01*
G75*
G02*
X68504000Y-109672000I0J75000D01*
G01*
X68504000Y-108222000D01*
G75*
G02*
X68579000Y-108147000I75000J0D01*
G01*
X68729000Y-108147000D01*
G75*
G02*
X68804000Y-108222000I0J-75000D01*
G01*
X68804000Y-109672000D01*
G75*
G02*
X68729000Y-109747000I-75000J0D01*
G01*
G37*
%TD*%
%TO.C,U5*%
G36*
G01*
X39000000Y-123245000D02*
X39000000Y-122945000D01*
G75*
G02*
X39150000Y-122795000I150000J0D01*
G01*
X40800000Y-122795000D01*
G75*
G02*
X40950000Y-122945000I0J-150000D01*
G01*
X40950000Y-123245000D01*
G75*
G02*
X40800000Y-123395000I-150000J0D01*
G01*
X39150000Y-123395000D01*
G75*
G02*
X39000000Y-123245000I0J150000D01*
G01*
G37*
G36*
G01*
X39000000Y-124515000D02*
X39000000Y-124215000D01*
G75*
G02*
X39150000Y-124065000I150000J0D01*
G01*
X40800000Y-124065000D01*
G75*
G02*
X40950000Y-124215000I0J-150000D01*
G01*
X40950000Y-124515000D01*
G75*
G02*
X40800000Y-124665000I-150000J0D01*
G01*
X39150000Y-124665000D01*
G75*
G02*
X39000000Y-124515000I0J150000D01*
G01*
G37*
G36*
G01*
X39000000Y-125785000D02*
X39000000Y-125485000D01*
G75*
G02*
X39150000Y-125335000I150000J0D01*
G01*
X40800000Y-125335000D01*
G75*
G02*
X40950000Y-125485000I0J-150000D01*
G01*
X40950000Y-125785000D01*
G75*
G02*
X40800000Y-125935000I-150000J0D01*
G01*
X39150000Y-125935000D01*
G75*
G02*
X39000000Y-125785000I0J150000D01*
G01*
G37*
G36*
G01*
X39000000Y-127055000D02*
X39000000Y-126755000D01*
G75*
G02*
X39150000Y-126605000I150000J0D01*
G01*
X40800000Y-126605000D01*
G75*
G02*
X40950000Y-126755000I0J-150000D01*
G01*
X40950000Y-127055000D01*
G75*
G02*
X40800000Y-127205000I-150000J0D01*
G01*
X39150000Y-127205000D01*
G75*
G02*
X39000000Y-127055000I0J150000D01*
G01*
G37*
G36*
G01*
X34050000Y-127055000D02*
X34050000Y-126755000D01*
G75*
G02*
X34200000Y-126605000I150000J0D01*
G01*
X35850000Y-126605000D01*
G75*
G02*
X36000000Y-126755000I0J-150000D01*
G01*
X36000000Y-127055000D01*
G75*
G02*
X35850000Y-127205000I-150000J0D01*
G01*
X34200000Y-127205000D01*
G75*
G02*
X34050000Y-127055000I0J150000D01*
G01*
G37*
G36*
G01*
X34050000Y-125785000D02*
X34050000Y-125485000D01*
G75*
G02*
X34200000Y-125335000I150000J0D01*
G01*
X35850000Y-125335000D01*
G75*
G02*
X36000000Y-125485000I0J-150000D01*
G01*
X36000000Y-125785000D01*
G75*
G02*
X35850000Y-125935000I-150000J0D01*
G01*
X34200000Y-125935000D01*
G75*
G02*
X34050000Y-125785000I0J150000D01*
G01*
G37*
G36*
G01*
X34050000Y-124515000D02*
X34050000Y-124215000D01*
G75*
G02*
X34200000Y-124065000I150000J0D01*
G01*
X35850000Y-124065000D01*
G75*
G02*
X36000000Y-124215000I0J-150000D01*
G01*
X36000000Y-124515000D01*
G75*
G02*
X35850000Y-124665000I-150000J0D01*
G01*
X34200000Y-124665000D01*
G75*
G02*
X34050000Y-124515000I0J150000D01*
G01*
G37*
G36*
G01*
X34050000Y-123245000D02*
X34050000Y-122945000D01*
G75*
G02*
X34200000Y-122795000I150000J0D01*
G01*
X35850000Y-122795000D01*
G75*
G02*
X36000000Y-122945000I0J-150000D01*
G01*
X36000000Y-123245000D01*
G75*
G02*
X35850000Y-123395000I-150000J0D01*
G01*
X34200000Y-123395000D01*
G75*
G02*
X34050000Y-123245000I0J150000D01*
G01*
G37*
%TD*%
%TO.C,U4*%
G36*
G01*
X50190000Y-123395000D02*
X50190000Y-123095000D01*
G75*
G02*
X50340000Y-122945000I150000J0D01*
G01*
X51990000Y-122945000D01*
G75*
G02*
X52140000Y-123095000I0J-150000D01*
G01*
X52140000Y-123395000D01*
G75*
G02*
X51990000Y-123545000I-150000J0D01*
G01*
X50340000Y-123545000D01*
G75*
G02*
X50190000Y-123395000I0J150000D01*
G01*
G37*
G36*
G01*
X50190000Y-124665000D02*
X50190000Y-124365000D01*
G75*
G02*
X50340000Y-124215000I150000J0D01*
G01*
X51990000Y-124215000D01*
G75*
G02*
X52140000Y-124365000I0J-150000D01*
G01*
X52140000Y-124665000D01*
G75*
G02*
X51990000Y-124815000I-150000J0D01*
G01*
X50340000Y-124815000D01*
G75*
G02*
X50190000Y-124665000I0J150000D01*
G01*
G37*
G36*
G01*
X50190000Y-125935000D02*
X50190000Y-125635000D01*
G75*
G02*
X50340000Y-125485000I150000J0D01*
G01*
X51990000Y-125485000D01*
G75*
G02*
X52140000Y-125635000I0J-150000D01*
G01*
X52140000Y-125935000D01*
G75*
G02*
X51990000Y-126085000I-150000J0D01*
G01*
X50340000Y-126085000D01*
G75*
G02*
X50190000Y-125935000I0J150000D01*
G01*
G37*
G36*
G01*
X50190000Y-127205000D02*
X50190000Y-126905000D01*
G75*
G02*
X50340000Y-126755000I150000J0D01*
G01*
X51990000Y-126755000D01*
G75*
G02*
X52140000Y-126905000I0J-150000D01*
G01*
X52140000Y-127205000D01*
G75*
G02*
X51990000Y-127355000I-150000J0D01*
G01*
X50340000Y-127355000D01*
G75*
G02*
X50190000Y-127205000I0J150000D01*
G01*
G37*
G36*
G01*
X45240000Y-127205000D02*
X45240000Y-126905000D01*
G75*
G02*
X45390000Y-126755000I150000J0D01*
G01*
X47040000Y-126755000D01*
G75*
G02*
X47190000Y-126905000I0J-150000D01*
G01*
X47190000Y-127205000D01*
G75*
G02*
X47040000Y-127355000I-150000J0D01*
G01*
X45390000Y-127355000D01*
G75*
G02*
X45240000Y-127205000I0J150000D01*
G01*
G37*
G36*
G01*
X45240000Y-125935000D02*
X45240000Y-125635000D01*
G75*
G02*
X45390000Y-125485000I150000J0D01*
G01*
X47040000Y-125485000D01*
G75*
G02*
X47190000Y-125635000I0J-150000D01*
G01*
X47190000Y-125935000D01*
G75*
G02*
X47040000Y-126085000I-150000J0D01*
G01*
X45390000Y-126085000D01*
G75*
G02*
X45240000Y-125935000I0J150000D01*
G01*
G37*
G36*
G01*
X45240000Y-124665000D02*
X45240000Y-124365000D01*
G75*
G02*
X45390000Y-124215000I150000J0D01*
G01*
X47040000Y-124215000D01*
G75*
G02*
X47190000Y-124365000I0J-150000D01*
G01*
X47190000Y-124665000D01*
G75*
G02*
X47040000Y-124815000I-150000J0D01*
G01*
X45390000Y-124815000D01*
G75*
G02*
X45240000Y-124665000I0J150000D01*
G01*
G37*
G36*
G01*
X45240000Y-123395000D02*
X45240000Y-123095000D01*
G75*
G02*
X45390000Y-122945000I150000J0D01*
G01*
X47040000Y-122945000D01*
G75*
G02*
X47190000Y-123095000I0J-150000D01*
G01*
X47190000Y-123395000D01*
G75*
G02*
X47040000Y-123545000I-150000J0D01*
G01*
X45390000Y-123545000D01*
G75*
G02*
X45240000Y-123395000I0J150000D01*
G01*
G37*
%TD*%
D29*
%TO.C,SW2*%
X123786000Y-150098000D03*
D28*
X123786000Y-152598000D03*
X123786000Y-155098000D03*
D33*
X131286000Y-146998000D03*
X131286000Y-158198000D03*
D28*
X138286000Y-150098000D03*
X138286000Y-155098000D03*
%TD*%
%TO.C,SW1*%
X123214000Y-124196000D03*
X127714000Y-124196000D03*
X123214000Y-130696000D03*
X127714000Y-130696000D03*
%TD*%
%TO.C,RV1*%
G36*
G01*
X120785000Y-91446000D02*
X119835000Y-91446000D01*
G75*
G02*
X119510000Y-91121000I0J325000D01*
G01*
X119510000Y-90471000D01*
G75*
G02*
X119835000Y-90146000I325000J0D01*
G01*
X120785000Y-90146000D01*
G75*
G02*
X121110000Y-90471000I0J-325000D01*
G01*
X121110000Y-91121000D01*
G75*
G02*
X120785000Y-91446000I-325000J0D01*
G01*
G37*
G36*
G01*
X123610000Y-90546000D02*
X122810000Y-90546000D01*
G75*
G02*
X122410000Y-90146000I0J400000D01*
G01*
X122410000Y-88946000D01*
G75*
G02*
X122810000Y-88546000I400000J0D01*
G01*
X123610000Y-88546000D01*
G75*
G02*
X124010000Y-88946000I0J-400000D01*
G01*
X124010000Y-90146000D01*
G75*
G02*
X123610000Y-90546000I-400000J0D01*
G01*
G37*
G36*
G01*
X120785000Y-88946000D02*
X119835000Y-88946000D01*
G75*
G02*
X119510000Y-88621000I0J325000D01*
G01*
X119510000Y-87971000D01*
G75*
G02*
X119835000Y-87646000I325000J0D01*
G01*
X120785000Y-87646000D01*
G75*
G02*
X121110000Y-87971000I0J-325000D01*
G01*
X121110000Y-88621000D01*
G75*
G02*
X120785000Y-88946000I-325000J0D01*
G01*
G37*
%TD*%
%TO.C,R31*%
G36*
G01*
X142462500Y-61125000D02*
X142937500Y-61125000D01*
G75*
G02*
X143175000Y-61362500I0J-237500D01*
G01*
X143175000Y-61862500D01*
G75*
G02*
X142937500Y-62100000I-237500J0D01*
G01*
X142462500Y-62100000D01*
G75*
G02*
X142225000Y-61862500I0J237500D01*
G01*
X142225000Y-61362500D01*
G75*
G02*
X142462500Y-61125000I237500J0D01*
G01*
G37*
G36*
G01*
X142462500Y-59300000D02*
X142937500Y-59300000D01*
G75*
G02*
X143175000Y-59537500I0J-237500D01*
G01*
X143175000Y-60037500D01*
G75*
G02*
X142937500Y-60275000I-237500J0D01*
G01*
X142462500Y-60275000D01*
G75*
G02*
X142225000Y-60037500I0J237500D01*
G01*
X142225000Y-59537500D01*
G75*
G02*
X142462500Y-59300000I237500J0D01*
G01*
G37*
%TD*%
%TO.C,R30*%
G36*
G01*
X142937500Y-75175000D02*
X142462500Y-75175000D01*
G75*
G02*
X142225000Y-74937500I0J237500D01*
G01*
X142225000Y-74437500D01*
G75*
G02*
X142462500Y-74200000I237500J0D01*
G01*
X142937500Y-74200000D01*
G75*
G02*
X143175000Y-74437500I0J-237500D01*
G01*
X143175000Y-74937500D01*
G75*
G02*
X142937500Y-75175000I-237500J0D01*
G01*
G37*
G36*
G01*
X142937500Y-77000000D02*
X142462500Y-77000000D01*
G75*
G02*
X142225000Y-76762500I0J237500D01*
G01*
X142225000Y-76262500D01*
G75*
G02*
X142462500Y-76025000I237500J0D01*
G01*
X142937500Y-76025000D01*
G75*
G02*
X143175000Y-76262500I0J-237500D01*
G01*
X143175000Y-76762500D01*
G75*
G02*
X142937500Y-77000000I-237500J0D01*
G01*
G37*
%TD*%
%TO.C,R29*%
G36*
G01*
X140037500Y-75175000D02*
X139562500Y-75175000D01*
G75*
G02*
X139325000Y-74937500I0J237500D01*
G01*
X139325000Y-74437500D01*
G75*
G02*
X139562500Y-74200000I237500J0D01*
G01*
X140037500Y-74200000D01*
G75*
G02*
X140275000Y-74437500I0J-237500D01*
G01*
X140275000Y-74937500D01*
G75*
G02*
X140037500Y-75175000I-237500J0D01*
G01*
G37*
G36*
G01*
X140037500Y-77000000D02*
X139562500Y-77000000D01*
G75*
G02*
X139325000Y-76762500I0J237500D01*
G01*
X139325000Y-76262500D01*
G75*
G02*
X139562500Y-76025000I237500J0D01*
G01*
X140037500Y-76025000D01*
G75*
G02*
X140275000Y-76262500I0J-237500D01*
G01*
X140275000Y-76762500D01*
G75*
G02*
X140037500Y-77000000I-237500J0D01*
G01*
G37*
%TD*%
%TO.C,R28*%
G36*
G01*
X135492500Y-80319000D02*
X135967500Y-80319000D01*
G75*
G02*
X136205000Y-80556500I0J-237500D01*
G01*
X136205000Y-81056500D01*
G75*
G02*
X135967500Y-81294000I-237500J0D01*
G01*
X135492500Y-81294000D01*
G75*
G02*
X135255000Y-81056500I0J237500D01*
G01*
X135255000Y-80556500D01*
G75*
G02*
X135492500Y-80319000I237500J0D01*
G01*
G37*
G36*
G01*
X135492500Y-78494000D02*
X135967500Y-78494000D01*
G75*
G02*
X136205000Y-78731500I0J-237500D01*
G01*
X136205000Y-79231500D01*
G75*
G02*
X135967500Y-79469000I-237500J0D01*
G01*
X135492500Y-79469000D01*
G75*
G02*
X135255000Y-79231500I0J237500D01*
G01*
X135255000Y-78731500D01*
G75*
G02*
X135492500Y-78494000I237500J0D01*
G01*
G37*
%TD*%
%TO.C,R27*%
G36*
G01*
X138540500Y-80319000D02*
X139015500Y-80319000D01*
G75*
G02*
X139253000Y-80556500I0J-237500D01*
G01*
X139253000Y-81056500D01*
G75*
G02*
X139015500Y-81294000I-237500J0D01*
G01*
X138540500Y-81294000D01*
G75*
G02*
X138303000Y-81056500I0J237500D01*
G01*
X138303000Y-80556500D01*
G75*
G02*
X138540500Y-80319000I237500J0D01*
G01*
G37*
G36*
G01*
X138540500Y-78494000D02*
X139015500Y-78494000D01*
G75*
G02*
X139253000Y-78731500I0J-237500D01*
G01*
X139253000Y-79231500D01*
G75*
G02*
X139015500Y-79469000I-237500J0D01*
G01*
X138540500Y-79469000D01*
G75*
G02*
X138303000Y-79231500I0J237500D01*
G01*
X138303000Y-78731500D01*
G75*
G02*
X138540500Y-78494000I237500J0D01*
G01*
G37*
%TD*%
%TO.C,R26*%
G36*
G01*
X117613000Y-88513500D02*
X117613000Y-88038500D01*
G75*
G02*
X117850500Y-87801000I237500J0D01*
G01*
X118350500Y-87801000D01*
G75*
G02*
X118588000Y-88038500I0J-237500D01*
G01*
X118588000Y-88513500D01*
G75*
G02*
X118350500Y-88751000I-237500J0D01*
G01*
X117850500Y-88751000D01*
G75*
G02*
X117613000Y-88513500I0J237500D01*
G01*
G37*
G36*
G01*
X115788000Y-88513500D02*
X115788000Y-88038500D01*
G75*
G02*
X116025500Y-87801000I237500J0D01*
G01*
X116525500Y-87801000D01*
G75*
G02*
X116763000Y-88038500I0J-237500D01*
G01*
X116763000Y-88513500D01*
G75*
G02*
X116525500Y-88751000I-237500J0D01*
G01*
X116025500Y-88751000D01*
G75*
G02*
X115788000Y-88513500I0J237500D01*
G01*
G37*
%TD*%
%TO.C,R25*%
G36*
G01*
X119275000Y-101462500D02*
X119275000Y-101937500D01*
G75*
G02*
X119037500Y-102175000I-237500J0D01*
G01*
X118537500Y-102175000D01*
G75*
G02*
X118300000Y-101937500I0J237500D01*
G01*
X118300000Y-101462500D01*
G75*
G02*
X118537500Y-101225000I237500J0D01*
G01*
X119037500Y-101225000D01*
G75*
G02*
X119275000Y-101462500I0J-237500D01*
G01*
G37*
G36*
G01*
X121100000Y-101462500D02*
X121100000Y-101937500D01*
G75*
G02*
X120862500Y-102175000I-237500J0D01*
G01*
X120362500Y-102175000D01*
G75*
G02*
X120125000Y-101937500I0J237500D01*
G01*
X120125000Y-101462500D01*
G75*
G02*
X120362500Y-101225000I237500J0D01*
G01*
X120862500Y-101225000D01*
G75*
G02*
X121100000Y-101462500I0J-237500D01*
G01*
G37*
%TD*%
%TO.C,R24*%
G36*
G01*
X65657000Y-145493500D02*
X65657000Y-145018500D01*
G75*
G02*
X65894500Y-144781000I237500J0D01*
G01*
X66394500Y-144781000D01*
G75*
G02*
X66632000Y-145018500I0J-237500D01*
G01*
X66632000Y-145493500D01*
G75*
G02*
X66394500Y-145731000I-237500J0D01*
G01*
X65894500Y-145731000D01*
G75*
G02*
X65657000Y-145493500I0J237500D01*
G01*
G37*
G36*
G01*
X63832000Y-145493500D02*
X63832000Y-145018500D01*
G75*
G02*
X64069500Y-144781000I237500J0D01*
G01*
X64569500Y-144781000D01*
G75*
G02*
X64807000Y-145018500I0J-237500D01*
G01*
X64807000Y-145493500D01*
G75*
G02*
X64569500Y-145731000I-237500J0D01*
G01*
X64069500Y-145731000D01*
G75*
G02*
X63832000Y-145493500I0J237500D01*
G01*
G37*
%TD*%
%TO.C,R23*%
G36*
G01*
X65657000Y-143969500D02*
X65657000Y-143494500D01*
G75*
G02*
X65894500Y-143257000I237500J0D01*
G01*
X66394500Y-143257000D01*
G75*
G02*
X66632000Y-143494500I0J-237500D01*
G01*
X66632000Y-143969500D01*
G75*
G02*
X66394500Y-144207000I-237500J0D01*
G01*
X65894500Y-144207000D01*
G75*
G02*
X65657000Y-143969500I0J237500D01*
G01*
G37*
G36*
G01*
X63832000Y-143969500D02*
X63832000Y-143494500D01*
G75*
G02*
X64069500Y-143257000I237500J0D01*
G01*
X64569500Y-143257000D01*
G75*
G02*
X64807000Y-143494500I0J-237500D01*
G01*
X64807000Y-143969500D01*
G75*
G02*
X64569500Y-144207000I-237500J0D01*
G01*
X64069500Y-144207000D01*
G75*
G02*
X63832000Y-143969500I0J237500D01*
G01*
G37*
%TD*%
%TO.C,R22*%
G36*
G01*
X123769500Y-146371000D02*
X123294500Y-146371000D01*
G75*
G02*
X123057000Y-146133500I0J237500D01*
G01*
X123057000Y-145633500D01*
G75*
G02*
X123294500Y-145396000I237500J0D01*
G01*
X123769500Y-145396000D01*
G75*
G02*
X124007000Y-145633500I0J-237500D01*
G01*
X124007000Y-146133500D01*
G75*
G02*
X123769500Y-146371000I-237500J0D01*
G01*
G37*
G36*
G01*
X123769500Y-148196000D02*
X123294500Y-148196000D01*
G75*
G02*
X123057000Y-147958500I0J237500D01*
G01*
X123057000Y-147458500D01*
G75*
G02*
X123294500Y-147221000I237500J0D01*
G01*
X123769500Y-147221000D01*
G75*
G02*
X124007000Y-147458500I0J-237500D01*
G01*
X124007000Y-147958500D01*
G75*
G02*
X123769500Y-148196000I-237500J0D01*
G01*
G37*
%TD*%
%TO.C,R21*%
G36*
G01*
X122245500Y-146371000D02*
X121770500Y-146371000D01*
G75*
G02*
X121533000Y-146133500I0J237500D01*
G01*
X121533000Y-145633500D01*
G75*
G02*
X121770500Y-145396000I237500J0D01*
G01*
X122245500Y-145396000D01*
G75*
G02*
X122483000Y-145633500I0J-237500D01*
G01*
X122483000Y-146133500D01*
G75*
G02*
X122245500Y-146371000I-237500J0D01*
G01*
G37*
G36*
G01*
X122245500Y-148196000D02*
X121770500Y-148196000D01*
G75*
G02*
X121533000Y-147958500I0J237500D01*
G01*
X121533000Y-147458500D01*
G75*
G02*
X121770500Y-147221000I237500J0D01*
G01*
X122245500Y-147221000D01*
G75*
G02*
X122483000Y-147458500I0J-237500D01*
G01*
X122483000Y-147958500D01*
G75*
G02*
X122245500Y-148196000I-237500J0D01*
G01*
G37*
%TD*%
%TO.C,R20*%
G36*
G01*
X120721500Y-146371000D02*
X120246500Y-146371000D01*
G75*
G02*
X120009000Y-146133500I0J237500D01*
G01*
X120009000Y-145633500D01*
G75*
G02*
X120246500Y-145396000I237500J0D01*
G01*
X120721500Y-145396000D01*
G75*
G02*
X120959000Y-145633500I0J-237500D01*
G01*
X120959000Y-146133500D01*
G75*
G02*
X120721500Y-146371000I-237500J0D01*
G01*
G37*
G36*
G01*
X120721500Y-148196000D02*
X120246500Y-148196000D01*
G75*
G02*
X120009000Y-147958500I0J237500D01*
G01*
X120009000Y-147458500D01*
G75*
G02*
X120246500Y-147221000I237500J0D01*
G01*
X120721500Y-147221000D01*
G75*
G02*
X120959000Y-147458500I0J-237500D01*
G01*
X120959000Y-147958500D01*
G75*
G02*
X120721500Y-148196000I-237500J0D01*
G01*
G37*
%TD*%
%TO.C,R19*%
G36*
G01*
X131071500Y-182393000D02*
X130596500Y-182393000D01*
G75*
G02*
X130359000Y-182155500I0J237500D01*
G01*
X130359000Y-181655500D01*
G75*
G02*
X130596500Y-181418000I237500J0D01*
G01*
X131071500Y-181418000D01*
G75*
G02*
X131309000Y-181655500I0J-237500D01*
G01*
X131309000Y-182155500D01*
G75*
G02*
X131071500Y-182393000I-237500J0D01*
G01*
G37*
G36*
G01*
X131071500Y-184218000D02*
X130596500Y-184218000D01*
G75*
G02*
X130359000Y-183980500I0J237500D01*
G01*
X130359000Y-183480500D01*
G75*
G02*
X130596500Y-183243000I237500J0D01*
G01*
X131071500Y-183243000D01*
G75*
G02*
X131309000Y-183480500I0J-237500D01*
G01*
X131309000Y-183980500D01*
G75*
G02*
X131071500Y-184218000I-237500J0D01*
G01*
G37*
%TD*%
%TO.C,R18*%
G36*
G01*
X118575000Y-178762500D02*
X118575000Y-179237500D01*
G75*
G02*
X118337500Y-179475000I-237500J0D01*
G01*
X117837500Y-179475000D01*
G75*
G02*
X117600000Y-179237500I0J237500D01*
G01*
X117600000Y-178762500D01*
G75*
G02*
X117837500Y-178525000I237500J0D01*
G01*
X118337500Y-178525000D01*
G75*
G02*
X118575000Y-178762500I0J-237500D01*
G01*
G37*
G36*
G01*
X120400000Y-178762500D02*
X120400000Y-179237500D01*
G75*
G02*
X120162500Y-179475000I-237500J0D01*
G01*
X119662500Y-179475000D01*
G75*
G02*
X119425000Y-179237500I0J237500D01*
G01*
X119425000Y-178762500D01*
G75*
G02*
X119662500Y-178525000I237500J0D01*
G01*
X120162500Y-178525000D01*
G75*
G02*
X120400000Y-178762500I0J-237500D01*
G01*
G37*
%TD*%
%TO.C,R17*%
G36*
G01*
X119895500Y-167661000D02*
X119420500Y-167661000D01*
G75*
G02*
X119183000Y-167423500I0J237500D01*
G01*
X119183000Y-166923500D01*
G75*
G02*
X119420500Y-166686000I237500J0D01*
G01*
X119895500Y-166686000D01*
G75*
G02*
X120133000Y-166923500I0J-237500D01*
G01*
X120133000Y-167423500D01*
G75*
G02*
X119895500Y-167661000I-237500J0D01*
G01*
G37*
G36*
G01*
X119895500Y-169486000D02*
X119420500Y-169486000D01*
G75*
G02*
X119183000Y-169248500I0J237500D01*
G01*
X119183000Y-168748500D01*
G75*
G02*
X119420500Y-168511000I237500J0D01*
G01*
X119895500Y-168511000D01*
G75*
G02*
X120133000Y-168748500I0J-237500D01*
G01*
X120133000Y-169248500D01*
G75*
G02*
X119895500Y-169486000I-237500J0D01*
G01*
G37*
%TD*%
%TO.C,R16*%
G36*
G01*
X119895500Y-170963000D02*
X119420500Y-170963000D01*
G75*
G02*
X119183000Y-170725500I0J237500D01*
G01*
X119183000Y-170225500D01*
G75*
G02*
X119420500Y-169988000I237500J0D01*
G01*
X119895500Y-169988000D01*
G75*
G02*
X120133000Y-170225500I0J-237500D01*
G01*
X120133000Y-170725500D01*
G75*
G02*
X119895500Y-170963000I-237500J0D01*
G01*
G37*
G36*
G01*
X119895500Y-172788000D02*
X119420500Y-172788000D01*
G75*
G02*
X119183000Y-172550500I0J237500D01*
G01*
X119183000Y-172050500D01*
G75*
G02*
X119420500Y-171813000I237500J0D01*
G01*
X119895500Y-171813000D01*
G75*
G02*
X120133000Y-172050500I0J-237500D01*
G01*
X120133000Y-172550500D01*
G75*
G02*
X119895500Y-172788000I-237500J0D01*
G01*
G37*
%TD*%
%TO.C,R15*%
G36*
G01*
X121419500Y-170963000D02*
X120944500Y-170963000D01*
G75*
G02*
X120707000Y-170725500I0J237500D01*
G01*
X120707000Y-170225500D01*
G75*
G02*
X120944500Y-169988000I237500J0D01*
G01*
X121419500Y-169988000D01*
G75*
G02*
X121657000Y-170225500I0J-237500D01*
G01*
X121657000Y-170725500D01*
G75*
G02*
X121419500Y-170963000I-237500J0D01*
G01*
G37*
G36*
G01*
X121419500Y-172788000D02*
X120944500Y-172788000D01*
G75*
G02*
X120707000Y-172550500I0J237500D01*
G01*
X120707000Y-172050500D01*
G75*
G02*
X120944500Y-171813000I237500J0D01*
G01*
X121419500Y-171813000D01*
G75*
G02*
X121657000Y-172050500I0J-237500D01*
G01*
X121657000Y-172550500D01*
G75*
G02*
X121419500Y-172788000I-237500J0D01*
G01*
G37*
%TD*%
%TO.C,R14*%
G36*
G01*
X58203000Y-144510500D02*
X58203000Y-144985500D01*
G75*
G02*
X57965500Y-145223000I-237500J0D01*
G01*
X57465500Y-145223000D01*
G75*
G02*
X57228000Y-144985500I0J237500D01*
G01*
X57228000Y-144510500D01*
G75*
G02*
X57465500Y-144273000I237500J0D01*
G01*
X57965500Y-144273000D01*
G75*
G02*
X58203000Y-144510500I0J-237500D01*
G01*
G37*
G36*
G01*
X60028000Y-144510500D02*
X60028000Y-144985500D01*
G75*
G02*
X59790500Y-145223000I-237500J0D01*
G01*
X59290500Y-145223000D01*
G75*
G02*
X59053000Y-144985500I0J237500D01*
G01*
X59053000Y-144510500D01*
G75*
G02*
X59290500Y-144273000I237500J0D01*
G01*
X59790500Y-144273000D01*
G75*
G02*
X60028000Y-144510500I0J-237500D01*
G01*
G37*
%TD*%
%TO.C,R13*%
G36*
G01*
X125879500Y-109079000D02*
X125404500Y-109079000D01*
G75*
G02*
X125167000Y-108841500I0J237500D01*
G01*
X125167000Y-108341500D01*
G75*
G02*
X125404500Y-108104000I237500J0D01*
G01*
X125879500Y-108104000D01*
G75*
G02*
X126117000Y-108341500I0J-237500D01*
G01*
X126117000Y-108841500D01*
G75*
G02*
X125879500Y-109079000I-237500J0D01*
G01*
G37*
G36*
G01*
X125879500Y-110904000D02*
X125404500Y-110904000D01*
G75*
G02*
X125167000Y-110666500I0J237500D01*
G01*
X125167000Y-110166500D01*
G75*
G02*
X125404500Y-109929000I237500J0D01*
G01*
X125879500Y-109929000D01*
G75*
G02*
X126117000Y-110166500I0J-237500D01*
G01*
X126117000Y-110666500D01*
G75*
G02*
X125879500Y-110904000I-237500J0D01*
G01*
G37*
%TD*%
%TO.C,R12*%
G36*
G01*
X125879500Y-105523000D02*
X125404500Y-105523000D01*
G75*
G02*
X125167000Y-105285500I0J237500D01*
G01*
X125167000Y-104785500D01*
G75*
G02*
X125404500Y-104548000I237500J0D01*
G01*
X125879500Y-104548000D01*
G75*
G02*
X126117000Y-104785500I0J-237500D01*
G01*
X126117000Y-105285500D01*
G75*
G02*
X125879500Y-105523000I-237500J0D01*
G01*
G37*
G36*
G01*
X125879500Y-107348000D02*
X125404500Y-107348000D01*
G75*
G02*
X125167000Y-107110500I0J237500D01*
G01*
X125167000Y-106610500D01*
G75*
G02*
X125404500Y-106373000I237500J0D01*
G01*
X125879500Y-106373000D01*
G75*
G02*
X126117000Y-106610500I0J-237500D01*
G01*
X126117000Y-107110500D01*
G75*
G02*
X125879500Y-107348000I-237500J0D01*
G01*
G37*
%TD*%
%TO.C,R11*%
G36*
G01*
X134829500Y-176731000D02*
X134354500Y-176731000D01*
G75*
G02*
X134117000Y-176493500I0J237500D01*
G01*
X134117000Y-175993500D01*
G75*
G02*
X134354500Y-175756000I237500J0D01*
G01*
X134829500Y-175756000D01*
G75*
G02*
X135067000Y-175993500I0J-237500D01*
G01*
X135067000Y-176493500D01*
G75*
G02*
X134829500Y-176731000I-237500J0D01*
G01*
G37*
G36*
G01*
X134829500Y-178556000D02*
X134354500Y-178556000D01*
G75*
G02*
X134117000Y-178318500I0J237500D01*
G01*
X134117000Y-177818500D01*
G75*
G02*
X134354500Y-177581000I237500J0D01*
G01*
X134829500Y-177581000D01*
G75*
G02*
X135067000Y-177818500I0J-237500D01*
G01*
X135067000Y-178318500D01*
G75*
G02*
X134829500Y-178556000I-237500J0D01*
G01*
G37*
%TD*%
%TO.C,R10*%
G36*
G01*
X141037500Y-176731000D02*
X140562500Y-176731000D01*
G75*
G02*
X140325000Y-176493500I0J237500D01*
G01*
X140325000Y-175993500D01*
G75*
G02*
X140562500Y-175756000I237500J0D01*
G01*
X141037500Y-175756000D01*
G75*
G02*
X141275000Y-175993500I0J-237500D01*
G01*
X141275000Y-176493500D01*
G75*
G02*
X141037500Y-176731000I-237500J0D01*
G01*
G37*
G36*
G01*
X141037500Y-178556000D02*
X140562500Y-178556000D01*
G75*
G02*
X140325000Y-178318500I0J237500D01*
G01*
X140325000Y-177818500D01*
G75*
G02*
X140562500Y-177581000I237500J0D01*
G01*
X141037500Y-177581000D01*
G75*
G02*
X141275000Y-177818500I0J-237500D01*
G01*
X141275000Y-178318500D01*
G75*
G02*
X141037500Y-178556000I-237500J0D01*
G01*
G37*
%TD*%
%TO.C,R9*%
G36*
G01*
X136386500Y-177581000D02*
X136861500Y-177581000D01*
G75*
G02*
X137099000Y-177818500I0J-237500D01*
G01*
X137099000Y-178318500D01*
G75*
G02*
X136861500Y-178556000I-237500J0D01*
G01*
X136386500Y-178556000D01*
G75*
G02*
X136149000Y-178318500I0J237500D01*
G01*
X136149000Y-177818500D01*
G75*
G02*
X136386500Y-177581000I237500J0D01*
G01*
G37*
G36*
G01*
X136386500Y-175756000D02*
X136861500Y-175756000D01*
G75*
G02*
X137099000Y-175993500I0J-237500D01*
G01*
X137099000Y-176493500D01*
G75*
G02*
X136861500Y-176731000I-237500J0D01*
G01*
X136386500Y-176731000D01*
G75*
G02*
X136149000Y-176493500I0J237500D01*
G01*
X136149000Y-175993500D01*
G75*
G02*
X136386500Y-175756000I237500J0D01*
G01*
G37*
%TD*%
%TO.C,R8*%
G36*
G01*
X142594500Y-177581000D02*
X143069500Y-177581000D01*
G75*
G02*
X143307000Y-177818500I0J-237500D01*
G01*
X143307000Y-178318500D01*
G75*
G02*
X143069500Y-178556000I-237500J0D01*
G01*
X142594500Y-178556000D01*
G75*
G02*
X142357000Y-178318500I0J237500D01*
G01*
X142357000Y-177818500D01*
G75*
G02*
X142594500Y-177581000I237500J0D01*
G01*
G37*
G36*
G01*
X142594500Y-175756000D02*
X143069500Y-175756000D01*
G75*
G02*
X143307000Y-175993500I0J-237500D01*
G01*
X143307000Y-176493500D01*
G75*
G02*
X143069500Y-176731000I-237500J0D01*
G01*
X142594500Y-176731000D01*
G75*
G02*
X142357000Y-176493500I0J237500D01*
G01*
X142357000Y-175993500D01*
G75*
G02*
X142594500Y-175756000I237500J0D01*
G01*
G37*
%TD*%
%TO.C,R7*%
G36*
G01*
X133051500Y-180287000D02*
X132576500Y-180287000D01*
G75*
G02*
X132339000Y-180049500I0J237500D01*
G01*
X132339000Y-179549500D01*
G75*
G02*
X132576500Y-179312000I237500J0D01*
G01*
X133051500Y-179312000D01*
G75*
G02*
X133289000Y-179549500I0J-237500D01*
G01*
X133289000Y-180049500D01*
G75*
G02*
X133051500Y-180287000I-237500J0D01*
G01*
G37*
G36*
G01*
X133051500Y-182112000D02*
X132576500Y-182112000D01*
G75*
G02*
X132339000Y-181874500I0J237500D01*
G01*
X132339000Y-181374500D01*
G75*
G02*
X132576500Y-181137000I237500J0D01*
G01*
X133051500Y-181137000D01*
G75*
G02*
X133289000Y-181374500I0J-237500D01*
G01*
X133289000Y-181874500D01*
G75*
G02*
X133051500Y-182112000I-237500J0D01*
G01*
G37*
%TD*%
%TO.C,R6*%
G36*
G01*
X139259500Y-180287000D02*
X138784500Y-180287000D01*
G75*
G02*
X138547000Y-180049500I0J237500D01*
G01*
X138547000Y-179549500D01*
G75*
G02*
X138784500Y-179312000I237500J0D01*
G01*
X139259500Y-179312000D01*
G75*
G02*
X139497000Y-179549500I0J-237500D01*
G01*
X139497000Y-180049500D01*
G75*
G02*
X139259500Y-180287000I-237500J0D01*
G01*
G37*
G36*
G01*
X139259500Y-182112000D02*
X138784500Y-182112000D01*
G75*
G02*
X138547000Y-181874500I0J237500D01*
G01*
X138547000Y-181374500D01*
G75*
G02*
X138784500Y-181137000I237500J0D01*
G01*
X139259500Y-181137000D01*
G75*
G02*
X139497000Y-181374500I0J-237500D01*
G01*
X139497000Y-181874500D01*
G75*
G02*
X139259500Y-182112000I-237500J0D01*
G01*
G37*
%TD*%
%TO.C,R5*%
G36*
G01*
X118359000Y-111298500D02*
X118359000Y-111773500D01*
G75*
G02*
X118121500Y-112011000I-237500J0D01*
G01*
X117621500Y-112011000D01*
G75*
G02*
X117384000Y-111773500I0J237500D01*
G01*
X117384000Y-111298500D01*
G75*
G02*
X117621500Y-111061000I237500J0D01*
G01*
X118121500Y-111061000D01*
G75*
G02*
X118359000Y-111298500I0J-237500D01*
G01*
G37*
G36*
G01*
X120184000Y-111298500D02*
X120184000Y-111773500D01*
G75*
G02*
X119946500Y-112011000I-237500J0D01*
G01*
X119446500Y-112011000D01*
G75*
G02*
X119209000Y-111773500I0J237500D01*
G01*
X119209000Y-111298500D01*
G75*
G02*
X119446500Y-111061000I237500J0D01*
G01*
X119946500Y-111061000D01*
G75*
G02*
X120184000Y-111298500I0J-237500D01*
G01*
G37*
%TD*%
%TO.C,R4*%
G36*
G01*
X63649000Y-104557500D02*
X63649000Y-104082500D01*
G75*
G02*
X63886500Y-103845000I237500J0D01*
G01*
X64386500Y-103845000D01*
G75*
G02*
X64624000Y-104082500I0J-237500D01*
G01*
X64624000Y-104557500D01*
G75*
G02*
X64386500Y-104795000I-237500J0D01*
G01*
X63886500Y-104795000D01*
G75*
G02*
X63649000Y-104557500I0J237500D01*
G01*
G37*
G36*
G01*
X61824000Y-104557500D02*
X61824000Y-104082500D01*
G75*
G02*
X62061500Y-103845000I237500J0D01*
G01*
X62561500Y-103845000D01*
G75*
G02*
X62799000Y-104082500I0J-237500D01*
G01*
X62799000Y-104557500D01*
G75*
G02*
X62561500Y-104795000I-237500J0D01*
G01*
X62061500Y-104795000D01*
G75*
G02*
X61824000Y-104557500I0J237500D01*
G01*
G37*
%TD*%
D23*
%TO.C,Q3*%
X135608000Y-181712000D03*
X134658000Y-179712000D03*
X136558000Y-179712000D03*
%TD*%
%TO.C,Q2*%
X141816000Y-181712000D03*
X140866000Y-179712000D03*
X142766000Y-179712000D03*
%TD*%
D24*
%TO.C,Q1*%
X55580000Y-65000000D03*
X53040000Y-65000000D03*
D25*
X50500000Y-65000000D03*
D26*
X53040000Y-48340000D03*
%TD*%
D11*
%TO.C,J8*%
X137460000Y-72160000D03*
X137460000Y-69620000D03*
X137460000Y-67080000D03*
X137460000Y-64540000D03*
X137460000Y-62000000D03*
X140000000Y-72160000D03*
X140000000Y-69620000D03*
X140000000Y-67080000D03*
X140000000Y-64540000D03*
G36*
G01*
X140850000Y-61400000D02*
X140850000Y-62600000D01*
G75*
G02*
X140600000Y-62850000I-250000J0D01*
G01*
X139400000Y-62850000D01*
G75*
G02*
X139150000Y-62600000I0J250000D01*
G01*
X139150000Y-61400000D01*
G75*
G02*
X139400000Y-61150000I250000J0D01*
G01*
X140600000Y-61150000D01*
G75*
G02*
X140850000Y-61400000I0J-250000D01*
G01*
G37*
%TD*%
%TO.C,J6*%
X137460000Y-97160000D03*
X137460000Y-94620000D03*
X137460000Y-92080000D03*
X137460000Y-89540000D03*
X137460000Y-87000000D03*
X140000000Y-97160000D03*
X140000000Y-94620000D03*
X140000000Y-92080000D03*
X140000000Y-89540000D03*
G36*
G01*
X140850000Y-86400000D02*
X140850000Y-87600000D01*
G75*
G02*
X140600000Y-87850000I-250000J0D01*
G01*
X139400000Y-87850000D01*
G75*
G02*
X139150000Y-87600000I0J250000D01*
G01*
X139150000Y-86400000D01*
G75*
G02*
X139400000Y-86150000I250000J0D01*
G01*
X140600000Y-86150000D01*
G75*
G02*
X140850000Y-86400000I0J-250000D01*
G01*
G37*
%TD*%
D34*
%TO.C,J3*%
X141002000Y-121476000D03*
D35*
X139732000Y-121476000D03*
X141002000Y-120206000D03*
X139732000Y-120206000D03*
X141002000Y-118936000D03*
X139732000Y-118936000D03*
X141002000Y-117666000D03*
X139732000Y-117666000D03*
X141002000Y-116396000D03*
X139732000Y-116396000D03*
%TD*%
D36*
%TO.C,J1*%
X73500000Y-55500000D03*
D37*
X68500000Y-55500000D03*
%TD*%
D20*
%TO.C,H4*%
X36697056Y-133302944D03*
X35000000Y-132600000D03*
X33302944Y-133302944D03*
X32600000Y-135000000D03*
X33302944Y-136697056D03*
X35000000Y-137400000D03*
X36697056Y-136697056D03*
X37400000Y-135000000D03*
D21*
X35000000Y-135000000D03*
%TD*%
D20*
%TO.C,H3*%
X141697056Y-133302944D03*
X140000000Y-132600000D03*
X138302944Y-133302944D03*
X137600000Y-135000000D03*
X138302944Y-136697056D03*
X140000000Y-137400000D03*
X141697056Y-136697056D03*
X142400000Y-135000000D03*
D21*
X140000000Y-135000000D03*
%TD*%
D20*
%TO.C,H2*%
X36697056Y-168302944D03*
X35000000Y-167600000D03*
X33302944Y-168302944D03*
X32600000Y-170000000D03*
X33302944Y-171697056D03*
X35000000Y-172400000D03*
X36697056Y-171697056D03*
X37400000Y-170000000D03*
D21*
X35000000Y-170000000D03*
%TD*%
D20*
%TO.C,H1*%
X141697056Y-168302944D03*
X140000000Y-167600000D03*
X138302944Y-168302944D03*
X137600000Y-170000000D03*
X138302944Y-171697056D03*
X140000000Y-172400000D03*
X141697056Y-171697056D03*
X142400000Y-170000000D03*
D21*
X140000000Y-170000000D03*
%TD*%
D10*
%TO.C,D9*%
X130650000Y-100044000D03*
X131600000Y-100044000D03*
X129700000Y-100044000D03*
X129700000Y-97844000D03*
X130650000Y-97844000D03*
X131600000Y-97844000D03*
%TD*%
%TO.C,D8*%
X130650000Y-93440000D03*
X131600000Y-93440000D03*
X129700000Y-93440000D03*
X129700000Y-91240000D03*
X130650000Y-91240000D03*
X131600000Y-91240000D03*
%TD*%
%TO.C,D7*%
X130650000Y-87090000D03*
X131600000Y-87090000D03*
X129700000Y-87090000D03*
X129700000Y-84890000D03*
X130650000Y-84890000D03*
X131600000Y-84890000D03*
%TD*%
D38*
%TO.C,D6*%
X123388000Y-176722000D03*
X123388000Y-177672000D03*
X123388000Y-175772000D03*
X126088000Y-175772000D03*
X126088000Y-176722000D03*
X126088000Y-177672000D03*
%TD*%
D27*
%TO.C,D5*%
X129960000Y-106376000D03*
X129010000Y-106376000D03*
X130910000Y-106376000D03*
X130910000Y-109076000D03*
X129960000Y-109076000D03*
X129010000Y-109076000D03*
%TD*%
%TO.C,D4*%
G36*
G01*
X134496000Y-183268500D02*
X134496000Y-183743500D01*
G75*
G02*
X134258500Y-183981000I-237500J0D01*
G01*
X133683500Y-183981000D01*
G75*
G02*
X133446000Y-183743500I0J237500D01*
G01*
X133446000Y-183268500D01*
G75*
G02*
X133683500Y-183031000I237500J0D01*
G01*
X134258500Y-183031000D01*
G75*
G02*
X134496000Y-183268500I0J-237500D01*
G01*
G37*
G36*
G01*
X136246000Y-183268500D02*
X136246000Y-183743500D01*
G75*
G02*
X136008500Y-183981000I-237500J0D01*
G01*
X135433500Y-183981000D01*
G75*
G02*
X135196000Y-183743500I0J237500D01*
G01*
X135196000Y-183268500D01*
G75*
G02*
X135433500Y-183031000I237500J0D01*
G01*
X136008500Y-183031000D01*
G75*
G02*
X136246000Y-183268500I0J-237500D01*
G01*
G37*
%TD*%
%TO.C,D3*%
G36*
G01*
X140704000Y-183268500D02*
X140704000Y-183743500D01*
G75*
G02*
X140466500Y-183981000I-237500J0D01*
G01*
X139891500Y-183981000D01*
G75*
G02*
X139654000Y-183743500I0J237500D01*
G01*
X139654000Y-183268500D01*
G75*
G02*
X139891500Y-183031000I237500J0D01*
G01*
X140466500Y-183031000D01*
G75*
G02*
X140704000Y-183268500I0J-237500D01*
G01*
G37*
G36*
G01*
X142454000Y-183268500D02*
X142454000Y-183743500D01*
G75*
G02*
X142216500Y-183981000I-237500J0D01*
G01*
X141641500Y-183981000D01*
G75*
G02*
X141404000Y-183743500I0J237500D01*
G01*
X141404000Y-183268500D01*
G75*
G02*
X141641500Y-183031000I237500J0D01*
G01*
X142216500Y-183031000D01*
G75*
G02*
X142454000Y-183268500I0J-237500D01*
G01*
G37*
%TD*%
D39*
%TO.C,D2*%
X51175000Y-70025000D03*
D40*
X57475000Y-67745000D03*
X57475000Y-72305000D03*
%TD*%
%TO.C,C50*%
G36*
G01*
X128126500Y-76917000D02*
X128601500Y-76917000D01*
G75*
G02*
X128839000Y-77154500I0J-237500D01*
G01*
X128839000Y-77754500D01*
G75*
G02*
X128601500Y-77992000I-237500J0D01*
G01*
X128126500Y-77992000D01*
G75*
G02*
X127889000Y-77754500I0J237500D01*
G01*
X127889000Y-77154500D01*
G75*
G02*
X128126500Y-76917000I237500J0D01*
G01*
G37*
G36*
G01*
X128126500Y-75192000D02*
X128601500Y-75192000D01*
G75*
G02*
X128839000Y-75429500I0J-237500D01*
G01*
X128839000Y-76029500D01*
G75*
G02*
X128601500Y-76267000I-237500J0D01*
G01*
X128126500Y-76267000D01*
G75*
G02*
X127889000Y-76029500I0J237500D01*
G01*
X127889000Y-75429500D01*
G75*
G02*
X128126500Y-75192000I237500J0D01*
G01*
G37*
%TD*%
%TO.C,C49*%
G36*
G01*
X128347500Y-99635000D02*
X127872500Y-99635000D01*
G75*
G02*
X127635000Y-99397500I0J237500D01*
G01*
X127635000Y-98797500D01*
G75*
G02*
X127872500Y-98560000I237500J0D01*
G01*
X128347500Y-98560000D01*
G75*
G02*
X128585000Y-98797500I0J-237500D01*
G01*
X128585000Y-99397500D01*
G75*
G02*
X128347500Y-99635000I-237500J0D01*
G01*
G37*
G36*
G01*
X128347500Y-101360000D02*
X127872500Y-101360000D01*
G75*
G02*
X127635000Y-101122500I0J237500D01*
G01*
X127635000Y-100522500D01*
G75*
G02*
X127872500Y-100285000I237500J0D01*
G01*
X128347500Y-100285000D01*
G75*
G02*
X128585000Y-100522500I0J-237500D01*
G01*
X128585000Y-101122500D01*
G75*
G02*
X128347500Y-101360000I-237500J0D01*
G01*
G37*
%TD*%
%TO.C,C47*%
G36*
G01*
X128347500Y-93031000D02*
X127872500Y-93031000D01*
G75*
G02*
X127635000Y-92793500I0J237500D01*
G01*
X127635000Y-92193500D01*
G75*
G02*
X127872500Y-91956000I237500J0D01*
G01*
X128347500Y-91956000D01*
G75*
G02*
X128585000Y-92193500I0J-237500D01*
G01*
X128585000Y-92793500D01*
G75*
G02*
X128347500Y-93031000I-237500J0D01*
G01*
G37*
G36*
G01*
X128347500Y-94756000D02*
X127872500Y-94756000D01*
G75*
G02*
X127635000Y-94518500I0J237500D01*
G01*
X127635000Y-93918500D01*
G75*
G02*
X127872500Y-93681000I237500J0D01*
G01*
X128347500Y-93681000D01*
G75*
G02*
X128585000Y-93918500I0J-237500D01*
G01*
X128585000Y-94518500D01*
G75*
G02*
X128347500Y-94756000I-237500J0D01*
G01*
G37*
%TD*%
%TO.C,C46*%
G36*
G01*
X128347500Y-86681000D02*
X127872500Y-86681000D01*
G75*
G02*
X127635000Y-86443500I0J237500D01*
G01*
X127635000Y-85843500D01*
G75*
G02*
X127872500Y-85606000I237500J0D01*
G01*
X128347500Y-85606000D01*
G75*
G02*
X128585000Y-85843500I0J-237500D01*
G01*
X128585000Y-86443500D01*
G75*
G02*
X128347500Y-86681000I-237500J0D01*
G01*
G37*
G36*
G01*
X128347500Y-88406000D02*
X127872500Y-88406000D01*
G75*
G02*
X127635000Y-88168500I0J237500D01*
G01*
X127635000Y-87568500D01*
G75*
G02*
X127872500Y-87331000I237500J0D01*
G01*
X128347500Y-87331000D01*
G75*
G02*
X128585000Y-87568500I0J-237500D01*
G01*
X128585000Y-88168500D01*
G75*
G02*
X128347500Y-88406000I-237500J0D01*
G01*
G37*
%TD*%
%TO.C,C45*%
G36*
G01*
X117458500Y-95205000D02*
X117933500Y-95205000D01*
G75*
G02*
X118171000Y-95442500I0J-237500D01*
G01*
X118171000Y-96042500D01*
G75*
G02*
X117933500Y-96280000I-237500J0D01*
G01*
X117458500Y-96280000D01*
G75*
G02*
X117221000Y-96042500I0J237500D01*
G01*
X117221000Y-95442500D01*
G75*
G02*
X117458500Y-95205000I237500J0D01*
G01*
G37*
G36*
G01*
X117458500Y-93480000D02*
X117933500Y-93480000D01*
G75*
G02*
X118171000Y-93717500I0J-237500D01*
G01*
X118171000Y-94317500D01*
G75*
G02*
X117933500Y-94555000I-237500J0D01*
G01*
X117458500Y-94555000D01*
G75*
G02*
X117221000Y-94317500I0J237500D01*
G01*
X117221000Y-93717500D01*
G75*
G02*
X117458500Y-93480000I237500J0D01*
G01*
G37*
%TD*%
%TO.C,C44*%
G36*
G01*
X117458500Y-91395000D02*
X117933500Y-91395000D01*
G75*
G02*
X118171000Y-91632500I0J-237500D01*
G01*
X118171000Y-92232500D01*
G75*
G02*
X117933500Y-92470000I-237500J0D01*
G01*
X117458500Y-92470000D01*
G75*
G02*
X117221000Y-92232500I0J237500D01*
G01*
X117221000Y-91632500D01*
G75*
G02*
X117458500Y-91395000I237500J0D01*
G01*
G37*
G36*
G01*
X117458500Y-89670000D02*
X117933500Y-89670000D01*
G75*
G02*
X118171000Y-89907500I0J-237500D01*
G01*
X118171000Y-90507500D01*
G75*
G02*
X117933500Y-90745000I-237500J0D01*
G01*
X117458500Y-90745000D01*
G75*
G02*
X117221000Y-90507500I0J237500D01*
G01*
X117221000Y-89907500D01*
G75*
G02*
X117458500Y-89670000I237500J0D01*
G01*
G37*
%TD*%
%TO.C,C43*%
G36*
G01*
X130512500Y-167325000D02*
X130987500Y-167325000D01*
G75*
G02*
X131225000Y-167562500I0J-237500D01*
G01*
X131225000Y-168162500D01*
G75*
G02*
X130987500Y-168400000I-237500J0D01*
G01*
X130512500Y-168400000D01*
G75*
G02*
X130275000Y-168162500I0J237500D01*
G01*
X130275000Y-167562500D01*
G75*
G02*
X130512500Y-167325000I237500J0D01*
G01*
G37*
G36*
G01*
X130512500Y-165600000D02*
X130987500Y-165600000D01*
G75*
G02*
X131225000Y-165837500I0J-237500D01*
G01*
X131225000Y-166437500D01*
G75*
G02*
X130987500Y-166675000I-237500J0D01*
G01*
X130512500Y-166675000D01*
G75*
G02*
X130275000Y-166437500I0J237500D01*
G01*
X130275000Y-165837500D01*
G75*
G02*
X130512500Y-165600000I237500J0D01*
G01*
G37*
%TD*%
%TO.C,C42*%
G36*
G01*
X129325000Y-170737500D02*
X129325000Y-170262500D01*
G75*
G02*
X129562500Y-170025000I237500J0D01*
G01*
X130162500Y-170025000D01*
G75*
G02*
X130400000Y-170262500I0J-237500D01*
G01*
X130400000Y-170737500D01*
G75*
G02*
X130162500Y-170975000I-237500J0D01*
G01*
X129562500Y-170975000D01*
G75*
G02*
X129325000Y-170737500I0J237500D01*
G01*
G37*
G36*
G01*
X127600000Y-170737500D02*
X127600000Y-170262500D01*
G75*
G02*
X127837500Y-170025000I237500J0D01*
G01*
X128437500Y-170025000D01*
G75*
G02*
X128675000Y-170262500I0J-237500D01*
G01*
X128675000Y-170737500D01*
G75*
G02*
X128437500Y-170975000I-237500J0D01*
G01*
X127837500Y-170975000D01*
G75*
G02*
X127600000Y-170737500I0J237500D01*
G01*
G37*
%TD*%
%TO.C,C39*%
G36*
G01*
X49246500Y-143803000D02*
X49721500Y-143803000D01*
G75*
G02*
X49959000Y-144040500I0J-237500D01*
G01*
X49959000Y-144640500D01*
G75*
G02*
X49721500Y-144878000I-237500J0D01*
G01*
X49246500Y-144878000D01*
G75*
G02*
X49009000Y-144640500I0J237500D01*
G01*
X49009000Y-144040500D01*
G75*
G02*
X49246500Y-143803000I237500J0D01*
G01*
G37*
G36*
G01*
X49246500Y-142078000D02*
X49721500Y-142078000D01*
G75*
G02*
X49959000Y-142315500I0J-237500D01*
G01*
X49959000Y-142915500D01*
G75*
G02*
X49721500Y-143153000I-237500J0D01*
G01*
X49246500Y-143153000D01*
G75*
G02*
X49009000Y-142915500I0J237500D01*
G01*
X49009000Y-142315500D01*
G75*
G02*
X49246500Y-142078000I237500J0D01*
G01*
G37*
%TD*%
%TO.C,C38*%
G36*
G01*
X120944500Y-175269000D02*
X121419500Y-175269000D01*
G75*
G02*
X121657000Y-175506500I0J-237500D01*
G01*
X121657000Y-176106500D01*
G75*
G02*
X121419500Y-176344000I-237500J0D01*
G01*
X120944500Y-176344000D01*
G75*
G02*
X120707000Y-176106500I0J237500D01*
G01*
X120707000Y-175506500D01*
G75*
G02*
X120944500Y-175269000I237500J0D01*
G01*
G37*
G36*
G01*
X120944500Y-173544000D02*
X121419500Y-173544000D01*
G75*
G02*
X121657000Y-173781500I0J-237500D01*
G01*
X121657000Y-174381500D01*
G75*
G02*
X121419500Y-174619000I-237500J0D01*
G01*
X120944500Y-174619000D01*
G75*
G02*
X120707000Y-174381500I0J237500D01*
G01*
X120707000Y-173781500D01*
G75*
G02*
X120944500Y-173544000I237500J0D01*
G01*
G37*
%TD*%
%TO.C,C37*%
G36*
G01*
X121419500Y-167761000D02*
X120944500Y-167761000D01*
G75*
G02*
X120707000Y-167523500I0J237500D01*
G01*
X120707000Y-166923500D01*
G75*
G02*
X120944500Y-166686000I237500J0D01*
G01*
X121419500Y-166686000D01*
G75*
G02*
X121657000Y-166923500I0J-237500D01*
G01*
X121657000Y-167523500D01*
G75*
G02*
X121419500Y-167761000I-237500J0D01*
G01*
G37*
G36*
G01*
X121419500Y-169486000D02*
X120944500Y-169486000D01*
G75*
G02*
X120707000Y-169248500I0J237500D01*
G01*
X120707000Y-168648500D01*
G75*
G02*
X120944500Y-168411000I237500J0D01*
G01*
X121419500Y-168411000D01*
G75*
G02*
X121657000Y-168648500I0J-237500D01*
G01*
X121657000Y-169248500D01*
G75*
G02*
X121419500Y-169486000I-237500J0D01*
G01*
G37*
%TD*%
%TO.C,C36*%
G36*
G01*
X127657500Y-107401000D02*
X127182500Y-107401000D01*
G75*
G02*
X126945000Y-107163500I0J237500D01*
G01*
X126945000Y-106563500D01*
G75*
G02*
X127182500Y-106326000I237500J0D01*
G01*
X127657500Y-106326000D01*
G75*
G02*
X127895000Y-106563500I0J-237500D01*
G01*
X127895000Y-107163500D01*
G75*
G02*
X127657500Y-107401000I-237500J0D01*
G01*
G37*
G36*
G01*
X127657500Y-109126000D02*
X127182500Y-109126000D01*
G75*
G02*
X126945000Y-108888500I0J237500D01*
G01*
X126945000Y-108288500D01*
G75*
G02*
X127182500Y-108051000I237500J0D01*
G01*
X127657500Y-108051000D01*
G75*
G02*
X127895000Y-108288500I0J-237500D01*
G01*
X127895000Y-108888500D01*
G75*
G02*
X127657500Y-109126000I-237500J0D01*
G01*
G37*
%TD*%
%TO.C,C35*%
G36*
G01*
X53785500Y-148233000D02*
X53310500Y-148233000D01*
G75*
G02*
X53073000Y-147995500I0J237500D01*
G01*
X53073000Y-147395500D01*
G75*
G02*
X53310500Y-147158000I237500J0D01*
G01*
X53785500Y-147158000D01*
G75*
G02*
X54023000Y-147395500I0J-237500D01*
G01*
X54023000Y-147995500D01*
G75*
G02*
X53785500Y-148233000I-237500J0D01*
G01*
G37*
G36*
G01*
X53785500Y-149958000D02*
X53310500Y-149958000D01*
G75*
G02*
X53073000Y-149720500I0J237500D01*
G01*
X53073000Y-149120500D01*
G75*
G02*
X53310500Y-148883000I237500J0D01*
G01*
X53785500Y-148883000D01*
G75*
G02*
X54023000Y-149120500I0J-237500D01*
G01*
X54023000Y-149720500D01*
G75*
G02*
X53785500Y-149958000I-237500J0D01*
G01*
G37*
%TD*%
%TO.C,C34*%
G36*
G01*
X122610500Y-109829000D02*
X123085500Y-109829000D01*
G75*
G02*
X123323000Y-110066500I0J-237500D01*
G01*
X123323000Y-110666500D01*
G75*
G02*
X123085500Y-110904000I-237500J0D01*
G01*
X122610500Y-110904000D01*
G75*
G02*
X122373000Y-110666500I0J237500D01*
G01*
X122373000Y-110066500D01*
G75*
G02*
X122610500Y-109829000I237500J0D01*
G01*
G37*
G36*
G01*
X122610500Y-108104000D02*
X123085500Y-108104000D01*
G75*
G02*
X123323000Y-108341500I0J-237500D01*
G01*
X123323000Y-108941500D01*
G75*
G02*
X123085500Y-109179000I-237500J0D01*
G01*
X122610500Y-109179000D01*
G75*
G02*
X122373000Y-108941500I0J237500D01*
G01*
X122373000Y-108341500D01*
G75*
G02*
X122610500Y-108104000I237500J0D01*
G01*
G37*
%TD*%
%TO.C,C33*%
G36*
G01*
X57541000Y-136890500D02*
X57541000Y-137365500D01*
G75*
G02*
X57303500Y-137603000I-237500J0D01*
G01*
X56703500Y-137603000D01*
G75*
G02*
X56466000Y-137365500I0J237500D01*
G01*
X56466000Y-136890500D01*
G75*
G02*
X56703500Y-136653000I237500J0D01*
G01*
X57303500Y-136653000D01*
G75*
G02*
X57541000Y-136890500I0J-237500D01*
G01*
G37*
G36*
G01*
X59266000Y-136890500D02*
X59266000Y-137365500D01*
G75*
G02*
X59028500Y-137603000I-237500J0D01*
G01*
X58428500Y-137603000D01*
G75*
G02*
X58191000Y-137365500I0J237500D01*
G01*
X58191000Y-136890500D01*
G75*
G02*
X58428500Y-136653000I237500J0D01*
G01*
X59028500Y-136653000D01*
G75*
G02*
X59266000Y-136890500I0J-237500D01*
G01*
G37*
%TD*%
%TO.C,C32*%
G36*
G01*
X110893500Y-107147000D02*
X110418500Y-107147000D01*
G75*
G02*
X110181000Y-106909500I0J237500D01*
G01*
X110181000Y-106309500D01*
G75*
G02*
X110418500Y-106072000I237500J0D01*
G01*
X110893500Y-106072000D01*
G75*
G02*
X111131000Y-106309500I0J-237500D01*
G01*
X111131000Y-106909500D01*
G75*
G02*
X110893500Y-107147000I-237500J0D01*
G01*
G37*
G36*
G01*
X110893500Y-108872000D02*
X110418500Y-108872000D01*
G75*
G02*
X110181000Y-108634500I0J237500D01*
G01*
X110181000Y-108034500D01*
G75*
G02*
X110418500Y-107797000I237500J0D01*
G01*
X110893500Y-107797000D01*
G75*
G02*
X111131000Y-108034500I0J-237500D01*
G01*
X111131000Y-108634500D01*
G75*
G02*
X110893500Y-108872000I-237500J0D01*
G01*
G37*
%TD*%
%TO.C,C31*%
G36*
G01*
X112417500Y-107147000D02*
X111942500Y-107147000D01*
G75*
G02*
X111705000Y-106909500I0J237500D01*
G01*
X111705000Y-106309500D01*
G75*
G02*
X111942500Y-106072000I237500J0D01*
G01*
X112417500Y-106072000D01*
G75*
G02*
X112655000Y-106309500I0J-237500D01*
G01*
X112655000Y-106909500D01*
G75*
G02*
X112417500Y-107147000I-237500J0D01*
G01*
G37*
G36*
G01*
X112417500Y-108872000D02*
X111942500Y-108872000D01*
G75*
G02*
X111705000Y-108634500I0J237500D01*
G01*
X111705000Y-108034500D01*
G75*
G02*
X111942500Y-107797000I237500J0D01*
G01*
X112417500Y-107797000D01*
G75*
G02*
X112655000Y-108034500I0J-237500D01*
G01*
X112655000Y-108634500D01*
G75*
G02*
X112417500Y-108872000I-237500J0D01*
G01*
G37*
%TD*%
%TO.C,C30*%
G36*
G01*
X139661000Y-126064500D02*
X139661000Y-126539500D01*
G75*
G02*
X139423500Y-126777000I-237500J0D01*
G01*
X138823500Y-126777000D01*
G75*
G02*
X138586000Y-126539500I0J237500D01*
G01*
X138586000Y-126064500D01*
G75*
G02*
X138823500Y-125827000I237500J0D01*
G01*
X139423500Y-125827000D01*
G75*
G02*
X139661000Y-126064500I0J-237500D01*
G01*
G37*
G36*
G01*
X141386000Y-126064500D02*
X141386000Y-126539500D01*
G75*
G02*
X141148500Y-126777000I-237500J0D01*
G01*
X140548500Y-126777000D01*
G75*
G02*
X140311000Y-126539500I0J237500D01*
G01*
X140311000Y-126064500D01*
G75*
G02*
X140548500Y-125827000I237500J0D01*
G01*
X141148500Y-125827000D01*
G75*
G02*
X141386000Y-126064500I0J-237500D01*
G01*
G37*
%TD*%
%TO.C,C29*%
G36*
G01*
X78226500Y-115059000D02*
X78701500Y-115059000D01*
G75*
G02*
X78939000Y-115296500I0J-237500D01*
G01*
X78939000Y-115896500D01*
G75*
G02*
X78701500Y-116134000I-237500J0D01*
G01*
X78226500Y-116134000D01*
G75*
G02*
X77989000Y-115896500I0J237500D01*
G01*
X77989000Y-115296500D01*
G75*
G02*
X78226500Y-115059000I237500J0D01*
G01*
G37*
G36*
G01*
X78226500Y-113334000D02*
X78701500Y-113334000D01*
G75*
G02*
X78939000Y-113571500I0J-237500D01*
G01*
X78939000Y-114171500D01*
G75*
G02*
X78701500Y-114409000I-237500J0D01*
G01*
X78226500Y-114409000D01*
G75*
G02*
X77989000Y-114171500I0J237500D01*
G01*
X77989000Y-113571500D01*
G75*
G02*
X78226500Y-113334000I237500J0D01*
G01*
G37*
%TD*%
%TO.C,C28*%
G36*
G01*
X87171000Y-107097500D02*
X87171000Y-106622500D01*
G75*
G02*
X87408500Y-106385000I237500J0D01*
G01*
X88008500Y-106385000D01*
G75*
G02*
X88246000Y-106622500I0J-237500D01*
G01*
X88246000Y-107097500D01*
G75*
G02*
X88008500Y-107335000I-237500J0D01*
G01*
X87408500Y-107335000D01*
G75*
G02*
X87171000Y-107097500I0J237500D01*
G01*
G37*
G36*
G01*
X85446000Y-107097500D02*
X85446000Y-106622500D01*
G75*
G02*
X85683500Y-106385000I237500J0D01*
G01*
X86283500Y-106385000D01*
G75*
G02*
X86521000Y-106622500I0J-237500D01*
G01*
X86521000Y-107097500D01*
G75*
G02*
X86283500Y-107335000I-237500J0D01*
G01*
X85683500Y-107335000D01*
G75*
G02*
X85446000Y-107097500I0J237500D01*
G01*
G37*
%TD*%
%TO.C,C27*%
G36*
G01*
X87171000Y-95159500D02*
X87171000Y-94684500D01*
G75*
G02*
X87408500Y-94447000I237500J0D01*
G01*
X88008500Y-94447000D01*
G75*
G02*
X88246000Y-94684500I0J-237500D01*
G01*
X88246000Y-95159500D01*
G75*
G02*
X88008500Y-95397000I-237500J0D01*
G01*
X87408500Y-95397000D01*
G75*
G02*
X87171000Y-95159500I0J237500D01*
G01*
G37*
G36*
G01*
X85446000Y-95159500D02*
X85446000Y-94684500D01*
G75*
G02*
X85683500Y-94447000I237500J0D01*
G01*
X86283500Y-94447000D01*
G75*
G02*
X86521000Y-94684500I0J-237500D01*
G01*
X86521000Y-95159500D01*
G75*
G02*
X86283500Y-95397000I-237500J0D01*
G01*
X85683500Y-95397000D01*
G75*
G02*
X85446000Y-95159500I0J237500D01*
G01*
G37*
%TD*%
%TO.C,C26*%
G36*
G01*
X68287500Y-88247000D02*
X67812500Y-88247000D01*
G75*
G02*
X67575000Y-88009500I0J237500D01*
G01*
X67575000Y-87409500D01*
G75*
G02*
X67812500Y-87172000I237500J0D01*
G01*
X68287500Y-87172000D01*
G75*
G02*
X68525000Y-87409500I0J-237500D01*
G01*
X68525000Y-88009500D01*
G75*
G02*
X68287500Y-88247000I-237500J0D01*
G01*
G37*
G36*
G01*
X68287500Y-89972000D02*
X67812500Y-89972000D01*
G75*
G02*
X67575000Y-89734500I0J237500D01*
G01*
X67575000Y-89134500D01*
G75*
G02*
X67812500Y-88897000I237500J0D01*
G01*
X68287500Y-88897000D01*
G75*
G02*
X68525000Y-89134500I0J-237500D01*
G01*
X68525000Y-89734500D01*
G75*
G02*
X68287500Y-89972000I-237500J0D01*
G01*
G37*
%TD*%
%TO.C,C25*%
G36*
G01*
X62899000Y-107130500D02*
X62899000Y-107605500D01*
G75*
G02*
X62661500Y-107843000I-237500J0D01*
G01*
X62061500Y-107843000D01*
G75*
G02*
X61824000Y-107605500I0J237500D01*
G01*
X61824000Y-107130500D01*
G75*
G02*
X62061500Y-106893000I237500J0D01*
G01*
X62661500Y-106893000D01*
G75*
G02*
X62899000Y-107130500I0J-237500D01*
G01*
G37*
G36*
G01*
X64624000Y-107130500D02*
X64624000Y-107605500D01*
G75*
G02*
X64386500Y-107843000I-237500J0D01*
G01*
X63786500Y-107843000D01*
G75*
G02*
X63549000Y-107605500I0J237500D01*
G01*
X63549000Y-107130500D01*
G75*
G02*
X63786500Y-106893000I237500J0D01*
G01*
X64386500Y-106893000D01*
G75*
G02*
X64624000Y-107130500I0J-237500D01*
G01*
G37*
%TD*%
%TO.C,C24*%
G36*
G01*
X71114500Y-115059000D02*
X71589500Y-115059000D01*
G75*
G02*
X71827000Y-115296500I0J-237500D01*
G01*
X71827000Y-115896500D01*
G75*
G02*
X71589500Y-116134000I-237500J0D01*
G01*
X71114500Y-116134000D01*
G75*
G02*
X70877000Y-115896500I0J237500D01*
G01*
X70877000Y-115296500D01*
G75*
G02*
X71114500Y-115059000I237500J0D01*
G01*
G37*
G36*
G01*
X71114500Y-113334000D02*
X71589500Y-113334000D01*
G75*
G02*
X71827000Y-113571500I0J-237500D01*
G01*
X71827000Y-114171500D01*
G75*
G02*
X71589500Y-114409000I-237500J0D01*
G01*
X71114500Y-114409000D01*
G75*
G02*
X70877000Y-114171500I0J237500D01*
G01*
X70877000Y-113571500D01*
G75*
G02*
X71114500Y-113334000I237500J0D01*
G01*
G37*
%TD*%
%TO.C,C23*%
G36*
G01*
X72638500Y-115059000D02*
X73113500Y-115059000D01*
G75*
G02*
X73351000Y-115296500I0J-237500D01*
G01*
X73351000Y-115896500D01*
G75*
G02*
X73113500Y-116134000I-237500J0D01*
G01*
X72638500Y-116134000D01*
G75*
G02*
X72401000Y-115896500I0J237500D01*
G01*
X72401000Y-115296500D01*
G75*
G02*
X72638500Y-115059000I237500J0D01*
G01*
G37*
G36*
G01*
X72638500Y-113334000D02*
X73113500Y-113334000D01*
G75*
G02*
X73351000Y-113571500I0J-237500D01*
G01*
X73351000Y-114171500D01*
G75*
G02*
X73113500Y-114409000I-237500J0D01*
G01*
X72638500Y-114409000D01*
G75*
G02*
X72401000Y-114171500I0J237500D01*
G01*
X72401000Y-113571500D01*
G75*
G02*
X72638500Y-113334000I237500J0D01*
G01*
G37*
%TD*%
%TO.C,C22*%
G36*
G01*
X69811500Y-88247000D02*
X69336500Y-88247000D01*
G75*
G02*
X69099000Y-88009500I0J237500D01*
G01*
X69099000Y-87409500D01*
G75*
G02*
X69336500Y-87172000I237500J0D01*
G01*
X69811500Y-87172000D01*
G75*
G02*
X70049000Y-87409500I0J-237500D01*
G01*
X70049000Y-88009500D01*
G75*
G02*
X69811500Y-88247000I-237500J0D01*
G01*
G37*
G36*
G01*
X69811500Y-89972000D02*
X69336500Y-89972000D01*
G75*
G02*
X69099000Y-89734500I0J237500D01*
G01*
X69099000Y-89134500D01*
G75*
G02*
X69336500Y-88897000I237500J0D01*
G01*
X69811500Y-88897000D01*
G75*
G02*
X70049000Y-89134500I0J-237500D01*
G01*
X70049000Y-89734500D01*
G75*
G02*
X69811500Y-89972000I-237500J0D01*
G01*
G37*
%TD*%
%TO.C,C21*%
G36*
G01*
X87171000Y-96683500D02*
X87171000Y-96208500D01*
G75*
G02*
X87408500Y-95971000I237500J0D01*
G01*
X88008500Y-95971000D01*
G75*
G02*
X88246000Y-96208500I0J-237500D01*
G01*
X88246000Y-96683500D01*
G75*
G02*
X88008500Y-96921000I-237500J0D01*
G01*
X87408500Y-96921000D01*
G75*
G02*
X87171000Y-96683500I0J237500D01*
G01*
G37*
G36*
G01*
X85446000Y-96683500D02*
X85446000Y-96208500D01*
G75*
G02*
X85683500Y-95971000I237500J0D01*
G01*
X86283500Y-95971000D01*
G75*
G02*
X86521000Y-96208500I0J-237500D01*
G01*
X86521000Y-96683500D01*
G75*
G02*
X86283500Y-96921000I-237500J0D01*
G01*
X85683500Y-96921000D01*
G75*
G02*
X85446000Y-96683500I0J237500D01*
G01*
G37*
%TD*%
%TO.C,C20*%
G36*
G01*
X75432500Y-115059000D02*
X75907500Y-115059000D01*
G75*
G02*
X76145000Y-115296500I0J-237500D01*
G01*
X76145000Y-115896500D01*
G75*
G02*
X75907500Y-116134000I-237500J0D01*
G01*
X75432500Y-116134000D01*
G75*
G02*
X75195000Y-115896500I0J237500D01*
G01*
X75195000Y-115296500D01*
G75*
G02*
X75432500Y-115059000I237500J0D01*
G01*
G37*
G36*
G01*
X75432500Y-113334000D02*
X75907500Y-113334000D01*
G75*
G02*
X76145000Y-113571500I0J-237500D01*
G01*
X76145000Y-114171500D01*
G75*
G02*
X75907500Y-114409000I-237500J0D01*
G01*
X75432500Y-114409000D01*
G75*
G02*
X75195000Y-114171500I0J237500D01*
G01*
X75195000Y-113571500D01*
G75*
G02*
X75432500Y-113334000I237500J0D01*
G01*
G37*
%TD*%
%TO.C,C12*%
G36*
G01*
X84400000Y-48650002D02*
X84400000Y-47349998D01*
G75*
G02*
X84649998Y-47100000I249998J0D01*
G01*
X85475002Y-47100000D01*
G75*
G02*
X85725000Y-47349998I0J-249998D01*
G01*
X85725000Y-48650002D01*
G75*
G02*
X85475002Y-48900000I-249998J0D01*
G01*
X84649998Y-48900000D01*
G75*
G02*
X84400000Y-48650002I0J249998D01*
G01*
G37*
G36*
G01*
X81275000Y-48650002D02*
X81275000Y-47349998D01*
G75*
G02*
X81524998Y-47100000I249998J0D01*
G01*
X82350002Y-47100000D01*
G75*
G02*
X82600000Y-47349998I0J-249998D01*
G01*
X82600000Y-48650002D01*
G75*
G02*
X82350002Y-48900000I-249998J0D01*
G01*
X81524998Y-48900000D01*
G75*
G02*
X81275000Y-48650002I0J249998D01*
G01*
G37*
%TD*%
%TO.C,C11*%
G36*
G01*
X84400000Y-62150002D02*
X84400000Y-60849998D01*
G75*
G02*
X84649998Y-60600000I249998J0D01*
G01*
X85475002Y-60600000D01*
G75*
G02*
X85725000Y-60849998I0J-249998D01*
G01*
X85725000Y-62150002D01*
G75*
G02*
X85475002Y-62400000I-249998J0D01*
G01*
X84649998Y-62400000D01*
G75*
G02*
X84400000Y-62150002I0J249998D01*
G01*
G37*
G36*
G01*
X81275000Y-62150002D02*
X81275000Y-60849998D01*
G75*
G02*
X81524998Y-60600000I249998J0D01*
G01*
X82350002Y-60600000D01*
G75*
G02*
X82600000Y-60849998I0J-249998D01*
G01*
X82600000Y-62150002D01*
G75*
G02*
X82350002Y-62400000I-249998J0D01*
G01*
X81524998Y-62400000D01*
G75*
G02*
X81275000Y-62150002I0J249998D01*
G01*
G37*
%TD*%
%TO.C,C9*%
G36*
G01*
X84400000Y-51150002D02*
X84400000Y-49849998D01*
G75*
G02*
X84649998Y-49600000I249998J0D01*
G01*
X85475002Y-49600000D01*
G75*
G02*
X85725000Y-49849998I0J-249998D01*
G01*
X85725000Y-51150002D01*
G75*
G02*
X85475002Y-51400000I-249998J0D01*
G01*
X84649998Y-51400000D01*
G75*
G02*
X84400000Y-51150002I0J249998D01*
G01*
G37*
G36*
G01*
X81275000Y-51150002D02*
X81275000Y-49849998D01*
G75*
G02*
X81524998Y-49600000I249998J0D01*
G01*
X82350002Y-49600000D01*
G75*
G02*
X82600000Y-49849998I0J-249998D01*
G01*
X82600000Y-51150002D01*
G75*
G02*
X82350002Y-51400000I-249998J0D01*
G01*
X81524998Y-51400000D01*
G75*
G02*
X81275000Y-51150002I0J249998D01*
G01*
G37*
%TD*%
%TO.C,C8*%
G36*
G01*
X84400000Y-64650002D02*
X84400000Y-63349998D01*
G75*
G02*
X84649998Y-63100000I249998J0D01*
G01*
X85475002Y-63100000D01*
G75*
G02*
X85725000Y-63349998I0J-249998D01*
G01*
X85725000Y-64650002D01*
G75*
G02*
X85475002Y-64900000I-249998J0D01*
G01*
X84649998Y-64900000D01*
G75*
G02*
X84400000Y-64650002I0J249998D01*
G01*
G37*
G36*
G01*
X81275000Y-64650002D02*
X81275000Y-63349998D01*
G75*
G02*
X81524998Y-63100000I249998J0D01*
G01*
X82350002Y-63100000D01*
G75*
G02*
X82600000Y-63349998I0J-249998D01*
G01*
X82600000Y-64650002D01*
G75*
G02*
X82350002Y-64900000I-249998J0D01*
G01*
X81524998Y-64900000D01*
G75*
G02*
X81275000Y-64650002I0J249998D01*
G01*
G37*
%TD*%
%TO.C,C7*%
G36*
G01*
X43849998Y-78400000D02*
X45150002Y-78400000D01*
G75*
G02*
X45400000Y-78649998I0J-249998D01*
G01*
X45400000Y-79475002D01*
G75*
G02*
X45150002Y-79725000I-249998J0D01*
G01*
X43849998Y-79725000D01*
G75*
G02*
X43600000Y-79475002I0J249998D01*
G01*
X43600000Y-78649998D01*
G75*
G02*
X43849998Y-78400000I249998J0D01*
G01*
G37*
G36*
G01*
X43849998Y-75275000D02*
X45150002Y-75275000D01*
G75*
G02*
X45400000Y-75524998I0J-249998D01*
G01*
X45400000Y-76350002D01*
G75*
G02*
X45150002Y-76600000I-249998J0D01*
G01*
X43849998Y-76600000D01*
G75*
G02*
X43600000Y-76350002I0J249998D01*
G01*
X43600000Y-75524998D01*
G75*
G02*
X43849998Y-75275000I249998J0D01*
G01*
G37*
%TD*%
%TO.C,C6*%
G36*
G01*
X55500000Y-80000000D02*
X55500000Y-78000000D01*
G75*
G02*
X55750000Y-77750000I250000J0D01*
G01*
X59650000Y-77750000D01*
G75*
G02*
X59900000Y-78000000I0J-250000D01*
G01*
X59900000Y-80000000D01*
G75*
G02*
X59650000Y-80250000I-250000J0D01*
G01*
X55750000Y-80250000D01*
G75*
G02*
X55500000Y-80000000I0J250000D01*
G01*
G37*
G36*
G01*
X48100000Y-80000000D02*
X48100000Y-78000000D01*
G75*
G02*
X48350000Y-77750000I250000J0D01*
G01*
X52250000Y-77750000D01*
G75*
G02*
X52500000Y-78000000I0J-250000D01*
G01*
X52500000Y-80000000D01*
G75*
G02*
X52250000Y-80250000I-250000J0D01*
G01*
X48350000Y-80250000D01*
G75*
G02*
X48100000Y-80000000I0J250000D01*
G01*
G37*
%TD*%
%TO.C,C5*%
G36*
G01*
X71000000Y-66000000D02*
X71000000Y-64000000D01*
G75*
G02*
X71250000Y-63750000I250000J0D01*
G01*
X75150000Y-63750000D01*
G75*
G02*
X75400000Y-64000000I0J-250000D01*
G01*
X75400000Y-66000000D01*
G75*
G02*
X75150000Y-66250000I-250000J0D01*
G01*
X71250000Y-66250000D01*
G75*
G02*
X71000000Y-66000000I0J250000D01*
G01*
G37*
G36*
G01*
X63600000Y-66000000D02*
X63600000Y-64000000D01*
G75*
G02*
X63850000Y-63750000I250000J0D01*
G01*
X67750000Y-63750000D01*
G75*
G02*
X68000000Y-64000000I0J-250000D01*
G01*
X68000000Y-66000000D01*
G75*
G02*
X67750000Y-66250000I-250000J0D01*
G01*
X63850000Y-66250000D01*
G75*
G02*
X63600000Y-66000000I0J250000D01*
G01*
G37*
%TD*%
%TO.C,C3*%
G36*
G01*
X43237500Y-124675000D02*
X42762500Y-124675000D01*
G75*
G02*
X42525000Y-124437500I0J237500D01*
G01*
X42525000Y-123837500D01*
G75*
G02*
X42762500Y-123600000I237500J0D01*
G01*
X43237500Y-123600000D01*
G75*
G02*
X43475000Y-123837500I0J-237500D01*
G01*
X43475000Y-124437500D01*
G75*
G02*
X43237500Y-124675000I-237500J0D01*
G01*
G37*
G36*
G01*
X43237500Y-126400000D02*
X42762500Y-126400000D01*
G75*
G02*
X42525000Y-126162500I0J237500D01*
G01*
X42525000Y-125562500D01*
G75*
G02*
X42762500Y-125325000I237500J0D01*
G01*
X43237500Y-125325000D01*
G75*
G02*
X43475000Y-125562500I0J-237500D01*
G01*
X43475000Y-126162500D01*
G75*
G02*
X43237500Y-126400000I-237500J0D01*
G01*
G37*
%TD*%
%TO.C,C2*%
G36*
G01*
X32237500Y-124675000D02*
X31762500Y-124675000D01*
G75*
G02*
X31525000Y-124437500I0J237500D01*
G01*
X31525000Y-123837500D01*
G75*
G02*
X31762500Y-123600000I237500J0D01*
G01*
X32237500Y-123600000D01*
G75*
G02*
X32475000Y-123837500I0J-237500D01*
G01*
X32475000Y-124437500D01*
G75*
G02*
X32237500Y-124675000I-237500J0D01*
G01*
G37*
G36*
G01*
X32237500Y-126400000D02*
X31762500Y-126400000D01*
G75*
G02*
X31525000Y-126162500I0J237500D01*
G01*
X31525000Y-125562500D01*
G75*
G02*
X31762500Y-125325000I237500J0D01*
G01*
X32237500Y-125325000D01*
G75*
G02*
X32475000Y-125562500I0J-237500D01*
G01*
X32475000Y-126162500D01*
G75*
G02*
X32237500Y-126400000I-237500J0D01*
G01*
G37*
%TD*%
%TO.C,C1*%
G36*
G01*
X49675000Y-121262500D02*
X49675000Y-121737500D01*
G75*
G02*
X49437500Y-121975000I-237500J0D01*
G01*
X48837500Y-121975000D01*
G75*
G02*
X48600000Y-121737500I0J237500D01*
G01*
X48600000Y-121262500D01*
G75*
G02*
X48837500Y-121025000I237500J0D01*
G01*
X49437500Y-121025000D01*
G75*
G02*
X49675000Y-121262500I0J-237500D01*
G01*
G37*
G36*
G01*
X51400000Y-121262500D02*
X51400000Y-121737500D01*
G75*
G02*
X51162500Y-121975000I-237500J0D01*
G01*
X50562500Y-121975000D01*
G75*
G02*
X50325000Y-121737500I0J237500D01*
G01*
X50325000Y-121262500D01*
G75*
G02*
X50562500Y-121025000I237500J0D01*
G01*
X51162500Y-121025000D01*
G75*
G02*
X51400000Y-121262500I0J-237500D01*
G01*
G37*
%TD*%
D28*
%TO.C,U2*%
X92500000Y-53000000D03*
G36*
G01*
X88960000Y-53500000D02*
X88960000Y-52500000D01*
G75*
G02*
X89460000Y-52000000I500000J0D01*
G01*
X90460000Y-52000000D01*
G75*
G02*
X90960000Y-52500000I0J-500000D01*
G01*
X90960000Y-53500000D01*
G75*
G02*
X90460000Y-54000000I-500000J0D01*
G01*
X89460000Y-54000000D01*
G75*
G02*
X88960000Y-53500000I0J500000D01*
G01*
G37*
X95040000Y-53000000D03*
%TD*%
%TO.C,U1*%
X92500000Y-66500000D03*
G36*
G01*
X88960000Y-67000000D02*
X88960000Y-66000000D01*
G75*
G02*
X89460000Y-65500000I500000J0D01*
G01*
X90460000Y-65500000D01*
G75*
G02*
X90960000Y-66000000I0J-500000D01*
G01*
X90960000Y-67000000D01*
G75*
G02*
X90460000Y-67500000I-500000J0D01*
G01*
X89460000Y-67500000D01*
G75*
G02*
X88960000Y-67000000I0J500000D01*
G01*
G37*
X95040000Y-66500000D03*
%TD*%
%TO.C,R3*%
G36*
G01*
X41925000Y-47737500D02*
X41925000Y-47262500D01*
G75*
G02*
X42162500Y-47025000I237500J0D01*
G01*
X42662500Y-47025000D01*
G75*
G02*
X42900000Y-47262500I0J-237500D01*
G01*
X42900000Y-47737500D01*
G75*
G02*
X42662500Y-47975000I-237500J0D01*
G01*
X42162500Y-47975000D01*
G75*
G02*
X41925000Y-47737500I0J237500D01*
G01*
G37*
G36*
G01*
X40100000Y-47737500D02*
X40100000Y-47262500D01*
G75*
G02*
X40337500Y-47025000I237500J0D01*
G01*
X40837500Y-47025000D01*
G75*
G02*
X41075000Y-47262500I0J-237500D01*
G01*
X41075000Y-47737500D01*
G75*
G02*
X40837500Y-47975000I-237500J0D01*
G01*
X40337500Y-47975000D01*
G75*
G02*
X40100000Y-47737500I0J237500D01*
G01*
G37*
%TD*%
%TO.C,R2*%
G36*
G01*
X43925000Y-54237500D02*
X43925000Y-53762500D01*
G75*
G02*
X44162500Y-53525000I237500J0D01*
G01*
X44662500Y-53525000D01*
G75*
G02*
X44900000Y-53762500I0J-237500D01*
G01*
X44900000Y-54237500D01*
G75*
G02*
X44662500Y-54475000I-237500J0D01*
G01*
X44162500Y-54475000D01*
G75*
G02*
X43925000Y-54237500I0J237500D01*
G01*
G37*
G36*
G01*
X42100000Y-54237500D02*
X42100000Y-53762500D01*
G75*
G02*
X42337500Y-53525000I237500J0D01*
G01*
X42837500Y-53525000D01*
G75*
G02*
X43075000Y-53762500I0J-237500D01*
G01*
X43075000Y-54237500D01*
G75*
G02*
X42837500Y-54475000I-237500J0D01*
G01*
X42337500Y-54475000D01*
G75*
G02*
X42100000Y-54237500I0J237500D01*
G01*
G37*
%TD*%
%TO.C,R1*%
G36*
G01*
X43925000Y-57237500D02*
X43925000Y-56762500D01*
G75*
G02*
X44162500Y-56525000I237500J0D01*
G01*
X44662500Y-56525000D01*
G75*
G02*
X44900000Y-56762500I0J-237500D01*
G01*
X44900000Y-57237500D01*
G75*
G02*
X44662500Y-57475000I-237500J0D01*
G01*
X44162500Y-57475000D01*
G75*
G02*
X43925000Y-57237500I0J237500D01*
G01*
G37*
G36*
G01*
X42100000Y-57237500D02*
X42100000Y-56762500D01*
G75*
G02*
X42337500Y-56525000I237500J0D01*
G01*
X42837500Y-56525000D01*
G75*
G02*
X43075000Y-56762500I0J-237500D01*
G01*
X43075000Y-57237500D01*
G75*
G02*
X42837500Y-57475000I-237500J0D01*
G01*
X42337500Y-57475000D01*
G75*
G02*
X42100000Y-57237500I0J237500D01*
G01*
G37*
%TD*%
D41*
%TO.C,L2*%
X84685000Y-54500000D03*
X82315000Y-54500000D03*
%TD*%
%TO.C,L1*%
X84685000Y-68000000D03*
X82315000Y-68000000D03*
%TD*%
D36*
%TO.C,J2*%
X43000000Y-61000000D03*
D37*
X43000000Y-66000000D03*
%TD*%
%TO.C,F2*%
G36*
G01*
X42237500Y-70875000D02*
X42237500Y-72125000D01*
G75*
G02*
X41987500Y-72375000I-250000J0D01*
G01*
X41062500Y-72375000D01*
G75*
G02*
X40812500Y-72125000I0J250000D01*
G01*
X40812500Y-70875000D01*
G75*
G02*
X41062500Y-70625000I250000J0D01*
G01*
X41987500Y-70625000D01*
G75*
G02*
X42237500Y-70875000I0J-250000D01*
G01*
G37*
G36*
G01*
X45212500Y-70875000D02*
X45212500Y-72125000D01*
G75*
G02*
X44962500Y-72375000I-250000J0D01*
G01*
X44037500Y-72375000D01*
G75*
G02*
X43787500Y-72125000I0J250000D01*
G01*
X43787500Y-70875000D01*
G75*
G02*
X44037500Y-70625000I250000J0D01*
G01*
X44962500Y-70625000D01*
G75*
G02*
X45212500Y-70875000I0J-250000D01*
G01*
G37*
%TD*%
%TO.C,F1*%
G36*
G01*
X64125000Y-54225000D02*
X62875000Y-54225000D01*
G75*
G02*
X62625000Y-53975000I0J250000D01*
G01*
X62625000Y-53050000D01*
G75*
G02*
X62875000Y-52800000I250000J0D01*
G01*
X64125000Y-52800000D01*
G75*
G02*
X64375000Y-53050000I0J-250000D01*
G01*
X64375000Y-53975000D01*
G75*
G02*
X64125000Y-54225000I-250000J0D01*
G01*
G37*
G36*
G01*
X64125000Y-57200000D02*
X62875000Y-57200000D01*
G75*
G02*
X62625000Y-56950000I0J250000D01*
G01*
X62625000Y-56025000D01*
G75*
G02*
X62875000Y-55775000I250000J0D01*
G01*
X64125000Y-55775000D01*
G75*
G02*
X64375000Y-56025000I0J-250000D01*
G01*
X64375000Y-56950000D01*
G75*
G02*
X64125000Y-57200000I-250000J0D01*
G01*
G37*
%TD*%
%TO.C,D1*%
G36*
G01*
X41850000Y-49737500D02*
X41850000Y-49262500D01*
G75*
G02*
X42087500Y-49025000I237500J0D01*
G01*
X42662500Y-49025000D01*
G75*
G02*
X42900000Y-49262500I0J-237500D01*
G01*
X42900000Y-49737500D01*
G75*
G02*
X42662500Y-49975000I-237500J0D01*
G01*
X42087500Y-49975000D01*
G75*
G02*
X41850000Y-49737500I0J237500D01*
G01*
G37*
G36*
G01*
X40100000Y-49737500D02*
X40100000Y-49262500D01*
G75*
G02*
X40337500Y-49025000I237500J0D01*
G01*
X40912500Y-49025000D01*
G75*
G02*
X41150000Y-49262500I0J-237500D01*
G01*
X41150000Y-49737500D01*
G75*
G02*
X40912500Y-49975000I-237500J0D01*
G01*
X40337500Y-49975000D01*
G75*
G02*
X40100000Y-49737500I0J237500D01*
G01*
G37*
%TD*%
%TO.C,C18*%
G36*
G01*
X102400000Y-55100002D02*
X102400000Y-52899998D01*
G75*
G02*
X102649998Y-52650000I249998J0D01*
G01*
X103475002Y-52650000D01*
G75*
G02*
X103725000Y-52899998I0J-249998D01*
G01*
X103725000Y-55100002D01*
G75*
G02*
X103475002Y-55350000I-249998J0D01*
G01*
X102649998Y-55350000D01*
G75*
G02*
X102400000Y-55100002I0J249998D01*
G01*
G37*
G36*
G01*
X99275000Y-55100002D02*
X99275000Y-52899998D01*
G75*
G02*
X99524998Y-52650000I249998J0D01*
G01*
X100350002Y-52650000D01*
G75*
G02*
X100600000Y-52899998I0J-249998D01*
G01*
X100600000Y-55100002D01*
G75*
G02*
X100350002Y-55350000I-249998J0D01*
G01*
X99524998Y-55350000D01*
G75*
G02*
X99275000Y-55100002I0J249998D01*
G01*
G37*
%TD*%
%TO.C,C16*%
G36*
G01*
X102400000Y-68600002D02*
X102400000Y-66399998D01*
G75*
G02*
X102649998Y-66150000I249998J0D01*
G01*
X103475002Y-66150000D01*
G75*
G02*
X103725000Y-66399998I0J-249998D01*
G01*
X103725000Y-68600002D01*
G75*
G02*
X103475002Y-68850000I-249998J0D01*
G01*
X102649998Y-68850000D01*
G75*
G02*
X102400000Y-68600002I0J249998D01*
G01*
G37*
G36*
G01*
X99275000Y-68600002D02*
X99275000Y-66399998D01*
G75*
G02*
X99524998Y-66150000I249998J0D01*
G01*
X100350002Y-66150000D01*
G75*
G02*
X100600000Y-66399998I0J-249998D01*
G01*
X100600000Y-68600002D01*
G75*
G02*
X100350002Y-68850000I-249998J0D01*
G01*
X99524998Y-68850000D01*
G75*
G02*
X99275000Y-68600002I0J249998D01*
G01*
G37*
%TD*%
%TO.C,C15*%
G36*
G01*
X102400000Y-50600002D02*
X102400000Y-48399998D01*
G75*
G02*
X102649998Y-48150000I249998J0D01*
G01*
X103475002Y-48150000D01*
G75*
G02*
X103725000Y-48399998I0J-249998D01*
G01*
X103725000Y-50600002D01*
G75*
G02*
X103475002Y-50850000I-249998J0D01*
G01*
X102649998Y-50850000D01*
G75*
G02*
X102400000Y-50600002I0J249998D01*
G01*
G37*
G36*
G01*
X99275000Y-50600002D02*
X99275000Y-48399998D01*
G75*
G02*
X99524998Y-48150000I249998J0D01*
G01*
X100350002Y-48150000D01*
G75*
G02*
X100600000Y-48399998I0J-249998D01*
G01*
X100600000Y-50600002D01*
G75*
G02*
X100350002Y-50850000I-249998J0D01*
G01*
X99524998Y-50850000D01*
G75*
G02*
X99275000Y-50600002I0J249998D01*
G01*
G37*
%TD*%
%TO.C,C13*%
G36*
G01*
X102400000Y-64100002D02*
X102400000Y-61899998D01*
G75*
G02*
X102649998Y-61650000I249998J0D01*
G01*
X103475002Y-61650000D01*
G75*
G02*
X103725000Y-61899998I0J-249998D01*
G01*
X103725000Y-64100002D01*
G75*
G02*
X103475002Y-64350000I-249998J0D01*
G01*
X102649998Y-64350000D01*
G75*
G02*
X102400000Y-64100002I0J249998D01*
G01*
G37*
G36*
G01*
X99275000Y-64100002D02*
X99275000Y-61899998D01*
G75*
G02*
X99524998Y-61650000I249998J0D01*
G01*
X100350002Y-61650000D01*
G75*
G02*
X100600000Y-61899998I0J-249998D01*
G01*
X100600000Y-64100002D01*
G75*
G02*
X100350002Y-64350000I-249998J0D01*
G01*
X99524998Y-64350000D01*
G75*
G02*
X99275000Y-64100002I0J249998D01*
G01*
G37*
%TD*%
M02*
