%TF.GenerationSoftware,KiCad,Pcbnew,(5.1.10)-1*%
%TF.CreationDate,2021-12-22T14:35:30+01:00*%
%TF.ProjectId,vca_main_board,7663615f-6d61-4696-9e5f-626f6172642e,rev?*%
%TF.SameCoordinates,Original*%
%TF.FileFunction,Legend,Bot*%
%TF.FilePolarity,Positive*%
%FSLAX46Y46*%
G04 Gerber Fmt 4.6, Leading zero omitted, Abs format (unit mm)*
G04 Created by KiCad (PCBNEW (5.1.10)-1) date 2021-12-22 14:35:30*
%MOMM*%
%LPD*%
G01*
G04 APERTURE LIST*
%ADD10C,0.250000*%
%ADD11C,0.300000*%
%ADD12C,0.500000*%
%ADD13C,0.120000*%
%ADD14C,0.150000*%
G04 APERTURE END LIST*
D10*
X41107142Y-95428571D02*
X41107142Y-94928571D01*
X40321428Y-94714285D02*
X40321428Y-95428571D01*
X41821428Y-95428571D01*
X41821428Y-94714285D01*
X41821428Y-94214285D02*
X40321428Y-93214285D01*
X41821428Y-93214285D02*
X40321428Y-94214285D01*
X41821428Y-92857142D02*
X41821428Y-92000000D01*
X40321428Y-92428571D02*
X41821428Y-92428571D01*
X41107142Y-91500000D02*
X41107142Y-91000000D01*
X40321428Y-90785714D02*
X40321428Y-91500000D01*
X41821428Y-91500000D01*
X41821428Y-90785714D01*
X40321428Y-90142857D02*
X41821428Y-90142857D01*
X40321428Y-89285714D01*
X41821428Y-89285714D01*
X40392857Y-88642857D02*
X40321428Y-88428571D01*
X40321428Y-88071428D01*
X40392857Y-87928571D01*
X40464285Y-87857142D01*
X40607142Y-87785714D01*
X40750000Y-87785714D01*
X40892857Y-87857142D01*
X40964285Y-87928571D01*
X41035714Y-88071428D01*
X41107142Y-88357142D01*
X41178571Y-88500000D01*
X41250000Y-88571428D01*
X41392857Y-88642857D01*
X41535714Y-88642857D01*
X41678571Y-88571428D01*
X41750000Y-88500000D01*
X41821428Y-88357142D01*
X41821428Y-88000000D01*
X41750000Y-87785714D01*
X40321428Y-87142857D02*
X41821428Y-87142857D01*
X41821428Y-86142857D02*
X41821428Y-85857142D01*
X41750000Y-85714285D01*
X41607142Y-85571428D01*
X41321428Y-85500000D01*
X40821428Y-85500000D01*
X40535714Y-85571428D01*
X40392857Y-85714285D01*
X40321428Y-85857142D01*
X40321428Y-86142857D01*
X40392857Y-86285714D01*
X40535714Y-86428571D01*
X40821428Y-86500000D01*
X41321428Y-86500000D01*
X41607142Y-86428571D01*
X41750000Y-86285714D01*
X41821428Y-86142857D01*
X40321428Y-84857142D02*
X41821428Y-84857142D01*
X40321428Y-84000000D01*
X41821428Y-84000000D01*
X40750000Y-82214285D02*
X40750000Y-81500000D01*
X40321428Y-82357142D02*
X41821428Y-81857142D01*
X40321428Y-81357142D01*
X41107142Y-119285714D02*
X41107142Y-118785714D01*
X40321428Y-118571428D02*
X40321428Y-119285714D01*
X41821428Y-119285714D01*
X41821428Y-118571428D01*
X41821428Y-118071428D02*
X40321428Y-117071428D01*
X41821428Y-117071428D02*
X40321428Y-118071428D01*
X41821428Y-116714285D02*
X41821428Y-115857142D01*
X40321428Y-116285714D02*
X41821428Y-116285714D01*
X41107142Y-115357142D02*
X41107142Y-114857142D01*
X40321428Y-114642857D02*
X40321428Y-115357142D01*
X41821428Y-115357142D01*
X41821428Y-114642857D01*
X40321428Y-114000000D02*
X41821428Y-114000000D01*
X40321428Y-113142857D01*
X41821428Y-113142857D01*
X40392857Y-112500000D02*
X40321428Y-112285714D01*
X40321428Y-111928571D01*
X40392857Y-111785714D01*
X40464285Y-111714285D01*
X40607142Y-111642857D01*
X40750000Y-111642857D01*
X40892857Y-111714285D01*
X40964285Y-111785714D01*
X41035714Y-111928571D01*
X41107142Y-112214285D01*
X41178571Y-112357142D01*
X41250000Y-112428571D01*
X41392857Y-112500000D01*
X41535714Y-112500000D01*
X41678571Y-112428571D01*
X41750000Y-112357142D01*
X41821428Y-112214285D01*
X41821428Y-111857142D01*
X41750000Y-111642857D01*
X40321428Y-111000000D02*
X41821428Y-111000000D01*
X41821428Y-110000000D02*
X41821428Y-109714285D01*
X41750000Y-109571428D01*
X41607142Y-109428571D01*
X41321428Y-109357142D01*
X40821428Y-109357142D01*
X40535714Y-109428571D01*
X40392857Y-109571428D01*
X40321428Y-109714285D01*
X40321428Y-110000000D01*
X40392857Y-110142857D01*
X40535714Y-110285714D01*
X40821428Y-110357142D01*
X41321428Y-110357142D01*
X41607142Y-110285714D01*
X41750000Y-110142857D01*
X41821428Y-110000000D01*
X40321428Y-108714285D02*
X41821428Y-108714285D01*
X40321428Y-107857142D01*
X41821428Y-107857142D01*
X41107142Y-105500000D02*
X41035714Y-105285714D01*
X40964285Y-105214285D01*
X40821428Y-105142857D01*
X40607142Y-105142857D01*
X40464285Y-105214285D01*
X40392857Y-105285714D01*
X40321428Y-105428571D01*
X40321428Y-106000000D01*
X41821428Y-106000000D01*
X41821428Y-105500000D01*
X41750000Y-105357142D01*
X41678571Y-105285714D01*
X41535714Y-105214285D01*
X41392857Y-105214285D01*
X41250000Y-105285714D01*
X41178571Y-105357142D01*
X41107142Y-105500000D01*
X41107142Y-106000000D01*
X143642857Y-109750000D02*
X143785714Y-109678571D01*
X144000000Y-109678571D01*
X144214285Y-109750000D01*
X144357142Y-109892857D01*
X144428571Y-110035714D01*
X144500000Y-110321428D01*
X144500000Y-110535714D01*
X144428571Y-110821428D01*
X144357142Y-110964285D01*
X144214285Y-111107142D01*
X144000000Y-111178571D01*
X143857142Y-111178571D01*
X143642857Y-111107142D01*
X143571428Y-111035714D01*
X143571428Y-110535714D01*
X143857142Y-110535714D01*
X142928571Y-111178571D02*
X142928571Y-109678571D01*
X142071428Y-111178571D01*
X142071428Y-109678571D01*
X141357142Y-111178571D02*
X141357142Y-109678571D01*
X141000000Y-109678571D01*
X140785714Y-109750000D01*
X140642857Y-109892857D01*
X140571428Y-110035714D01*
X140500000Y-110321428D01*
X140500000Y-110535714D01*
X140571428Y-110821428D01*
X140642857Y-110964285D01*
X140785714Y-111107142D01*
X141000000Y-111178571D01*
X141357142Y-111178571D01*
X141535714Y-108428571D02*
X142250000Y-108428571D01*
X142250000Y-106928571D01*
X142428571Y-105678571D02*
X142428571Y-104178571D01*
X142428571Y-104892857D02*
X141571428Y-104892857D01*
X141571428Y-105678571D02*
X141571428Y-104178571D01*
D11*
X136142857Y-106342857D02*
X136228571Y-106257142D01*
X136314285Y-106000000D01*
X136314285Y-105828571D01*
X136228571Y-105571428D01*
X136057142Y-105400000D01*
X135885714Y-105314285D01*
X135542857Y-105228571D01*
X135285714Y-105228571D01*
X134942857Y-105314285D01*
X134771428Y-105400000D01*
X134600000Y-105571428D01*
X134514285Y-105828571D01*
X134514285Y-106000000D01*
X134600000Y-106257142D01*
X134685714Y-106342857D01*
X135800000Y-107028571D02*
X135800000Y-107885714D01*
X136314285Y-106857142D02*
X134514285Y-107457142D01*
X136314285Y-108057142D01*
X136314285Y-108657142D02*
X134514285Y-108657142D01*
X136314285Y-109685714D01*
X134514285Y-109685714D01*
X131685714Y-98471428D02*
X133485714Y-98471428D01*
X132628571Y-98471428D02*
X132628571Y-97442857D01*
X131685714Y-97442857D02*
X133485714Y-97442857D01*
X132371428Y-96585714D02*
X132371428Y-95214285D01*
X132628571Y-93757142D02*
X132542857Y-93500000D01*
X132457142Y-93414285D01*
X132285714Y-93328571D01*
X132028571Y-93328571D01*
X131857142Y-93414285D01*
X131771428Y-93500000D01*
X131685714Y-93671428D01*
X131685714Y-94357142D01*
X133485714Y-94357142D01*
X133485714Y-93757142D01*
X133400000Y-93585714D01*
X133314285Y-93500000D01*
X133142857Y-93414285D01*
X132971428Y-93414285D01*
X132800000Y-93500000D01*
X132714285Y-93585714D01*
X132628571Y-93757142D01*
X132628571Y-94357142D01*
X131685714Y-91528571D02*
X132542857Y-92128571D01*
X131685714Y-92557142D02*
X133485714Y-92557142D01*
X133485714Y-91871428D01*
X133400000Y-91700000D01*
X133314285Y-91614285D01*
X133142857Y-91528571D01*
X132885714Y-91528571D01*
X132714285Y-91614285D01*
X132628571Y-91700000D01*
X132542857Y-91871428D01*
X132542857Y-92557142D01*
X131685714Y-90757142D02*
X133485714Y-90757142D01*
X131685714Y-89900000D02*
X133485714Y-89900000D01*
X133485714Y-89471428D01*
X133400000Y-89214285D01*
X133228571Y-89042857D01*
X133057142Y-88957142D01*
X132714285Y-88871428D01*
X132457142Y-88871428D01*
X132114285Y-88957142D01*
X131942857Y-89042857D01*
X131771428Y-89214285D01*
X131685714Y-89471428D01*
X131685714Y-89900000D01*
X133400000Y-87157142D02*
X133485714Y-87328571D01*
X133485714Y-87585714D01*
X133400000Y-87842857D01*
X133228571Y-88014285D01*
X133057142Y-88100000D01*
X132714285Y-88185714D01*
X132457142Y-88185714D01*
X132114285Y-88100000D01*
X131942857Y-88014285D01*
X131771428Y-87842857D01*
X131685714Y-87585714D01*
X131685714Y-87414285D01*
X131771428Y-87157142D01*
X131857142Y-87071428D01*
X132457142Y-87071428D01*
X132457142Y-87414285D01*
X132628571Y-86300000D02*
X132628571Y-85700000D01*
X131685714Y-85442857D02*
X131685714Y-86300000D01*
X133485714Y-86300000D01*
X133485714Y-85442857D01*
X131685714Y-71200000D02*
X133485714Y-71200000D01*
X133485714Y-70771428D01*
X133400000Y-70514285D01*
X133228571Y-70342857D01*
X133057142Y-70257142D01*
X132714285Y-70171428D01*
X132457142Y-70171428D01*
X132114285Y-70257142D01*
X131942857Y-70342857D01*
X131771428Y-70514285D01*
X131685714Y-70771428D01*
X131685714Y-71200000D01*
X132628571Y-69400000D02*
X132628571Y-68800000D01*
X131685714Y-68542857D02*
X131685714Y-69400000D01*
X133485714Y-69400000D01*
X133485714Y-68542857D01*
X133485714Y-68028571D02*
X131685714Y-67428571D01*
X133485714Y-66828571D01*
X131685714Y-66228571D02*
X133485714Y-66228571D01*
X131857142Y-64342857D02*
X131771428Y-64428571D01*
X131685714Y-64685714D01*
X131685714Y-64857142D01*
X131771428Y-65114285D01*
X131942857Y-65285714D01*
X132114285Y-65371428D01*
X132457142Y-65457142D01*
X132714285Y-65457142D01*
X133057142Y-65371428D01*
X133228571Y-65285714D01*
X133400000Y-65114285D01*
X133485714Y-64857142D01*
X133485714Y-64685714D01*
X133400000Y-64428571D01*
X133314285Y-64342857D01*
X132628571Y-63571428D02*
X132628571Y-62971428D01*
X131685714Y-62714285D02*
X131685714Y-63571428D01*
X133485714Y-63571428D01*
X133485714Y-62714285D01*
X75842857Y-61814285D02*
X76871428Y-61814285D01*
X76357142Y-61814285D02*
X76357142Y-60014285D01*
X76528571Y-60271428D01*
X76700000Y-60442857D01*
X76871428Y-60528571D01*
X75157142Y-60185714D02*
X75071428Y-60100000D01*
X74900000Y-60014285D01*
X74471428Y-60014285D01*
X74300000Y-60100000D01*
X74214285Y-60185714D01*
X74128571Y-60357142D01*
X74128571Y-60528571D01*
X74214285Y-60785714D01*
X75242857Y-61814285D01*
X74128571Y-61814285D01*
X73614285Y-60014285D02*
X73014285Y-61814285D01*
X72414285Y-60014285D01*
X70614285Y-60014285D02*
X69500000Y-60014285D01*
X70100000Y-60700000D01*
X69842857Y-60700000D01*
X69671428Y-60785714D01*
X69585714Y-60871428D01*
X69500000Y-61042857D01*
X69500000Y-61471428D01*
X69585714Y-61642857D01*
X69671428Y-61728571D01*
X69842857Y-61814285D01*
X70357142Y-61814285D01*
X70528571Y-61728571D01*
X70614285Y-61642857D01*
X68385714Y-60014285D02*
X68214285Y-60014285D01*
X68042857Y-60100000D01*
X67957142Y-60185714D01*
X67871428Y-60357142D01*
X67785714Y-60700000D01*
X67785714Y-61128571D01*
X67871428Y-61471428D01*
X67957142Y-61642857D01*
X68042857Y-61728571D01*
X68214285Y-61814285D01*
X68385714Y-61814285D01*
X68557142Y-61728571D01*
X68642857Y-61642857D01*
X68728571Y-61471428D01*
X68814285Y-61128571D01*
X68814285Y-60700000D01*
X68728571Y-60357142D01*
X68642857Y-60185714D01*
X68557142Y-60100000D01*
X68385714Y-60014285D01*
X66671428Y-60014285D02*
X66499999Y-60014285D01*
X66328571Y-60100000D01*
X66242857Y-60185714D01*
X66157142Y-60357142D01*
X66071428Y-60700000D01*
X66071428Y-61128571D01*
X66157142Y-61471428D01*
X66242857Y-61642857D01*
X66328571Y-61728571D01*
X66499999Y-61814285D01*
X66671428Y-61814285D01*
X66842857Y-61728571D01*
X66928571Y-61642857D01*
X67014285Y-61471428D01*
X67099999Y-61128571D01*
X67099999Y-60700000D01*
X67014285Y-60357142D01*
X66928571Y-60185714D01*
X66842857Y-60100000D01*
X66671428Y-60014285D01*
X65299999Y-61814285D02*
X65299999Y-60614285D01*
X65299999Y-60785714D02*
X65214285Y-60700000D01*
X65042857Y-60614285D01*
X64785714Y-60614285D01*
X64614285Y-60700000D01*
X64528571Y-60871428D01*
X64528571Y-61814285D01*
X64528571Y-60871428D02*
X64442857Y-60700000D01*
X64271428Y-60614285D01*
X64014285Y-60614285D01*
X63842857Y-60700000D01*
X63757142Y-60871428D01*
X63757142Y-61814285D01*
X62985714Y-61300000D02*
X62128571Y-61300000D01*
X63157142Y-61814285D02*
X62557142Y-60014285D01*
X61957142Y-61814285D01*
X45428571Y-72814285D02*
X46457142Y-72814285D01*
X45942857Y-72814285D02*
X45942857Y-71014285D01*
X46114285Y-71271428D01*
X46285714Y-71442857D01*
X46457142Y-71528571D01*
X44742857Y-71185714D02*
X44657142Y-71100000D01*
X44485714Y-71014285D01*
X44057142Y-71014285D01*
X43885714Y-71100000D01*
X43800000Y-71185714D01*
X43714285Y-71357142D01*
X43714285Y-71528571D01*
X43800000Y-71785714D01*
X44828571Y-72814285D01*
X43714285Y-72814285D01*
X43200000Y-71014285D02*
X42600000Y-72814285D01*
X42000000Y-71014285D01*
X40114285Y-71185714D02*
X40028571Y-71100000D01*
X39857142Y-71014285D01*
X39428571Y-71014285D01*
X39257142Y-71100000D01*
X39171428Y-71185714D01*
X39085714Y-71357142D01*
X39085714Y-71528571D01*
X39171428Y-71785714D01*
X40200000Y-72814285D01*
X39085714Y-72814285D01*
X38400000Y-72300000D02*
X37542857Y-72300000D01*
X38571428Y-72814285D02*
X37971428Y-71014285D01*
X37371428Y-72814285D01*
X39500000Y-57314285D02*
X39500000Y-55514285D01*
X38814285Y-55514285D01*
X38642857Y-55600000D01*
X38557142Y-55685714D01*
X38471428Y-55857142D01*
X38471428Y-56114285D01*
X38557142Y-56285714D01*
X38642857Y-56371428D01*
X38814285Y-56457142D01*
X39500000Y-56457142D01*
X37357142Y-55514285D02*
X37014285Y-55514285D01*
X36842857Y-55600000D01*
X36671428Y-55771428D01*
X36585714Y-56114285D01*
X36585714Y-56714285D01*
X36671428Y-57057142D01*
X36842857Y-57228571D01*
X37014285Y-57314285D01*
X37357142Y-57314285D01*
X37528571Y-57228571D01*
X37700000Y-57057142D01*
X37785714Y-56714285D01*
X37785714Y-56114285D01*
X37700000Y-55771428D01*
X37528571Y-55600000D01*
X37357142Y-55514285D01*
X35985714Y-55514285D02*
X35557142Y-57314285D01*
X35214285Y-56028571D01*
X34871428Y-57314285D01*
X34442857Y-55514285D01*
X32385714Y-57314285D02*
X32385714Y-55514285D01*
X31528571Y-57314285D02*
X31528571Y-55514285D01*
X30500000Y-57314285D01*
X30500000Y-55514285D01*
X65442857Y-47814285D02*
X65442857Y-46014285D01*
X64757142Y-46014285D01*
X64585714Y-46100000D01*
X64500000Y-46185714D01*
X64414285Y-46357142D01*
X64414285Y-46614285D01*
X64500000Y-46785714D01*
X64585714Y-46871428D01*
X64757142Y-46957142D01*
X65442857Y-46957142D01*
X63300000Y-46014285D02*
X62957142Y-46014285D01*
X62785714Y-46100000D01*
X62614285Y-46271428D01*
X62528571Y-46614285D01*
X62528571Y-47214285D01*
X62614285Y-47557142D01*
X62785714Y-47728571D01*
X62957142Y-47814285D01*
X63300000Y-47814285D01*
X63471428Y-47728571D01*
X63642857Y-47557142D01*
X63728571Y-47214285D01*
X63728571Y-46614285D01*
X63642857Y-46271428D01*
X63471428Y-46100000D01*
X63300000Y-46014285D01*
X61928571Y-46014285D02*
X61500000Y-47814285D01*
X61157142Y-46528571D01*
X60814285Y-47814285D01*
X60385714Y-46014285D01*
X64800000Y-49014285D02*
X64457142Y-49014285D01*
X64285714Y-49100000D01*
X64114285Y-49271428D01*
X64028571Y-49614285D01*
X64028571Y-50214285D01*
X64114285Y-50557142D01*
X64285714Y-50728571D01*
X64457142Y-50814285D01*
X64800000Y-50814285D01*
X64971428Y-50728571D01*
X65142857Y-50557142D01*
X65228571Y-50214285D01*
X65228571Y-49614285D01*
X65142857Y-49271428D01*
X64971428Y-49100000D01*
X64800000Y-49014285D01*
X63257142Y-49014285D02*
X63257142Y-50471428D01*
X63171428Y-50642857D01*
X63085714Y-50728571D01*
X62914285Y-50814285D01*
X62571428Y-50814285D01*
X62400000Y-50728571D01*
X62314285Y-50642857D01*
X62228571Y-50471428D01*
X62228571Y-49014285D01*
X61628571Y-49014285D02*
X60600000Y-49014285D01*
X61114285Y-50814285D02*
X61114285Y-49014285D01*
D12*
X71000000Y-49500000D02*
X71000000Y-45500000D01*
D11*
X67866666Y-48366666D02*
X67866666Y-49166666D01*
X67866666Y-48766666D02*
X69266666Y-48766666D01*
X69066666Y-48900000D01*
X68933333Y-49033333D01*
X68866666Y-49166666D01*
X69133333Y-47833333D02*
X69200000Y-47766666D01*
X69266666Y-47633333D01*
X69266666Y-47300000D01*
X69200000Y-47166666D01*
X69133333Y-47100000D01*
X69000000Y-47033333D01*
X68866666Y-47033333D01*
X68666666Y-47100000D01*
X67866666Y-47900000D01*
X67866666Y-47033333D01*
X69266666Y-46633333D02*
X67866666Y-46166666D01*
X69266666Y-45700000D01*
X73700000Y-48566666D02*
X73766666Y-48700000D01*
X73766666Y-48900000D01*
X73700000Y-49100000D01*
X73566666Y-49233333D01*
X73433333Y-49300000D01*
X73166666Y-49366666D01*
X72966666Y-49366666D01*
X72700000Y-49300000D01*
X72566666Y-49233333D01*
X72433333Y-49100000D01*
X72366666Y-48900000D01*
X72366666Y-48766666D01*
X72433333Y-48566666D01*
X72500000Y-48500000D01*
X72966666Y-48500000D01*
X72966666Y-48766666D01*
X72366666Y-47900000D02*
X73766666Y-47900000D01*
X72366666Y-47100000D01*
X73766666Y-47100000D01*
X72366666Y-46433333D02*
X73766666Y-46433333D01*
X73766666Y-46100000D01*
X73700000Y-45900000D01*
X73566666Y-45766666D01*
X73433333Y-45700000D01*
X73166666Y-45633333D01*
X72966666Y-45633333D01*
X72700000Y-45700000D01*
X72566666Y-45766666D01*
X72433333Y-45900000D01*
X72366666Y-46100000D01*
X72366666Y-46433333D01*
D12*
X37500000Y-64000000D02*
X30500000Y-64000000D01*
D11*
X35066666Y-61300000D02*
X35200000Y-61233333D01*
X35400000Y-61233333D01*
X35600000Y-61300000D01*
X35733333Y-61433333D01*
X35800000Y-61566666D01*
X35866666Y-61833333D01*
X35866666Y-62033333D01*
X35800000Y-62300000D01*
X35733333Y-62433333D01*
X35600000Y-62566666D01*
X35400000Y-62633333D01*
X35266666Y-62633333D01*
X35066666Y-62566666D01*
X35000000Y-62500000D01*
X35000000Y-62033333D01*
X35266666Y-62033333D01*
X34400000Y-62633333D02*
X34400000Y-61233333D01*
X33600000Y-62633333D01*
X33600000Y-61233333D01*
X32933333Y-62633333D02*
X32933333Y-61233333D01*
X32600000Y-61233333D01*
X32400000Y-61300000D01*
X32266666Y-61433333D01*
X32200000Y-61566666D01*
X32133333Y-61833333D01*
X32133333Y-62033333D01*
X32200000Y-62300000D01*
X32266666Y-62433333D01*
X32400000Y-62566666D01*
X32600000Y-62633333D01*
X32933333Y-62633333D01*
X34866666Y-67133333D02*
X35666666Y-67133333D01*
X35266666Y-67133333D02*
X35266666Y-65733333D01*
X35400000Y-65933333D01*
X35533333Y-66066666D01*
X35666666Y-66133333D01*
X34333333Y-65866666D02*
X34266666Y-65800000D01*
X34133333Y-65733333D01*
X33800000Y-65733333D01*
X33666666Y-65800000D01*
X33600000Y-65866666D01*
X33533333Y-66000000D01*
X33533333Y-66133333D01*
X33600000Y-66333333D01*
X34400000Y-67133333D01*
X33533333Y-67133333D01*
X33133333Y-65733333D02*
X32666666Y-67133333D01*
X32200000Y-65733333D01*
D13*
%TO.C,J12*%
X39790000Y-98790000D02*
X30670000Y-98790000D01*
X30670000Y-98790000D02*
X30670000Y-119370000D01*
X30670000Y-119370000D02*
X39790000Y-119370000D01*
X39790000Y-119370000D02*
X39790000Y-98790000D01*
X39790000Y-107030000D02*
X38480000Y-107030000D01*
X38480000Y-107030000D02*
X38480000Y-100090000D01*
X38480000Y-100090000D02*
X31980000Y-100090000D01*
X31980000Y-100090000D02*
X31980000Y-118070000D01*
X31980000Y-118070000D02*
X38480000Y-118070000D01*
X38480000Y-118070000D02*
X38480000Y-111130000D01*
X38480000Y-111130000D02*
X38480000Y-111130000D01*
X38480000Y-111130000D02*
X39790000Y-111130000D01*
X40180000Y-104000000D02*
X41180000Y-103500000D01*
X41180000Y-103500000D02*
X41180000Y-104500000D01*
X41180000Y-104500000D02*
X40180000Y-104000000D01*
%TO.C,J15*%
X45500000Y-186500000D02*
X46500000Y-185500000D01*
X45500000Y-186500000D02*
X44500000Y-185500000D01*
X38000000Y-171700000D02*
X38000000Y-186700000D01*
X53000000Y-171700000D02*
X38000000Y-171700000D01*
X53000000Y-186700000D02*
X53000000Y-171700000D01*
X38000000Y-186700000D02*
X53000000Y-186700000D01*
%TO.C,J14*%
X66833333Y-186500000D02*
X67833333Y-185500000D01*
X66833333Y-186500000D02*
X65833333Y-185500000D01*
X59333333Y-171700000D02*
X59333333Y-186700000D01*
X74333333Y-171700000D02*
X59333333Y-171700000D01*
X74333333Y-186700000D02*
X74333333Y-171700000D01*
X59333333Y-186700000D02*
X74333333Y-186700000D01*
%TO.C,J13*%
X88166666Y-186500000D02*
X89166666Y-185500000D01*
X88166666Y-186500000D02*
X87166666Y-185500000D01*
X80666666Y-171700000D02*
X80666666Y-186700000D01*
X95666666Y-171700000D02*
X80666666Y-171700000D01*
X95666666Y-186700000D02*
X95666666Y-171700000D01*
X80666666Y-186700000D02*
X95666666Y-186700000D01*
%TO.C,J7*%
X109500000Y-186500000D02*
X110500000Y-185500000D01*
X109500000Y-186500000D02*
X108500000Y-185500000D01*
X102000000Y-171700000D02*
X102000000Y-186700000D01*
X117000000Y-171700000D02*
X102000000Y-171700000D01*
X117000000Y-186700000D02*
X117000000Y-171700000D01*
X102000000Y-186700000D02*
X117000000Y-186700000D01*
%TO.C,J4*%
X139830000Y-103670000D02*
X138500000Y-103670000D01*
X139830000Y-105000000D02*
X139830000Y-103670000D01*
X139830000Y-106270000D02*
X137170000Y-106270000D01*
X137170000Y-106270000D02*
X137170000Y-111410000D01*
X139830000Y-106270000D02*
X139830000Y-111410000D01*
X139830000Y-111410000D02*
X137170000Y-111410000D01*
%TO.C,J10*%
X39790000Y-75290000D02*
X30670000Y-75290000D01*
X30670000Y-75290000D02*
X30670000Y-95870000D01*
X30670000Y-95870000D02*
X39790000Y-95870000D01*
X39790000Y-95870000D02*
X39790000Y-75290000D01*
X39790000Y-83530000D02*
X38480000Y-83530000D01*
X38480000Y-83530000D02*
X38480000Y-76590000D01*
X38480000Y-76590000D02*
X31980000Y-76590000D01*
X31980000Y-76590000D02*
X31980000Y-94570000D01*
X31980000Y-94570000D02*
X38480000Y-94570000D01*
X38480000Y-94570000D02*
X38480000Y-87630000D01*
X38480000Y-87630000D02*
X38480000Y-87630000D01*
X38480000Y-87630000D02*
X39790000Y-87630000D01*
X40180000Y-80500000D02*
X41180000Y-80000000D01*
X41180000Y-80000000D02*
X41180000Y-81000000D01*
X41180000Y-81000000D02*
X40180000Y-80500000D01*
%TO.C,J8*%
X143290000Y-56790000D02*
X134170000Y-56790000D01*
X134170000Y-56790000D02*
X134170000Y-77370000D01*
X134170000Y-77370000D02*
X143290000Y-77370000D01*
X143290000Y-77370000D02*
X143290000Y-56790000D01*
X143290000Y-65030000D02*
X141980000Y-65030000D01*
X141980000Y-65030000D02*
X141980000Y-58090000D01*
X141980000Y-58090000D02*
X135480000Y-58090000D01*
X135480000Y-58090000D02*
X135480000Y-76070000D01*
X135480000Y-76070000D02*
X141980000Y-76070000D01*
X141980000Y-76070000D02*
X141980000Y-69130000D01*
X141980000Y-69130000D02*
X141980000Y-69130000D01*
X141980000Y-69130000D02*
X143290000Y-69130000D01*
X143680000Y-62000000D02*
X144680000Y-61500000D01*
X144680000Y-61500000D02*
X144680000Y-62500000D01*
X144680000Y-62500000D02*
X143680000Y-62000000D01*
%TO.C,J6*%
X143290000Y-81790000D02*
X134170000Y-81790000D01*
X134170000Y-81790000D02*
X134170000Y-102370000D01*
X134170000Y-102370000D02*
X143290000Y-102370000D01*
X143290000Y-102370000D02*
X143290000Y-81790000D01*
X143290000Y-90030000D02*
X141980000Y-90030000D01*
X141980000Y-90030000D02*
X141980000Y-83090000D01*
X141980000Y-83090000D02*
X135480000Y-83090000D01*
X135480000Y-83090000D02*
X135480000Y-101070000D01*
X135480000Y-101070000D02*
X141980000Y-101070000D01*
X141980000Y-101070000D02*
X141980000Y-94130000D01*
X141980000Y-94130000D02*
X141980000Y-94130000D01*
X141980000Y-94130000D02*
X143290000Y-94130000D01*
X143680000Y-87000000D02*
X144680000Y-86500000D01*
X144680000Y-86500000D02*
X144680000Y-87500000D01*
X144680000Y-87500000D02*
X143680000Y-87000000D01*
%TO.C,J1*%
X70680000Y-55500000D02*
G75*
G03*
X70680000Y-55500000I-2180000J0D01*
G01*
X75680000Y-55500000D02*
G75*
G03*
X75680000Y-55500000I-2180000J0D01*
G01*
X65940000Y-50900000D02*
X76060000Y-50900000D01*
X65940000Y-52000000D02*
X76060000Y-52000000D01*
X65940000Y-59560000D02*
X76060000Y-59560000D01*
X65940000Y-50440000D02*
X76060000Y-50440000D01*
X65940000Y-59560000D02*
X65940000Y-50440000D01*
X76060000Y-59560000D02*
X76060000Y-50440000D01*
X70154000Y-56888000D02*
X70047000Y-56781000D01*
X67218000Y-53953000D02*
X67112000Y-53846000D01*
X69888000Y-57154000D02*
X69781000Y-57047000D01*
X66952000Y-54219000D02*
X66846000Y-54112000D01*
X75154000Y-56888000D02*
X74759000Y-56492000D01*
X72493000Y-54226000D02*
X72113000Y-53846000D01*
X74888000Y-57154000D02*
X74508000Y-56774000D01*
X72242000Y-54508000D02*
X71847000Y-54112000D01*
X65700000Y-50840000D02*
X65700000Y-50200000D01*
X65700000Y-50200000D02*
X66100000Y-50200000D01*
%TO.C,J2*%
X37700000Y-68800000D02*
X37700000Y-68400000D01*
X38340000Y-68800000D02*
X37700000Y-68800000D01*
X42008000Y-62258000D02*
X41612000Y-62653000D01*
X44654000Y-59612000D02*
X44274000Y-59992000D01*
X41726000Y-62007000D02*
X41346000Y-62387000D01*
X44388000Y-59346000D02*
X43992000Y-59741000D01*
X41719000Y-67548000D02*
X41612000Y-67654000D01*
X44654000Y-64612000D02*
X44547000Y-64719000D01*
X41453000Y-67282000D02*
X41346000Y-67388000D01*
X44388000Y-64346000D02*
X44281000Y-64453000D01*
X47060000Y-58440000D02*
X37940000Y-58440000D01*
X47060000Y-68560000D02*
X37940000Y-68560000D01*
X37940000Y-68560000D02*
X37940000Y-58440000D01*
X47060000Y-68560000D02*
X47060000Y-58440000D01*
X39500000Y-68560000D02*
X39500000Y-58440000D01*
X38400000Y-68560000D02*
X38400000Y-58440000D01*
X45180000Y-61000000D02*
G75*
G03*
X45180000Y-61000000I-2180000J0D01*
G01*
X45180000Y-66000000D02*
G75*
G03*
X45180000Y-66000000I-2180000J0D01*
G01*
%TO.C,J12*%
D14*
X40452380Y-99190476D02*
X41166666Y-99190476D01*
X41309523Y-99142857D01*
X41404761Y-99047619D01*
X41452380Y-98904761D01*
X41452380Y-98809523D01*
X41452380Y-100190476D02*
X41452380Y-99619047D01*
X41452380Y-99904761D02*
X40452380Y-99904761D01*
X40595238Y-99809523D01*
X40690476Y-99714285D01*
X40738095Y-99619047D01*
X40547619Y-100571428D02*
X40500000Y-100619047D01*
X40452380Y-100714285D01*
X40452380Y-100952380D01*
X40500000Y-101047619D01*
X40547619Y-101095238D01*
X40642857Y-101142857D01*
X40738095Y-101142857D01*
X40880952Y-101095238D01*
X41452380Y-100523809D01*
X41452380Y-101142857D01*
%TO.C,J15*%
X53452380Y-184690476D02*
X54166666Y-184690476D01*
X54309523Y-184642857D01*
X54404761Y-184547619D01*
X54452380Y-184404761D01*
X54452380Y-184309523D01*
X54452380Y-185690476D02*
X54452380Y-185119047D01*
X54452380Y-185404761D02*
X53452380Y-185404761D01*
X53595238Y-185309523D01*
X53690476Y-185214285D01*
X53738095Y-185119047D01*
X53452380Y-186595238D02*
X53452380Y-186119047D01*
X53928571Y-186071428D01*
X53880952Y-186119047D01*
X53833333Y-186214285D01*
X53833333Y-186452380D01*
X53880952Y-186547619D01*
X53928571Y-186595238D01*
X54023809Y-186642857D01*
X54261904Y-186642857D01*
X54357142Y-186595238D01*
X54404761Y-186547619D01*
X54452380Y-186452380D01*
X54452380Y-186214285D01*
X54404761Y-186119047D01*
X54357142Y-186071428D01*
%TO.C,J14*%
X74785713Y-184690476D02*
X75499999Y-184690476D01*
X75642856Y-184642857D01*
X75738094Y-184547619D01*
X75785713Y-184404761D01*
X75785713Y-184309523D01*
X75785713Y-185690476D02*
X75785713Y-185119047D01*
X75785713Y-185404761D02*
X74785713Y-185404761D01*
X74928571Y-185309523D01*
X75023809Y-185214285D01*
X75071428Y-185119047D01*
X75119047Y-186547619D02*
X75785713Y-186547619D01*
X74738094Y-186309523D02*
X75452380Y-186071428D01*
X75452380Y-186690476D01*
%TO.C,J13*%
X96119046Y-184690476D02*
X96833332Y-184690476D01*
X96976189Y-184642857D01*
X97071427Y-184547619D01*
X97119046Y-184404761D01*
X97119046Y-184309523D01*
X97119046Y-185690476D02*
X97119046Y-185119047D01*
X97119046Y-185404761D02*
X96119046Y-185404761D01*
X96261904Y-185309523D01*
X96357142Y-185214285D01*
X96404761Y-185119047D01*
X96119046Y-186023809D02*
X96119046Y-186642857D01*
X96499999Y-186309523D01*
X96499999Y-186452380D01*
X96547618Y-186547619D01*
X96595237Y-186595238D01*
X96690475Y-186642857D01*
X96928570Y-186642857D01*
X97023808Y-186595238D01*
X97071427Y-186547619D01*
X97119046Y-186452380D01*
X97119046Y-186166666D01*
X97071427Y-186071428D01*
X97023808Y-186023809D01*
%TO.C,J7*%
X117452380Y-185666666D02*
X118166666Y-185666666D01*
X118309523Y-185619047D01*
X118404761Y-185523809D01*
X118452380Y-185380952D01*
X118452380Y-185285714D01*
X117452380Y-186047619D02*
X117452380Y-186714285D01*
X118452380Y-186285714D01*
%TO.C,J4*%
X136333333Y-110952380D02*
X136333333Y-111666666D01*
X136380952Y-111809523D01*
X136476190Y-111904761D01*
X136619047Y-111952380D01*
X136714285Y-111952380D01*
X135428571Y-111285714D02*
X135428571Y-111952380D01*
X135666666Y-110904761D02*
X135904761Y-111619047D01*
X135285714Y-111619047D01*
%TO.C,J10*%
X40452380Y-76190476D02*
X41166666Y-76190476D01*
X41309523Y-76142857D01*
X41404761Y-76047619D01*
X41452380Y-75904761D01*
X41452380Y-75809523D01*
X41452380Y-77190476D02*
X41452380Y-76619047D01*
X41452380Y-76904761D02*
X40452380Y-76904761D01*
X40595238Y-76809523D01*
X40690476Y-76714285D01*
X40738095Y-76619047D01*
X40452380Y-77809523D02*
X40452380Y-77904761D01*
X40500000Y-78000000D01*
X40547619Y-78047619D01*
X40642857Y-78095238D01*
X40833333Y-78142857D01*
X41071428Y-78142857D01*
X41261904Y-78095238D01*
X41357142Y-78047619D01*
X41404761Y-78000000D01*
X41452380Y-77904761D01*
X41452380Y-77809523D01*
X41404761Y-77714285D01*
X41357142Y-77666666D01*
X41261904Y-77619047D01*
X41071428Y-77571428D01*
X40833333Y-77571428D01*
X40642857Y-77619047D01*
X40547619Y-77666666D01*
X40500000Y-77714285D01*
X40452380Y-77809523D01*
%TO.C,J8*%
X142333333Y-55352380D02*
X142333333Y-56066666D01*
X142380952Y-56209523D01*
X142476190Y-56304761D01*
X142619047Y-56352380D01*
X142714285Y-56352380D01*
X141714285Y-55780952D02*
X141809523Y-55733333D01*
X141857142Y-55685714D01*
X141904761Y-55590476D01*
X141904761Y-55542857D01*
X141857142Y-55447619D01*
X141809523Y-55400000D01*
X141714285Y-55352380D01*
X141523809Y-55352380D01*
X141428571Y-55400000D01*
X141380952Y-55447619D01*
X141333333Y-55542857D01*
X141333333Y-55590476D01*
X141380952Y-55685714D01*
X141428571Y-55733333D01*
X141523809Y-55780952D01*
X141714285Y-55780952D01*
X141809523Y-55828571D01*
X141857142Y-55876190D01*
X141904761Y-55971428D01*
X141904761Y-56161904D01*
X141857142Y-56257142D01*
X141809523Y-56304761D01*
X141714285Y-56352380D01*
X141523809Y-56352380D01*
X141428571Y-56304761D01*
X141380952Y-56257142D01*
X141333333Y-56161904D01*
X141333333Y-55971428D01*
X141380952Y-55876190D01*
X141428571Y-55828571D01*
X141523809Y-55780952D01*
%TO.C,J6*%
X142333333Y-80452380D02*
X142333333Y-81166666D01*
X142380952Y-81309523D01*
X142476190Y-81404761D01*
X142619047Y-81452380D01*
X142714285Y-81452380D01*
X141428571Y-80452380D02*
X141619047Y-80452380D01*
X141714285Y-80500000D01*
X141761904Y-80547619D01*
X141857142Y-80690476D01*
X141904761Y-80880952D01*
X141904761Y-81261904D01*
X141857142Y-81357142D01*
X141809523Y-81404761D01*
X141714285Y-81452380D01*
X141523809Y-81452380D01*
X141428571Y-81404761D01*
X141380952Y-81357142D01*
X141333333Y-81261904D01*
X141333333Y-81023809D01*
X141380952Y-80928571D01*
X141428571Y-80880952D01*
X141523809Y-80833333D01*
X141714285Y-80833333D01*
X141809523Y-80880952D01*
X141857142Y-80928571D01*
X141904761Y-81023809D01*
%TO.C,J1*%
X64833333Y-56952380D02*
X64833333Y-57666666D01*
X64880952Y-57809523D01*
X64976190Y-57904761D01*
X65119047Y-57952380D01*
X65214285Y-57952380D01*
X63833333Y-57952380D02*
X64404761Y-57952380D01*
X64119047Y-57952380D02*
X64119047Y-56952380D01*
X64214285Y-57095238D01*
X64309523Y-57190476D01*
X64404761Y-57238095D01*
%TO.C,J2*%
X46333333Y-68952380D02*
X46333333Y-69666666D01*
X46380952Y-69809523D01*
X46476190Y-69904761D01*
X46619047Y-69952380D01*
X46714285Y-69952380D01*
X45904761Y-69047619D02*
X45857142Y-69000000D01*
X45761904Y-68952380D01*
X45523809Y-68952380D01*
X45428571Y-69000000D01*
X45380952Y-69047619D01*
X45333333Y-69142857D01*
X45333333Y-69238095D01*
X45380952Y-69380952D01*
X45952380Y-69952380D01*
X45333333Y-69952380D01*
%TD*%
M02*
